# MagicaVoxel @ Ephtracy

# group
o 

# material
mtllib tnt spawner handler button down.mtl
usemtl palette

# normals
vn -1 0 0
vn 1 0 0
vn 0 0 1
vn 0 0 -1
vn 0 -1 0
vn 0 1 0

# texcoords
vt 0.158203 0.5
vt 0.990234 0.5

# verts
v 2.7 7.8 -1.5
v 2.7 7.8 -1.7
v 2.7 7.9 -1.7
v 2.7 7.9 -1.8
v 2.7 8 -1.5
v 2.7 8 -1.6
v 2.7 8.1 -1.6
v 2.7 8.1 -1.8
v 2.8 7.7 -1.4
v 2.8 7.7 -1.6
v 2.8 7.8 -1.5
v 2.8 7.8 -1.6
v 2.8 7.9 -1.4
v 2.8 7.9 -1.5
v 2.9 7.6 -1.3
v 2.9 7.6 -1.5
v 2.9 7.7 -1.4
v 2.9 7.7 -1.5
v 2.9 7.8 -1.3
v 2.9 7.8 -1.4
v 3 7.5 -1.2
v 3 7.5 -1.4
v 3 7.6 -1.3
v 3 7.6 -1.4
v 3 7.7 -1.2
v 3 7.7 -1.3
v 3.1 7.4 -1.1
v 3.1 7.4 -1.3
v 3.1 7.5 -1.2
v 3.1 7.5 -1.3
v 3.1 7.6 -1.1
v 3.1 7.6 -1.2
v 3.2 7.3 -1
v 3.2 7.3 -1.2
v 3.2 7.4 -1.1
v 3.2 7.4 -1.2
v 3.2 7.6 -1
v 3.2 7.6 -1.1
v 3.6 7.3 -1
v 3.6 7.3 -1.2
v 3.6 7.4 -1.1
v 3.6 7.4 -1.2
v 3.6 7.6 -1
v 3.6 7.6 -1.1
v 3.7 7.4 -1.1
v 3.7 7.4 -1.3
v 3.7 7.5 -1.2
v 3.7 7.5 -1.3
v 3.7 7.6 -1.1
v 3.7 7.6 -1.2
v 3.8 7.5 -1.2
v 3.8 7.5 -1.4
v 3.8 7.6 -1.3
v 3.8 7.6 -1.4
v 3.8 7.7 -1.2
v 3.8 7.7 -1.3
v 3.9 7.6 -1.3
v 3.9 7.6 -1.5
v 3.9 7.7 -1.4
v 3.9 7.7 -1.5
v 3.9 7.8 -1.3
v 3.9 7.8 -1.4
v 4 7.7 -1.4
v 4 7.7 -1.6
v 4 7.8 -1.5
v 4 7.8 -1.6
v 4 7.9 -1.4
v 4 7.9 -1.5
v 4.1 7.8 -1.5
v 4.1 7.8 -1.7
v 4.1 7.9 -1.7
v 4.1 7.9 -1.8
v 4.1 8 -1.5
v 4.1 8 -1.6
v 4.1 8.1 -1.6
v 4.1 8.1 -1.8
v 3.2 7.3 -1
v 3.2 7.6 -1
v 3.6 7.3 -1
v 3.6 7.6 -1
v 3.1 7.4 -1.1
v 3.1 7.6 -1.1
v 3.2 7.4 -1.1
v 3.2 7.6 -1.1
v 3.6 7.4 -1.1
v 3.6 7.6 -1.1
v 3.7 7.4 -1.1
v 3.7 7.6 -1.1
v 3 7.5 -1.2
v 3 7.7 -1.2
v 3.1 7.5 -1.2
v 3.1 7.6 -1.2
v 3.2 7.6 -1.2
v 3.2 7.7 -1.2
v 3.3 7.6 -1.2
v 3.5 7.6 -1.2
v 3.6 7.6 -1.2
v 3.6 7.7 -1.2
v 3.7 7.5 -1.2
v 3.7 7.6 -1.2
v 3.8 7.5 -1.2
v 3.8 7.7 -1.2
v 2.9 7.6 -1.3
v 2.9 7.8 -1.3
v 3 7.6 -1.3
v 3 7.7 -1.3
v 3.1 7.7 -1.3
v 3.1 7.8 -1.3
v 3.2 7.7 -1.3
v 3.6 7.7 -1.3
v 3.7 7.7 -1.3
v 3.7 7.8 -1.3
v 3.8 7.6 -1.3
v 3.8 7.7 -1.3
v 3.9 7.6 -1.3
v 3.9 7.8 -1.3
v 2.8 7.7 -1.4
v 2.8 7.9 -1.4
v 2.9 7.7 -1.4
v 2.9 7.8 -1.4
v 3 7.8 -1.4
v 3 7.9 -1.4
v 3.1 7.8 -1.4
v 3.7 7.8 -1.4
v 3.8 7.8 -1.4
v 3.8 7.9 -1.4
v 3.9 7.7 -1.4
v 3.9 7.8 -1.4
v 4 7.7 -1.4
v 4 7.9 -1.4
v 2.7 7.8 -1.5
v 2.7 8 -1.5
v 2.8 7.8 -1.5
v 2.8 7.9 -1.5
v 2.9 7.9 -1.5
v 2.9 8 -1.5
v 3 7.9 -1.5
v 3.8 7.9 -1.5
v 3.9 7.9 -1.5
v 3.9 8 -1.5
v 4 7.8 -1.5
v 4 7.9 -1.5
v 4.1 7.8 -1.5
v 4.1 8 -1.5
v 2.7 8 -1.6
v 2.7 8.1 -1.6
v 2.8 8 -1.6
v 2.8 8.1 -1.6
v 2.9 8 -1.6
v 3.9 8 -1.6
v 4 8 -1.6
v 4 8.1 -1.6
v 4.1 8 -1.6
v 4.1 8.1 -1.6
v 3.2 7.3 -1.2
v 3.2 7.4 -1.2
v 3.6 7.3 -1.2
v 3.6 7.4 -1.2
v 3.1 7.4 -1.3
v 3.1 7.5 -1.3
v 3.7 7.4 -1.3
v 3.7 7.5 -1.3
v 3 7.5 -1.4
v 3 7.6 -1.4
v 3.8 7.5 -1.4
v 3.8 7.6 -1.4
v 2.9 7.6 -1.5
v 2.9 7.7 -1.5
v 3.9 7.6 -1.5
v 3.9 7.7 -1.5
v 2.8 7.7 -1.6
v 2.8 7.8 -1.6
v 4 7.7 -1.6
v 4 7.8 -1.6
v 2.7 7.8 -1.7
v 2.7 7.9 -1.7
v 4.1 7.8 -1.7
v 4.1 7.9 -1.7
v 2.7 7.9 -1.8
v 2.7 8.1 -1.8
v 4.1 7.9 -1.8
v 4.1 8.1 -1.8
v 3.2 7.3 -1
v 3.6 7.3 -1
v 3.2 7.3 -1.2
v 3.6 7.3 -1.2
v 3.1 7.4 -1.1
v 3.2 7.4 -1.1
v 3.6 7.4 -1.1
v 3.7 7.4 -1.1
v 3.2 7.4 -1.2
v 3.6 7.4 -1.2
v 3.1 7.4 -1.3
v 3.7 7.4 -1.3
v 3 7.5 -1.2
v 3.1 7.5 -1.2
v 3.7 7.5 -1.2
v 3.8 7.5 -1.2
v 3.1 7.5 -1.3
v 3.7 7.5 -1.3
v 3 7.5 -1.4
v 3.8 7.5 -1.4
v 2.9 7.6 -1.3
v 3 7.6 -1.3
v 3.8 7.6 -1.3
v 3.9 7.6 -1.3
v 3 7.6 -1.4
v 3.8 7.6 -1.4
v 2.9 7.6 -1.5
v 3.9 7.6 -1.5
v 2.8 7.7 -1.4
v 2.9 7.7 -1.4
v 3.9 7.7 -1.4
v 4 7.7 -1.4
v 2.9 7.7 -1.5
v 3.9 7.7 -1.5
v 2.8 7.7 -1.6
v 4 7.7 -1.6
v 2.7 7.8 -1.5
v 2.8 7.8 -1.5
v 4 7.8 -1.5
v 4.1 7.8 -1.5
v 2.8 7.8 -1.6
v 4 7.8 -1.6
v 2.7 7.8 -1.7
v 4.1 7.8 -1.7
v 2.7 7.9 -1.7
v 4.1 7.9 -1.7
v 2.7 7.9 -1.8
v 4.1 7.9 -1.8
v 3.2 7.6 -1
v 3.6 7.6 -1
v 3.1 7.6 -1.1
v 3.2 7.6 -1.1
v 3.3 7.6 -1.1
v 3.5 7.6 -1.1
v 3.6 7.6 -1.1
v 3.7 7.6 -1.1
v 3.1 7.6 -1.2
v 3.2 7.6 -1.2
v 3.3 7.6 -1.2
v 3.5 7.6 -1.2
v 3.6 7.6 -1.2
v 3.7 7.6 -1.2
v 3 7.7 -1.2
v 3.2 7.7 -1.2
v 3.6 7.7 -1.2
v 3.8 7.7 -1.2
v 3 7.7 -1.3
v 3.1 7.7 -1.3
v 3.2 7.7 -1.3
v 3.6 7.7 -1.3
v 3.7 7.7 -1.3
v 3.8 7.7 -1.3
v 2.9 7.8 -1.3
v 3.1 7.8 -1.3
v 3.7 7.8 -1.3
v 3.9 7.8 -1.3
v 2.9 7.8 -1.4
v 3 7.8 -1.4
v 3.1 7.8 -1.4
v 3.7 7.8 -1.4
v 3.8 7.8 -1.4
v 3.9 7.8 -1.4
v 2.8 7.9 -1.4
v 3 7.9 -1.4
v 3.8 7.9 -1.4
v 4 7.9 -1.4
v 2.8 7.9 -1.5
v 2.9 7.9 -1.5
v 3 7.9 -1.5
v 3.8 7.9 -1.5
v 3.9 7.9 -1.5
v 4 7.9 -1.5
v 2.7 8 -1.5
v 2.9 8 -1.5
v 3.9 8 -1.5
v 4.1 8 -1.5
v 2.7 8 -1.6
v 2.8 8 -1.6
v 2.9 8 -1.6
v 3.9 8 -1.6
v 4 8 -1.6
v 4.1 8 -1.6
v 2.7 8.1 -1.6
v 2.8 8.1 -1.6
v 4 8.1 -1.6
v 4.1 8.1 -1.6
v 2.8 8.1 -1.7
v 4 8.1 -1.7
v 2.7 8.1 -1.8
v 4.1 8.1 -1.8

# faces
f 3/2/1 2/2/1 1/2/1
f 5/2/1 3/2/1 1/2/1
f 5/2/1 4/2/1 3/2/1
f 6/2/1 4/2/1 5/2/1
f 7/2/1 4/2/1 6/2/1
f 8/2/1 4/2/1 7/2/1
f 11/2/1 10/2/1 9/2/1
f 12/2/1 10/2/1 11/2/1
f 13/2/1 11/2/1 9/2/1
f 14/2/1 11/2/1 13/2/1
f 17/2/1 16/2/1 15/2/1
f 18/2/1 16/2/1 17/2/1
f 19/2/1 17/2/1 15/2/1
f 20/2/1 17/2/1 19/2/1
f 23/2/1 22/2/1 21/2/1
f 24/2/1 22/2/1 23/2/1
f 25/2/1 23/2/1 21/2/1
f 26/2/1 23/2/1 25/2/1
f 29/2/1 28/2/1 27/2/1
f 30/2/1 28/2/1 29/2/1
f 31/2/1 29/2/1 27/2/1
f 32/2/1 29/2/1 31/2/1
f 35/2/1 34/2/1 33/2/1
f 36/2/1 34/2/1 35/2/1
f 37/2/1 35/2/1 33/2/1
f 38/2/1 35/2/1 37/2/1
f 39/2/2 40/2/2 41/2/2
f 41/2/2 40/2/2 42/2/2
f 39/2/2 41/2/2 43/2/2
f 43/2/2 41/2/2 44/2/2
f 45/2/2 46/2/2 47/2/2
f 47/2/2 46/2/2 48/2/2
f 45/2/2 47/2/2 49/2/2
f 49/2/2 47/2/2 50/2/2
f 51/2/2 52/2/2 53/2/2
f 53/2/2 52/2/2 54/2/2
f 51/2/2 53/2/2 55/2/2
f 55/2/2 53/2/2 56/2/2
f 57/2/2 58/2/2 59/2/2
f 59/2/2 58/2/2 60/2/2
f 57/2/2 59/2/2 61/2/2
f 61/2/2 59/2/2 62/2/2
f 63/2/2 64/2/2 65/2/2
f 65/2/2 64/2/2 66/2/2
f 63/2/2 65/2/2 67/2/2
f 67/2/2 65/2/2 68/2/2
f 69/2/2 70/2/2 71/2/2
f 69/2/2 71/2/2 73/2/2
f 71/2/2 72/2/2 73/2/2
f 73/2/2 72/2/2 74/2/2
f 74/2/2 72/2/2 75/2/2
f 75/2/2 72/2/2 76/2/2
f 79/2/3 78/2/3 77/2/3
f 80/2/3 78/2/3 79/2/3
f 83/2/3 82/2/3 81/2/3
f 84/2/3 82/2/3 83/2/3
f 87/2/3 86/2/3 85/2/3
f 88/2/3 86/2/3 87/2/3
f 91/2/3 90/2/3 89/2/3
f 92/2/3 90/2/3 91/2/3
f 93/2/3 90/2/3 92/2/3
f 94/2/3 90/2/3 93/2/3
f 95/1/3 94/1/3 93/1/3
f 96/1/3 94/1/3 95/1/3
f 97/1/3 94/1/3 96/1/3
f 98/1/3 94/1/3 97/1/3
f 100/2/3 98/2/3 97/2/3
f 101/2/3 100/2/3 99/2/3
f 102/2/3 98/2/3 100/2/3
f 102/2/3 100/2/3 101/2/3
f 105/2/3 104/2/3 103/2/3
f 106/2/3 104/2/3 105/2/3
f 107/2/3 104/2/3 106/2/3
f 108/2/3 104/2/3 107/2/3
f 109/1/3 108/1/3 107/1/3
f 110/1/3 108/1/3 109/1/3
f 111/1/3 108/1/3 110/1/3
f 112/1/3 108/1/3 111/1/3
f 114/2/3 112/2/3 111/2/3
f 115/2/3 114/2/3 113/2/3
f 116/2/3 112/2/3 114/2/3
f 116/2/3 114/2/3 115/2/3
f 119/2/3 118/2/3 117/2/3
f 120/2/3 118/2/3 119/2/3
f 121/2/3 118/2/3 120/2/3
f 122/2/3 118/2/3 121/2/3
f 123/1/3 122/1/3 121/1/3
f 124/1/3 122/1/3 123/1/3
f 125/1/3 122/1/3 124/1/3
f 126/1/3 122/1/3 125/1/3
f 128/2/3 126/2/3 125/2/3
f 129/2/3 128/2/3 127/2/3
f 130/2/3 126/2/3 128/2/3
f 130/2/3 128/2/3 129/2/3
f 133/2/3 132/2/3 131/2/3
f 134/2/3 132/2/3 133/2/3
f 135/2/3 132/2/3 134/2/3
f 136/2/3 132/2/3 135/2/3
f 137/1/3 136/1/3 135/1/3
f 138/1/3 136/1/3 137/1/3
f 139/1/3 136/1/3 138/1/3
f 140/1/3 136/1/3 139/1/3
f 142/2/3 140/2/3 139/2/3
f 143/2/3 142/2/3 141/2/3
f 144/2/3 140/2/3 142/2/3
f 144/2/3 142/2/3 143/2/3
f 147/2/3 146/2/3 145/2/3
f 148/2/3 146/2/3 147/2/3
f 149/1/3 148/1/3 147/1/3
f 150/1/3 148/1/3 149/1/3
f 151/1/3 148/1/3 150/1/3
f 152/1/3 148/1/3 151/1/3
f 153/2/3 152/2/3 151/2/3
f 154/2/3 152/2/3 153/2/3
f 155/2/4 156/2/4 157/2/4
f 157/2/4 156/2/4 158/2/4
f 159/2/4 160/2/4 161/2/4
f 161/2/4 160/2/4 162/2/4
f 163/2/4 164/2/4 165/2/4
f 165/2/4 164/2/4 166/2/4
f 167/2/4 168/2/4 169/2/4
f 169/2/4 168/2/4 170/2/4
f 171/2/4 172/2/4 173/2/4
f 173/2/4 172/2/4 174/2/4
f 175/2/4 176/2/4 177/2/4
f 177/2/4 176/2/4 178/2/4
f 179/2/4 180/2/4 181/2/4
f 181/2/4 180/2/4 182/2/4
f 185/2/5 184/2/5 183/2/5
f 186/2/5 184/2/5 185/2/5
f 191/2/5 188/2/5 187/2/5
f 192/2/5 190/2/5 189/2/5
f 193/2/5 191/2/5 187/2/5
f 193/2/5 192/2/5 191/2/5
f 194/2/5 190/2/5 192/2/5
f 194/2/5 192/2/5 193/2/5
f 199/2/5 196/2/5 195/2/5
f 200/2/5 198/2/5 197/2/5
f 201/2/5 199/2/5 195/2/5
f 201/2/5 200/2/5 199/2/5
f 202/2/5 198/2/5 200/2/5
f 202/2/5 200/2/5 201/2/5
f 207/2/5 204/2/5 203/2/5
f 208/2/5 206/2/5 205/2/5
f 209/2/5 207/2/5 203/2/5
f 209/2/5 208/2/5 207/2/5
f 210/2/5 206/2/5 208/2/5
f 210/2/5 208/2/5 209/2/5
f 215/2/5 212/2/5 211/2/5
f 216/2/5 214/2/5 213/2/5
f 217/2/5 215/2/5 211/2/5
f 217/2/5 216/2/5 215/2/5
f 218/2/5 214/2/5 216/2/5
f 218/2/5 216/2/5 217/2/5
f 223/2/5 220/2/5 219/2/5
f 224/2/5 222/2/5 221/2/5
f 225/2/5 223/2/5 219/2/5
f 225/2/5 224/2/5 223/2/5
f 226/2/5 222/2/5 224/2/5
f 226/2/5 224/2/5 225/2/5
f 229/2/5 228/2/5 227/2/5
f 230/2/5 228/2/5 229/2/5
f 231/2/6 232/2/6 234/2/6
f 234/2/6 232/2/6 235/2/6
f 235/2/6 232/2/6 236/2/6
f 236/2/6 232/2/6 237/2/6
f 233/2/6 234/2/6 239/2/6
f 234/2/6 235/2/6 239/2/6
f 239/2/6 235/2/6 240/2/6
f 235/1/6 236/1/6 241/1/6
f 240/2/6 235/2/6 241/2/6
f 237/2/6 238/2/6 242/2/6
f 241/1/6 236/1/6 242/1/6
f 236/2/6 237/2/6 242/2/6
f 242/2/6 238/2/6 243/2/6
f 243/2/6 238/2/6 244/2/6
f 245/2/6 246/2/6 249/2/6
f 249/2/6 246/2/6 250/2/6
f 246/1/6 247/1/6 251/1/6
f 250/2/6 246/2/6 251/2/6
f 247/2/6 248/2/6 252/2/6
f 251/1/6 247/1/6 252/1/6
f 252/2/6 248/2/6 253/2/6
f 253/2/6 248/2/6 254/2/6
f 255/2/6 256/2/6 259/2/6
f 259/2/6 256/2/6 260/2/6
f 256/1/6 257/1/6 261/1/6
f 260/2/6 256/2/6 261/2/6
f 257/2/6 258/2/6 262/2/6
f 261/1/6 257/1/6 262/1/6
f 262/2/6 258/2/6 263/2/6
f 263/2/6 258/2/6 264/2/6
f 265/2/6 266/2/6 269/2/6
f 269/2/6 266/2/6 270/2/6
f 266/1/6 267/1/6 271/1/6
f 270/2/6 266/2/6 271/2/6
f 267/2/6 268/2/6 272/2/6
f 271/1/6 267/1/6 272/1/6
f 272/2/6 268/2/6 273/2/6
f 273/2/6 268/2/6 274/2/6
f 275/2/6 276/2/6 279/2/6
f 279/2/6 276/2/6 280/2/6
f 276/1/6 277/1/6 281/1/6
f 280/2/6 276/2/6 281/2/6
f 277/2/6 278/2/6 282/2/6
f 281/1/6 277/1/6 282/1/6
f 282/2/6 278/2/6 283/2/6
f 283/2/6 278/2/6 284/2/6
f 285/2/6 286/2/6 289/2/6
f 286/1/6 287/1/6 289/1/6
f 287/2/6 288/2/6 290/2/6
f 289/1/6 287/1/6 290/1/6
f 285/2/6 289/2/6 291/2/6
f 289/2/6 290/2/6 291/2/6
f 290/2/6 288/2/6 292/2/6
f 291/2/6 290/2/6 292/2/6
