<svg id="Capa_1" enable-background="new 0 0 512 512" height="512" viewBox="0 0 512 512" width="512" xmlns="http://www.w3.org/2000/svg"><path d="m272.6 170.89v48.55c0 8.28-7.34 15-15.62 15-8.29 0-14.38-6.72-14.38-15v-48.55c0-20.39-16.58-36.97-36.96-36.97-36.93 0-66.97-30.04-66.97-66.96s30.04-66.96 66.97-66.96h51.34c8.28 0 15.39 6.72 15.39 15s-7.11 15-15.39 15h-51.34c-20.38 0-36.97 16.58-36.97 36.96s16.59 36.96 36.97 36.96c20.6 0 39.05 9.35 51.34 24.03 9.75 11.63 15.62 26.61 15.62 42.94z" fill="#e9dfda"/><path d="m256.98 30v-30c8.28 0 15.39 6.72 15.39 15s-7.11 15-15.39 15z" fill="#dad0cb"/><path d="m256.98 234.44v-106.49c9.75 11.63 15.62 26.61 15.62 42.94v48.55c0 8.28-7.34 15-15.62 15z" fill="#dad0cb"/><path d="m293.79 236.3v38.14c0 2.76-2.24 5-5 5h-63.62c-2.76 0-5-2.24-5-5v-38.14c0-12.05 9.81-21.86 21.86-21.86h29.89c12.06 0 21.87 9.81 21.87 21.86z" fill="#7ed6f4"/><path d="m288.79 279.44h-31.81v-65h14.94c12.06 0 21.87 9.81 21.87 21.86v38.14c0 2.76-2.24 5-5 5z" fill="#6aa7ff"/><path d="m512 297v177.43c0 20.72-16.85 37.57-37.57 37.57h-436.86c-20.72 0-37.57-16.85-37.57-37.57v-177.43c0-20.71 16.85-37.56 37.57-37.56h436.86c20.72 0 37.57 16.85 37.57 37.56z" fill="#f3eee9"/><path d="m512 297v177.43c0 20.72-16.85 37.57-37.57 37.57h-217.45v-252.56h217.45c20.72 0 37.57 16.85 37.57 37.56z" fill="#e9dfda"/><g fill="#002438"><path d="m447.084 308.615c-8.284 0-15 6.716-15 15v46.939h-79.507c-8.284 0-15 6.716-15 15s6.716 15 15 15h94.507c8.284 0 15-6.716 15-15v-61.939c0-8.284-6.716-15-15-15z"/><path d="m352.577 338.615h22.421c8.284 0 15-6.716 15-15s-6.716-15-15-15h-22.421c-8.284 0-15 6.716-15 15s6.716 15 15 15z"/><path d="m280.893 338.615h22.42c8.284 0 15-6.716 15-15s-6.716-15-15-15h-22.42c-8.284 0-15 6.716-15 15s6.715 15 15 15z"/></g><path d="m208.957 338.615h22.42c8.284 0 15-6.716 15-15s-6.716-15-15-15h-22.42c-8.284 0-15 6.716-15 15s6.716 15 15 15z" fill="#07485e"/><path d="m68.957 338.615h22.42c8.284 0 15-6.716 15-15s-6.716-15-15-15h-22.42c-8.284 0-15 6.716-15 15s6.716 15 15 15z" fill="#07485e"/><path d="m138.957 338.615h22.42c8.284 0 15-6.716 15-15s-6.716-15-15-15h-22.42c-8.284 0-15 6.716-15 15s6.716 15 15 15z" fill="#07485e"/><path d="m280.893 400.555h22.42c8.284 0 15-6.716 15-15s-6.716-15-15-15h-22.42c-8.284 0-15 6.716-15 15s6.715 15 15 15z" fill="#002438"/><path d="m208.957 400.555h22.42c8.284 0 15-6.716 15-15s-6.716-15-15-15h-22.42c-8.284 0-15 6.716-15 15s6.716 15 15 15z" fill="#07485e"/><path d="m68.957 400.555h81.21c8.284 0 15-6.716 15-15s-6.716-15-15-15h-81.21c-8.284 0-15 6.716-15 15s6.716 15 15 15z" fill="#07485e"/><path d="m447.084 430.413h-22.42c-8.284 0-15 6.716-15 15s6.716 15 15 15h22.42c8.284 0 15-6.716 15-15s-6.716-15-15-15z" fill="#002438"/><path d="m91.377 430.413h-22.42c-8.284 0-15 6.716-15 15s6.716 15 15 15h22.42c8.284 0 15-6.716 15-15s-6.716-15-15-15z" fill="#07485e"/><path d="m390 445.41c0 8.29-6.72 15-15 15h-236.04c-8.29 0-15-6.71-15-15 0-8.28 6.71-15 15-15h236.04c8.28 0 15 6.72 15 15z" fill="#07485e"/><path d="m390 445.41c0 8.29-6.72 15-15 15h-118.02v-30h118.02c8.28 0 15 6.72 15 15z" fill="#002438"/></svg>