# MagicaVoxel @ Ephtracy

# material
mtllib Going Up1.mtl
usemtl palette

# normals
vn -1 0 0
vn 1 0 0
vn 0 0 1
vn 0 0 -1
vn 0 -1 0
vn 0 1 0

# texcoords
vt 0.0644531 0.5
vt 0.232422 0.5
vt 0.373047 0.5
vt 0.841797 0.5
vt 0.962891 0.5

# verts
v -11 52 5
v -11 52 -5
v -11 58 5
v -11 58 -5
v -10 49 5
v -10 49 -5
v -10 52 5
v -10 52 -5
v -10 58 5
v -10 58 -5
v -10 61 5
v -10 61 -5
v -9 48 5
v -9 48 -5
v -9 49 5
v -9 49 -5
v -9 61 5
v -9 61 -5
v -9 62 5
v -9 62 -5
v -8 47 5
v -8 47 -5
v -8 48 5
v -8 48 -5
v -8 62 5
v -8 62 -5
v -8 63 5
v -8 63 -5
v -7 46 5
v -7 46 -5
v -7 47 5
v -7 47 -5
v -7 63 5
v -7 63 -5
v -7 64 5
v -7 64 -5
v -6 45 5
v -6 45 -5
v -6 46 5
v -6 46 -5
v -6 64 5
v -6 64 -5
v -6 65 5
v -6 65 -5
v -3 44 5
v -3 44 -5
v -3 45 5
v -3 45 -5
v -3 65 5
v -3 65 -5
v -3 66 5
v -3 66 -5
v -2 66 2
v -2 66 -2
v -2 68 2
v -2 68 -2
v -1 68 1
v -1 68 -1
v -1 71 1
v -1 71 -1
v -1 72 1
v -1 72 -1
v -1 75 1
v -1 75 -1
v -1 76 1
v -1 76 -1
v -1 79 1
v -1 79 -1
v -1 80 1
v -1 80 -1
v -1 83 1
v -1 83 -1
v -1 84 1
v -1 84 -1
v -1 87 1
v -1 87 -1
v -1 88 1
v -1 88 -1
v -1 91 1
v -1 91 -1
v -1 92 1
v -1 92 -1
v -1 95 1
v -1 95 -1
v -1 96 1
v -1 96 -1
v -1 99 1
v -1 99 -1
v -1 100 1
v -1 100 -1
v 1 68 1
v 1 68 -1
v 1 71 1
v 1 71 -1
v 1 72 1
v 1 72 -1
v 1 75 1
v 1 75 -1
v 1 76 1
v 1 76 -1
v 1 79 1
v 1 79 -1
v 1 80 1
v 1 80 -1
v 1 83 1
v 1 83 -1
v 1 84 1
v 1 84 -1
v 1 87 1
v 1 87 -1
v 1 88 1
v 1 88 -1
v 1 91 1
v 1 91 -1
v 1 92 1
v 1 92 -1
v 1 95 1
v 1 95 -1
v 1 96 1
v 1 96 -1
v 1 99 1
v 1 99 -1
v 1 100 1
v 1 100 -1
v 2 66 2
v 2 66 -2
v 2 68 2
v 2 68 -2
v 3 44 5
v 3 44 -5
v 3 45 5
v 3 45 -5
v 3 65 5
v 3 65 -5
v 3 66 5
v 3 66 -5
v 6 45 5
v 6 45 -5
v 6 46 5
v 6 46 -5
v 6 64 5
v 6 64 -5
v 6 65 5
v 6 65 -5
v 7 46 5
v 7 46 -5
v 7 47 5
v 7 47 -5
v 7 63 5
v 7 63 -5
v 7 64 5
v 7 64 -5
v 8 47 5
v 8 47 -5
v 8 48 5
v 8 48 -5
v 8 62 5
v 8 62 -5
v 8 63 5
v 8 63 -5
v 9 48 5
v 9 48 -5
v 9 49 5
v 9 49 -5
v 9 61 5
v 9 61 -5
v 9 62 5
v 9 62 -5
v 10 49 5
v 10 49 -5
v 10 52 5
v 10 52 -5
v 10 58 5
v 10 58 -5
v 10 61 5
v 10 61 -5
v 11 52 5
v 11 52 -5
v 11 58 5
v 11 58 -5
v -11 52 5
v -11 58 5
v -10 49 5
v -10 52 5
v -10 58 5
v -10 61 5
v -9 48 5
v -9 49 5
v -9 52 5
v -9 58 5
v -9 61 5
v -9 62 5
v -8 47 5
v -8 48 5
v -8 49 5
v -8 52 5
v -8 58 5
v -8 61 5
v -8 62 5
v -8 63 5
v -7 46 5
v -7 47 5
v -7 48 5
v -7 49 5
v -7 61 5
v -7 62 5
v -7 63 5
v -7 64 5
v -6 45 5
v -6 46 5
v -6 47 5
v -6 48 5
v -6 49 5
v -6 61 5
v -6 62 5
v -6 63 5
v -6 64 5
v -6 65 5
v -5 46 5
v -5 47 5
v -5 48 5
v -5 53 5
v -5 57 5
v -5 62 5
v -5 63 5
v -5 64 5
v -4 52 5
v -4 53 5
v -4 57 5
v -4 58 5
v -3 44 5
v -3 45 5
v -3 51 5
v -3 52 5
v -3 53 5
v -3 57 5
v -3 58 5
v -3 59 5
v -3 65 5
v -3 66 5
v -2 50 5
v -2 51 5
v -2 52 5
v -2 58 5
v -2 59 5
v -2 60 5
v -1 53 5
v -1 57 5
v 1 53 5
v 1 57 5
v 2 50 5
v 2 51 5
v 2 52 5
v 2 58 5
v 2 59 5
v 2 60 5
v 3 44 5
v 3 45 5
v 3 51 5
v 3 52 5
v 3 53 5
v 3 57 5
v 3 58 5
v 3 59 5
v 3 65 5
v 3 66 5
v 4 52 5
v 4 53 5
v 4 57 5
v 4 58 5
v 5 46 5
v 5 47 5
v 5 48 5
v 5 53 5
v 5 57 5
v 5 62 5
v 5 63 5
v 5 64 5
v 6 45 5
v 6 46 5
v 6 47 5
v 6 48 5
v 6 49 5
v 6 61 5
v 6 62 5
v 6 63 5
v 6 64 5
v 6 65 5
v 7 46 5
v 7 47 5
v 7 48 5
v 7 49 5
v 7 61 5
v 7 62 5
v 7 63 5
v 7 64 5
v 8 47 5
v 8 48 5
v 8 49 5
v 8 52 5
v 8 58 5
v 8 61 5
v 8 62 5
v 8 63 5
v 9 48 5
v 9 49 5
v 9 52 5
v 9 58 5
v 9 61 5
v 9 62 5
v 10 49 5
v 10 52 5
v 10 58 5
v 10 61 5
v 11 52 5
v 11 58 5
v -2 66 2
v -2 68 2
v 2 66 2
v 2 68 2
v -1 68 1
v -1 71 1
v -1 72 1
v -1 75 1
v -1 76 1
v -1 79 1
v -1 80 1
v -1 83 1
v -1 84 1
v -1 87 1
v -1 88 1
v -1 91 1
v -1 92 1
v -1 95 1
v -1 96 1
v -1 99 1
v -1 100 1
v 1 68 1
v 1 71 1
v 1 72 1
v 1 75 1
v 1 76 1
v 1 79 1
v 1 80 1
v 1 83 1
v 1 84 1
v 1 87 1
v 1 88 1
v 1 91 1
v 1 92 1
v 1 95 1
v 1 96 1
v 1 99 1
v 1 100 1
v -1 68 -1
v -1 71 -1
v -1 72 -1
v -1 75 -1
v -1 76 -1
v -1 79 -1
v -1 80 -1
v -1 83 -1
v -1 84 -1
v -1 87 -1
v -1 88 -1
v -1 91 -1
v -1 92 -1
v -1 95 -1
v -1 96 -1
v -1 99 -1
v -1 100 -1
v 1 68 -1
v 1 71 -1
v 1 72 -1
v 1 75 -1
v 1 76 -1
v 1 79 -1
v 1 80 -1
v 1 83 -1
v 1 84 -1
v 1 87 -1
v 1 88 -1
v 1 91 -1
v 1 92 -1
v 1 95 -1
v 1 96 -1
v 1 99 -1
v 1 100 -1
v -2 66 -2
v -2 68 -2
v 2 66 -2
v 2 68 -2
v -11 52 -5
v -11 58 -5
v -10 49 -5
v -10 52 -5
v -10 58 -5
v -10 61 -5
v -9 48 -5
v -9 49 -5
v -9 52 -5
v -9 58 -5
v -9 61 -5
v -9 62 -5
v -8 47 -5
v -8 48 -5
v -8 49 -5
v -8 52 -5
v -8 58 -5
v -8 61 -5
v -8 62 -5
v -8 63 -5
v -7 46 -5
v -7 47 -5
v -7 48 -5
v -7 49 -5
v -7 61 -5
v -7 62 -5
v -7 63 -5
v -7 64 -5
v -6 45 -5
v -6 46 -5
v -6 47 -5
v -6 48 -5
v -6 49 -5
v -6 61 -5
v -6 62 -5
v -6 63 -5
v -6 64 -5
v -6 65 -5
v -5 46 -5
v -5 47 -5
v -5 48 -5
v -5 53 -5
v -5 57 -5
v -5 62 -5
v -5 63 -5
v -5 64 -5
v -4 52 -5
v -4 53 -5
v -4 57 -5
v -4 58 -5
v -3 44 -5
v -3 45 -5
v -3 51 -5
v -3 52 -5
v -3 53 -5
v -3 57 -5
v -3 58 -5
v -3 59 -5
v -3 65 -5
v -3 66 -5
v -2 50 -5
v -2 51 -5
v -2 52 -5
v -2 58 -5
v -2 59 -5
v -2 60 -5
v -1 53 -5
v -1 57 -5
v 1 53 -5
v 1 57 -5
v 2 50 -5
v 2 51 -5
v 2 52 -5
v 2 58 -5
v 2 59 -5
v 2 60 -5
v 3 44 -5
v 3 45 -5
v 3 51 -5
v 3 52 -5
v 3 53 -5
v 3 57 -5
v 3 58 -5
v 3 59 -5
v 3 65 -5
v 3 66 -5
v 4 52 -5
v 4 53 -5
v 4 57 -5
v 4 58 -5
v 5 46 -5
v 5 47 -5
v 5 48 -5
v 5 53 -5
v 5 57 -5
v 5 62 -5
v 5 63 -5
v 5 64 -5
v 6 45 -5
v 6 46 -5
v 6 47 -5
v 6 48 -5
v 6 49 -5
v 6 61 -5
v 6 62 -5
v 6 63 -5
v 6 64 -5
v 6 65 -5
v 7 46 -5
v 7 47 -5
v 7 48 -5
v 7 49 -5
v 7 61 -5
v 7 62 -5
v 7 63 -5
v 7 64 -5
v 8 47 -5
v 8 48 -5
v 8 49 -5
v 8 52 -5
v 8 58 -5
v 8 61 -5
v 8 62 -5
v 8 63 -5
v 9 48 -5
v 9 49 -5
v 9 52 -5
v 9 58 -5
v 9 61 -5
v 9 62 -5
v 10 49 -5
v 10 52 -5
v 10 58 -5
v 10 61 -5
v 11 52 -5
v 11 58 -5
v -3 44 5
v 3 44 5
v -3 44 -5
v 3 44 -5
v -6 45 5
v -3 45 5
v 3 45 5
v 6 45 5
v -6 45 -5
v -3 45 -5
v 3 45 -5
v 6 45 -5
v -7 46 5
v -6 46 5
v 6 46 5
v 7 46 5
v -7 46 -5
v -6 46 -5
v 6 46 -5
v 7 46 -5
v -8 47 5
v -7 47 5
v 7 47 5
v 8 47 5
v -8 47 -5
v -7 47 -5
v 7 47 -5
v 8 47 -5
v -9 48 5
v -8 48 5
v 8 48 5
v 9 48 5
v -9 48 -5
v -8 48 -5
v 8 48 -5
v 9 48 -5
v -10 49 5
v -9 49 5
v 9 49 5
v 10 49 5
v -10 49 -5
v -9 49 -5
v 9 49 -5
v 10 49 -5
v -11 52 5
v -10 52 5
v 10 52 5
v 11 52 5
v -11 52 -5
v -10 52 -5
v 10 52 -5
v 11 52 -5
v -11 58 5
v -10 58 5
v 10 58 5
v 11 58 5
v -11 58 -5
v -10 58 -5
v 10 58 -5
v 11 58 -5
v -10 61 5
v -9 61 5
v 9 61 5
v 10 61 5
v -10 61 -5
v -9 61 -5
v 9 61 -5
v 10 61 -5
v -9 62 5
v -8 62 5
v 8 62 5
v 9 62 5
v -9 62 -5
v -8 62 -5
v 8 62 -5
v 9 62 -5
v -8 63 5
v -7 63 5
v 7 63 5
v 8 63 5
v -8 63 -5
v -7 63 -5
v 7 63 -5
v 8 63 -5
v -7 64 5
v -6 64 5
v 6 64 5
v 7 64 5
v -7 64 -5
v -6 64 -5
v 6 64 -5
v 7 64 -5
v -6 65 5
v -3 65 5
v 3 65 5
v 6 65 5
v -6 65 -5
v -3 65 -5
v 3 65 -5
v 6 65 -5
v -3 66 5
v 3 66 5
v -2 66 2
v 2 66 2
v -2 66 -2
v 2 66 -2
v -3 66 -5
v 3 66 -5
v -2 68 2
v 2 68 2
v -1 68 1
v 1 68 1
v -1 68 -1
v 1 68 -1
v -2 68 -2
v 2 68 -2
v -1 100 1
v 1 100 1
v -1 100 -1
v 1 100 -1

# faces
f 3/4/1 2/4/1 1/4/1
f 4/4/1 2/4/1 3/4/1
f 7/4/1 6/4/1 5/4/1
f 8/4/1 6/4/1 7/4/1
f 11/4/1 10/4/1 9/4/1
f 12/4/1 10/4/1 11/4/1
f 15/4/1 14/4/1 13/4/1
f 16/4/1 14/4/1 15/4/1
f 19/4/1 18/4/1 17/4/1
f 20/4/1 18/4/1 19/4/1
f 23/4/1 22/4/1 21/4/1
f 24/4/1 22/4/1 23/4/1
f 27/4/1 26/4/1 25/4/1
f 28/4/1 26/4/1 27/4/1
f 31/4/1 30/4/1 29/4/1
f 32/4/1 30/4/1 31/4/1
f 35/4/1 34/4/1 33/4/1
f 36/4/1 34/4/1 35/4/1
f 39/4/1 38/4/1 37/4/1
f 40/4/1 38/4/1 39/4/1
f 43/4/1 42/4/1 41/4/1
f 44/4/1 42/4/1 43/4/1
f 47/4/1 46/4/1 45/4/1
f 48/4/1 46/4/1 47/4/1
f 51/4/1 50/4/1 49/4/1
f 52/4/1 50/4/1 51/4/1
f 55/3/1 54/3/1 53/3/1
f 56/3/1 54/3/1 55/3/1
f 59/2/1 58/2/1 57/2/1
f 60/2/1 58/2/1 59/2/1
f 61/1/1 60/1/1 59/1/1
f 62/1/1 60/1/1 61/1/1
f 63/2/1 62/2/1 61/2/1
f 64/2/1 62/2/1 63/2/1
f 65/1/1 64/1/1 63/1/1
f 66/1/1 64/1/1 65/1/1
f 67/2/1 66/2/1 65/2/1
f 68/2/1 66/2/1 67/2/1
f 69/1/1 68/1/1 67/1/1
f 70/1/1 68/1/1 69/1/1
f 71/2/1 70/2/1 69/2/1
f 72/2/1 70/2/1 71/2/1
f 73/1/1 72/1/1 71/1/1
f 74/1/1 72/1/1 73/1/1
f 75/2/1 74/2/1 73/2/1
f 76/2/1 74/2/1 75/2/1
f 77/1/1 76/1/1 75/1/1
f 78/1/1 76/1/1 77/1/1
f 79/2/1 78/2/1 77/2/1
f 80/2/1 78/2/1 79/2/1
f 81/1/1 80/1/1 79/1/1
f 82/1/1 80/1/1 81/1/1
f 83/2/1 82/2/1 81/2/1
f 84/2/1 82/2/1 83/2/1
f 85/1/1 84/1/1 83/1/1
f 86/1/1 84/1/1 85/1/1
f 87/2/1 86/2/1 85/2/1
f 88/2/1 86/2/1 87/2/1
f 89/1/1 88/1/1 87/1/1
f 90/1/1 88/1/1 89/1/1
f 91/2/2 92/2/2 93/2/2
f 93/2/2 92/2/2 94/2/2
f 93/1/2 94/1/2 95/1/2
f 95/1/2 94/1/2 96/1/2
f 95/2/2 96/2/2 97/2/2
f 97/2/2 96/2/2 98/2/2
f 97/1/2 98/1/2 99/1/2
f 99/1/2 98/1/2 100/1/2
f 99/2/2 100/2/2 101/2/2
f 101/2/2 100/2/2 102/2/2
f 101/1/2 102/1/2 103/1/2
f 103/1/2 102/1/2 104/1/2
f 103/2/2 104/2/2 105/2/2
f 105/2/2 104/2/2 106/2/2
f 105/1/2 106/1/2 107/1/2
f 107/1/2 106/1/2 108/1/2
f 107/2/2 108/2/2 109/2/2
f 109/2/2 108/2/2 110/2/2
f 109/1/2 110/1/2 111/1/2
f 111/1/2 110/1/2 112/1/2
f 111/2/2 112/2/2 113/2/2
f 113/2/2 112/2/2 114/2/2
f 113/1/2 114/1/2 115/1/2
f 115/1/2 114/1/2 116/1/2
f 115/2/2 116/2/2 117/2/2
f 117/2/2 116/2/2 118/2/2
f 117/1/2 118/1/2 119/1/2
f 119/1/2 118/1/2 120/1/2
f 119/2/2 120/2/2 121/2/2
f 121/2/2 120/2/2 122/2/2
f 121/1/2 122/1/2 123/1/2
f 123/1/2 122/1/2 124/1/2
f 125/3/2 126/3/2 127/3/2
f 127/3/2 126/3/2 128/3/2
f 129/4/2 130/4/2 131/4/2
f 131/4/2 130/4/2 132/4/2
f 133/4/2 134/4/2 135/4/2
f 135/4/2 134/4/2 136/4/2
f 137/4/2 138/4/2 139/4/2
f 139/4/2 138/4/2 140/4/2
f 141/4/2 142/4/2 143/4/2
f 143/4/2 142/4/2 144/4/2
f 145/4/2 146/4/2 147/4/2
f 147/4/2 146/4/2 148/4/2
f 149/4/2 150/4/2 151/4/2
f 151/4/2 150/4/2 152/4/2
f 153/4/2 154/4/2 155/4/2
f 155/4/2 154/4/2 156/4/2
f 157/4/2 158/4/2 159/4/2
f 159/4/2 158/4/2 160/4/2
f 161/4/2 162/4/2 163/4/2
f 163/4/2 162/4/2 164/4/2
f 165/4/2 166/4/2 167/4/2
f 167/4/2 166/4/2 168/4/2
f 169/4/2 170/4/2 171/4/2
f 171/4/2 170/4/2 172/4/2
f 173/4/2 174/4/2 175/4/2
f 175/4/2 174/4/2 176/4/2
f 177/4/2 178/4/2 179/4/2
f 179/4/2 178/4/2 180/4/2
f 184/4/3 182/4/3 181/4/3
f 185/4/3 182/4/3 184/4/3
f 188/4/3 184/4/3 183/4/3
f 188/4/3 186/4/3 185/4/3
f 188/4/3 185/4/3 184/4/3
f 189/4/3 186/4/3 188/4/3
f 190/4/3 186/4/3 189/4/3
f 191/4/3 186/4/3 190/4/3
f 194/4/3 188/4/3 187/4/3
f 194/4/3 189/4/3 188/4/3
f 195/4/3 189/4/3 194/4/3
f 196/5/3 190/5/3 189/5/3
f 196/4/3 189/4/3 195/4/3
f 197/4/3 192/4/3 191/4/3
f 197/5/3 190/5/3 196/5/3
f 197/4/3 191/4/3 190/4/3
f 198/4/3 192/4/3 197/4/3
f 199/4/3 192/4/3 198/4/3
f 202/4/3 194/4/3 193/4/3
f 202/4/3 195/4/3 194/4/3
f 203/4/3 195/4/3 202/4/3
f 204/5/3 196/5/3 195/5/3
f 204/4/3 195/4/3 203/4/3
f 204/5/3 197/5/3 196/5/3
f 204/5/3 198/5/3 197/5/3
f 205/4/3 200/4/3 199/4/3
f 205/5/3 198/5/3 204/5/3
f 205/4/3 199/4/3 198/4/3
f 206/4/3 200/4/3 205/4/3
f 207/4/3 200/4/3 206/4/3
f 210/4/3 203/4/3 202/4/3
f 210/4/3 202/4/3 201/4/3
f 211/4/3 203/4/3 210/4/3
f 212/5/3 204/5/3 203/5/3
f 212/4/3 203/4/3 211/4/3
f 213/4/3 205/4/3 204/4/3
f 213/5/3 204/5/3 212/5/3
f 214/5/3 206/5/3 205/5/3
f 214/4/3 205/4/3 213/4/3
f 215/4/3 208/4/3 207/4/3
f 215/5/3 206/5/3 214/5/3
f 215/4/3 207/4/3 206/4/3
f 216/4/3 208/4/3 215/4/3
f 217/4/3 208/4/3 216/4/3
f 219/4/3 211/4/3 210/4/3
f 219/4/3 210/4/3 209/4/3
f 220/5/3 212/5/3 211/5/3
f 220/4/3 211/4/3 219/4/3
f 221/4/3 214/4/3 213/4/3
f 221/5/3 212/5/3 220/5/3
f 221/4/3 213/4/3 212/4/3
f 221/4/3 215/4/3 214/4/3
f 222/4/3 215/4/3 221/4/3
f 223/4/3 215/4/3 222/4/3
f 224/5/3 216/5/3 215/5/3
f 224/4/3 215/4/3 223/4/3
f 225/4/3 218/4/3 217/4/3
f 225/5/3 216/5/3 224/5/3
f 225/4/3 217/4/3 216/4/3
f 226/4/3 218/4/3 225/4/3
f 227/4/3 222/4/3 221/4/3
f 227/4/3 221/4/3 220/4/3
f 228/5/3 223/5/3 222/5/3
f 228/4/3 222/4/3 227/4/3
f 229/4/3 224/4/3 223/4/3
f 229/5/3 223/5/3 228/5/3
f 229/4/3 225/4/3 224/4/3
f 230/4/3 225/4/3 229/4/3
f 232/4/3 219/4/3 209/4/3
f 233/4/3 227/4/3 220/4/3
f 234/5/3 228/5/3 227/5/3
f 234/4/3 227/4/3 233/4/3
f 235/4/3 229/4/3 228/4/3
f 235/5/3 228/5/3 234/5/3
f 236/5/3 230/5/3 229/5/3
f 236/4/3 229/4/3 235/4/3
f 237/4/3 225/4/3 230/4/3
f 237/5/3 230/5/3 236/5/3
f 238/4/3 225/4/3 237/4/3
f 239/4/3 218/4/3 226/4/3
f 241/4/3 233/4/3 220/4/3
f 242/5/3 234/5/3 233/5/3
f 242/4/3 233/4/3 241/4/3
f 243/4/3 236/4/3 235/4/3
f 243/5/3 234/5/3 242/5/3
f 243/4/3 235/4/3 234/4/3
f 243/4/3 237/4/3 236/4/3
f 244/5/3 238/5/3 237/5/3
f 244/4/3 237/4/3 243/4/3
f 245/4/3 225/4/3 238/4/3
f 245/5/3 238/5/3 244/5/3
f 246/4/3 225/4/3 245/4/3
f 247/4/3 244/4/3 243/4/3
f 247/4/3 243/4/3 242/4/3
f 247/4/3 245/4/3 244/4/3
f 248/4/3 245/4/3 247/4/3
f 249/4/3 247/4/3 242/4/3
f 249/5/3 248/5/3 247/5/3
f 250/4/3 245/4/3 248/4/3
f 250/5/3 248/5/3 249/5/3
f 251/5/3 242/5/3 241/5/3
f 251/4/3 241/4/3 220/4/3
f 252/4/3 250/4/3 249/4/3
f 252/5/3 242/5/3 251/5/3
f 252/4/3 249/4/3 242/4/3
f 253/4/3 250/4/3 252/4/3
f 254/4/3 245/4/3 250/4/3
f 254/4/3 250/4/3 253/4/3
f 255/5/3 246/5/3 245/5/3
f 255/4/3 245/4/3 254/4/3
f 256/4/3 225/4/3 246/4/3
f 256/5/3 246/5/3 255/5/3
f 257/4/3 232/4/3 231/4/3
f 258/4/3 219/4/3 232/4/3
f 258/4/3 232/4/3 257/4/3
f 259/5/3 253/5/3 252/5/3
f 259/4/3 252/4/3 251/4/3
f 260/4/3 254/4/3 253/4/3
f 260/5/3 253/5/3 259/5/3
f 261/4/3 254/4/3 260/4/3
f 262/4/3 254/4/3 261/4/3
f 263/5/3 255/5/3 254/5/3
f 263/4/3 254/4/3 262/4/3
f 264/4/3 256/4/3 255/4/3
f 264/5/3 255/5/3 263/5/3
f 265/4/3 240/4/3 239/4/3
f 265/4/3 239/4/3 226/4/3
f 266/4/3 240/4/3 265/4/3
f 267/4/3 260/4/3 259/4/3
f 267/5/3 261/5/3 260/5/3
f 268/4/3 262/4/3 261/4/3
f 268/5/3 261/5/3 267/5/3
f 269/5/3 263/5/3 262/5/3
f 269/4/3 262/4/3 268/4/3
f 270/4/3 264/4/3 263/4/3
f 270/5/3 263/5/3 269/5/3
f 271/5/3 220/5/3 219/5/3
f 271/4/3 219/4/3 258/4/3
f 272/4/3 267/4/3 259/4/3
f 272/5/3 220/5/3 271/5/3
f 272/4/3 251/4/3 220/4/3
f 272/4/3 259/4/3 251/4/3
f 272/4/3 268/4/3 267/4/3
f 273/4/3 268/4/3 272/4/3
f 274/5/3 269/5/3 268/5/3
f 274/4/3 268/4/3 273/4/3
f 275/4/3 270/4/3 269/4/3
f 275/5/3 269/5/3 274/5/3
f 276/4/3 264/4/3 270/4/3
f 276/4/3 270/4/3 275/4/3
f 276/4/3 256/4/3 264/4/3
f 276/4/3 225/4/3 256/4/3
f 277/5/3 226/5/3 225/5/3
f 277/4/3 225/4/3 276/4/3
f 278/4/3 265/4/3 226/4/3
f 278/5/3 226/5/3 277/5/3
f 279/4/3 272/4/3 271/4/3
f 279/4/3 271/4/3 258/4/3
f 280/4/3 272/4/3 279/4/3
f 281/5/3 273/5/3 272/5/3
f 281/4/3 272/4/3 280/4/3
f 282/4/3 275/4/3 274/4/3
f 282/5/3 273/5/3 281/5/3
f 282/4/3 274/4/3 273/4/3
f 282/4/3 276/4/3 275/4/3
f 283/4/3 276/4/3 282/4/3
f 284/4/3 276/4/3 283/4/3
f 285/5/3 277/5/3 276/5/3
f 285/4/3 276/4/3 284/4/3
f 286/4/3 278/4/3 277/4/3
f 286/5/3 277/5/3 285/5/3
f 287/4/3 265/4/3 278/4/3
f 287/4/3 278/4/3 286/4/3
f 288/4/3 265/4/3 287/4/3
f 289/4/3 281/4/3 280/4/3
f 289/4/3 282/4/3 281/4/3
f 290/4/3 282/4/3 289/4/3
f 291/5/3 283/5/3 282/5/3
f 291/4/3 282/4/3 290/4/3
f 292/4/3 284/4/3 283/4/3
f 292/5/3 283/5/3 291/5/3
f 293/5/3 285/5/3 284/5/3
f 293/4/3 284/4/3 292/4/3
f 294/4/3 286/4/3 285/4/3
f 294/5/3 285/5/3 293/5/3
f 294/4/3 287/4/3 286/4/3
f 295/4/3 287/4/3 294/4/3
f 296/4/3 287/4/3 295/4/3
f 297/4/3 292/4/3 291/4/3
f 297/4/3 291/4/3 290/4/3
f 298/4/3 292/4/3 297/4/3
f 299/5/3 293/5/3 292/5/3
f 299/4/3 292/4/3 298/4/3
f 300/5/3 293/5/3 299/5/3
f 301/5/3 293/5/3 300/5/3
f 302/4/3 295/4/3 294/4/3
f 302/5/3 293/5/3 301/5/3
f 302/4/3 294/4/3 293/4/3
f 303/4/3 295/4/3 302/4/3
f 304/4/3 295/4/3 303/4/3
f 305/4/3 300/4/3 299/4/3
f 305/4/3 299/4/3 298/4/3
f 306/4/3 300/4/3 305/4/3
f 307/5/3 301/5/3 300/5/3
f 307/4/3 300/4/3 306/4/3
f 308/4/3 303/4/3 302/4/3
f 308/5/3 301/5/3 307/5/3
f 308/4/3 302/4/3 301/4/3
f 309/4/3 303/4/3 308/4/3
f 310/4/3 303/4/3 309/4/3
f 311/4/3 307/4/3 306/4/3
f 311/4/3 309/4/3 308/4/3
f 311/4/3 308/4/3 307/4/3
f 312/4/3 309/4/3 311/4/3
f 313/4/3 309/4/3 312/4/3
f 314/4/3 309/4/3 313/4/3
f 315/4/3 313/4/3 312/4/3
f 316/4/3 313/4/3 315/4/3
f 319/3/3 318/3/3 317/3/3
f 320/3/3 318/3/3 319/3/3
f 338/2/3 322/2/3 321/2/3
f 339/1/3 323/1/3 322/1/3
f 339/2/3 322/2/3 338/2/3
f 340/2/3 324/2/3 323/2/3
f 340/1/3 323/1/3 339/1/3
f 341/1/3 325/1/3 324/1/3
f 341/2/3 324/2/3 340/2/3
f 342/2/3 326/2/3 325/2/3
f 342/1/3 325/1/3 341/1/3
f 343/1/3 327/1/3 326/1/3
f 343/2/3 326/2/3 342/2/3
f 344/2/3 328/2/3 327/2/3
f 344/1/3 327/1/3 343/1/3
f 345/1/3 329/1/3 328/1/3
f 345/2/3 328/2/3 344/2/3
f 346/2/3 330/2/3 329/2/3
f 346/1/3 329/1/3 345/1/3
f 347/1/3 331/1/3 330/1/3
f 347/2/3 330/2/3 346/2/3
f 348/2/3 332/2/3 331/2/3
f 348/1/3 331/1/3 347/1/3
f 349/1/3 333/1/3 332/1/3
f 349/2/3 332/2/3 348/2/3
f 350/2/3 334/2/3 333/2/3
f 350/1/3 333/1/3 349/1/3
f 351/1/3 335/1/3 334/1/3
f 351/2/3 334/2/3 350/2/3
f 352/2/3 336/2/3 335/2/3
f 352/1/3 335/1/3 351/1/3
f 353/1/3 337/1/3 336/1/3
f 353/2/3 336/2/3 352/2/3
f 354/1/3 337/1/3 353/1/3
f 355/2/4 356/2/4 372/2/4
f 356/1/4 357/1/4 373/1/4
f 372/2/4 356/2/4 373/2/4
f 357/2/4 358/2/4 374/2/4
f 373/1/4 357/1/4 374/1/4
f 358/1/4 359/1/4 375/1/4
f 374/2/4 358/2/4 375/2/4
f 359/2/4 360/2/4 376/2/4
f 375/1/4 359/1/4 376/1/4
f 360/1/4 361/1/4 377/1/4
f 376/2/4 360/2/4 377/2/4
f 361/2/4 362/2/4 378/2/4
f 377/1/4 361/1/4 378/1/4
f 362/1/4 363/1/4 379/1/4
f 378/2/4 362/2/4 379/2/4
f 363/2/4 364/2/4 380/2/4
f 379/1/4 363/1/4 380/1/4
f 364/1/4 365/1/4 381/1/4
f 380/2/4 364/2/4 381/2/4
f 365/2/4 366/2/4 382/2/4
f 381/1/4 365/1/4 382/1/4
f 366/1/4 367/1/4 383/1/4
f 382/2/4 366/2/4 383/2/4
f 367/2/4 368/2/4 384/2/4
f 383/1/4 367/1/4 384/1/4
f 368/1/4 369/1/4 385/1/4
f 384/2/4 368/2/4 385/2/4
f 369/2/4 370/2/4 386/2/4
f 385/1/4 369/1/4 386/1/4
f 370/1/4 371/1/4 387/1/4
f 386/2/4 370/2/4 387/2/4
f 387/1/4 371/1/4 388/1/4
f 389/3/4 390/3/4 391/3/4
f 391/3/4 390/3/4 392/3/4
f 393/4/4 394/4/4 396/4/4
f 396/4/4 394/4/4 397/4/4
f 395/4/4 396/4/4 400/4/4
f 397/4/4 398/4/4 400/4/4
f 396/4/4 397/4/4 400/4/4
f 400/4/4 398/4/4 401/4/4
f 401/4/4 398/4/4 402/4/4
f 402/4/4 398/4/4 403/4/4
f 399/4/4 400/4/4 406/4/4
f 400/4/4 401/4/4 406/4/4
f 406/4/4 401/4/4 407/4/4
f 401/5/4 402/5/4 408/5/4
f 407/4/4 401/4/4 408/4/4
f 403/4/4 404/4/4 409/4/4
f 408/5/4 402/5/4 409/5/4
f 402/4/4 403/4/4 409/4/4
f 409/4/4 404/4/4 410/4/4
f 410/4/4 404/4/4 411/4/4
f 405/4/4 406/4/4 414/4/4
f 406/4/4 407/4/4 414/4/4
f 414/4/4 407/4/4 415/4/4
f 407/5/4 408/5/4 416/5/4
f 415/4/4 407/4/4 416/4/4
f 408/5/4 409/5/4 416/5/4
f 409/5/4 410/5/4 416/5/4
f 411/4/4 412/4/4 417/4/4
f 416/5/4 410/5/4 417/5/4
f 410/4/4 411/4/4 417/4/4
f 417/4/4 412/4/4 418/4/4
f 418/4/4 412/4/4 419/4/4
f 414/4/4 415/4/4 422/4/4
f 413/4/4 414/4/4 422/4/4
f 422/4/4 415/4/4 423/4/4
f 415/5/4 416/5/4 424/5/4
f 423/4/4 415/4/4 424/4/4
f 416/4/4 417/4/4 425/4/4
f 424/5/4 416/5/4 425/5/4
f 417/5/4 418/5/4 426/5/4
f 425/4/4 417/4/4 426/4/4
f 419/4/4 420/4/4 427/4/4
f 426/5/4 418/5/4 427/5/4
f 418/4/4 419/4/4 427/4/4
f 427/4/4 420/4/4 428/4/4
f 428/4/4 420/4/4 429/4/4
f 422/4/4 423/4/4 431/4/4
f 421/4/4 422/4/4 431/4/4
f 423/5/4 424/5/4 432/5/4
f 431/4/4 423/4/4 432/4/4
f 425/4/4 426/4/4 433/4/4
f 432/5/4 424/5/4 433/5/4
f 424/4/4 425/4/4 433/4/4
f 426/4/4 427/4/4 433/4/4
f 433/4/4 427/4/4 434/4/4
f 434/4/4 427/4/4 435/4/4
f 427/5/4 428/5/4 436/5/4
f 435/4/4 427/4/4 436/4/4
f 429/4/4 430/4/4 437/4/4
f 436/5/4 428/5/4 437/5/4
f 428/4/4 429/4/4 437/4/4
f 437/4/4 430/4/4 438/4/4
f 433/4/4 434/4/4 439/4/4
f 432/4/4 433/4/4 439/4/4
f 434/5/4 435/5/4 440/5/4
f 439/4/4 434/4/4 440/4/4
f 435/4/4 436/4/4 441/4/4
f 440/5/4 435/5/4 441/5/4
f 436/4/4 437/4/4 441/4/4
f 441/4/4 437/4/4 442/4/4
f 421/4/4 431/4/4 444/4/4
f 432/4/4 439/4/4 445/4/4
f 439/5/4 440/5/4 446/5/4
f 445/4/4 439/4/4 446/4/4
f 440/4/4 441/4/4 447/4/4
f 446/5/4 440/5/4 447/5/4
f 441/5/4 442/5/4 448/5/4
f 447/4/4 441/4/4 448/4/4
f 442/4/4 437/4/4 449/4/4
f 448/5/4 442/5/4 449/5/4
f 449/4/4 437/4/4 450/4/4
f 438/4/4 430/4/4 451/4/4
f 432/4/4 445/4/4 453/4/4
f 445/5/4 446/5/4 454/5/4
f 453/4/4 445/4/4 454/4/4
f 447/4/4 448/4/4 455/4/4
f 454/5/4 446/5/4 455/5/4
f 446/4/4 447/4/4 455/4/4
f 448/4/4 449/4/4 455/4/4
f 449/5/4 450/5/4 456/5/4
f 455/4/4 449/4/4 456/4/4
f 450/4/4 437/4/4 457/4/4
f 456/5/4 450/5/4 457/5/4
f 457/4/4 437/4/4 458/4/4
f 455/4/4 456/4/4 459/4/4
f 454/4/4 455/4/4 459/4/4
f 456/4/4 457/4/4 459/4/4
f 459/4/4 457/4/4 460/4/4
f 454/4/4 459/4/4 461/4/4
f 459/5/4 460/5/4 461/5/4
f 460/4/4 457/4/4 462/4/4
f 461/5/4 460/5/4 462/5/4
f 453/5/4 454/5/4 463/5/4
f 432/4/4 453/4/4 463/4/4
f 461/4/4 462/4/4 464/4/4
f 463/5/4 454/5/4 464/5/4
f 454/4/4 461/4/4 464/4/4
f 464/4/4 462/4/4 465/4/4
f 462/4/4 457/4/4 466/4/4
f 465/4/4 462/4/4 466/4/4
f 457/5/4 458/5/4 467/5/4
f 466/4/4 457/4/4 467/4/4
f 458/4/4 437/4/4 468/4/4
f 467/5/4 458/5/4 468/5/4
f 443/4/4 444/4/4 469/4/4
f 444/4/4 431/4/4 470/4/4
f 469/4/4 444/4/4 470/4/4
f 464/5/4 465/5/4 471/5/4
f 463/4/4 464/4/4 471/4/4
f 465/4/4 466/4/4 472/4/4
f 471/5/4 465/5/4 472/5/4
f 472/4/4 466/4/4 473/4/4
f 473/4/4 466/4/4 474/4/4
f 466/5/4 467/5/4 475/5/4
f 474/4/4 466/4/4 475/4/4
f 467/4/4 468/4/4 476/4/4
f 475/5/4 467/5/4 476/5/4
f 451/4/4 452/4/4 477/4/4
f 438/4/4 451/4/4 477/4/4
f 477/4/4 452/4/4 478/4/4
f 471/4/4 472/4/4 479/4/4
f 472/5/4 473/5/4 479/5/4
f 473/4/4 474/4/4 480/4/4
f 479/5/4 473/5/4 480/5/4
f 474/5/4 475/5/4 481/5/4
f 480/4/4 474/4/4 481/4/4
f 475/4/4 476/4/4 482/4/4
f 481/5/4 475/5/4 482/5/4
f 431/5/4 432/5/4 483/5/4
f 470/4/4 431/4/4 483/4/4
f 471/4/4 479/4/4 484/4/4
f 483/5/4 432/5/4 484/5/4
f 432/4/4 463/4/4 484/4/4
f 463/4/4 471/4/4 484/4/4
f 479/4/4 480/4/4 484/4/4
f 484/4/4 480/4/4 485/4/4
f 480/5/4 481/5/4 486/5/4
f 485/4/4 480/4/4 486/4/4
f 481/4/4 482/4/4 487/4/4
f 486/5/4 481/5/4 487/5/4
f 482/4/4 476/4/4 488/4/4
f 487/4/4 482/4/4 488/4/4
f 476/4/4 468/4/4 488/4/4
f 468/4/4 437/4/4 488/4/4
f 437/5/4 438/5/4 489/5/4
f 488/4/4 437/4/4 489/4/4
f 438/4/4 477/4/4 490/4/4
f 489/5/4 438/5/4 490/5/4
f 483/4/4 484/4/4 491/4/4
f 470/4/4 483/4/4 491/4/4
f 491/4/4 484/4/4 492/4/4
f 484/5/4 485/5/4 493/5/4
f 492/4/4 484/4/4 493/4/4
f 486/4/4 487/4/4 494/4/4
f 493/5/4 485/5/4 494/5/4
f 485/4/4 486/4/4 494/4/4
f 487/4/4 488/4/4 494/4/4
f 494/4/4 488/4/4 495/4/4
f 495/4/4 488/4/4 496/4/4
f 488/5/4 489/5/4 497/5/4
f 496/4/4 488/4/4 497/4/4
f 489/4/4 490/4/4 498/4/4
f 497/5/4 489/5/4 498/5/4
f 490/4/4 477/4/4 499/4/4
f 498/4/4 490/4/4 499/4/4
f 499/4/4 477/4/4 500/4/4
f 492/4/4 493/4/4 501/4/4
f 493/4/4 494/4/4 501/4/4
f 501/4/4 494/4/4 502/4/4
f 494/5/4 495/5/4 503/5/4
f 502/4/4 494/4/4 503/4/4
f 495/4/4 496/4/4 504/4/4
f 503/5/4 495/5/4 504/5/4
f 496/5/4 497/5/4 505/5/4
f 504/4/4 496/4/4 505/4/4
f 497/4/4 498/4/4 506/4/4
f 505/5/4 497/5/4 506/5/4
f 498/4/4 499/4/4 506/4/4
f 506/4/4 499/4/4 507/4/4
f 507/4/4 499/4/4 508/4/4
f 503/4/4 504/4/4 509/4/4
f 502/4/4 503/4/4 509/4/4
f 509/4/4 504/4/4 510/4/4
f 504/5/4 505/5/4 511/5/4
f 510/4/4 504/4/4 511/4/4
f 511/5/4 505/5/4 512/5/4
f 512/5/4 505/5/4 513/5/4
f 506/4/4 507/4/4 514/4/4
f 513/5/4 505/5/4 514/5/4
f 505/4/4 506/4/4 514/4/4
f 514/4/4 507/4/4 515/4/4
f 515/4/4 507/4/4 516/4/4
f 511/4/4 512/4/4 517/4/4
f 510/4/4 511/4/4 517/4/4
f 517/4/4 512/4/4 518/4/4
f 512/5/4 513/5/4 519/5/4
f 518/4/4 512/4/4 519/4/4
f 514/4/4 515/4/4 520/4/4
f 519/5/4 513/5/4 520/5/4
f 513/4/4 514/4/4 520/4/4
f 520/4/4 515/4/4 521/4/4
f 521/4/4 515/4/4 522/4/4
f 518/4/4 519/4/4 523/4/4
f 520/4/4 521/4/4 523/4/4
f 519/4/4 520/4/4 523/4/4
f 523/4/4 521/4/4 524/4/4
f 524/4/4 521/4/4 525/4/4
f 525/4/4 521/4/4 526/4/4
f 524/4/4 525/4/4 527/4/4
f 527/4/4 525/4/4 528/4/4
f 531/4/5 530/4/5 529/4/5
f 532/4/5 530/4/5 531/4/5
f 537/4/5 534/4/5 533/4/5
f 538/4/5 534/4/5 537/4/5
f 539/4/5 536/4/5 535/4/5
f 540/4/5 536/4/5 539/4/5
f 545/4/5 542/4/5 541/4/5
f 546/4/5 542/4/5 545/4/5
f 547/4/5 544/4/5 543/4/5
f 548/4/5 544/4/5 547/4/5
f 553/4/5 550/4/5 549/4/5
f 554/4/5 550/4/5 553/4/5
f 555/4/5 552/4/5 551/4/5
f 556/4/5 552/4/5 555/4/5
f 561/4/5 558/4/5 557/4/5
f 562/4/5 558/4/5 561/4/5
f 563/4/5 560/4/5 559/4/5
f 564/4/5 560/4/5 563/4/5
f 569/4/5 566/4/5 565/4/5
f 570/4/5 566/4/5 569/4/5
f 571/4/5 568/4/5 567/4/5
f 572/4/5 568/4/5 571/4/5
f 577/4/5 574/4/5 573/4/5
f 578/4/5 574/4/5 577/4/5
f 579/4/5 576/4/5 575/4/5
f 580/4/5 576/4/5 579/4/5
f 581/4/6 582/4/6 585/4/6
f 585/4/6 582/4/6 586/4/6
f 583/4/6 584/4/6 587/4/6
f 587/4/6 584/4/6 588/4/6
f 589/4/6 590/4/6 593/4/6
f 593/4/6 590/4/6 594/4/6
f 591/4/6 592/4/6 595/4/6
f 595/4/6 592/4/6 596/4/6
f 597/4/6 598/4/6 601/4/6
f 601/4/6 598/4/6 602/4/6
f 599/4/6 600/4/6 603/4/6
f 603/4/6 600/4/6 604/4/6
f 605/4/6 606/4/6 609/4/6
f 609/4/6 606/4/6 610/4/6
f 607/4/6 608/4/6 611/4/6
f 611/4/6 608/4/6 612/4/6
f 613/4/6 614/4/6 617/4/6
f 617/4/6 614/4/6 618/4/6
f 615/4/6 616/4/6 619/4/6
f 619/4/6 616/4/6 620/4/6
f 621/4/6 622/4/6 625/4/6
f 625/4/6 622/4/6 626/4/6
f 623/4/6 624/4/6 627/4/6
f 627/4/6 624/4/6 628/4/6
f 629/4/6 630/4/6 631/4/6
f 631/4/6 630/4/6 632/4/6
f 629/4/6 631/4/6 633/4/6
f 632/4/6 630/4/6 634/4/6
f 629/4/6 633/4/6 635/4/6
f 633/4/6 634/4/6 635/4/6
f 634/4/6 630/4/6 636/4/6
f 635/4/6 634/4/6 636/4/6
f 637/3/6 638/3/6 639/3/6
f 639/3/6 638/3/6 640/3/6
f 637/3/6 639/3/6 641/3/6
f 640/3/6 638/3/6 642/3/6
f 637/3/6 641/3/6 643/3/6
f 641/3/6 642/3/6 643/3/6
f 642/3/6 638/3/6 644/3/6
f 643/3/6 642/3/6 644/3/6
f 645/1/6 646/1/6 647/1/6
f 647/1/6 646/1/6 648/1/6
