# MagicaVoxel @ Ephtracy

# material
mtllib Going Down 6.mtl
usemtl palette

# normals
vn -1 0 0
vn 1 0 0
vn 0 0 1
vn 0 0 -1
vn 0 -1 0
vn 0 1 0

# texcoords
vt 0.0644531 0.5
vt 0.232422 0.5
vt 0.373047 0.5
vt 0.841797 0.5
vt 0.962891 0.5

# verts
v -11 63 5
v -11 63 -5
v -11 69 5
v -11 69 -5
v -10 60 5
v -10 60 -5
v -10 63 5
v -10 63 -5
v -10 69 5
v -10 69 -5
v -10 72 5
v -10 72 -5
v -9 59 5
v -9 59 -5
v -9 60 5
v -9 60 -5
v -9 72 5
v -9 72 -5
v -9 73 5
v -9 73 -5
v -8 58 5
v -8 58 -5
v -8 59 5
v -8 59 -5
v -8 73 5
v -8 73 -5
v -8 74 5
v -8 74 -5
v -7 57 5
v -7 57 -5
v -7 58 5
v -7 58 -5
v -7 74 5
v -7 74 -5
v -7 75 5
v -7 75 -5
v -6 56 5
v -6 56 -5
v -6 57 5
v -6 57 -5
v -6 75 5
v -6 75 -5
v -6 76 5
v -6 76 -5
v -3 55 5
v -3 55 -5
v -3 56 5
v -3 56 -5
v -3 76 5
v -3 76 -5
v -3 77 5
v -3 77 -5
v -2 77 2
v -2 77 -2
v -2 79 2
v -2 79 -2
v -1 79 1
v -1 79 -1
v -1 80 1
v -1 80 -1
v -1 83 1
v -1 83 -1
v -1 84 1
v -1 84 -1
v -1 87 1
v -1 87 -1
v -1 88 1
v -1 88 -1
v -1 91 1
v -1 91 -1
v -1 92 1
v -1 92 -1
v -1 95 1
v -1 95 -1
v -1 96 1
v -1 96 -1
v -1 99 1
v -1 99 -1
v -1 100 1
v -1 100 -1
v 1 79 1
v 1 79 -1
v 1 80 1
v 1 80 -1
v 1 83 1
v 1 83 -1
v 1 84 1
v 1 84 -1
v 1 87 1
v 1 87 -1
v 1 88 1
v 1 88 -1
v 1 91 1
v 1 91 -1
v 1 92 1
v 1 92 -1
v 1 95 1
v 1 95 -1
v 1 96 1
v 1 96 -1
v 1 99 1
v 1 99 -1
v 1 100 1
v 1 100 -1
v 2 77 2
v 2 77 -2
v 2 79 2
v 2 79 -2
v 3 55 5
v 3 55 -5
v 3 56 5
v 3 56 -5
v 3 76 5
v 3 76 -5
v 3 77 5
v 3 77 -5
v 6 56 5
v 6 56 -5
v 6 57 5
v 6 57 -5
v 6 75 5
v 6 75 -5
v 6 76 5
v 6 76 -5
v 7 57 5
v 7 57 -5
v 7 58 5
v 7 58 -5
v 7 74 5
v 7 74 -5
v 7 75 5
v 7 75 -5
v 8 58 5
v 8 58 -5
v 8 59 5
v 8 59 -5
v 8 73 5
v 8 73 -5
v 8 74 5
v 8 74 -5
v 9 59 5
v 9 59 -5
v 9 60 5
v 9 60 -5
v 9 72 5
v 9 72 -5
v 9 73 5
v 9 73 -5
v 10 60 5
v 10 60 -5
v 10 63 5
v 10 63 -5
v 10 69 5
v 10 69 -5
v 10 72 5
v 10 72 -5
v 11 63 5
v 11 63 -5
v 11 69 5
v 11 69 -5
v -11 63 5
v -11 69 5
v -10 60 5
v -10 63 5
v -10 69 5
v -10 72 5
v -9 59 5
v -9 60 5
v -9 63 5
v -9 69 5
v -9 72 5
v -9 73 5
v -8 58 5
v -8 59 5
v -8 60 5
v -8 63 5
v -8 69 5
v -8 72 5
v -8 73 5
v -8 74 5
v -7 57 5
v -7 58 5
v -7 59 5
v -7 60 5
v -7 72 5
v -7 73 5
v -7 74 5
v -7 75 5
v -6 56 5
v -6 57 5
v -6 58 5
v -6 59 5
v -6 60 5
v -6 72 5
v -6 73 5
v -6 74 5
v -6 75 5
v -6 76 5
v -5 57 5
v -5 58 5
v -5 59 5
v -5 64 5
v -5 68 5
v -5 73 5
v -5 74 5
v -5 75 5
v -4 63 5
v -4 64 5
v -4 68 5
v -4 69 5
v -3 55 5
v -3 56 5
v -3 62 5
v -3 63 5
v -3 64 5
v -3 68 5
v -3 69 5
v -3 70 5
v -3 76 5
v -3 77 5
v -2 61 5
v -2 62 5
v -2 63 5
v -2 69 5
v -2 70 5
v -2 71 5
v -1 64 5
v -1 68 5
v 1 64 5
v 1 68 5
v 2 61 5
v 2 62 5
v 2 63 5
v 2 69 5
v 2 70 5
v 2 71 5
v 3 55 5
v 3 56 5
v 3 62 5
v 3 63 5
v 3 64 5
v 3 68 5
v 3 69 5
v 3 70 5
v 3 76 5
v 3 77 5
v 4 63 5
v 4 64 5
v 4 68 5
v 4 69 5
v 5 57 5
v 5 58 5
v 5 59 5
v 5 64 5
v 5 68 5
v 5 73 5
v 5 74 5
v 5 75 5
v 6 56 5
v 6 57 5
v 6 58 5
v 6 59 5
v 6 60 5
v 6 72 5
v 6 73 5
v 6 74 5
v 6 75 5
v 6 76 5
v 7 57 5
v 7 58 5
v 7 59 5
v 7 60 5
v 7 72 5
v 7 73 5
v 7 74 5
v 7 75 5
v 8 58 5
v 8 59 5
v 8 60 5
v 8 63 5
v 8 69 5
v 8 72 5
v 8 73 5
v 8 74 5
v 9 59 5
v 9 60 5
v 9 63 5
v 9 69 5
v 9 72 5
v 9 73 5
v 10 60 5
v 10 63 5
v 10 69 5
v 10 72 5
v 11 63 5
v 11 69 5
v -2 77 2
v -2 79 2
v 2 77 2
v 2 79 2
v -1 79 1
v -1 80 1
v -1 83 1
v -1 84 1
v -1 87 1
v -1 88 1
v -1 91 1
v -1 92 1
v -1 95 1
v -1 96 1
v -1 99 1
v -1 100 1
v 1 79 1
v 1 80 1
v 1 83 1
v 1 84 1
v 1 87 1
v 1 88 1
v 1 91 1
v 1 92 1
v 1 95 1
v 1 96 1
v 1 99 1
v 1 100 1
v -1 79 -1
v -1 80 -1
v -1 83 -1
v -1 84 -1
v -1 87 -1
v -1 88 -1
v -1 91 -1
v -1 92 -1
v -1 95 -1
v -1 96 -1
v -1 99 -1
v -1 100 -1
v 1 79 -1
v 1 80 -1
v 1 83 -1
v 1 84 -1
v 1 87 -1
v 1 88 -1
v 1 91 -1
v 1 92 -1
v 1 95 -1
v 1 96 -1
v 1 99 -1
v 1 100 -1
v -2 77 -2
v -2 79 -2
v 2 77 -2
v 2 79 -2
v -11 63 -5
v -11 69 -5
v -10 60 -5
v -10 63 -5
v -10 69 -5
v -10 72 -5
v -9 59 -5
v -9 60 -5
v -9 63 -5
v -9 69 -5
v -9 72 -5
v -9 73 -5
v -8 58 -5
v -8 59 -5
v -8 60 -5
v -8 63 -5
v -8 69 -5
v -8 72 -5
v -8 73 -5
v -8 74 -5
v -7 57 -5
v -7 58 -5
v -7 59 -5
v -7 60 -5
v -7 72 -5
v -7 73 -5
v -7 74 -5
v -7 75 -5
v -6 56 -5
v -6 57 -5
v -6 58 -5
v -6 59 -5
v -6 60 -5
v -6 72 -5
v -6 73 -5
v -6 74 -5
v -6 75 -5
v -6 76 -5
v -5 57 -5
v -5 58 -5
v -5 59 -5
v -5 64 -5
v -5 68 -5
v -5 73 -5
v -5 74 -5
v -5 75 -5
v -4 63 -5
v -4 64 -5
v -4 68 -5
v -4 69 -5
v -3 55 -5
v -3 56 -5
v -3 62 -5
v -3 63 -5
v -3 64 -5
v -3 68 -5
v -3 69 -5
v -3 70 -5
v -3 76 -5
v -3 77 -5
v -2 61 -5
v -2 62 -5
v -2 63 -5
v -2 69 -5
v -2 70 -5
v -2 71 -5
v -1 64 -5
v -1 68 -5
v 1 64 -5
v 1 68 -5
v 2 61 -5
v 2 62 -5
v 2 63 -5
v 2 69 -5
v 2 70 -5
v 2 71 -5
v 3 55 -5
v 3 56 -5
v 3 62 -5
v 3 63 -5
v 3 64 -5
v 3 68 -5
v 3 69 -5
v 3 70 -5
v 3 76 -5
v 3 77 -5
v 4 63 -5
v 4 64 -5
v 4 68 -5
v 4 69 -5
v 5 57 -5
v 5 58 -5
v 5 59 -5
v 5 64 -5
v 5 68 -5
v 5 73 -5
v 5 74 -5
v 5 75 -5
v 6 56 -5
v 6 57 -5
v 6 58 -5
v 6 59 -5
v 6 60 -5
v 6 72 -5
v 6 73 -5
v 6 74 -5
v 6 75 -5
v 6 76 -5
v 7 57 -5
v 7 58 -5
v 7 59 -5
v 7 60 -5
v 7 72 -5
v 7 73 -5
v 7 74 -5
v 7 75 -5
v 8 58 -5
v 8 59 -5
v 8 60 -5
v 8 63 -5
v 8 69 -5
v 8 72 -5
v 8 73 -5
v 8 74 -5
v 9 59 -5
v 9 60 -5
v 9 63 -5
v 9 69 -5
v 9 72 -5
v 9 73 -5
v 10 60 -5
v 10 63 -5
v 10 69 -5
v 10 72 -5
v 11 63 -5
v 11 69 -5
v -3 55 5
v 3 55 5
v -3 55 -5
v 3 55 -5
v -6 56 5
v -3 56 5
v 3 56 5
v 6 56 5
v -6 56 -5
v -3 56 -5
v 3 56 -5
v 6 56 -5
v -7 57 5
v -6 57 5
v 6 57 5
v 7 57 5
v -7 57 -5
v -6 57 -5
v 6 57 -5
v 7 57 -5
v -8 58 5
v -7 58 5
v 7 58 5
v 8 58 5
v -8 58 -5
v -7 58 -5
v 7 58 -5
v 8 58 -5
v -9 59 5
v -8 59 5
v 8 59 5
v 9 59 5
v -9 59 -5
v -8 59 -5
v 8 59 -5
v 9 59 -5
v -10 60 5
v -9 60 5
v 9 60 5
v 10 60 5
v -10 60 -5
v -9 60 -5
v 9 60 -5
v 10 60 -5
v -11 63 5
v -10 63 5
v 10 63 5
v 11 63 5
v -11 63 -5
v -10 63 -5
v 10 63 -5
v 11 63 -5
v -11 69 5
v -10 69 5
v 10 69 5
v 11 69 5
v -11 69 -5
v -10 69 -5
v 10 69 -5
v 11 69 -5
v -10 72 5
v -9 72 5
v 9 72 5
v 10 72 5
v -10 72 -5
v -9 72 -5
v 9 72 -5
v 10 72 -5
v -9 73 5
v -8 73 5
v 8 73 5
v 9 73 5
v -9 73 -5
v -8 73 -5
v 8 73 -5
v 9 73 -5
v -8 74 5
v -7 74 5
v 7 74 5
v 8 74 5
v -8 74 -5
v -7 74 -5
v 7 74 -5
v 8 74 -5
v -7 75 5
v -6 75 5
v 6 75 5
v 7 75 5
v -7 75 -5
v -6 75 -5
v 6 75 -5
v 7 75 -5
v -6 76 5
v -3 76 5
v 3 76 5
v 6 76 5
v -6 76 -5
v -3 76 -5
v 3 76 -5
v 6 76 -5
v -3 77 5
v 3 77 5
v -2 77 2
v 2 77 2
v -2 77 -2
v 2 77 -2
v -3 77 -5
v 3 77 -5
v -2 79 2
v 2 79 2
v -1 79 1
v 1 79 1
v -1 79 -1
v 1 79 -1
v -2 79 -2
v 2 79 -2
v -1 100 1
v 1 100 1
v -1 100 -1
v 1 100 -1

# faces
f 3/4/1 2/4/1 1/4/1
f 4/4/1 2/4/1 3/4/1
f 7/4/1 6/4/1 5/4/1
f 8/4/1 6/4/1 7/4/1
f 11/4/1 10/4/1 9/4/1
f 12/4/1 10/4/1 11/4/1
f 15/4/1 14/4/1 13/4/1
f 16/4/1 14/4/1 15/4/1
f 19/4/1 18/4/1 17/4/1
f 20/4/1 18/4/1 19/4/1
f 23/4/1 22/4/1 21/4/1
f 24/4/1 22/4/1 23/4/1
f 27/4/1 26/4/1 25/4/1
f 28/4/1 26/4/1 27/4/1
f 31/4/1 30/4/1 29/4/1
f 32/4/1 30/4/1 31/4/1
f 35/4/1 34/4/1 33/4/1
f 36/4/1 34/4/1 35/4/1
f 39/4/1 38/4/1 37/4/1
f 40/4/1 38/4/1 39/4/1
f 43/4/1 42/4/1 41/4/1
f 44/4/1 42/4/1 43/4/1
f 47/4/1 46/4/1 45/4/1
f 48/4/1 46/4/1 47/4/1
f 51/4/1 50/4/1 49/4/1
f 52/4/1 50/4/1 51/4/1
f 55/3/1 54/3/1 53/3/1
f 56/3/1 54/3/1 55/3/1
f 59/1/1 58/1/1 57/1/1
f 60/1/1 58/1/1 59/1/1
f 61/2/1 60/2/1 59/2/1
f 62/2/1 60/2/1 61/2/1
f 63/1/1 62/1/1 61/1/1
f 64/1/1 62/1/1 63/1/1
f 65/2/1 64/2/1 63/2/1
f 66/2/1 64/2/1 65/2/1
f 67/1/1 66/1/1 65/1/1
f 68/1/1 66/1/1 67/1/1
f 69/2/1 68/2/1 67/2/1
f 70/2/1 68/2/1 69/2/1
f 71/1/1 70/1/1 69/1/1
f 72/1/1 70/1/1 71/1/1
f 73/2/1 72/2/1 71/2/1
f 74/2/1 72/2/1 73/2/1
f 75/1/1 74/1/1 73/1/1
f 76/1/1 74/1/1 75/1/1
f 77/2/1 76/2/1 75/2/1
f 78/2/1 76/2/1 77/2/1
f 79/1/1 78/1/1 77/1/1
f 80/1/1 78/1/1 79/1/1
f 81/1/2 82/1/2 83/1/2
f 83/1/2 82/1/2 84/1/2
f 83/2/2 84/2/2 85/2/2
f 85/2/2 84/2/2 86/2/2
f 85/1/2 86/1/2 87/1/2
f 87/1/2 86/1/2 88/1/2
f 87/2/2 88/2/2 89/2/2
f 89/2/2 88/2/2 90/2/2
f 89/1/2 90/1/2 91/1/2
f 91/1/2 90/1/2 92/1/2
f 91/2/2 92/2/2 93/2/2
f 93/2/2 92/2/2 94/2/2
f 93/1/2 94/1/2 95/1/2
f 95/1/2 94/1/2 96/1/2
f 95/2/2 96/2/2 97/2/2
f 97/2/2 96/2/2 98/2/2
f 97/1/2 98/1/2 99/1/2
f 99/1/2 98/1/2 100/1/2
f 99/2/2 100/2/2 101/2/2
f 101/2/2 100/2/2 102/2/2
f 101/1/2 102/1/2 103/1/2
f 103/1/2 102/1/2 104/1/2
f 105/3/2 106/3/2 107/3/2
f 107/3/2 106/3/2 108/3/2
f 109/4/2 110/4/2 111/4/2
f 111/4/2 110/4/2 112/4/2
f 113/4/2 114/4/2 115/4/2
f 115/4/2 114/4/2 116/4/2
f 117/4/2 118/4/2 119/4/2
f 119/4/2 118/4/2 120/4/2
f 121/4/2 122/4/2 123/4/2
f 123/4/2 122/4/2 124/4/2
f 125/4/2 126/4/2 127/4/2
f 127/4/2 126/4/2 128/4/2
f 129/4/2 130/4/2 131/4/2
f 131/4/2 130/4/2 132/4/2
f 133/4/2 134/4/2 135/4/2
f 135/4/2 134/4/2 136/4/2
f 137/4/2 138/4/2 139/4/2
f 139/4/2 138/4/2 140/4/2
f 141/4/2 142/4/2 143/4/2
f 143/4/2 142/4/2 144/4/2
f 145/4/2 146/4/2 147/4/2
f 147/4/2 146/4/2 148/4/2
f 149/4/2 150/4/2 151/4/2
f 151/4/2 150/4/2 152/4/2
f 153/4/2 154/4/2 155/4/2
f 155/4/2 154/4/2 156/4/2
f 157/4/2 158/4/2 159/4/2
f 159/4/2 158/4/2 160/4/2
f 164/4/3 162/4/3 161/4/3
f 165/4/3 162/4/3 164/4/3
f 168/4/3 164/4/3 163/4/3
f 168/4/3 166/4/3 165/4/3
f 168/4/3 165/4/3 164/4/3
f 169/4/3 166/4/3 168/4/3
f 170/4/3 166/4/3 169/4/3
f 171/4/3 166/4/3 170/4/3
f 174/4/3 168/4/3 167/4/3
f 174/4/3 169/4/3 168/4/3
f 175/4/3 169/4/3 174/4/3
f 176/5/3 170/5/3 169/5/3
f 176/4/3 169/4/3 175/4/3
f 177/4/3 172/4/3 171/4/3
f 177/5/3 170/5/3 176/5/3
f 177/4/3 171/4/3 170/4/3
f 178/4/3 172/4/3 177/4/3
f 179/4/3 172/4/3 178/4/3
f 182/4/3 174/4/3 173/4/3
f 182/4/3 175/4/3 174/4/3
f 183/4/3 175/4/3 182/4/3
f 184/5/3 176/5/3 175/5/3
f 184/4/3 175/4/3 183/4/3
f 184/5/3 177/5/3 176/5/3
f 184/5/3 178/5/3 177/5/3
f 185/4/3 180/4/3 179/4/3
f 185/5/3 178/5/3 184/5/3
f 185/4/3 179/4/3 178/4/3
f 186/4/3 180/4/3 185/4/3
f 187/4/3 180/4/3 186/4/3
f 190/4/3 183/4/3 182/4/3
f 190/4/3 182/4/3 181/4/3
f 191/4/3 183/4/3 190/4/3
f 192/5/3 184/5/3 183/5/3
f 192/4/3 183/4/3 191/4/3
f 193/4/3 185/4/3 184/4/3
f 193/5/3 184/5/3 192/5/3
f 194/5/3 186/5/3 185/5/3
f 194/4/3 185/4/3 193/4/3
f 195/4/3 188/4/3 187/4/3
f 195/5/3 186/5/3 194/5/3
f 195/4/3 187/4/3 186/4/3
f 196/4/3 188/4/3 195/4/3
f 197/4/3 188/4/3 196/4/3
f 199/4/3 191/4/3 190/4/3
f 199/4/3 190/4/3 189/4/3
f 200/5/3 192/5/3 191/5/3
f 200/4/3 191/4/3 199/4/3
f 201/4/3 194/4/3 193/4/3
f 201/5/3 192/5/3 200/5/3
f 201/4/3 193/4/3 192/4/3
f 201/4/3 195/4/3 194/4/3
f 202/4/3 195/4/3 201/4/3
f 203/4/3 195/4/3 202/4/3
f 204/5/3 196/5/3 195/5/3
f 204/4/3 195/4/3 203/4/3
f 205/4/3 198/4/3 197/4/3
f 205/5/3 196/5/3 204/5/3
f 205/4/3 197/4/3 196/4/3
f 206/4/3 198/4/3 205/4/3
f 207/4/3 202/4/3 201/4/3
f 207/4/3 201/4/3 200/4/3
f 208/5/3 203/5/3 202/5/3
f 208/4/3 202/4/3 207/4/3
f 209/4/3 204/4/3 203/4/3
f 209/5/3 203/5/3 208/5/3
f 209/4/3 205/4/3 204/4/3
f 210/4/3 205/4/3 209/4/3
f 212/4/3 199/4/3 189/4/3
f 213/4/3 207/4/3 200/4/3
f 214/5/3 208/5/3 207/5/3
f 214/4/3 207/4/3 213/4/3
f 215/4/3 209/4/3 208/4/3
f 215/5/3 208/5/3 214/5/3
f 216/5/3 210/5/3 209/5/3
f 216/4/3 209/4/3 215/4/3
f 217/4/3 205/4/3 210/4/3
f 217/5/3 210/5/3 216/5/3
f 218/4/3 205/4/3 217/4/3
f 219/4/3 198/4/3 206/4/3
f 221/4/3 213/4/3 200/4/3
f 222/5/3 214/5/3 213/5/3
f 222/4/3 213/4/3 221/4/3
f 223/4/3 216/4/3 215/4/3
f 223/5/3 214/5/3 222/5/3
f 223/4/3 215/4/3 214/4/3
f 223/4/3 217/4/3 216/4/3
f 224/5/3 218/5/3 217/5/3
f 224/4/3 217/4/3 223/4/3
f 225/4/3 205/4/3 218/4/3
f 225/5/3 218/5/3 224/5/3
f 226/4/3 205/4/3 225/4/3
f 227/4/3 224/4/3 223/4/3
f 227/4/3 223/4/3 222/4/3
f 227/4/3 225/4/3 224/4/3
f 228/4/3 225/4/3 227/4/3
f 229/4/3 227/4/3 222/4/3
f 229/5/3 228/5/3 227/5/3
f 230/4/3 225/4/3 228/4/3
f 230/5/3 228/5/3 229/5/3
f 231/5/3 222/5/3 221/5/3
f 231/4/3 221/4/3 200/4/3
f 232/4/3 230/4/3 229/4/3
f 232/5/3 222/5/3 231/5/3
f 232/4/3 229/4/3 222/4/3
f 233/4/3 230/4/3 232/4/3
f 234/4/3 225/4/3 230/4/3
f 234/4/3 230/4/3 233/4/3
f 235/5/3 226/5/3 225/5/3
f 235/4/3 225/4/3 234/4/3
f 236/4/3 205/4/3 226/4/3
f 236/5/3 226/5/3 235/5/3
f 237/4/3 212/4/3 211/4/3
f 238/4/3 199/4/3 212/4/3
f 238/4/3 212/4/3 237/4/3
f 239/5/3 233/5/3 232/5/3
f 239/4/3 232/4/3 231/4/3
f 240/4/3 234/4/3 233/4/3
f 240/5/3 233/5/3 239/5/3
f 241/4/3 234/4/3 240/4/3
f 242/4/3 234/4/3 241/4/3
f 243/5/3 235/5/3 234/5/3
f 243/4/3 234/4/3 242/4/3
f 244/4/3 236/4/3 235/4/3
f 244/5/3 235/5/3 243/5/3
f 245/4/3 220/4/3 219/4/3
f 245/4/3 219/4/3 206/4/3
f 246/4/3 220/4/3 245/4/3
f 247/4/3 240/4/3 239/4/3
f 247/5/3 241/5/3 240/5/3
f 248/4/3 242/4/3 241/4/3
f 248/5/3 241/5/3 247/5/3
f 249/5/3 243/5/3 242/5/3
f 249/4/3 242/4/3 248/4/3
f 250/4/3 244/4/3 243/4/3
f 250/5/3 243/5/3 249/5/3
f 251/5/3 200/5/3 199/5/3
f 251/4/3 199/4/3 238/4/3
f 252/4/3 247/4/3 239/4/3
f 252/5/3 200/5/3 251/5/3
f 252/4/3 231/4/3 200/4/3
f 252/4/3 239/4/3 231/4/3
f 252/4/3 248/4/3 247/4/3
f 253/4/3 248/4/3 252/4/3
f 254/5/3 249/5/3 248/5/3
f 254/4/3 248/4/3 253/4/3
f 255/4/3 250/4/3 249/4/3
f 255/5/3 249/5/3 254/5/3
f 256/4/3 244/4/3 250/4/3
f 256/4/3 250/4/3 255/4/3
f 256/4/3 236/4/3 244/4/3
f 256/4/3 205/4/3 236/4/3
f 257/5/3 206/5/3 205/5/3
f 257/4/3 205/4/3 256/4/3
f 258/4/3 245/4/3 206/4/3
f 258/5/3 206/5/3 257/5/3
f 259/4/3 252/4/3 251/4/3
f 259/4/3 251/4/3 238/4/3
f 260/4/3 252/4/3 259/4/3
f 261/5/3 253/5/3 252/5/3
f 261/4/3 252/4/3 260/4/3
f 262/4/3 255/4/3 254/4/3
f 262/5/3 253/5/3 261/5/3
f 262/4/3 254/4/3 253/4/3
f 262/4/3 256/4/3 255/4/3
f 263/4/3 256/4/3 262/4/3
f 264/4/3 256/4/3 263/4/3
f 265/5/3 257/5/3 256/5/3
f 265/4/3 256/4/3 264/4/3
f 266/4/3 258/4/3 257/4/3
f 266/5/3 257/5/3 265/5/3
f 267/4/3 245/4/3 258/4/3
f 267/4/3 258/4/3 266/4/3
f 268/4/3 245/4/3 267/4/3
f 269/4/3 261/4/3 260/4/3
f 269/4/3 262/4/3 261/4/3
f 270/4/3 262/4/3 269/4/3
f 271/5/3 263/5/3 262/5/3
f 271/4/3 262/4/3 270/4/3
f 272/4/3 264/4/3 263/4/3
f 272/5/3 263/5/3 271/5/3
f 273/5/3 265/5/3 264/5/3
f 273/4/3 264/4/3 272/4/3
f 274/4/3 266/4/3 265/4/3
f 274/5/3 265/5/3 273/5/3
f 274/4/3 267/4/3 266/4/3
f 275/4/3 267/4/3 274/4/3
f 276/4/3 267/4/3 275/4/3
f 277/4/3 272/4/3 271/4/3
f 277/4/3 271/4/3 270/4/3
f 278/4/3 272/4/3 277/4/3
f 279/5/3 273/5/3 272/5/3
f 279/4/3 272/4/3 278/4/3
f 280/5/3 273/5/3 279/5/3
f 281/5/3 273/5/3 280/5/3
f 282/4/3 275/4/3 274/4/3
f 282/5/3 273/5/3 281/5/3
f 282/4/3 274/4/3 273/4/3
f 283/4/3 275/4/3 282/4/3
f 284/4/3 275/4/3 283/4/3
f 285/4/3 280/4/3 279/4/3
f 285/4/3 279/4/3 278/4/3
f 286/4/3 280/4/3 285/4/3
f 287/5/3 281/5/3 280/5/3
f 287/4/3 280/4/3 286/4/3
f 288/4/3 283/4/3 282/4/3
f 288/5/3 281/5/3 287/5/3
f 288/4/3 282/4/3 281/4/3
f 289/4/3 283/4/3 288/4/3
f 290/4/3 283/4/3 289/4/3
f 291/4/3 287/4/3 286/4/3
f 291/4/3 289/4/3 288/4/3
f 291/4/3 288/4/3 287/4/3
f 292/4/3 289/4/3 291/4/3
f 293/4/3 289/4/3 292/4/3
f 294/4/3 289/4/3 293/4/3
f 295/4/3 293/4/3 292/4/3
f 296/4/3 293/4/3 295/4/3
f 299/3/3 298/3/3 297/3/3
f 300/3/3 298/3/3 299/3/3
f 313/1/3 302/1/3 301/1/3
f 314/2/3 303/2/3 302/2/3
f 314/1/3 302/1/3 313/1/3
f 315/1/3 304/1/3 303/1/3
f 315/2/3 303/2/3 314/2/3
f 316/2/3 305/2/3 304/2/3
f 316/1/3 304/1/3 315/1/3
f 317/1/3 306/1/3 305/1/3
f 317/2/3 305/2/3 316/2/3
f 318/2/3 307/2/3 306/2/3
f 318/1/3 306/1/3 317/1/3
f 319/1/3 308/1/3 307/1/3
f 319/2/3 307/2/3 318/2/3
f 320/2/3 309/2/3 308/2/3
f 320/1/3 308/1/3 319/1/3
f 321/1/3 310/1/3 309/1/3
f 321/2/3 309/2/3 320/2/3
f 322/2/3 311/2/3 310/2/3
f 322/1/3 310/1/3 321/1/3
f 323/1/3 312/1/3 311/1/3
f 323/2/3 311/2/3 322/2/3
f 324/1/3 312/1/3 323/1/3
f 325/1/4 326/1/4 337/1/4
f 326/2/4 327/2/4 338/2/4
f 337/1/4 326/1/4 338/1/4
f 327/1/4 328/1/4 339/1/4
f 338/2/4 327/2/4 339/2/4
f 328/2/4 329/2/4 340/2/4
f 339/1/4 328/1/4 340/1/4
f 329/1/4 330/1/4 341/1/4
f 340/2/4 329/2/4 341/2/4
f 330/2/4 331/2/4 342/2/4
f 341/1/4 330/1/4 342/1/4
f 331/1/4 332/1/4 343/1/4
f 342/2/4 331/2/4 343/2/4
f 332/2/4 333/2/4 344/2/4
f 343/1/4 332/1/4 344/1/4
f 333/1/4 334/1/4 345/1/4
f 344/2/4 333/2/4 345/2/4
f 334/2/4 335/2/4 346/2/4
f 345/1/4 334/1/4 346/1/4
f 335/1/4 336/1/4 347/1/4
f 346/2/4 335/2/4 347/2/4
f 347/1/4 336/1/4 348/1/4
f 349/3/4 350/3/4 351/3/4
f 351/3/4 350/3/4 352/3/4
f 353/4/4 354/4/4 356/4/4
f 356/4/4 354/4/4 357/4/4
f 355/4/4 356/4/4 360/4/4
f 357/4/4 358/4/4 360/4/4
f 356/4/4 357/4/4 360/4/4
f 360/4/4 358/4/4 361/4/4
f 361/4/4 358/4/4 362/4/4
f 362/4/4 358/4/4 363/4/4
f 359/4/4 360/4/4 366/4/4
f 360/4/4 361/4/4 366/4/4
f 366/4/4 361/4/4 367/4/4
f 361/5/4 362/5/4 368/5/4
f 367/4/4 361/4/4 368/4/4
f 363/4/4 364/4/4 369/4/4
f 368/5/4 362/5/4 369/5/4
f 362/4/4 363/4/4 369/4/4
f 369/4/4 364/4/4 370/4/4
f 370/4/4 364/4/4 371/4/4
f 365/4/4 366/4/4 374/4/4
f 366/4/4 367/4/4 374/4/4
f 374/4/4 367/4/4 375/4/4
f 367/5/4 368/5/4 376/5/4
f 375/4/4 367/4/4 376/4/4
f 368/5/4 369/5/4 376/5/4
f 369/5/4 370/5/4 376/5/4
f 371/4/4 372/4/4 377/4/4
f 376/5/4 370/5/4 377/5/4
f 370/4/4 371/4/4 377/4/4
f 377/4/4 372/4/4 378/4/4
f 378/4/4 372/4/4 379/4/4
f 374/4/4 375/4/4 382/4/4
f 373/4/4 374/4/4 382/4/4
f 382/4/4 375/4/4 383/4/4
f 375/5/4 376/5/4 384/5/4
f 383/4/4 375/4/4 384/4/4
f 376/4/4 377/4/4 385/4/4
f 384/5/4 376/5/4 385/5/4
f 377/5/4 378/5/4 386/5/4
f 385/4/4 377/4/4 386/4/4
f 379/4/4 380/4/4 387/4/4
f 386/5/4 378/5/4 387/5/4
f 378/4/4 379/4/4 387/4/4
f 387/4/4 380/4/4 388/4/4
f 388/4/4 380/4/4 389/4/4
f 382/4/4 383/4/4 391/4/4
f 381/4/4 382/4/4 391/4/4
f 383/5/4 384/5/4 392/5/4
f 391/4/4 383/4/4 392/4/4
f 385/4/4 386/4/4 393/4/4
f 392/5/4 384/5/4 393/5/4
f 384/4/4 385/4/4 393/4/4
f 386/4/4 387/4/4 393/4/4
f 393/4/4 387/4/4 394/4/4
f 394/4/4 387/4/4 395/4/4
f 387/5/4 388/5/4 396/5/4
f 395/4/4 387/4/4 396/4/4
f 389/4/4 390/4/4 397/4/4
f 396/5/4 388/5/4 397/5/4
f 388/4/4 389/4/4 397/4/4
f 397/4/4 390/4/4 398/4/4
f 393/4/4 394/4/4 399/4/4
f 392/4/4 393/4/4 399/4/4
f 394/5/4 395/5/4 400/5/4
f 399/4/4 394/4/4 400/4/4
f 395/4/4 396/4/4 401/4/4
f 400/5/4 395/5/4 401/5/4
f 396/4/4 397/4/4 401/4/4
f 401/4/4 397/4/4 402/4/4
f 381/4/4 391/4/4 404/4/4
f 392/4/4 399/4/4 405/4/4
f 399/5/4 400/5/4 406/5/4
f 405/4/4 399/4/4 406/4/4
f 400/4/4 401/4/4 407/4/4
f 406/5/4 400/5/4 407/5/4
f 401/5/4 402/5/4 408/5/4
f 407/4/4 401/4/4 408/4/4
f 402/4/4 397/4/4 409/4/4
f 408/5/4 402/5/4 409/5/4
f 409/4/4 397/4/4 410/4/4
f 398/4/4 390/4/4 411/4/4
f 392/4/4 405/4/4 413/4/4
f 405/5/4 406/5/4 414/5/4
f 413/4/4 405/4/4 414/4/4
f 407/4/4 408/4/4 415/4/4
f 414/5/4 406/5/4 415/5/4
f 406/4/4 407/4/4 415/4/4
f 408/4/4 409/4/4 415/4/4
f 409/5/4 410/5/4 416/5/4
f 415/4/4 409/4/4 416/4/4
f 410/4/4 397/4/4 417/4/4
f 416/5/4 410/5/4 417/5/4
f 417/4/4 397/4/4 418/4/4
f 415/4/4 416/4/4 419/4/4
f 414/4/4 415/4/4 419/4/4
f 416/4/4 417/4/4 419/4/4
f 419/4/4 417/4/4 420/4/4
f 414/4/4 419/4/4 421/4/4
f 419/5/4 420/5/4 421/5/4
f 420/4/4 417/4/4 422/4/4
f 421/5/4 420/5/4 422/5/4
f 413/5/4 414/5/4 423/5/4
f 392/4/4 413/4/4 423/4/4
f 421/4/4 422/4/4 424/4/4
f 423/5/4 414/5/4 424/5/4
f 414/4/4 421/4/4 424/4/4
f 424/4/4 422/4/4 425/4/4
f 422/4/4 417/4/4 426/4/4
f 425/4/4 422/4/4 426/4/4
f 417/5/4 418/5/4 427/5/4
f 426/4/4 417/4/4 427/4/4
f 418/4/4 397/4/4 428/4/4
f 427/5/4 418/5/4 428/5/4
f 403/4/4 404/4/4 429/4/4
f 404/4/4 391/4/4 430/4/4
f 429/4/4 404/4/4 430/4/4
f 424/5/4 425/5/4 431/5/4
f 423/4/4 424/4/4 431/4/4
f 425/4/4 426/4/4 432/4/4
f 431/5/4 425/5/4 432/5/4
f 432/4/4 426/4/4 433/4/4
f 433/4/4 426/4/4 434/4/4
f 426/5/4 427/5/4 435/5/4
f 434/4/4 426/4/4 435/4/4
f 427/4/4 428/4/4 436/4/4
f 435/5/4 427/5/4 436/5/4
f 411/4/4 412/4/4 437/4/4
f 398/4/4 411/4/4 437/4/4
f 437/4/4 412/4/4 438/4/4
f 431/4/4 432/4/4 439/4/4
f 432/5/4 433/5/4 439/5/4
f 433/4/4 434/4/4 440/4/4
f 439/5/4 433/5/4 440/5/4
f 434/5/4 435/5/4 441/5/4
f 440/4/4 434/4/4 441/4/4
f 435/4/4 436/4/4 442/4/4
f 441/5/4 435/5/4 442/5/4
f 391/5/4 392/5/4 443/5/4
f 430/4/4 391/4/4 443/4/4
f 431/4/4 439/4/4 444/4/4
f 443/5/4 392/5/4 444/5/4
f 392/4/4 423/4/4 444/4/4
f 423/4/4 431/4/4 444/4/4
f 439/4/4 440/4/4 444/4/4
f 444/4/4 440/4/4 445/4/4
f 440/5/4 441/5/4 446/5/4
f 445/4/4 440/4/4 446/4/4
f 441/4/4 442/4/4 447/4/4
f 446/5/4 441/5/4 447/5/4
f 442/4/4 436/4/4 448/4/4
f 447/4/4 442/4/4 448/4/4
f 436/4/4 428/4/4 448/4/4
f 428/4/4 397/4/4 448/4/4
f 397/5/4 398/5/4 449/5/4
f 448/4/4 397/4/4 449/4/4
f 398/4/4 437/4/4 450/4/4
f 449/5/4 398/5/4 450/5/4
f 443/4/4 444/4/4 451/4/4
f 430/4/4 443/4/4 451/4/4
f 451/4/4 444/4/4 452/4/4
f 444/5/4 445/5/4 453/5/4
f 452/4/4 444/4/4 453/4/4
f 446/4/4 447/4/4 454/4/4
f 453/5/4 445/5/4 454/5/4
f 445/4/4 446/4/4 454/4/4
f 447/4/4 448/4/4 454/4/4
f 454/4/4 448/4/4 455/4/4
f 455/4/4 448/4/4 456/4/4
f 448/5/4 449/5/4 457/5/4
f 456/4/4 448/4/4 457/4/4
f 449/4/4 450/4/4 458/4/4
f 457/5/4 449/5/4 458/5/4
f 450/4/4 437/4/4 459/4/4
f 458/4/4 450/4/4 459/4/4
f 459/4/4 437/4/4 460/4/4
f 452/4/4 453/4/4 461/4/4
f 453/4/4 454/4/4 461/4/4
f 461/4/4 454/4/4 462/4/4
f 454/5/4 455/5/4 463/5/4
f 462/4/4 454/4/4 463/4/4
f 455/4/4 456/4/4 464/4/4
f 463/5/4 455/5/4 464/5/4
f 456/5/4 457/5/4 465/5/4
f 464/4/4 456/4/4 465/4/4
f 457/4/4 458/4/4 466/4/4
f 465/5/4 457/5/4 466/5/4
f 458/4/4 459/4/4 466/4/4
f 466/4/4 459/4/4 467/4/4
f 467/4/4 459/4/4 468/4/4
f 463/4/4 464/4/4 469/4/4
f 462/4/4 463/4/4 469/4/4
f 469/4/4 464/4/4 470/4/4
f 464/5/4 465/5/4 471/5/4
f 470/4/4 464/4/4 471/4/4
f 471/5/4 465/5/4 472/5/4
f 472/5/4 465/5/4 473/5/4
f 466/4/4 467/4/4 474/4/4
f 473/5/4 465/5/4 474/5/4
f 465/4/4 466/4/4 474/4/4
f 474/4/4 467/4/4 475/4/4
f 475/4/4 467/4/4 476/4/4
f 471/4/4 472/4/4 477/4/4
f 470/4/4 471/4/4 477/4/4
f 477/4/4 472/4/4 478/4/4
f 472/5/4 473/5/4 479/5/4
f 478/4/4 472/4/4 479/4/4
f 474/4/4 475/4/4 480/4/4
f 479/5/4 473/5/4 480/5/4
f 473/4/4 474/4/4 480/4/4
f 480/4/4 475/4/4 481/4/4
f 481/4/4 475/4/4 482/4/4
f 478/4/4 479/4/4 483/4/4
f 480/4/4 481/4/4 483/4/4
f 479/4/4 480/4/4 483/4/4
f 483/4/4 481/4/4 484/4/4
f 484/4/4 481/4/4 485/4/4
f 485/4/4 481/4/4 486/4/4
f 484/4/4 485/4/4 487/4/4
f 487/4/4 485/4/4 488/4/4
f 491/4/5 490/4/5 489/4/5
f 492/4/5 490/4/5 491/4/5
f 497/4/5 494/4/5 493/4/5
f 498/4/5 494/4/5 497/4/5
f 499/4/5 496/4/5 495/4/5
f 500/4/5 496/4/5 499/4/5
f 505/4/5 502/4/5 501/4/5
f 506/4/5 502/4/5 505/4/5
f 507/4/5 504/4/5 503/4/5
f 508/4/5 504/4/5 507/4/5
f 513/4/5 510/4/5 509/4/5
f 514/4/5 510/4/5 513/4/5
f 515/4/5 512/4/5 511/4/5
f 516/4/5 512/4/5 515/4/5
f 521/4/5 518/4/5 517/4/5
f 522/4/5 518/4/5 521/4/5
f 523/4/5 520/4/5 519/4/5
f 524/4/5 520/4/5 523/4/5
f 529/4/5 526/4/5 525/4/5
f 530/4/5 526/4/5 529/4/5
f 531/4/5 528/4/5 527/4/5
f 532/4/5 528/4/5 531/4/5
f 537/4/5 534/4/5 533/4/5
f 538/4/5 534/4/5 537/4/5
f 539/4/5 536/4/5 535/4/5
f 540/4/5 536/4/5 539/4/5
f 541/4/6 542/4/6 545/4/6
f 545/4/6 542/4/6 546/4/6
f 543/4/6 544/4/6 547/4/6
f 547/4/6 544/4/6 548/4/6
f 549/4/6 550/4/6 553/4/6
f 553/4/6 550/4/6 554/4/6
f 551/4/6 552/4/6 555/4/6
f 555/4/6 552/4/6 556/4/6
f 557/4/6 558/4/6 561/4/6
f 561/4/6 558/4/6 562/4/6
f 559/4/6 560/4/6 563/4/6
f 563/4/6 560/4/6 564/4/6
f 565/4/6 566/4/6 569/4/6
f 569/4/6 566/4/6 570/4/6
f 567/4/6 568/4/6 571/4/6
f 571/4/6 568/4/6 572/4/6
f 573/4/6 574/4/6 577/4/6
f 577/4/6 574/4/6 578/4/6
f 575/4/6 576/4/6 579/4/6
f 579/4/6 576/4/6 580/4/6
f 581/4/6 582/4/6 585/4/6
f 585/4/6 582/4/6 586/4/6
f 583/4/6 584/4/6 587/4/6
f 587/4/6 584/4/6 588/4/6
f 589/4/6 590/4/6 591/4/6
f 591/4/6 590/4/6 592/4/6
f 589/4/6 591/4/6 593/4/6
f 592/4/6 590/4/6 594/4/6
f 589/4/6 593/4/6 595/4/6
f 593/4/6 594/4/6 595/4/6
f 594/4/6 590/4/6 596/4/6
f 595/4/6 594/4/6 596/4/6
f 597/3/6 598/3/6 599/3/6
f 599/3/6 598/3/6 600/3/6
f 597/3/6 599/3/6 601/3/6
f 600/3/6 598/3/6 602/3/6
f 597/3/6 601/3/6 603/3/6
f 601/3/6 602/3/6 603/3/6
f 602/3/6 598/3/6 604/3/6
f 603/3/6 602/3/6 604/3/6
f 605/1/6 606/1/6 607/1/6
f 607/1/6 606/1/6 608/1/6
