# MagicaVoxel @ Ephtracy

# material
mtllib Going Down 3.mtl
usemtl palette

# normals
vn -1 0 0
vn 1 0 0
vn 0 0 1
vn 0 0 -1
vn 0 -1 0
vn 0 1 0

# texcoords
vt 0.0644531 0.5
vt 0.232422 0.5
vt 0.373047 0.5
vt 0.841797 0.5
vt 0.962891 0.5

# verts
v -11 75 5
v -11 75 -5
v -11 81 5
v -11 81 -5
v -10 72 5
v -10 72 -5
v -10 75 5
v -10 75 -5
v -10 81 5
v -10 81 -5
v -10 84 5
v -10 84 -5
v -9 71 5
v -9 71 -5
v -9 72 5
v -9 72 -5
v -9 84 5
v -9 84 -5
v -9 85 5
v -9 85 -5
v -8 70 5
v -8 70 -5
v -8 71 5
v -8 71 -5
v -8 85 5
v -8 85 -5
v -8 86 5
v -8 86 -5
v -7 69 5
v -7 69 -5
v -7 70 5
v -7 70 -5
v -7 86 5
v -7 86 -5
v -7 87 5
v -7 87 -5
v -6 68 5
v -6 68 -5
v -6 69 5
v -6 69 -5
v -6 87 5
v -6 87 -5
v -6 88 5
v -6 88 -5
v -3 67 5
v -3 67 -5
v -3 68 5
v -3 68 -5
v -3 88 5
v -3 88 -5
v -3 89 5
v -3 89 -5
v -2 89 2
v -2 89 -2
v -2 91 2
v -2 91 -2
v -1 91 1
v -1 91 -1
v -1 92 1
v -1 92 -1
v -1 95 1
v -1 95 -1
v -1 96 1
v -1 96 -1
v -1 99 1
v -1 99 -1
v -1 100 1
v -1 100 -1
v 1 91 1
v 1 91 -1
v 1 92 1
v 1 92 -1
v 1 95 1
v 1 95 -1
v 1 96 1
v 1 96 -1
v 1 99 1
v 1 99 -1
v 1 100 1
v 1 100 -1
v 2 89 2
v 2 89 -2
v 2 91 2
v 2 91 -2
v 3 67 5
v 3 67 -5
v 3 68 5
v 3 68 -5
v 3 88 5
v 3 88 -5
v 3 89 5
v 3 89 -5
v 6 68 5
v 6 68 -5
v 6 69 5
v 6 69 -5
v 6 87 5
v 6 87 -5
v 6 88 5
v 6 88 -5
v 7 69 5
v 7 69 -5
v 7 70 5
v 7 70 -5
v 7 86 5
v 7 86 -5
v 7 87 5
v 7 87 -5
v 8 70 5
v 8 70 -5
v 8 71 5
v 8 71 -5
v 8 85 5
v 8 85 -5
v 8 86 5
v 8 86 -5
v 9 71 5
v 9 71 -5
v 9 72 5
v 9 72 -5
v 9 84 5
v 9 84 -5
v 9 85 5
v 9 85 -5
v 10 72 5
v 10 72 -5
v 10 75 5
v 10 75 -5
v 10 81 5
v 10 81 -5
v 10 84 5
v 10 84 -5
v 11 75 5
v 11 75 -5
v 11 81 5
v 11 81 -5
v -11 75 5
v -11 81 5
v -10 72 5
v -10 75 5
v -10 81 5
v -10 84 5
v -9 71 5
v -9 72 5
v -9 75 5
v -9 81 5
v -9 84 5
v -9 85 5
v -8 70 5
v -8 71 5
v -8 72 5
v -8 75 5
v -8 81 5
v -8 84 5
v -8 85 5
v -8 86 5
v -7 69 5
v -7 70 5
v -7 71 5
v -7 72 5
v -7 84 5
v -7 85 5
v -7 86 5
v -7 87 5
v -6 68 5
v -6 69 5
v -6 70 5
v -6 71 5
v -6 72 5
v -6 84 5
v -6 85 5
v -6 86 5
v -6 87 5
v -6 88 5
v -5 69 5
v -5 70 5
v -5 71 5
v -5 76 5
v -5 80 5
v -5 85 5
v -5 86 5
v -5 87 5
v -4 75 5
v -4 76 5
v -4 80 5
v -4 81 5
v -3 67 5
v -3 68 5
v -3 74 5
v -3 75 5
v -3 76 5
v -3 80 5
v -3 81 5
v -3 82 5
v -3 88 5
v -3 89 5
v -2 73 5
v -2 74 5
v -2 75 5
v -2 81 5
v -2 82 5
v -2 83 5
v -1 76 5
v -1 80 5
v 1 76 5
v 1 80 5
v 2 73 5
v 2 74 5
v 2 75 5
v 2 81 5
v 2 82 5
v 2 83 5
v 3 67 5
v 3 68 5
v 3 74 5
v 3 75 5
v 3 76 5
v 3 80 5
v 3 81 5
v 3 82 5
v 3 88 5
v 3 89 5
v 4 75 5
v 4 76 5
v 4 80 5
v 4 81 5
v 5 69 5
v 5 70 5
v 5 71 5
v 5 76 5
v 5 80 5
v 5 85 5
v 5 86 5
v 5 87 5
v 6 68 5
v 6 69 5
v 6 70 5
v 6 71 5
v 6 72 5
v 6 84 5
v 6 85 5
v 6 86 5
v 6 87 5
v 6 88 5
v 7 69 5
v 7 70 5
v 7 71 5
v 7 72 5
v 7 84 5
v 7 85 5
v 7 86 5
v 7 87 5
v 8 70 5
v 8 71 5
v 8 72 5
v 8 75 5
v 8 81 5
v 8 84 5
v 8 85 5
v 8 86 5
v 9 71 5
v 9 72 5
v 9 75 5
v 9 81 5
v 9 84 5
v 9 85 5
v 10 72 5
v 10 75 5
v 10 81 5
v 10 84 5
v 11 75 5
v 11 81 5
v -2 89 2
v -2 91 2
v 2 89 2
v 2 91 2
v -1 91 1
v -1 92 1
v -1 95 1
v -1 96 1
v -1 99 1
v -1 100 1
v 1 91 1
v 1 92 1
v 1 95 1
v 1 96 1
v 1 99 1
v 1 100 1
v -1 91 -1
v -1 92 -1
v -1 95 -1
v -1 96 -1
v -1 99 -1
v -1 100 -1
v 1 91 -1
v 1 92 -1
v 1 95 -1
v 1 96 -1
v 1 99 -1
v 1 100 -1
v -2 89 -2
v -2 91 -2
v 2 89 -2
v 2 91 -2
v -11 75 -5
v -11 81 -5
v -10 72 -5
v -10 75 -5
v -10 81 -5
v -10 84 -5
v -9 71 -5
v -9 72 -5
v -9 75 -5
v -9 81 -5
v -9 84 -5
v -9 85 -5
v -8 70 -5
v -8 71 -5
v -8 72 -5
v -8 75 -5
v -8 81 -5
v -8 84 -5
v -8 85 -5
v -8 86 -5
v -7 69 -5
v -7 70 -5
v -7 71 -5
v -7 72 -5
v -7 84 -5
v -7 85 -5
v -7 86 -5
v -7 87 -5
v -6 68 -5
v -6 69 -5
v -6 70 -5
v -6 71 -5
v -6 72 -5
v -6 84 -5
v -6 85 -5
v -6 86 -5
v -6 87 -5
v -6 88 -5
v -5 69 -5
v -5 70 -5
v -5 71 -5
v -5 76 -5
v -5 80 -5
v -5 85 -5
v -5 86 -5
v -5 87 -5
v -4 75 -5
v -4 76 -5
v -4 80 -5
v -4 81 -5
v -3 67 -5
v -3 68 -5
v -3 74 -5
v -3 75 -5
v -3 76 -5
v -3 80 -5
v -3 81 -5
v -3 82 -5
v -3 88 -5
v -3 89 -5
v -2 73 -5
v -2 74 -5
v -2 75 -5
v -2 81 -5
v -2 82 -5
v -2 83 -5
v -1 76 -5
v -1 80 -5
v 1 76 -5
v 1 80 -5
v 2 73 -5
v 2 74 -5
v 2 75 -5
v 2 81 -5
v 2 82 -5
v 2 83 -5
v 3 67 -5
v 3 68 -5
v 3 74 -5
v 3 75 -5
v 3 76 -5
v 3 80 -5
v 3 81 -5
v 3 82 -5
v 3 88 -5
v 3 89 -5
v 4 75 -5
v 4 76 -5
v 4 80 -5
v 4 81 -5
v 5 69 -5
v 5 70 -5
v 5 71 -5
v 5 76 -5
v 5 80 -5
v 5 85 -5
v 5 86 -5
v 5 87 -5
v 6 68 -5
v 6 69 -5
v 6 70 -5
v 6 71 -5
v 6 72 -5
v 6 84 -5
v 6 85 -5
v 6 86 -5
v 6 87 -5
v 6 88 -5
v 7 69 -5
v 7 70 -5
v 7 71 -5
v 7 72 -5
v 7 84 -5
v 7 85 -5
v 7 86 -5
v 7 87 -5
v 8 70 -5
v 8 71 -5
v 8 72 -5
v 8 75 -5
v 8 81 -5
v 8 84 -5
v 8 85 -5
v 8 86 -5
v 9 71 -5
v 9 72 -5
v 9 75 -5
v 9 81 -5
v 9 84 -5
v 9 85 -5
v 10 72 -5
v 10 75 -5
v 10 81 -5
v 10 84 -5
v 11 75 -5
v 11 81 -5
v -3 67 5
v 3 67 5
v -3 67 -5
v 3 67 -5
v -6 68 5
v -3 68 5
v 3 68 5
v 6 68 5
v -6 68 -5
v -3 68 -5
v 3 68 -5
v 6 68 -5
v -7 69 5
v -6 69 5
v 6 69 5
v 7 69 5
v -7 69 -5
v -6 69 -5
v 6 69 -5
v 7 69 -5
v -8 70 5
v -7 70 5
v 7 70 5
v 8 70 5
v -8 70 -5
v -7 70 -5
v 7 70 -5
v 8 70 -5
v -9 71 5
v -8 71 5
v 8 71 5
v 9 71 5
v -9 71 -5
v -8 71 -5
v 8 71 -5
v 9 71 -5
v -10 72 5
v -9 72 5
v 9 72 5
v 10 72 5
v -10 72 -5
v -9 72 -5
v 9 72 -5
v 10 72 -5
v -11 75 5
v -10 75 5
v 10 75 5
v 11 75 5
v -11 75 -5
v -10 75 -5
v 10 75 -5
v 11 75 -5
v -11 81 5
v -10 81 5
v 10 81 5
v 11 81 5
v -11 81 -5
v -10 81 -5
v 10 81 -5
v 11 81 -5
v -10 84 5
v -9 84 5
v 9 84 5
v 10 84 5
v -10 84 -5
v -9 84 -5
v 9 84 -5
v 10 84 -5
v -9 85 5
v -8 85 5
v 8 85 5
v 9 85 5
v -9 85 -5
v -8 85 -5
v 8 85 -5
v 9 85 -5
v -8 86 5
v -7 86 5
v 7 86 5
v 8 86 5
v -8 86 -5
v -7 86 -5
v 7 86 -5
v 8 86 -5
v -7 87 5
v -6 87 5
v 6 87 5
v 7 87 5
v -7 87 -5
v -6 87 -5
v 6 87 -5
v 7 87 -5
v -6 88 5
v -3 88 5
v 3 88 5
v 6 88 5
v -6 88 -5
v -3 88 -5
v 3 88 -5
v 6 88 -5
v -3 89 5
v 3 89 5
v -2 89 2
v 2 89 2
v -2 89 -2
v 2 89 -2
v -3 89 -5
v 3 89 -5
v -2 91 2
v 2 91 2
v -1 91 1
v 1 91 1
v -1 91 -1
v 1 91 -1
v -2 91 -2
v 2 91 -2
v -1 100 1
v 1 100 1
v -1 100 -1
v 1 100 -1

# faces
f 3/4/1 2/4/1 1/4/1
f 4/4/1 2/4/1 3/4/1
f 7/4/1 6/4/1 5/4/1
f 8/4/1 6/4/1 7/4/1
f 11/4/1 10/4/1 9/4/1
f 12/4/1 10/4/1 11/4/1
f 15/4/1 14/4/1 13/4/1
f 16/4/1 14/4/1 15/4/1
f 19/4/1 18/4/1 17/4/1
f 20/4/1 18/4/1 19/4/1
f 23/4/1 22/4/1 21/4/1
f 24/4/1 22/4/1 23/4/1
f 27/4/1 26/4/1 25/4/1
f 28/4/1 26/4/1 27/4/1
f 31/4/1 30/4/1 29/4/1
f 32/4/1 30/4/1 31/4/1
f 35/4/1 34/4/1 33/4/1
f 36/4/1 34/4/1 35/4/1
f 39/4/1 38/4/1 37/4/1
f 40/4/1 38/4/1 39/4/1
f 43/4/1 42/4/1 41/4/1
f 44/4/1 42/4/1 43/4/1
f 47/4/1 46/4/1 45/4/1
f 48/4/1 46/4/1 47/4/1
f 51/4/1 50/4/1 49/4/1
f 52/4/1 50/4/1 51/4/1
f 55/3/1 54/3/1 53/3/1
f 56/3/1 54/3/1 55/3/1
f 59/1/1 58/1/1 57/1/1
f 60/1/1 58/1/1 59/1/1
f 61/2/1 60/2/1 59/2/1
f 62/2/1 60/2/1 61/2/1
f 63/1/1 62/1/1 61/1/1
f 64/1/1 62/1/1 63/1/1
f 65/2/1 64/2/1 63/2/1
f 66/2/1 64/2/1 65/2/1
f 67/1/1 66/1/1 65/1/1
f 68/1/1 66/1/1 67/1/1
f 69/1/2 70/1/2 71/1/2
f 71/1/2 70/1/2 72/1/2
f 71/2/2 72/2/2 73/2/2
f 73/2/2 72/2/2 74/2/2
f 73/1/2 74/1/2 75/1/2
f 75/1/2 74/1/2 76/1/2
f 75/2/2 76/2/2 77/2/2
f 77/2/2 76/2/2 78/2/2
f 77/1/2 78/1/2 79/1/2
f 79/1/2 78/1/2 80/1/2
f 81/3/2 82/3/2 83/3/2
f 83/3/2 82/3/2 84/3/2
f 85/4/2 86/4/2 87/4/2
f 87/4/2 86/4/2 88/4/2
f 89/4/2 90/4/2 91/4/2
f 91/4/2 90/4/2 92/4/2
f 93/4/2 94/4/2 95/4/2
f 95/4/2 94/4/2 96/4/2
f 97/4/2 98/4/2 99/4/2
f 99/4/2 98/4/2 100/4/2
f 101/4/2 102/4/2 103/4/2
f 103/4/2 102/4/2 104/4/2
f 105/4/2 106/4/2 107/4/2
f 107/4/2 106/4/2 108/4/2
f 109/4/2 110/4/2 111/4/2
f 111/4/2 110/4/2 112/4/2
f 113/4/2 114/4/2 115/4/2
f 115/4/2 114/4/2 116/4/2
f 117/4/2 118/4/2 119/4/2
f 119/4/2 118/4/2 120/4/2
f 121/4/2 122/4/2 123/4/2
f 123/4/2 122/4/2 124/4/2
f 125/4/2 126/4/2 127/4/2
f 127/4/2 126/4/2 128/4/2
f 129/4/2 130/4/2 131/4/2
f 131/4/2 130/4/2 132/4/2
f 133/4/2 134/4/2 135/4/2
f 135/4/2 134/4/2 136/4/2
f 140/4/3 138/4/3 137/4/3
f 141/4/3 138/4/3 140/4/3
f 144/4/3 140/4/3 139/4/3
f 144/4/3 142/4/3 141/4/3
f 144/4/3 141/4/3 140/4/3
f 145/4/3 142/4/3 144/4/3
f 146/4/3 142/4/3 145/4/3
f 147/4/3 142/4/3 146/4/3
f 150/4/3 144/4/3 143/4/3
f 150/4/3 145/4/3 144/4/3
f 151/4/3 145/4/3 150/4/3
f 152/5/3 146/5/3 145/5/3
f 152/4/3 145/4/3 151/4/3
f 153/4/3 148/4/3 147/4/3
f 153/5/3 146/5/3 152/5/3
f 153/4/3 147/4/3 146/4/3
f 154/4/3 148/4/3 153/4/3
f 155/4/3 148/4/3 154/4/3
f 158/4/3 150/4/3 149/4/3
f 158/4/3 151/4/3 150/4/3
f 159/4/3 151/4/3 158/4/3
f 160/5/3 152/5/3 151/5/3
f 160/4/3 151/4/3 159/4/3
f 160/5/3 153/5/3 152/5/3
f 160/5/3 154/5/3 153/5/3
f 161/4/3 156/4/3 155/4/3
f 161/5/3 154/5/3 160/5/3
f 161/4/3 155/4/3 154/4/3
f 162/4/3 156/4/3 161/4/3
f 163/4/3 156/4/3 162/4/3
f 166/4/3 159/4/3 158/4/3
f 166/4/3 158/4/3 157/4/3
f 167/4/3 159/4/3 166/4/3
f 168/5/3 160/5/3 159/5/3
f 168/4/3 159/4/3 167/4/3
f 169/4/3 161/4/3 160/4/3
f 169/5/3 160/5/3 168/5/3
f 170/5/3 162/5/3 161/5/3
f 170/4/3 161/4/3 169/4/3
f 171/4/3 164/4/3 163/4/3
f 171/5/3 162/5/3 170/5/3
f 171/4/3 163/4/3 162/4/3
f 172/4/3 164/4/3 171/4/3
f 173/4/3 164/4/3 172/4/3
f 175/4/3 167/4/3 166/4/3
f 175/4/3 166/4/3 165/4/3
f 176/5/3 168/5/3 167/5/3
f 176/4/3 167/4/3 175/4/3
f 177/4/3 170/4/3 169/4/3
f 177/5/3 168/5/3 176/5/3
f 177/4/3 169/4/3 168/4/3
f 177/4/3 171/4/3 170/4/3
f 178/4/3 171/4/3 177/4/3
f 179/4/3 171/4/3 178/4/3
f 180/5/3 172/5/3 171/5/3
f 180/4/3 171/4/3 179/4/3
f 181/4/3 174/4/3 173/4/3
f 181/5/3 172/5/3 180/5/3
f 181/4/3 173/4/3 172/4/3
f 182/4/3 174/4/3 181/4/3
f 183/4/3 178/4/3 177/4/3
f 183/4/3 177/4/3 176/4/3
f 184/5/3 179/5/3 178/5/3
f 184/4/3 178/4/3 183/4/3
f 185/4/3 180/4/3 179/4/3
f 185/5/3 179/5/3 184/5/3
f 185/4/3 181/4/3 180/4/3
f 186/4/3 181/4/3 185/4/3
f 188/4/3 175/4/3 165/4/3
f 189/4/3 183/4/3 176/4/3
f 190/5/3 184/5/3 183/5/3
f 190/4/3 183/4/3 189/4/3
f 191/4/3 185/4/3 184/4/3
f 191/5/3 184/5/3 190/5/3
f 192/5/3 186/5/3 185/5/3
f 192/4/3 185/4/3 191/4/3
f 193/4/3 181/4/3 186/4/3
f 193/5/3 186/5/3 192/5/3
f 194/4/3 181/4/3 193/4/3
f 195/4/3 174/4/3 182/4/3
f 197/4/3 189/4/3 176/4/3
f 198/5/3 190/5/3 189/5/3
f 198/4/3 189/4/3 197/4/3
f 199/4/3 192/4/3 191/4/3
f 199/5/3 190/5/3 198/5/3
f 199/4/3 191/4/3 190/4/3
f 199/4/3 193/4/3 192/4/3
f 200/5/3 194/5/3 193/5/3
f 200/4/3 193/4/3 199/4/3
f 201/4/3 181/4/3 194/4/3
f 201/5/3 194/5/3 200/5/3
f 202/4/3 181/4/3 201/4/3
f 203/4/3 200/4/3 199/4/3
f 203/4/3 199/4/3 198/4/3
f 203/4/3 201/4/3 200/4/3
f 204/4/3 201/4/3 203/4/3
f 205/4/3 203/4/3 198/4/3
f 205/5/3 204/5/3 203/5/3
f 206/4/3 201/4/3 204/4/3
f 206/5/3 204/5/3 205/5/3
f 207/5/3 198/5/3 197/5/3
f 207/4/3 197/4/3 176/4/3
f 208/4/3 206/4/3 205/4/3
f 208/5/3 198/5/3 207/5/3
f 208/4/3 205/4/3 198/4/3
f 209/4/3 206/4/3 208/4/3
f 210/4/3 201/4/3 206/4/3
f 210/4/3 206/4/3 209/4/3
f 211/5/3 202/5/3 201/5/3
f 211/4/3 201/4/3 210/4/3
f 212/4/3 181/4/3 202/4/3
f 212/5/3 202/5/3 211/5/3
f 213/4/3 188/4/3 187/4/3
f 214/4/3 175/4/3 188/4/3
f 214/4/3 188/4/3 213/4/3
f 215/5/3 209/5/3 208/5/3
f 215/4/3 208/4/3 207/4/3
f 216/4/3 210/4/3 209/4/3
f 216/5/3 209/5/3 215/5/3
f 217/4/3 210/4/3 216/4/3
f 218/4/3 210/4/3 217/4/3
f 219/5/3 211/5/3 210/5/3
f 219/4/3 210/4/3 218/4/3
f 220/4/3 212/4/3 211/4/3
f 220/5/3 211/5/3 219/5/3
f 221/4/3 196/4/3 195/4/3
f 221/4/3 195/4/3 182/4/3
f 222/4/3 196/4/3 221/4/3
f 223/4/3 216/4/3 215/4/3
f 223/5/3 217/5/3 216/5/3
f 224/4/3 218/4/3 217/4/3
f 224/5/3 217/5/3 223/5/3
f 225/5/3 219/5/3 218/5/3
f 225/4/3 218/4/3 224/4/3
f 226/4/3 220/4/3 219/4/3
f 226/5/3 219/5/3 225/5/3
f 227/5/3 176/5/3 175/5/3
f 227/4/3 175/4/3 214/4/3
f 228/4/3 223/4/3 215/4/3
f 228/5/3 176/5/3 227/5/3
f 228/4/3 207/4/3 176/4/3
f 228/4/3 215/4/3 207/4/3
f 228/4/3 224/4/3 223/4/3
f 229/4/3 224/4/3 228/4/3
f 230/5/3 225/5/3 224/5/3
f 230/4/3 224/4/3 229/4/3
f 231/4/3 226/4/3 225/4/3
f 231/5/3 225/5/3 230/5/3
f 232/4/3 220/4/3 226/4/3
f 232/4/3 226/4/3 231/4/3
f 232/4/3 212/4/3 220/4/3
f 232/4/3 181/4/3 212/4/3
f 233/5/3 182/5/3 181/5/3
f 233/4/3 181/4/3 232/4/3
f 234/4/3 221/4/3 182/4/3
f 234/5/3 182/5/3 233/5/3
f 235/4/3 228/4/3 227/4/3
f 235/4/3 227/4/3 214/4/3
f 236/4/3 228/4/3 235/4/3
f 237/5/3 229/5/3 228/5/3
f 237/4/3 228/4/3 236/4/3
f 238/4/3 231/4/3 230/4/3
f 238/5/3 229/5/3 237/5/3
f 238/4/3 230/4/3 229/4/3
f 238/4/3 232/4/3 231/4/3
f 239/4/3 232/4/3 238/4/3
f 240/4/3 232/4/3 239/4/3
f 241/5/3 233/5/3 232/5/3
f 241/4/3 232/4/3 240/4/3
f 242/4/3 234/4/3 233/4/3
f 242/5/3 233/5/3 241/5/3
f 243/4/3 221/4/3 234/4/3
f 243/4/3 234/4/3 242/4/3
f 244/4/3 221/4/3 243/4/3
f 245/4/3 237/4/3 236/4/3
f 245/4/3 238/4/3 237/4/3
f 246/4/3 238/4/3 245/4/3
f 247/5/3 239/5/3 238/5/3
f 247/4/3 238/4/3 246/4/3
f 248/4/3 240/4/3 239/4/3
f 248/5/3 239/5/3 247/5/3
f 249/5/3 241/5/3 240/5/3
f 249/4/3 240/4/3 248/4/3
f 250/4/3 242/4/3 241/4/3
f 250/5/3 241/5/3 249/5/3
f 250/4/3 243/4/3 242/4/3
f 251/4/3 243/4/3 250/4/3
f 252/4/3 243/4/3 251/4/3
f 253/4/3 248/4/3 247/4/3
f 253/4/3 247/4/3 246/4/3
f 254/4/3 248/4/3 253/4/3
f 255/5/3 249/5/3 248/5/3
f 255/4/3 248/4/3 254/4/3
f 256/5/3 249/5/3 255/5/3
f 257/5/3 249/5/3 256/5/3
f 258/4/3 251/4/3 250/4/3
f 258/5/3 249/5/3 257/5/3
f 258/4/3 250/4/3 249/4/3
f 259/4/3 251/4/3 258/4/3
f 260/4/3 251/4/3 259/4/3
f 261/4/3 256/4/3 255/4/3
f 261/4/3 255/4/3 254/4/3
f 262/4/3 256/4/3 261/4/3
f 263/5/3 257/5/3 256/5/3
f 263/4/3 256/4/3 262/4/3
f 264/4/3 259/4/3 258/4/3
f 264/5/3 257/5/3 263/5/3
f 264/4/3 258/4/3 257/4/3
f 265/4/3 259/4/3 264/4/3
f 266/4/3 259/4/3 265/4/3
f 267/4/3 263/4/3 262/4/3
f 267/4/3 265/4/3 264/4/3
f 267/4/3 264/4/3 263/4/3
f 268/4/3 265/4/3 267/4/3
f 269/4/3 265/4/3 268/4/3
f 270/4/3 265/4/3 269/4/3
f 271/4/3 269/4/3 268/4/3
f 272/4/3 269/4/3 271/4/3
f 275/3/3 274/3/3 273/3/3
f 276/3/3 274/3/3 275/3/3
f 283/1/3 278/1/3 277/1/3
f 284/2/3 279/2/3 278/2/3
f 284/1/3 278/1/3 283/1/3
f 285/1/3 280/1/3 279/1/3
f 285/2/3 279/2/3 284/2/3
f 286/2/3 281/2/3 280/2/3
f 286/1/3 280/1/3 285/1/3
f 287/1/3 282/1/3 281/1/3
f 287/2/3 281/2/3 286/2/3
f 288/1/3 282/1/3 287/1/3
f 289/1/4 290/1/4 295/1/4
f 290/2/4 291/2/4 296/2/4
f 295/1/4 290/1/4 296/1/4
f 291/1/4 292/1/4 297/1/4
f 296/2/4 291/2/4 297/2/4
f 292/2/4 293/2/4 298/2/4
f 297/1/4 292/1/4 298/1/4
f 293/1/4 294/1/4 299/1/4
f 298/2/4 293/2/4 299/2/4
f 299/1/4 294/1/4 300/1/4
f 301/3/4 302/3/4 303/3/4
f 303/3/4 302/3/4 304/3/4
f 305/4/4 306/4/4 308/4/4
f 308/4/4 306/4/4 309/4/4
f 307/4/4 308/4/4 312/4/4
f 309/4/4 310/4/4 312/4/4
f 308/4/4 309/4/4 312/4/4
f 312/4/4 310/4/4 313/4/4
f 313/4/4 310/4/4 314/4/4
f 314/4/4 310/4/4 315/4/4
f 311/4/4 312/4/4 318/4/4
f 312/4/4 313/4/4 318/4/4
f 318/4/4 313/4/4 319/4/4
f 313/5/4 314/5/4 320/5/4
f 319/4/4 313/4/4 320/4/4
f 315/4/4 316/4/4 321/4/4
f 320/5/4 314/5/4 321/5/4
f 314/4/4 315/4/4 321/4/4
f 321/4/4 316/4/4 322/4/4
f 322/4/4 316/4/4 323/4/4
f 317/4/4 318/4/4 326/4/4
f 318/4/4 319/4/4 326/4/4
f 326/4/4 319/4/4 327/4/4
f 319/5/4 320/5/4 328/5/4
f 327/4/4 319/4/4 328/4/4
f 320/5/4 321/5/4 328/5/4
f 321/5/4 322/5/4 328/5/4
f 323/4/4 324/4/4 329/4/4
f 328/5/4 322/5/4 329/5/4
f 322/4/4 323/4/4 329/4/4
f 329/4/4 324/4/4 330/4/4
f 330/4/4 324/4/4 331/4/4
f 326/4/4 327/4/4 334/4/4
f 325/4/4 326/4/4 334/4/4
f 334/4/4 327/4/4 335/4/4
f 327/5/4 328/5/4 336/5/4
f 335/4/4 327/4/4 336/4/4
f 328/4/4 329/4/4 337/4/4
f 336/5/4 328/5/4 337/5/4
f 329/5/4 330/5/4 338/5/4
f 337/4/4 329/4/4 338/4/4
f 331/4/4 332/4/4 339/4/4
f 338/5/4 330/5/4 339/5/4
f 330/4/4 331/4/4 339/4/4
f 339/4/4 332/4/4 340/4/4
f 340/4/4 332/4/4 341/4/4
f 334/4/4 335/4/4 343/4/4
f 333/4/4 334/4/4 343/4/4
f 335/5/4 336/5/4 344/5/4
f 343/4/4 335/4/4 344/4/4
f 337/4/4 338/4/4 345/4/4
f 344/5/4 336/5/4 345/5/4
f 336/4/4 337/4/4 345/4/4
f 338/4/4 339/4/4 345/4/4
f 345/4/4 339/4/4 346/4/4
f 346/4/4 339/4/4 347/4/4
f 339/5/4 340/5/4 348/5/4
f 347/4/4 339/4/4 348/4/4
f 341/4/4 342/4/4 349/4/4
f 348/5/4 340/5/4 349/5/4
f 340/4/4 341/4/4 349/4/4
f 349/4/4 342/4/4 350/4/4
f 345/4/4 346/4/4 351/4/4
f 344/4/4 345/4/4 351/4/4
f 346/5/4 347/5/4 352/5/4
f 351/4/4 346/4/4 352/4/4
f 347/4/4 348/4/4 353/4/4
f 352/5/4 347/5/4 353/5/4
f 348/4/4 349/4/4 353/4/4
f 353/4/4 349/4/4 354/4/4
f 333/4/4 343/4/4 356/4/4
f 344/4/4 351/4/4 357/4/4
f 351/5/4 352/5/4 358/5/4
f 357/4/4 351/4/4 358/4/4
f 352/4/4 353/4/4 359/4/4
f 358/5/4 352/5/4 359/5/4
f 353/5/4 354/5/4 360/5/4
f 359/4/4 353/4/4 360/4/4
f 354/4/4 349/4/4 361/4/4
f 360/5/4 354/5/4 361/5/4
f 361/4/4 349/4/4 362/4/4
f 350/4/4 342/4/4 363/4/4
f 344/4/4 357/4/4 365/4/4
f 357/5/4 358/5/4 366/5/4
f 365/4/4 357/4/4 366/4/4
f 359/4/4 360/4/4 367/4/4
f 366/5/4 358/5/4 367/5/4
f 358/4/4 359/4/4 367/4/4
f 360/4/4 361/4/4 367/4/4
f 361/5/4 362/5/4 368/5/4
f 367/4/4 361/4/4 368/4/4
f 362/4/4 349/4/4 369/4/4
f 368/5/4 362/5/4 369/5/4
f 369/4/4 349/4/4 370/4/4
f 367/4/4 368/4/4 371/4/4
f 366/4/4 367/4/4 371/4/4
f 368/4/4 369/4/4 371/4/4
f 371/4/4 369/4/4 372/4/4
f 366/4/4 371/4/4 373/4/4
f 371/5/4 372/5/4 373/5/4
f 372/4/4 369/4/4 374/4/4
f 373/5/4 372/5/4 374/5/4
f 365/5/4 366/5/4 375/5/4
f 344/4/4 365/4/4 375/4/4
f 373/4/4 374/4/4 376/4/4
f 375/5/4 366/5/4 376/5/4
f 366/4/4 373/4/4 376/4/4
f 376/4/4 374/4/4 377/4/4
f 374/4/4 369/4/4 378/4/4
f 377/4/4 374/4/4 378/4/4
f 369/5/4 370/5/4 379/5/4
f 378/4/4 369/4/4 379/4/4
f 370/4/4 349/4/4 380/4/4
f 379/5/4 370/5/4 380/5/4
f 355/4/4 356/4/4 381/4/4
f 356/4/4 343/4/4 382/4/4
f 381/4/4 356/4/4 382/4/4
f 376/5/4 377/5/4 383/5/4
f 375/4/4 376/4/4 383/4/4
f 377/4/4 378/4/4 384/4/4
f 383/5/4 377/5/4 384/5/4
f 384/4/4 378/4/4 385/4/4
f 385/4/4 378/4/4 386/4/4
f 378/5/4 379/5/4 387/5/4
f 386/4/4 378/4/4 387/4/4
f 379/4/4 380/4/4 388/4/4
f 387/5/4 379/5/4 388/5/4
f 363/4/4 364/4/4 389/4/4
f 350/4/4 363/4/4 389/4/4
f 389/4/4 364/4/4 390/4/4
f 383/4/4 384/4/4 391/4/4
f 384/5/4 385/5/4 391/5/4
f 385/4/4 386/4/4 392/4/4
f 391/5/4 385/5/4 392/5/4
f 386/5/4 387/5/4 393/5/4
f 392/4/4 386/4/4 393/4/4
f 387/4/4 388/4/4 394/4/4
f 393/5/4 387/5/4 394/5/4
f 343/5/4 344/5/4 395/5/4
f 382/4/4 343/4/4 395/4/4
f 383/4/4 391/4/4 396/4/4
f 395/5/4 344/5/4 396/5/4
f 344/4/4 375/4/4 396/4/4
f 375/4/4 383/4/4 396/4/4
f 391/4/4 392/4/4 396/4/4
f 396/4/4 392/4/4 397/4/4
f 392/5/4 393/5/4 398/5/4
f 397/4/4 392/4/4 398/4/4
f 393/4/4 394/4/4 399/4/4
f 398/5/4 393/5/4 399/5/4
f 394/4/4 388/4/4 400/4/4
f 399/4/4 394/4/4 400/4/4
f 388/4/4 380/4/4 400/4/4
f 380/4/4 349/4/4 400/4/4
f 349/5/4 350/5/4 401/5/4
f 400/4/4 349/4/4 401/4/4
f 350/4/4 389/4/4 402/4/4
f 401/5/4 350/5/4 402/5/4
f 395/4/4 396/4/4 403/4/4
f 382/4/4 395/4/4 403/4/4
f 403/4/4 396/4/4 404/4/4
f 396/5/4 397/5/4 405/5/4
f 404/4/4 396/4/4 405/4/4
f 398/4/4 399/4/4 406/4/4
f 405/5/4 397/5/4 406/5/4
f 397/4/4 398/4/4 406/4/4
f 399/4/4 400/4/4 406/4/4
f 406/4/4 400/4/4 407/4/4
f 407/4/4 400/4/4 408/4/4
f 400/5/4 401/5/4 409/5/4
f 408/4/4 400/4/4 409/4/4
f 401/4/4 402/4/4 410/4/4
f 409/5/4 401/5/4 410/5/4
f 402/4/4 389/4/4 411/4/4
f 410/4/4 402/4/4 411/4/4
f 411/4/4 389/4/4 412/4/4
f 404/4/4 405/4/4 413/4/4
f 405/4/4 406/4/4 413/4/4
f 413/4/4 406/4/4 414/4/4
f 406/5/4 407/5/4 415/5/4
f 414/4/4 406/4/4 415/4/4
f 407/4/4 408/4/4 416/4/4
f 415/5/4 407/5/4 416/5/4
f 408/5/4 409/5/4 417/5/4
f 416/4/4 408/4/4 417/4/4
f 409/4/4 410/4/4 418/4/4
f 417/5/4 409/5/4 418/5/4
f 410/4/4 411/4/4 418/4/4
f 418/4/4 411/4/4 419/4/4
f 419/4/4 411/4/4 420/4/4
f 415/4/4 416/4/4 421/4/4
f 414/4/4 415/4/4 421/4/4
f 421/4/4 416/4/4 422/4/4
f 416/5/4 417/5/4 423/5/4
f 422/4/4 416/4/4 423/4/4
f 423/5/4 417/5/4 424/5/4
f 424/5/4 417/5/4 425/5/4
f 418/4/4 419/4/4 426/4/4
f 425/5/4 417/5/4 426/5/4
f 417/4/4 418/4/4 426/4/4
f 426/4/4 419/4/4 427/4/4
f 427/4/4 419/4/4 428/4/4
f 423/4/4 424/4/4 429/4/4
f 422/4/4 423/4/4 429/4/4
f 429/4/4 424/4/4 430/4/4
f 424/5/4 425/5/4 431/5/4
f 430/4/4 424/4/4 431/4/4
f 426/4/4 427/4/4 432/4/4
f 431/5/4 425/5/4 432/5/4
f 425/4/4 426/4/4 432/4/4
f 432/4/4 427/4/4 433/4/4
f 433/4/4 427/4/4 434/4/4
f 430/4/4 431/4/4 435/4/4
f 432/4/4 433/4/4 435/4/4
f 431/4/4 432/4/4 435/4/4
f 435/4/4 433/4/4 436/4/4
f 436/4/4 433/4/4 437/4/4
f 437/4/4 433/4/4 438/4/4
f 436/4/4 437/4/4 439/4/4
f 439/4/4 437/4/4 440/4/4
f 443/4/5 442/4/5 441/4/5
f 444/4/5 442/4/5 443/4/5
f 449/4/5 446/4/5 445/4/5
f 450/4/5 446/4/5 449/4/5
f 451/4/5 448/4/5 447/4/5
f 452/4/5 448/4/5 451/4/5
f 457/4/5 454/4/5 453/4/5
f 458/4/5 454/4/5 457/4/5
f 459/4/5 456/4/5 455/4/5
f 460/4/5 456/4/5 459/4/5
f 465/4/5 462/4/5 461/4/5
f 466/4/5 462/4/5 465/4/5
f 467/4/5 464/4/5 463/4/5
f 468/4/5 464/4/5 467/4/5
f 473/4/5 470/4/5 469/4/5
f 474/4/5 470/4/5 473/4/5
f 475/4/5 472/4/5 471/4/5
f 476/4/5 472/4/5 475/4/5
f 481/4/5 478/4/5 477/4/5
f 482/4/5 478/4/5 481/4/5
f 483/4/5 480/4/5 479/4/5
f 484/4/5 480/4/5 483/4/5
f 489/4/5 486/4/5 485/4/5
f 490/4/5 486/4/5 489/4/5
f 491/4/5 488/4/5 487/4/5
f 492/4/5 488/4/5 491/4/5
f 493/4/6 494/4/6 497/4/6
f 497/4/6 494/4/6 498/4/6
f 495/4/6 496/4/6 499/4/6
f 499/4/6 496/4/6 500/4/6
f 501/4/6 502/4/6 505/4/6
f 505/4/6 502/4/6 506/4/6
f 503/4/6 504/4/6 507/4/6
f 507/4/6 504/4/6 508/4/6
f 509/4/6 510/4/6 513/4/6
f 513/4/6 510/4/6 514/4/6
f 511/4/6 512/4/6 515/4/6
f 515/4/6 512/4/6 516/4/6
f 517/4/6 518/4/6 521/4/6
f 521/4/6 518/4/6 522/4/6
f 519/4/6 520/4/6 523/4/6
f 523/4/6 520/4/6 524/4/6
f 525/4/6 526/4/6 529/4/6
f 529/4/6 526/4/6 530/4/6
f 527/4/6 528/4/6 531/4/6
f 531/4/6 528/4/6 532/4/6
f 533/4/6 534/4/6 537/4/6
f 537/4/6 534/4/6 538/4/6
f 535/4/6 536/4/6 539/4/6
f 539/4/6 536/4/6 540/4/6
f 541/4/6 542/4/6 543/4/6
f 543/4/6 542/4/6 544/4/6
f 541/4/6 543/4/6 545/4/6
f 544/4/6 542/4/6 546/4/6
f 541/4/6 545/4/6 547/4/6
f 545/4/6 546/4/6 547/4/6
f 546/4/6 542/4/6 548/4/6
f 547/4/6 546/4/6 548/4/6
f 549/3/6 550/3/6 551/3/6
f 551/3/6 550/3/6 552/3/6
f 549/3/6 551/3/6 553/3/6
f 552/3/6 550/3/6 554/3/6
f 549/3/6 553/3/6 555/3/6
f 553/3/6 554/3/6 555/3/6
f 554/3/6 550/3/6 556/3/6
f 555/3/6 554/3/6 556/3/6
f 557/1/6 558/1/6 559/1/6
f 559/1/6 558/1/6 560/1/6
