# MagicaVoxel @ Ephtracy

# material
mtllib Going Down 1.mtl
usemtl palette

# normals
vn -1 0 0
vn 1 0 0
vn 0 0 1
vn 0 0 -1
vn 0 -1 0
vn 0 1 0

# texcoords
vt 0.0644531 0.5
vt 0.373047 0.5
vt 0.841797 0.5
vt 0.962891 0.5

# verts
v -11 83 5
v -11 83 -5
v -11 89 5
v -11 89 -5
v -10 80 5
v -10 80 -5
v -10 83 5
v -10 83 -5
v -10 89 5
v -10 89 -5
v -10 92 5
v -10 92 -5
v -9 79 5
v -9 79 -5
v -9 80 5
v -9 80 -5
v -9 92 5
v -9 92 -5
v -9 93 5
v -9 93 -5
v -8 78 5
v -8 78 -5
v -8 79 5
v -8 79 -5
v -8 93 5
v -8 93 -5
v -8 94 5
v -8 94 -5
v -7 77 5
v -7 77 -5
v -7 78 5
v -7 78 -5
v -7 94 5
v -7 94 -5
v -7 95 5
v -7 95 -5
v -6 76 5
v -6 76 -5
v -6 77 5
v -6 77 -5
v -6 95 5
v -6 95 -5
v -6 96 5
v -6 96 -5
v -3 75 5
v -3 75 -5
v -3 76 5
v -3 76 -5
v -3 96 5
v -3 96 -5
v -3 97 5
v -3 97 -5
v -2 97 2
v -2 97 -2
v -2 99 2
v -2 99 -2
v -1 99 1
v -1 99 -1
v -1 100 1
v -1 100 -1
v 1 99 1
v 1 99 -1
v 1 100 1
v 1 100 -1
v 2 97 2
v 2 97 -2
v 2 99 2
v 2 99 -2
v 3 75 5
v 3 75 -5
v 3 76 5
v 3 76 -5
v 3 96 5
v 3 96 -5
v 3 97 5
v 3 97 -5
v 6 76 5
v 6 76 -5
v 6 77 5
v 6 77 -5
v 6 95 5
v 6 95 -5
v 6 96 5
v 6 96 -5
v 7 77 5
v 7 77 -5
v 7 78 5
v 7 78 -5
v 7 94 5
v 7 94 -5
v 7 95 5
v 7 95 -5
v 8 78 5
v 8 78 -5
v 8 79 5
v 8 79 -5
v 8 93 5
v 8 93 -5
v 8 94 5
v 8 94 -5
v 9 79 5
v 9 79 -5
v 9 80 5
v 9 80 -5
v 9 92 5
v 9 92 -5
v 9 93 5
v 9 93 -5
v 10 80 5
v 10 80 -5
v 10 83 5
v 10 83 -5
v 10 89 5
v 10 89 -5
v 10 92 5
v 10 92 -5
v 11 83 5
v 11 83 -5
v 11 89 5
v 11 89 -5
v -11 83 5
v -11 89 5
v -10 80 5
v -10 83 5
v -10 89 5
v -10 92 5
v -9 79 5
v -9 80 5
v -9 83 5
v -9 89 5
v -9 92 5
v -9 93 5
v -8 78 5
v -8 79 5
v -8 80 5
v -8 83 5
v -8 89 5
v -8 92 5
v -8 93 5
v -8 94 5
v -7 77 5
v -7 78 5
v -7 79 5
v -7 80 5
v -7 92 5
v -7 93 5
v -7 94 5
v -7 95 5
v -6 76 5
v -6 77 5
v -6 78 5
v -6 79 5
v -6 80 5
v -6 92 5
v -6 93 5
v -6 94 5
v -6 95 5
v -6 96 5
v -5 77 5
v -5 78 5
v -5 79 5
v -5 84 5
v -5 88 5
v -5 93 5
v -5 94 5
v -5 95 5
v -4 83 5
v -4 84 5
v -4 88 5
v -4 89 5
v -3 75 5
v -3 76 5
v -3 82 5
v -3 83 5
v -3 84 5
v -3 88 5
v -3 89 5
v -3 90 5
v -3 96 5
v -3 97 5
v -2 81 5
v -2 82 5
v -2 83 5
v -2 89 5
v -2 90 5
v -2 91 5
v -1 84 5
v -1 88 5
v 1 84 5
v 1 88 5
v 2 81 5
v 2 82 5
v 2 83 5
v 2 89 5
v 2 90 5
v 2 91 5
v 3 75 5
v 3 76 5
v 3 82 5
v 3 83 5
v 3 84 5
v 3 88 5
v 3 89 5
v 3 90 5
v 3 96 5
v 3 97 5
v 4 83 5
v 4 84 5
v 4 88 5
v 4 89 5
v 5 77 5
v 5 78 5
v 5 79 5
v 5 84 5
v 5 88 5
v 5 93 5
v 5 94 5
v 5 95 5
v 6 76 5
v 6 77 5
v 6 78 5
v 6 79 5
v 6 80 5
v 6 92 5
v 6 93 5
v 6 94 5
v 6 95 5
v 6 96 5
v 7 77 5
v 7 78 5
v 7 79 5
v 7 80 5
v 7 92 5
v 7 93 5
v 7 94 5
v 7 95 5
v 8 78 5
v 8 79 5
v 8 80 5
v 8 83 5
v 8 89 5
v 8 92 5
v 8 93 5
v 8 94 5
v 9 79 5
v 9 80 5
v 9 83 5
v 9 89 5
v 9 92 5
v 9 93 5
v 10 80 5
v 10 83 5
v 10 89 5
v 10 92 5
v 11 83 5
v 11 89 5
v -2 97 2
v -2 99 2
v 2 97 2
v 2 99 2
v -1 99 1
v -1 100 1
v 1 99 1
v 1 100 1
v -1 99 -1
v -1 100 -1
v 1 99 -1
v 1 100 -1
v -2 97 -2
v -2 99 -2
v 2 97 -2
v 2 99 -2
v -11 83 -5
v -11 89 -5
v -10 80 -5
v -10 83 -5
v -10 89 -5
v -10 92 -5
v -9 79 -5
v -9 80 -5
v -9 83 -5
v -9 89 -5
v -9 92 -5
v -9 93 -5
v -8 78 -5
v -8 79 -5
v -8 80 -5
v -8 83 -5
v -8 89 -5
v -8 92 -5
v -8 93 -5
v -8 94 -5
v -7 77 -5
v -7 78 -5
v -7 79 -5
v -7 80 -5
v -7 92 -5
v -7 93 -5
v -7 94 -5
v -7 95 -5
v -6 76 -5
v -6 77 -5
v -6 78 -5
v -6 79 -5
v -6 80 -5
v -6 92 -5
v -6 93 -5
v -6 94 -5
v -6 95 -5
v -6 96 -5
v -5 77 -5
v -5 78 -5
v -5 79 -5
v -5 84 -5
v -5 88 -5
v -5 93 -5
v -5 94 -5
v -5 95 -5
v -4 83 -5
v -4 84 -5
v -4 88 -5
v -4 89 -5
v -3 75 -5
v -3 76 -5
v -3 82 -5
v -3 83 -5
v -3 84 -5
v -3 88 -5
v -3 89 -5
v -3 90 -5
v -3 96 -5
v -3 97 -5
v -2 81 -5
v -2 82 -5
v -2 83 -5
v -2 89 -5
v -2 90 -5
v -2 91 -5
v -1 84 -5
v -1 88 -5
v 1 84 -5
v 1 88 -5
v 2 81 -5
v 2 82 -5
v 2 83 -5
v 2 89 -5
v 2 90 -5
v 2 91 -5
v 3 75 -5
v 3 76 -5
v 3 82 -5
v 3 83 -5
v 3 84 -5
v 3 88 -5
v 3 89 -5
v 3 90 -5
v 3 96 -5
v 3 97 -5
v 4 83 -5
v 4 84 -5
v 4 88 -5
v 4 89 -5
v 5 77 -5
v 5 78 -5
v 5 79 -5
v 5 84 -5
v 5 88 -5
v 5 93 -5
v 5 94 -5
v 5 95 -5
v 6 76 -5
v 6 77 -5
v 6 78 -5
v 6 79 -5
v 6 80 -5
v 6 92 -5
v 6 93 -5
v 6 94 -5
v 6 95 -5
v 6 96 -5
v 7 77 -5
v 7 78 -5
v 7 79 -5
v 7 80 -5
v 7 92 -5
v 7 93 -5
v 7 94 -5
v 7 95 -5
v 8 78 -5
v 8 79 -5
v 8 80 -5
v 8 83 -5
v 8 89 -5
v 8 92 -5
v 8 93 -5
v 8 94 -5
v 9 79 -5
v 9 80 -5
v 9 83 -5
v 9 89 -5
v 9 92 -5
v 9 93 -5
v 10 80 -5
v 10 83 -5
v 10 89 -5
v 10 92 -5
v 11 83 -5
v 11 89 -5
v -3 75 5
v 3 75 5
v -3 75 -5
v 3 75 -5
v -6 76 5
v -3 76 5
v 3 76 5
v 6 76 5
v -6 76 -5
v -3 76 -5
v 3 76 -5
v 6 76 -5
v -7 77 5
v -6 77 5
v 6 77 5
v 7 77 5
v -7 77 -5
v -6 77 -5
v 6 77 -5
v 7 77 -5
v -8 78 5
v -7 78 5
v 7 78 5
v 8 78 5
v -8 78 -5
v -7 78 -5
v 7 78 -5
v 8 78 -5
v -9 79 5
v -8 79 5
v 8 79 5
v 9 79 5
v -9 79 -5
v -8 79 -5
v 8 79 -5
v 9 79 -5
v -10 80 5
v -9 80 5
v 9 80 5
v 10 80 5
v -10 80 -5
v -9 80 -5
v 9 80 -5
v 10 80 -5
v -11 83 5
v -10 83 5
v 10 83 5
v 11 83 5
v -11 83 -5
v -10 83 -5
v 10 83 -5
v 11 83 -5
v -11 89 5
v -10 89 5
v 10 89 5
v 11 89 5
v -11 89 -5
v -10 89 -5
v 10 89 -5
v 11 89 -5
v -10 92 5
v -9 92 5
v 9 92 5
v 10 92 5
v -10 92 -5
v -9 92 -5
v 9 92 -5
v 10 92 -5
v -9 93 5
v -8 93 5
v 8 93 5
v 9 93 5
v -9 93 -5
v -8 93 -5
v 8 93 -5
v 9 93 -5
v -8 94 5
v -7 94 5
v 7 94 5
v 8 94 5
v -8 94 -5
v -7 94 -5
v 7 94 -5
v 8 94 -5
v -7 95 5
v -6 95 5
v 6 95 5
v 7 95 5
v -7 95 -5
v -6 95 -5
v 6 95 -5
v 7 95 -5
v -6 96 5
v -3 96 5
v 3 96 5
v 6 96 5
v -6 96 -5
v -3 96 -5
v 3 96 -5
v 6 96 -5
v -3 97 5
v 3 97 5
v -2 97 2
v 2 97 2
v -2 97 -2
v 2 97 -2
v -3 97 -5
v 3 97 -5
v -2 99 2
v 2 99 2
v -1 99 1
v 1 99 1
v -1 99 -1
v 1 99 -1
v -2 99 -2
v 2 99 -2
v -1 100 1
v 1 100 1
v -1 100 -1
v 1 100 -1

# faces
f 3/3/1 2/3/1 1/3/1
f 4/3/1 2/3/1 3/3/1
f 7/3/1 6/3/1 5/3/1
f 8/3/1 6/3/1 7/3/1
f 11/3/1 10/3/1 9/3/1
f 12/3/1 10/3/1 11/3/1
f 15/3/1 14/3/1 13/3/1
f 16/3/1 14/3/1 15/3/1
f 19/3/1 18/3/1 17/3/1
f 20/3/1 18/3/1 19/3/1
f 23/3/1 22/3/1 21/3/1
f 24/3/1 22/3/1 23/3/1
f 27/3/1 26/3/1 25/3/1
f 28/3/1 26/3/1 27/3/1
f 31/3/1 30/3/1 29/3/1
f 32/3/1 30/3/1 31/3/1
f 35/3/1 34/3/1 33/3/1
f 36/3/1 34/3/1 35/3/1
f 39/3/1 38/3/1 37/3/1
f 40/3/1 38/3/1 39/3/1
f 43/3/1 42/3/1 41/3/1
f 44/3/1 42/3/1 43/3/1
f 47/3/1 46/3/1 45/3/1
f 48/3/1 46/3/1 47/3/1
f 51/3/1 50/3/1 49/3/1
f 52/3/1 50/3/1 51/3/1
f 55/2/1 54/2/1 53/2/1
f 56/2/1 54/2/1 55/2/1
f 59/1/1 58/1/1 57/1/1
f 60/1/1 58/1/1 59/1/1
f 61/1/2 62/1/2 63/1/2
f 63/1/2 62/1/2 64/1/2
f 65/2/2 66/2/2 67/2/2
f 67/2/2 66/2/2 68/2/2
f 69/3/2 70/3/2 71/3/2
f 71/3/2 70/3/2 72/3/2
f 73/3/2 74/3/2 75/3/2
f 75/3/2 74/3/2 76/3/2
f 77/3/2 78/3/2 79/3/2
f 79/3/2 78/3/2 80/3/2
f 81/3/2 82/3/2 83/3/2
f 83/3/2 82/3/2 84/3/2
f 85/3/2 86/3/2 87/3/2
f 87/3/2 86/3/2 88/3/2
f 89/3/2 90/3/2 91/3/2
f 91/3/2 90/3/2 92/3/2
f 93/3/2 94/3/2 95/3/2
f 95/3/2 94/3/2 96/3/2
f 97/3/2 98/3/2 99/3/2
f 99/3/2 98/3/2 100/3/2
f 101/3/2 102/3/2 103/3/2
f 103/3/2 102/3/2 104/3/2
f 105/3/2 106/3/2 107/3/2
f 107/3/2 106/3/2 108/3/2
f 109/3/2 110/3/2 111/3/2
f 111/3/2 110/3/2 112/3/2
f 113/3/2 114/3/2 115/3/2
f 115/3/2 114/3/2 116/3/2
f 117/3/2 118/3/2 119/3/2
f 119/3/2 118/3/2 120/3/2
f 124/3/3 122/3/3 121/3/3
f 125/3/3 122/3/3 124/3/3
f 128/3/3 124/3/3 123/3/3
f 128/3/3 126/3/3 125/3/3
f 128/3/3 125/3/3 124/3/3
f 129/3/3 126/3/3 128/3/3
f 130/3/3 126/3/3 129/3/3
f 131/3/3 126/3/3 130/3/3
f 134/3/3 128/3/3 127/3/3
f 134/3/3 129/3/3 128/3/3
f 135/3/3 129/3/3 134/3/3
f 136/4/3 130/4/3 129/4/3
f 136/3/3 129/3/3 135/3/3
f 137/3/3 132/3/3 131/3/3
f 137/4/3 130/4/3 136/4/3
f 137/3/3 131/3/3 130/3/3
f 138/3/3 132/3/3 137/3/3
f 139/3/3 132/3/3 138/3/3
f 142/3/3 134/3/3 133/3/3
f 142/3/3 135/3/3 134/3/3
f 143/3/3 135/3/3 142/3/3
f 144/4/3 136/4/3 135/4/3
f 144/3/3 135/3/3 143/3/3
f 144/4/3 137/4/3 136/4/3
f 144/4/3 138/4/3 137/4/3
f 145/3/3 140/3/3 139/3/3
f 145/4/3 138/4/3 144/4/3
f 145/3/3 139/3/3 138/3/3
f 146/3/3 140/3/3 145/3/3
f 147/3/3 140/3/3 146/3/3
f 150/3/3 143/3/3 142/3/3
f 150/3/3 142/3/3 141/3/3
f 151/3/3 143/3/3 150/3/3
f 152/4/3 144/4/3 143/4/3
f 152/3/3 143/3/3 151/3/3
f 153/3/3 145/3/3 144/3/3
f 153/4/3 144/4/3 152/4/3
f 154/4/3 146/4/3 145/4/3
f 154/3/3 145/3/3 153/3/3
f 155/3/3 148/3/3 147/3/3
f 155/4/3 146/4/3 154/4/3
f 155/3/3 147/3/3 146/3/3
f 156/3/3 148/3/3 155/3/3
f 157/3/3 148/3/3 156/3/3
f 159/3/3 151/3/3 150/3/3
f 159/3/3 150/3/3 149/3/3
f 160/4/3 152/4/3 151/4/3
f 160/3/3 151/3/3 159/3/3
f 161/3/3 154/3/3 153/3/3
f 161/4/3 152/4/3 160/4/3
f 161/3/3 153/3/3 152/3/3
f 161/3/3 155/3/3 154/3/3
f 162/3/3 155/3/3 161/3/3
f 163/3/3 155/3/3 162/3/3
f 164/4/3 156/4/3 155/4/3
f 164/3/3 155/3/3 163/3/3
f 165/3/3 158/3/3 157/3/3
f 165/4/3 156/4/3 164/4/3
f 165/3/3 157/3/3 156/3/3
f 166/3/3 158/3/3 165/3/3
f 167/3/3 162/3/3 161/3/3
f 167/3/3 161/3/3 160/3/3
f 168/4/3 163/4/3 162/4/3
f 168/3/3 162/3/3 167/3/3
f 169/3/3 164/3/3 163/3/3
f 169/4/3 163/4/3 168/4/3
f 169/3/3 165/3/3 164/3/3
f 170/3/3 165/3/3 169/3/3
f 172/3/3 159/3/3 149/3/3
f 173/3/3 167/3/3 160/3/3
f 174/4/3 168/4/3 167/4/3
f 174/3/3 167/3/3 173/3/3
f 175/3/3 169/3/3 168/3/3
f 175/4/3 168/4/3 174/4/3
f 176/4/3 170/4/3 169/4/3
f 176/3/3 169/3/3 175/3/3
f 177/3/3 165/3/3 170/3/3
f 177/4/3 170/4/3 176/4/3
f 178/3/3 165/3/3 177/3/3
f 179/3/3 158/3/3 166/3/3
f 181/3/3 173/3/3 160/3/3
f 182/4/3 174/4/3 173/4/3
f 182/3/3 173/3/3 181/3/3
f 183/3/3 176/3/3 175/3/3
f 183/4/3 174/4/3 182/4/3
f 183/3/3 175/3/3 174/3/3
f 183/3/3 177/3/3 176/3/3
f 184/4/3 178/4/3 177/4/3
f 184/3/3 177/3/3 183/3/3
f 185/3/3 165/3/3 178/3/3
f 185/4/3 178/4/3 184/4/3
f 186/3/3 165/3/3 185/3/3
f 187/3/3 184/3/3 183/3/3
f 187/3/3 183/3/3 182/3/3
f 187/3/3 185/3/3 184/3/3
f 188/3/3 185/3/3 187/3/3
f 189/3/3 187/3/3 182/3/3
f 189/4/3 188/4/3 187/4/3
f 190/3/3 185/3/3 188/3/3
f 190/4/3 188/4/3 189/4/3
f 191/4/3 182/4/3 181/4/3
f 191/3/3 181/3/3 160/3/3
f 192/3/3 190/3/3 189/3/3
f 192/4/3 182/4/3 191/4/3
f 192/3/3 189/3/3 182/3/3
f 193/3/3 190/3/3 192/3/3
f 194/3/3 185/3/3 190/3/3
f 194/3/3 190/3/3 193/3/3
f 195/4/3 186/4/3 185/4/3
f 195/3/3 185/3/3 194/3/3
f 196/3/3 165/3/3 186/3/3
f 196/4/3 186/4/3 195/4/3
f 197/3/3 172/3/3 171/3/3
f 198/3/3 159/3/3 172/3/3
f 198/3/3 172/3/3 197/3/3
f 199/4/3 193/4/3 192/4/3
f 199/3/3 192/3/3 191/3/3
f 200/3/3 194/3/3 193/3/3
f 200/4/3 193/4/3 199/4/3
f 201/3/3 194/3/3 200/3/3
f 202/3/3 194/3/3 201/3/3
f 203/4/3 195/4/3 194/4/3
f 203/3/3 194/3/3 202/3/3
f 204/3/3 196/3/3 195/3/3
f 204/4/3 195/4/3 203/4/3
f 205/3/3 180/3/3 179/3/3
f 205/3/3 179/3/3 166/3/3
f 206/3/3 180/3/3 205/3/3
f 207/3/3 200/3/3 199/3/3
f 207/4/3 201/4/3 200/4/3
f 208/3/3 202/3/3 201/3/3
f 208/4/3 201/4/3 207/4/3
f 209/4/3 203/4/3 202/4/3
f 209/3/3 202/3/3 208/3/3
f 210/3/3 204/3/3 203/3/3
f 210/4/3 203/4/3 209/4/3
f 211/4/3 160/4/3 159/4/3
f 211/3/3 159/3/3 198/3/3
f 212/3/3 207/3/3 199/3/3
f 212/4/3 160/4/3 211/4/3
f 212/3/3 191/3/3 160/3/3
f 212/3/3 199/3/3 191/3/3
f 212/3/3 208/3/3 207/3/3
f 213/3/3 208/3/3 212/3/3
f 214/4/3 209/4/3 208/4/3
f 214/3/3 208/3/3 213/3/3
f 215/3/3 210/3/3 209/3/3
f 215/4/3 209/4/3 214/4/3
f 216/3/3 204/3/3 210/3/3
f 216/3/3 210/3/3 215/3/3
f 216/3/3 196/3/3 204/3/3
f 216/3/3 165/3/3 196/3/3
f 217/4/3 166/4/3 165/4/3
f 217/3/3 165/3/3 216/3/3
f 218/3/3 205/3/3 166/3/3
f 218/4/3 166/4/3 217/4/3
f 219/3/3 212/3/3 211/3/3
f 219/3/3 211/3/3 198/3/3
f 220/3/3 212/3/3 219/3/3
f 221/4/3 213/4/3 212/4/3
f 221/3/3 212/3/3 220/3/3
f 222/3/3 215/3/3 214/3/3
f 222/4/3 213/4/3 221/4/3
f 222/3/3 214/3/3 213/3/3
f 222/3/3 216/3/3 215/3/3
f 223/3/3 216/3/3 222/3/3
f 224/3/3 216/3/3 223/3/3
f 225/4/3 217/4/3 216/4/3
f 225/3/3 216/3/3 224/3/3
f 226/3/3 218/3/3 217/3/3
f 226/4/3 217/4/3 225/4/3
f 227/3/3 205/3/3 218/3/3
f 227/3/3 218/3/3 226/3/3
f 228/3/3 205/3/3 227/3/3
f 229/3/3 221/3/3 220/3/3
f 229/3/3 222/3/3 221/3/3
f 230/3/3 222/3/3 229/3/3
f 231/4/3 223/4/3 222/4/3
f 231/3/3 222/3/3 230/3/3
f 232/3/3 224/3/3 223/3/3
f 232/4/3 223/4/3 231/4/3
f 233/4/3 225/4/3 224/4/3
f 233/3/3 224/3/3 232/3/3
f 234/3/3 226/3/3 225/3/3
f 234/4/3 225/4/3 233/4/3
f 234/3/3 227/3/3 226/3/3
f 235/3/3 227/3/3 234/3/3
f 236/3/3 227/3/3 235/3/3
f 237/3/3 232/3/3 231/3/3
f 237/3/3 231/3/3 230/3/3
f 238/3/3 232/3/3 237/3/3
f 239/4/3 233/4/3 232/4/3
f 239/3/3 232/3/3 238/3/3
f 240/4/3 233/4/3 239/4/3
f 241/4/3 233/4/3 240/4/3
f 242/3/3 235/3/3 234/3/3
f 242/4/3 233/4/3 241/4/3
f 242/3/3 234/3/3 233/3/3
f 243/3/3 235/3/3 242/3/3
f 244/3/3 235/3/3 243/3/3
f 245/3/3 240/3/3 239/3/3
f 245/3/3 239/3/3 238/3/3
f 246/3/3 240/3/3 245/3/3
f 247/4/3 241/4/3 240/4/3
f 247/3/3 240/3/3 246/3/3
f 248/3/3 243/3/3 242/3/3
f 248/4/3 241/4/3 247/4/3
f 248/3/3 242/3/3 241/3/3
f 249/3/3 243/3/3 248/3/3
f 250/3/3 243/3/3 249/3/3
f 251/3/3 247/3/3 246/3/3
f 251/3/3 249/3/3 248/3/3
f 251/3/3 248/3/3 247/3/3
f 252/3/3 249/3/3 251/3/3
f 253/3/3 249/3/3 252/3/3
f 254/3/3 249/3/3 253/3/3
f 255/3/3 253/3/3 252/3/3
f 256/3/3 253/3/3 255/3/3
f 259/2/3 258/2/3 257/2/3
f 260/2/3 258/2/3 259/2/3
f 263/1/3 262/1/3 261/1/3
f 264/1/3 262/1/3 263/1/3
f 265/1/4 266/1/4 267/1/4
f 267/1/4 266/1/4 268/1/4
f 269/2/4 270/2/4 271/2/4
f 271/2/4 270/2/4 272/2/4
f 273/3/4 274/3/4 276/3/4
f 276/3/4 274/3/4 277/3/4
f 275/3/4 276/3/4 280/3/4
f 277/3/4 278/3/4 280/3/4
f 276/3/4 277/3/4 280/3/4
f 280/3/4 278/3/4 281/3/4
f 281/3/4 278/3/4 282/3/4
f 282/3/4 278/3/4 283/3/4
f 279/3/4 280/3/4 286/3/4
f 280/3/4 281/3/4 286/3/4
f 286/3/4 281/3/4 287/3/4
f 281/4/4 282/4/4 288/4/4
f 287/3/4 281/3/4 288/3/4
f 283/3/4 284/3/4 289/3/4
f 288/4/4 282/4/4 289/4/4
f 282/3/4 283/3/4 289/3/4
f 289/3/4 284/3/4 290/3/4
f 290/3/4 284/3/4 291/3/4
f 285/3/4 286/3/4 294/3/4
f 286/3/4 287/3/4 294/3/4
f 294/3/4 287/3/4 295/3/4
f 287/4/4 288/4/4 296/4/4
f 295/3/4 287/3/4 296/3/4
f 288/4/4 289/4/4 296/4/4
f 289/4/4 290/4/4 296/4/4
f 291/3/4 292/3/4 297/3/4
f 296/4/4 290/4/4 297/4/4
f 290/3/4 291/3/4 297/3/4
f 297/3/4 292/3/4 298/3/4
f 298/3/4 292/3/4 299/3/4
f 294/3/4 295/3/4 302/3/4
f 293/3/4 294/3/4 302/3/4
f 302/3/4 295/3/4 303/3/4
f 295/4/4 296/4/4 304/4/4
f 303/3/4 295/3/4 304/3/4
f 296/3/4 297/3/4 305/3/4
f 304/4/4 296/4/4 305/4/4
f 297/4/4 298/4/4 306/4/4
f 305/3/4 297/3/4 306/3/4
f 299/3/4 300/3/4 307/3/4
f 306/4/4 298/4/4 307/4/4
f 298/3/4 299/3/4 307/3/4
f 307/3/4 300/3/4 308/3/4
f 308/3/4 300/3/4 309/3/4
f 302/3/4 303/3/4 311/3/4
f 301/3/4 302/3/4 311/3/4
f 303/4/4 304/4/4 312/4/4
f 311/3/4 303/3/4 312/3/4
f 305/3/4 306/3/4 313/3/4
f 312/4/4 304/4/4 313/4/4
f 304/3/4 305/3/4 313/3/4
f 306/3/4 307/3/4 313/3/4
f 313/3/4 307/3/4 314/3/4
f 314/3/4 307/3/4 315/3/4
f 307/4/4 308/4/4 316/4/4
f 315/3/4 307/3/4 316/3/4
f 309/3/4 310/3/4 317/3/4
f 316/4/4 308/4/4 317/4/4
f 308/3/4 309/3/4 317/3/4
f 317/3/4 310/3/4 318/3/4
f 313/3/4 314/3/4 319/3/4
f 312/3/4 313/3/4 319/3/4
f 314/4/4 315/4/4 320/4/4
f 319/3/4 314/3/4 320/3/4
f 315/3/4 316/3/4 321/3/4
f 320/4/4 315/4/4 321/4/4
f 316/3/4 317/3/4 321/3/4
f 321/3/4 317/3/4 322/3/4
f 301/3/4 311/3/4 324/3/4
f 312/3/4 319/3/4 325/3/4
f 319/4/4 320/4/4 326/4/4
f 325/3/4 319/3/4 326/3/4
f 320/3/4 321/3/4 327/3/4
f 326/4/4 320/4/4 327/4/4
f 321/4/4 322/4/4 328/4/4
f 327/3/4 321/3/4 328/3/4
f 322/3/4 317/3/4 329/3/4
f 328/4/4 322/4/4 329/4/4
f 329/3/4 317/3/4 330/3/4
f 318/3/4 310/3/4 331/3/4
f 312/3/4 325/3/4 333/3/4
f 325/4/4 326/4/4 334/4/4
f 333/3/4 325/3/4 334/3/4
f 327/3/4 328/3/4 335/3/4
f 334/4/4 326/4/4 335/4/4
f 326/3/4 327/3/4 335/3/4
f 328/3/4 329/3/4 335/3/4
f 329/4/4 330/4/4 336/4/4
f 335/3/4 329/3/4 336/3/4
f 330/3/4 317/3/4 337/3/4
f 336/4/4 330/4/4 337/4/4
f 337/3/4 317/3/4 338/3/4
f 335/3/4 336/3/4 339/3/4
f 334/3/4 335/3/4 339/3/4
f 336/3/4 337/3/4 339/3/4
f 339/3/4 337/3/4 340/3/4
f 334/3/4 339/3/4 341/3/4
f 339/4/4 340/4/4 341/4/4
f 340/3/4 337/3/4 342/3/4
f 341/4/4 340/4/4 342/4/4
f 333/4/4 334/4/4 343/4/4
f 312/3/4 333/3/4 343/3/4
f 341/3/4 342/3/4 344/3/4
f 343/4/4 334/4/4 344/4/4
f 334/3/4 341/3/4 344/3/4
f 344/3/4 342/3/4 345/3/4
f 342/3/4 337/3/4 346/3/4
f 345/3/4 342/3/4 346/3/4
f 337/4/4 338/4/4 347/4/4
f 346/3/4 337/3/4 347/3/4
f 338/3/4 317/3/4 348/3/4
f 347/4/4 338/4/4 348/4/4
f 323/3/4 324/3/4 349/3/4
f 324/3/4 311/3/4 350/3/4
f 349/3/4 324/3/4 350/3/4
f 344/4/4 345/4/4 351/4/4
f 343/3/4 344/3/4 351/3/4
f 345/3/4 346/3/4 352/3/4
f 351/4/4 345/4/4 352/4/4
f 352/3/4 346/3/4 353/3/4
f 353/3/4 346/3/4 354/3/4
f 346/4/4 347/4/4 355/4/4
f 354/3/4 346/3/4 355/3/4
f 347/3/4 348/3/4 356/3/4
f 355/4/4 347/4/4 356/4/4
f 331/3/4 332/3/4 357/3/4
f 318/3/4 331/3/4 357/3/4
f 357/3/4 332/3/4 358/3/4
f 351/3/4 352/3/4 359/3/4
f 352/4/4 353/4/4 359/4/4
f 353/3/4 354/3/4 360/3/4
f 359/4/4 353/4/4 360/4/4
f 354/4/4 355/4/4 361/4/4
f 360/3/4 354/3/4 361/3/4
f 355/3/4 356/3/4 362/3/4
f 361/4/4 355/4/4 362/4/4
f 311/4/4 312/4/4 363/4/4
f 350/3/4 311/3/4 363/3/4
f 351/3/4 359/3/4 364/3/4
f 363/4/4 312/4/4 364/4/4
f 312/3/4 343/3/4 364/3/4
f 343/3/4 351/3/4 364/3/4
f 359/3/4 360/3/4 364/3/4
f 364/3/4 360/3/4 365/3/4
f 360/4/4 361/4/4 366/4/4
f 365/3/4 360/3/4 366/3/4
f 361/3/4 362/3/4 367/3/4
f 366/4/4 361/4/4 367/4/4
f 362/3/4 356/3/4 368/3/4
f 367/3/4 362/3/4 368/3/4
f 356/3/4 348/3/4 368/3/4
f 348/3/4 317/3/4 368/3/4
f 317/4/4 318/4/4 369/4/4
f 368/3/4 317/3/4 369/3/4
f 318/3/4 357/3/4 370/3/4
f 369/4/4 318/4/4 370/4/4
f 363/3/4 364/3/4 371/3/4
f 350/3/4 363/3/4 371/3/4
f 371/3/4 364/3/4 372/3/4
f 364/4/4 365/4/4 373/4/4
f 372/3/4 364/3/4 373/3/4
f 366/3/4 367/3/4 374/3/4
f 373/4/4 365/4/4 374/4/4
f 365/3/4 366/3/4 374/3/4
f 367/3/4 368/3/4 374/3/4
f 374/3/4 368/3/4 375/3/4
f 375/3/4 368/3/4 376/3/4
f 368/4/4 369/4/4 377/4/4
f 376/3/4 368/3/4 377/3/4
f 369/3/4 370/3/4 378/3/4
f 377/4/4 369/4/4 378/4/4
f 370/3/4 357/3/4 379/3/4
f 378/3/4 370/3/4 379/3/4
f 379/3/4 357/3/4 380/3/4
f 372/3/4 373/3/4 381/3/4
f 373/3/4 374/3/4 381/3/4
f 381/3/4 374/3/4 382/3/4
f 374/4/4 375/4/4 383/4/4
f 382/3/4 374/3/4 383/3/4
f 375/3/4 376/3/4 384/3/4
f 383/4/4 375/4/4 384/4/4
f 376/4/4 377/4/4 385/4/4
f 384/3/4 376/3/4 385/3/4
f 377/3/4 378/3/4 386/3/4
f 385/4/4 377/4/4 386/4/4
f 378/3/4 379/3/4 386/3/4
f 386/3/4 379/3/4 387/3/4
f 387/3/4 379/3/4 388/3/4
f 383/3/4 384/3/4 389/3/4
f 382/3/4 383/3/4 389/3/4
f 389/3/4 384/3/4 390/3/4
f 384/4/4 385/4/4 391/4/4
f 390/3/4 384/3/4 391/3/4
f 391/4/4 385/4/4 392/4/4
f 392/4/4 385/4/4 393/4/4
f 386/3/4 387/3/4 394/3/4
f 393/4/4 385/4/4 394/4/4
f 385/3/4 386/3/4 394/3/4
f 394/3/4 387/3/4 395/3/4
f 395/3/4 387/3/4 396/3/4
f 391/3/4 392/3/4 397/3/4
f 390/3/4 391/3/4 397/3/4
f 397/3/4 392/3/4 398/3/4
f 392/4/4 393/4/4 399/4/4
f 398/3/4 392/3/4 399/3/4
f 394/3/4 395/3/4 400/3/4
f 399/4/4 393/4/4 400/4/4
f 393/3/4 394/3/4 400/3/4
f 400/3/4 395/3/4 401/3/4
f 401/3/4 395/3/4 402/3/4
f 398/3/4 399/3/4 403/3/4
f 400/3/4 401/3/4 403/3/4
f 399/3/4 400/3/4 403/3/4
f 403/3/4 401/3/4 404/3/4
f 404/3/4 401/3/4 405/3/4
f 405/3/4 401/3/4 406/3/4
f 404/3/4 405/3/4 407/3/4
f 407/3/4 405/3/4 408/3/4
f 411/3/5 410/3/5 409/3/5
f 412/3/5 410/3/5 411/3/5
f 417/3/5 414/3/5 413/3/5
f 418/3/5 414/3/5 417/3/5
f 419/3/5 416/3/5 415/3/5
f 420/3/5 416/3/5 419/3/5
f 425/3/5 422/3/5 421/3/5
f 426/3/5 422/3/5 425/3/5
f 427/3/5 424/3/5 423/3/5
f 428/3/5 424/3/5 427/3/5
f 433/3/5 430/3/5 429/3/5
f 434/3/5 430/3/5 433/3/5
f 435/3/5 432/3/5 431/3/5
f 436/3/5 432/3/5 435/3/5
f 441/3/5 438/3/5 437/3/5
f 442/3/5 438/3/5 441/3/5
f 443/3/5 440/3/5 439/3/5
f 444/3/5 440/3/5 443/3/5
f 449/3/5 446/3/5 445/3/5
f 450/3/5 446/3/5 449/3/5
f 451/3/5 448/3/5 447/3/5
f 452/3/5 448/3/5 451/3/5
f 457/3/5 454/3/5 453/3/5
f 458/3/5 454/3/5 457/3/5
f 459/3/5 456/3/5 455/3/5
f 460/3/5 456/3/5 459/3/5
f 461/3/6 462/3/6 465/3/6
f 465/3/6 462/3/6 466/3/6
f 463/3/6 464/3/6 467/3/6
f 467/3/6 464/3/6 468/3/6
f 469/3/6 470/3/6 473/3/6
f 473/3/6 470/3/6 474/3/6
f 471/3/6 472/3/6 475/3/6
f 475/3/6 472/3/6 476/3/6
f 477/3/6 478/3/6 481/3/6
f 481/3/6 478/3/6 482/3/6
f 479/3/6 480/3/6 483/3/6
f 483/3/6 480/3/6 484/3/6
f 485/3/6 486/3/6 489/3/6
f 489/3/6 486/3/6 490/3/6
f 487/3/6 488/3/6 491/3/6
f 491/3/6 488/3/6 492/3/6
f 493/3/6 494/3/6 497/3/6
f 497/3/6 494/3/6 498/3/6
f 495/3/6 496/3/6 499/3/6
f 499/3/6 496/3/6 500/3/6
f 501/3/6 502/3/6 505/3/6
f 505/3/6 502/3/6 506/3/6
f 503/3/6 504/3/6 507/3/6
f 507/3/6 504/3/6 508/3/6
f 509/3/6 510/3/6 511/3/6
f 511/3/6 510/3/6 512/3/6
f 509/3/6 511/3/6 513/3/6
f 512/3/6 510/3/6 514/3/6
f 509/3/6 513/3/6 515/3/6
f 513/3/6 514/3/6 515/3/6
f 514/3/6 510/3/6 516/3/6
f 515/3/6 514/3/6 516/3/6
f 517/2/6 518/2/6 519/2/6
f 519/2/6 518/2/6 520/2/6
f 517/2/6 519/2/6 521/2/6
f 520/2/6 518/2/6 522/2/6
f 517/2/6 521/2/6 523/2/6
f 521/2/6 522/2/6 523/2/6
f 522/2/6 518/2/6 524/2/6
f 523/2/6 522/2/6 524/2/6
f 525/1/6 526/1/6 527/1/6
f 527/1/6 526/1/6 528/1/6
