# MagicaVoxel @ Ephtracy

# group
o 

# material
mtllib ladder bottom.mtl
usemtl palette

# normals
vn -1 0 0
vn 1 0 0
vn 0 0 1
vn 0 0 -1
vn 0 -1 0
vn 0 1 0

# texcoords
vt 0.533203 0.5
vt 0.537109 0.5
vt 0.990234 0.5
vt 0.994141 0.5

# verts
v 0.2 2 -0.2
v 0.2 2 -0.4
v 0.2 3 -0.2
v 0.2 3 -0.4
v 0.3 2 0
v 0.3 2 -0.2
v 0.3 2.1 0
v 0.3 2.1 -0.2
v 0.4 2.2 -0.4
v 0.4 2.2 -0.5
v 0.4 2.4 -0.5
v 0.4 2.4 -0.6
v 0.4 2.6 -0.4
v 0.4 2.6 -0.5
v 0.4 2.6 -0.6
v 0.4 2.6 -0.7
v 0.4 2.8 -0.5
v 0.4 2.8 -0.6
v 0.4 2.8 -0.7
v 0.4 2.8 -0.8
v 0.4 3 -0.6
v 0.4 3 -0.7
v 0.4 3 -0.8
v 0.4 3 -0.9
v 0.4 3.2 -0.7
v 0.4 3.2 -0.8
v 0.4 3.2 -0.9
v 0.4 3.2 -1
v 0.4 3.4 -0.8
v 0.4 3.4 -0.9
v 0.4 3.4 -1
v 0.4 3.4 -1.1
v 0.4 3.6 -0.9
v 0.4 3.6 -1
v 0.4 3.6 -1.1
v 0.4 3.6 -1.2
v 0.4 3.8 -1
v 0.4 3.8 -1.1
v 0.4 3.8 -1.2
v 0.4 3.8 -1.3
v 0.4 4 -1.1
v 0.4 4 -1.2
v 0.4 4 -1.3
v 0.4 4 -1.4
v 0.4 4.2 -1.2
v 0.4 4.2 -1.4
v 0.5 2.1 -0.1
v 0.5 2.1 -0.2
v 0.5 2.2 -0.1
v 0.5 2.2 -0.2
v 0.6 2.2 -0.2
v 0.6 2.2 -0.3
v 0.6 2.3 -0.2
v 0.6 2.3 -0.3
v 1 2.2 -0.4
v 1 2.2 -0.5
v 1 2.3 -0.4
v 1 2.4 -0.4
v 1 2.4 -0.5
v 1 2.4 -0.6
v 1 2.5 -0.4
v 1 2.5 -0.5
v 1 2.6 -0.4
v 1 2.6 -0.5
v 1 2.6 -0.6
v 1 2.6 -0.7
v 1 2.8 -0.6
v 1 2.8 -0.7
v 1 2.8 -0.8
v 1 2.9 -0.6
v 1 2.9 -0.7
v 1 3 -0.6
v 1 3 -0.7
v 1 3 -0.8
v 1 3 -0.9
v 1 3.2 -0.8
v 1 3.2 -0.9
v 1 3.2 -1
v 1 3.3 -0.8
v 1 3.3 -0.9
v 1 3.4 -0.8
v 1 3.4 -0.9
v 1 3.4 -1
v 1 3.4 -1.1
v 1 3.6 -1
v 1 3.6 -1.1
v 1 3.6 -1.2
v 1 3.7 -1
v 1 3.7 -1.1
v 1 3.8 -1
v 1 3.8 -1.1
v 1 3.8 -1.2
v 1 3.8 -1.3
v 1 4 -1.2
v 1 4 -1.3
v 1 4 -1.4
v 1 4.1 -1.2
v 1 4.1 -1.3
v 1 4.2 -1.2
v 1 4.2 -1.4
v 1.2 2.2 -0.2
v 1.2 2.2 -0.3
v 1.2 2.3 -0.3
v 1.2 2.4 -0.3
v 1.2 2.4 -0.4
v 1.2 2.6 -0.4
v 1.2 3 -0.2
v 1.2 3 -0.4
v 0.4 2.2 -0.2
v 0.4 2.2 -0.3
v 0.4 2.3 -0.3
v 0.4 2.4 -0.3
v 0.4 2.4 -0.4
v 0.4 2.6 -0.4
v 0.4 3 -0.2
v 0.4 3 -0.4
v 0.6 2.2 -0.4
v 0.6 2.2 -0.5
v 0.6 2.3 -0.4
v 0.6 2.4 -0.4
v 0.6 2.4 -0.5
v 0.6 2.4 -0.6
v 0.6 2.5 -0.4
v 0.6 2.5 -0.5
v 0.6 2.6 -0.4
v 0.6 2.6 -0.5
v 0.6 2.6 -0.6
v 0.6 2.6 -0.7
v 0.6 2.8 -0.6
v 0.6 2.8 -0.7
v 0.6 2.8 -0.8
v 0.6 2.9 -0.6
v 0.6 2.9 -0.7
v 0.6 3 -0.6
v 0.6 3 -0.7
v 0.6 3 -0.8
v 0.6 3 -0.9
v 0.6 3.2 -0.8
v 0.6 3.2 -0.9
v 0.6 3.2 -1
v 0.6 3.3 -0.8
v 0.6 3.3 -0.9
v 0.6 3.4 -0.8
v 0.6 3.4 -0.9
v 0.6 3.4 -1
v 0.6 3.4 -1.1
v 0.6 3.6 -1
v 0.6 3.6 -1.1
v 0.6 3.6 -1.2
v 0.6 3.7 -1
v 0.6 3.7 -1.1
v 0.6 3.8 -1
v 0.6 3.8 -1.1
v 0.6 3.8 -1.2
v 0.6 3.8 -1.3
v 0.6 4 -1.2
v 0.6 4 -1.3
v 0.6 4 -1.4
v 0.6 4.1 -1.2
v 0.6 4.1 -1.3
v 0.6 4.2 -1.2
v 0.6 4.2 -1.4
v 1 2.2 -0.2
v 1 2.2 -0.3
v 1 2.3 -0.2
v 1 2.3 -0.3
v 1.1 2.1 -0.1
v 1.1 2.1 -0.2
v 1.1 2.2 -0.1
v 1.1 2.2 -0.2
v 1.2 2.2 -0.4
v 1.2 2.2 -0.5
v 1.2 2.4 -0.5
v 1.2 2.4 -0.6
v 1.2 2.6 -0.4
v 1.2 2.6 -0.5
v 1.2 2.6 -0.6
v 1.2 2.6 -0.7
v 1.2 2.8 -0.5
v 1.2 2.8 -0.6
v 1.2 2.8 -0.7
v 1.2 2.8 -0.8
v 1.2 3 -0.6
v 1.2 3 -0.7
v 1.2 3 -0.8
v 1.2 3 -0.9
v 1.2 3.2 -0.7
v 1.2 3.2 -0.8
v 1.2 3.2 -0.9
v 1.2 3.2 -1
v 1.2 3.4 -0.8
v 1.2 3.4 -0.9
v 1.2 3.4 -1
v 1.2 3.4 -1.1
v 1.2 3.6 -0.9
v 1.2 3.6 -1
v 1.2 3.6 -1.1
v 1.2 3.6 -1.2
v 1.2 3.8 -1
v 1.2 3.8 -1.1
v 1.2 3.8 -1.2
v 1.2 3.8 -1.3
v 1.2 4 -1.1
v 1.2 4 -1.2
v 1.2 4 -1.3
v 1.2 4 -1.4
v 1.2 4.2 -1.2
v 1.2 4.2 -1.4
v 1.3 2 0
v 1.3 2 -0.2
v 1.3 2.1 0
v 1.3 2.1 -0.2
v 1.4 2 -0.2
v 1.4 2 -0.4
v 1.4 3 -0.2
v 1.4 3 -0.4
v 0.3 2 0
v 0.3 2.1 0
v 1.3 2 0
v 1.3 2.1 0
v 0.5 2.1 -0.1
v 0.5 2.2 -0.1
v 1.1 2.1 -0.1
v 1.1 2.2 -0.1
v 0.2 2 -0.2
v 0.2 3 -0.2
v 0.3 2 -0.2
v 0.3 2.1 -0.2
v 0.4 2.2 -0.2
v 0.4 3 -0.2
v 0.5 2.1 -0.2
v 0.5 2.2 -0.2
v 0.6 2.2 -0.2
v 0.6 2.3 -0.2
v 1 2.2 -0.2
v 1 2.3 -0.2
v 1.1 2.1 -0.2
v 1.1 2.2 -0.2
v 1.2 2.2 -0.2
v 1.2 3 -0.2
v 1.3 2 -0.2
v 1.3 2.1 -0.2
v 1.4 2 -0.2
v 1.4 3 -0.2
v 0.4 2.2 -0.3
v 0.4 2.3 -0.3
v 0.4 2.4 -0.3
v 0.6 2.2 -0.3
v 0.6 2.3 -0.3
v 0.6 2.4 -0.3
v 1 2.2 -0.3
v 1 2.3 -0.3
v 1 2.4 -0.3
v 1.2 2.2 -0.3
v 1.2 2.3 -0.3
v 1.2 2.4 -0.3
v 0.4 2.4 -0.4
v 0.4 2.6 -0.4
v 0.6 2.4 -0.4
v 0.6 2.5 -0.4
v 0.6 2.6 -0.4
v 1 2.4 -0.4
v 1 2.5 -0.4
v 1 2.6 -0.4
v 1.2 2.4 -0.4
v 1.2 2.6 -0.4
v 0.4 2.6 -0.5
v 0.4 2.8 -0.5
v 0.6 2.6 -0.5
v 0.6 2.8 -0.5
v 1 2.6 -0.5
v 1 2.8 -0.5
v 1.2 2.6 -0.5
v 1.2 2.8 -0.5
v 0.4 2.8 -0.6
v 0.4 3 -0.6
v 0.6 2.8 -0.6
v 0.6 2.9 -0.6
v 0.6 3 -0.6
v 1 2.8 -0.6
v 1 2.9 -0.6
v 1 3 -0.6
v 1.2 2.8 -0.6
v 1.2 3 -0.6
v 0.4 3 -0.7
v 0.4 3.2 -0.7
v 0.6 3 -0.7
v 0.6 3.2 -0.7
v 1 3 -0.7
v 1 3.2 -0.7
v 1.2 3 -0.7
v 1.2 3.2 -0.7
v 0.4 3.2 -0.8
v 0.4 3.4 -0.8
v 0.6 3.2 -0.8
v 0.6 3.3 -0.8
v 0.6 3.4 -0.8
v 1 3.2 -0.8
v 1 3.3 -0.8
v 1 3.4 -0.8
v 1.2 3.2 -0.8
v 1.2 3.4 -0.8
v 0.4 3.4 -0.9
v 0.4 3.6 -0.9
v 0.6 3.4 -0.9
v 0.6 3.6 -0.9
v 1 3.4 -0.9
v 1 3.6 -0.9
v 1.2 3.4 -0.9
v 1.2 3.6 -0.9
v 0.4 3.6 -1
v 0.4 3.8 -1
v 0.6 3.6 -1
v 0.6 3.7 -1
v 0.6 3.8 -1
v 1 3.6 -1
v 1 3.7 -1
v 1 3.8 -1
v 1.2 3.6 -1
v 1.2 3.8 -1
v 0.4 3.8 -1.1
v 0.4 4 -1.1
v 0.6 3.8 -1.1
v 0.6 4 -1.1
v 1 3.8 -1.1
v 1 4 -1.1
v 1.2 3.8 -1.1
v 1.2 4 -1.1
v 0.4 4 -1.2
v 0.4 4.2 -1.2
v 0.6 4 -1.2
v 0.6 4.1 -1.2
v 0.6 4.2 -1.2
v 1 4 -1.2
v 1 4.1 -1.2
v 1 4.2 -1.2
v 1.2 4 -1.2
v 1.2 4.2 -1.2
v 0.2 2 -0.4
v 0.2 3 -0.4
v 0.4 2.2 -0.4
v 0.4 2.6 -0.4
v 0.4 3 -0.4
v 0.6 2.2 -0.4
v 0.6 2.3 -0.4
v 0.6 2.4 -0.4
v 1 2.2 -0.4
v 1 2.3 -0.4
v 1 2.4 -0.4
v 1.2 2.2 -0.4
v 1.2 2.6 -0.4
v 1.2 3 -0.4
v 1.4 2 -0.4
v 1.4 3 -0.4
v 0.4 2.2 -0.5
v 0.4 2.4 -0.5
v 0.6 2.2 -0.5
v 0.6 2.4 -0.5
v 0.6 2.5 -0.5
v 1 2.2 -0.5
v 1 2.4 -0.5
v 1 2.5 -0.5
v 1.2 2.2 -0.5
v 1.2 2.4 -0.5
v 0.4 2.4 -0.6
v 0.4 2.6 -0.6
v 0.6 2.4 -0.6
v 0.6 2.6 -0.6
v 0.6 2.8 -0.6
v 1 2.4 -0.6
v 1 2.6 -0.6
v 1 2.8 -0.6
v 1.2 2.4 -0.6
v 1.2 2.6 -0.6
v 0.4 2.6 -0.7
v 0.4 2.8 -0.7
v 0.6 2.6 -0.7
v 0.6 2.8 -0.7
v 0.6 2.9 -0.7
v 1 2.6 -0.7
v 1 2.8 -0.7
v 1 2.9 -0.7
v 1.2 2.6 -0.7
v 1.2 2.8 -0.7
v 0.4 2.8 -0.8
v 0.4 3 -0.8
v 0.6 2.8 -0.8
v 0.6 3 -0.8
v 0.6 3.2 -0.8
v 1 2.8 -0.8
v 1 3 -0.8
v 1 3.2 -0.8
v 1.2 2.8 -0.8
v 1.2 3 -0.8
v 0.4 3 -0.9
v 0.4 3.2 -0.9
v 0.6 3 -0.9
v 0.6 3.2 -0.9
v 0.6 3.3 -0.9
v 1 3 -0.9
v 1 3.2 -0.9
v 1 3.3 -0.9
v 1.2 3 -0.9
v 1.2 3.2 -0.9
v 0.4 3.2 -1
v 0.4 3.4 -1
v 0.6 3.2 -1
v 0.6 3.4 -1
v 0.6 3.6 -1
v 1 3.2 -1
v 1 3.4 -1
v 1 3.6 -1
v 1.2 3.2 -1
v 1.2 3.4 -1
v 0.4 3.4 -1.1
v 0.4 3.6 -1.1
v 0.6 3.4 -1.1
v 0.6 3.6 -1.1
v 0.6 3.7 -1.1
v 1 3.4 -1.1
v 1 3.6 -1.1
v 1 3.7 -1.1
v 1.2 3.4 -1.1
v 1.2 3.6 -1.1
v 0.4 3.6 -1.2
v 0.4 3.8 -1.2
v 0.6 3.6 -1.2
v 0.6 3.8 -1.2
v 0.6 4 -1.2
v 1 3.6 -1.2
v 1 3.8 -1.2
v 1 4 -1.2
v 1.2 3.6 -1.2
v 1.2 3.8 -1.2
v 0.4 3.8 -1.3
v 0.4 4 -1.3
v 0.6 3.8 -1.3
v 0.6 4 -1.3
v 0.6 4.1 -1.3
v 1 3.8 -1.3
v 1 4 -1.3
v 1 4.1 -1.3
v 1.2 3.8 -1.3
v 1.2 4 -1.3
v 0.4 4 -1.4
v 0.4 4.2 -1.4
v 0.6 4 -1.4
v 0.6 4.2 -1.4
v 1 4 -1.4
v 1 4.2 -1.4
v 1.2 4 -1.4
v 1.2 4.2 -1.4
v 0.3 2 0
v 1.3 2 0
v 0.2 2 -0.2
v 0.3 2 -0.2
v 1.3 2 -0.2
v 1.4 2 -0.2
v 0.2 2 -0.4
v 1.4 2 -0.4
v 0.4 2.2 -0.4
v 0.6 2.2 -0.4
v 1 2.2 -0.4
v 1.2 2.2 -0.4
v 0.4 2.2 -0.5
v 0.6 2.2 -0.5
v 1 2.2 -0.5
v 1.2 2.2 -0.5
v 0.6 2.4 -0.4
v 1 2.4 -0.4
v 0.4 2.4 -0.5
v 0.6 2.4 -0.5
v 1 2.4 -0.5
v 1.2 2.4 -0.5
v 0.4 2.4 -0.6
v 0.6 2.4 -0.6
v 1 2.4 -0.6
v 1.2 2.4 -0.6
v 0.6 2.6 -0.5
v 1 2.6 -0.5
v 0.4 2.6 -0.6
v 0.6 2.6 -0.6
v 1 2.6 -0.6
v 1.2 2.6 -0.6
v 0.4 2.6 -0.7
v 0.6 2.6 -0.7
v 1 2.6 -0.7
v 1.2 2.6 -0.7
v 0.6 2.8 -0.6
v 1 2.8 -0.6
v 0.4 2.8 -0.7
v 0.6 2.8 -0.7
v 1 2.8 -0.7
v 1.2 2.8 -0.7
v 0.4 2.8 -0.8
v 0.6 2.8 -0.8
v 1 2.8 -0.8
v 1.2 2.8 -0.8
v 0.6 3 -0.7
v 1 3 -0.7
v 0.4 3 -0.8
v 0.6 3 -0.8
v 1 3 -0.8
v 1.2 3 -0.8
v 0.4 3 -0.9
v 0.6 3 -0.9
v 1 3 -0.9
v 1.2 3 -0.9
v 0.6 3.2 -0.8
v 1 3.2 -0.8
v 0.4 3.2 -0.9
v 0.6 3.2 -0.9
v 1 3.2 -0.9
v 1.2 3.2 -0.9
v 0.4 3.2 -1
v 0.6 3.2 -1
v 1 3.2 -1
v 1.2 3.2 -1
v 0.6 3.4 -0.9
v 1 3.4 -0.9
v 0.4 3.4 -1
v 0.6 3.4 -1
v 1 3.4 -1
v 1.2 3.4 -1
v 0.4 3.4 -1.1
v 0.6 3.4 -1.1
v 1 3.4 -1.1
v 1.2 3.4 -1.1
v 0.6 3.6 -1
v 1 3.6 -1
v 0.4 3.6 -1.1
v 0.6 3.6 -1.1
v 1 3.6 -1.1
v 1.2 3.6 -1.1
v 0.4 3.6 -1.2
v 0.6 3.6 -1.2
v 1 3.6 -1.2
v 1.2 3.6 -1.2
v 0.6 3.8 -1.1
v 1 3.8 -1.1
v 0.4 3.8 -1.2
v 0.6 3.8 -1.2
v 1 3.8 -1.2
v 1.2 3.8 -1.2
v 0.4 3.8 -1.3
v 0.6 3.8 -1.3
v 1 3.8 -1.3
v 1.2 3.8 -1.3
v 0.6 4 -1.2
v 1 4 -1.2
v 0.4 4 -1.3
v 0.6 4 -1.3
v 1 4 -1.3
v 1.2 4 -1.3
v 0.4 4 -1.4
v 0.6 4 -1.4
v 1 4 -1.4
v 1.2 4 -1.4
v 0.3 2.1 0
v 1.3 2.1 0
v 0.5 2.1 -0.1
v 1.1 2.1 -0.1
v 0.3 2.1 -0.2
v 0.5 2.1 -0.2
v 1.1 2.1 -0.2
v 1.3 2.1 -0.2
v 0.5 2.2 -0.1
v 1.1 2.2 -0.1
v 0.4 2.2 -0.2
v 0.5 2.2 -0.2
v 0.6 2.2 -0.2
v 1 2.2 -0.2
v 1.1 2.2 -0.2
v 1.2 2.2 -0.2
v 0.4 2.2 -0.3
v 0.6 2.2 -0.3
v 1 2.2 -0.3
v 1.2 2.2 -0.3
v 0.6 2.3 -0.2
v 1 2.3 -0.2
v 0.6 2.3 -0.3
v 1 2.3 -0.3
v 0.4 2.4 -0.3
v 0.6 2.4 -0.3
v 1 2.4 -0.3
v 1.2 2.4 -0.3
v 0.4 2.4 -0.4
v 0.6 2.4 -0.4
v 1 2.4 -0.4
v 1.2 2.4 -0.4
v 0.6 2.5 -0.4
v 1 2.5 -0.4
v 0.6 2.5 -0.5
v 1 2.5 -0.5
v 0.4 2.6 -0.4
v 0.6 2.6 -0.4
v 1 2.6 -0.4
v 1.2 2.6 -0.4
v 0.4 2.6 -0.5
v 0.6 2.6 -0.5
v 1 2.6 -0.5
v 1.2 2.6 -0.5
v 0.4 2.8 -0.5
v 0.6 2.8 -0.5
v 1 2.8 -0.5
v 1.2 2.8 -0.5
v 0.4 2.8 -0.6
v 0.6 2.8 -0.6
v 1 2.8 -0.6
v 1.2 2.8 -0.6
v 0.6 2.9 -0.6
v 1 2.9 -0.6
v 0.6 2.9 -0.7
v 1 2.9 -0.7
v 0.2 3 -0.2
v 0.4 3 -0.2
v 1.2 3 -0.2
v 1.4 3 -0.2
v 0.2 3 -0.4
v 0.4 3 -0.4
v 1.2 3 -0.4
v 1.4 3 -0.4
v 0.4 3 -0.6
v 0.6 3 -0.6
v 1 3 -0.6
v 1.2 3 -0.6
v 0.4 3 -0.7
v 0.6 3 -0.7
v 1 3 -0.7
v 1.2 3 -0.7
v 0.4 3.2 -0.7
v 0.6 3.2 -0.7
v 1 3.2 -0.7
v 1.2 3.2 -0.7
v 0.4 3.2 -0.8
v 0.6 3.2 -0.8
v 1 3.2 -0.8
v 1.2 3.2 -0.8
v 0.6 3.3 -0.8
v 1 3.3 -0.8
v 0.6 3.3 -0.9
v 1 3.3 -0.9
v 0.4 3.4 -0.8
v 0.6 3.4 -0.8
v 1 3.4 -0.8
v 1.2 3.4 -0.8
v 0.4 3.4 -0.9
v 0.6 3.4 -0.9
v 1 3.4 -0.9
v 1.2 3.4 -0.9
v 0.4 3.6 -0.9
v 0.6 3.6 -0.9
v 1 3.6 -0.9
v 1.2 3.6 -0.9
v 0.4 3.6 -1
v 0.6 3.6 -1
v 1 3.6 -1
v 1.2 3.6 -1
v 0.6 3.7 -1
v 1 3.7 -1
v 0.6 3.7 -1.1
v 1 3.7 -1.1
v 0.4 3.8 -1
v 0.6 3.8 -1
v 1 3.8 -1
v 1.2 3.8 -1
v 0.4 3.8 -1.1
v 0.6 3.8 -1.1
v 1 3.8 -1.1
v 1.2 3.8 -1.1
v 0.4 4 -1.1
v 0.6 4 -1.1
v 1 4 -1.1
v 1.2 4 -1.1
v 0.4 4 -1.2
v 0.6 4 -1.2
v 1 4 -1.2
v 1.2 4 -1.2
v 0.6 4.1 -1.2
v 1 4.1 -1.2
v 0.6 4.1 -1.3
v 1 4.1 -1.3
v 0.4 4.2 -1.2
v 0.6 4.2 -1.2
v 1 4.2 -1.2
v 1.2 4.2 -1.2
v 0.4 4.2 -1.4
v 0.6 4.2 -1.4
v 1 4.2 -1.4
v 1.2 4.2 -1.4

# faces
f 3/3/1 2/3/1 1/3/1
f 4/3/1 2/3/1 3/3/1
f 7/3/1 6/3/1 5/3/1
f 8/3/1 6/3/1 7/3/1
f 11/1/1 10/1/1 9/1/1
f 13/1/1 11/1/1 9/1/1
f 13/1/1 12/1/1 11/1/1
f 14/1/1 12/1/1 13/1/1
f 15/1/1 12/1/1 14/1/1
f 17/1/1 16/1/1 15/1/1
f 17/1/1 15/1/1 14/1/1
f 18/1/1 16/1/1 17/1/1
f 19/1/1 16/1/1 18/1/1
f 21/1/1 20/1/1 19/1/1
f 21/1/1 19/1/1 18/1/1
f 22/1/1 20/1/1 21/1/1
f 23/1/1 20/1/1 22/1/1
f 25/1/1 24/1/1 23/1/1
f 25/1/1 23/1/1 22/1/1
f 26/1/1 24/1/1 25/1/1
f 27/1/1 24/1/1 26/1/1
f 29/1/1 28/1/1 27/1/1
f 29/1/1 27/1/1 26/1/1
f 30/1/1 28/1/1 29/1/1
f 31/1/1 28/1/1 30/1/1
f 33/1/1 32/1/1 31/1/1
f 33/1/1 31/1/1 30/1/1
f 34/1/1 32/1/1 33/1/1
f 35/1/1 32/1/1 34/1/1
f 37/1/1 36/1/1 35/1/1
f 37/1/1 35/1/1 34/1/1
f 38/1/1 36/1/1 37/1/1
f 39/1/1 36/1/1 38/1/1
f 41/1/1 40/1/1 39/1/1
f 41/1/1 39/1/1 38/1/1
f 42/1/1 40/1/1 41/1/1
f 43/1/1 40/1/1 42/1/1
f 45/1/1 44/1/1 43/1/1
f 45/1/1 43/1/1 42/1/1
f 46/1/1 44/1/1 45/1/1
f 49/3/1 48/3/1 47/3/1
f 50/3/1 48/3/1 49/3/1
f 53/3/1 52/3/1 51/3/1
f 54/3/1 52/3/1 53/3/1
f 57/1/1 56/1/1 55/1/1
f 58/1/1 56/1/1 57/1/1
f 59/1/1 56/1/1 58/1/1
f 62/1/1 60/1/1 59/1/1
f 63/1/1 62/1/1 61/1/1
f 64/1/1 60/1/1 62/1/1
f 64/1/1 62/1/1 63/1/1
f 65/1/1 60/1/1 64/1/1
f 67/1/1 66/1/1 65/1/1
f 68/1/1 66/1/1 67/1/1
f 71/1/1 69/1/1 68/1/1
f 72/1/1 71/1/1 70/1/1
f 73/1/1 69/1/1 71/1/1
f 73/1/1 71/1/1 72/1/1
f 74/1/1 69/1/1 73/1/1
f 76/1/1 75/1/1 74/1/1
f 77/1/1 75/1/1 76/1/1
f 80/1/1 78/1/1 77/1/1
f 81/1/1 80/1/1 79/1/1
f 82/1/1 78/1/1 80/1/1
f 82/1/1 80/1/1 81/1/1
f 83/1/1 78/1/1 82/1/1
f 85/1/1 84/1/1 83/1/1
f 86/1/1 84/1/1 85/1/1
f 89/1/1 87/1/1 86/1/1
f 90/1/1 89/1/1 88/1/1
f 91/1/1 87/1/1 89/1/1
f 91/1/1 89/1/1 90/1/1
f 92/1/1 87/1/1 91/1/1
f 94/1/1 93/1/1 92/1/1
f 95/1/1 93/1/1 94/1/1
f 98/1/1 96/1/1 95/1/1
f 99/1/1 98/1/1 97/1/1
f 100/1/1 96/1/1 98/1/1
f 100/1/1 98/1/1 99/1/1
f 103/3/1 102/3/1 101/3/1
f 104/3/1 103/3/1 101/3/1
f 106/3/1 105/3/1 104/3/1
f 107/3/1 104/3/1 101/3/1
f 107/3/1 106/3/1 104/3/1
f 108/3/1 106/3/1 107/3/1
f 109/3/2 110/3/2 111/3/2
f 109/3/2 111/3/2 112/3/2
f 112/3/2 113/3/2 114/3/2
f 109/3/2 112/3/2 115/3/2
f 112/3/2 114/3/2 115/3/2
f 115/3/2 114/3/2 116/3/2
f 117/1/2 118/1/2 119/1/2
f 119/1/2 118/1/2 120/1/2
f 120/1/2 118/1/2 121/1/2
f 121/1/2 122/1/2 124/1/2
f 123/1/2 124/1/2 125/1/2
f 124/1/2 122/1/2 126/1/2
f 125/1/2 124/1/2 126/1/2
f 126/1/2 122/1/2 127/1/2
f 127/1/2 128/1/2 129/1/2
f 129/1/2 128/1/2 130/1/2
f 130/1/2 131/1/2 133/1/2
f 132/1/2 133/1/2 134/1/2
f 133/1/2 131/1/2 135/1/2
f 134/1/2 133/1/2 135/1/2
f 135/1/2 131/1/2 136/1/2
f 136/1/2 137/1/2 138/1/2
f 138/1/2 137/1/2 139/1/2
f 139/1/2 140/1/2 142/1/2
f 141/1/2 142/1/2 143/1/2
f 142/1/2 140/1/2 144/1/2
f 143/1/2 142/1/2 144/1/2
f 144/1/2 140/1/2 145/1/2
f 145/1/2 146/1/2 147/1/2
f 147/1/2 146/1/2 148/1/2
f 148/1/2 149/1/2 151/1/2
f 150/1/2 151/1/2 152/1/2
f 151/1/2 149/1/2 153/1/2
f 152/1/2 151/1/2 153/1/2
f 153/1/2 149/1/2 154/1/2
f 154/1/2 155/1/2 156/1/2
f 156/1/2 155/1/2 157/1/2
f 157/1/2 158/1/2 160/1/2
f 159/1/2 160/1/2 161/1/2
f 160/1/2 158/1/2 162/1/2
f 161/1/2 160/1/2 162/1/2
f 163/3/2 164/3/2 165/3/2
f 165/3/2 164/3/2 166/3/2
f 167/3/2 168/3/2 169/3/2
f 169/3/2 168/3/2 170/3/2
f 171/1/2 172/1/2 173/1/2
f 171/1/2 173/1/2 175/1/2
f 173/1/2 174/1/2 175/1/2
f 175/1/2 174/1/2 176/1/2
f 176/1/2 174/1/2 177/1/2
f 177/1/2 178/1/2 179/1/2
f 176/1/2 177/1/2 179/1/2
f 179/1/2 178/1/2 180/1/2
f 180/1/2 178/1/2 181/1/2
f 181/1/2 182/1/2 183/1/2
f 180/1/2 181/1/2 183/1/2
f 183/1/2 182/1/2 184/1/2
f 184/1/2 182/1/2 185/1/2
f 185/1/2 186/1/2 187/1/2
f 184/1/2 185/1/2 187/1/2
f 187/1/2 186/1/2 188/1/2
f 188/1/2 186/1/2 189/1/2
f 189/1/2 190/1/2 191/1/2
f 188/1/2 189/1/2 191/1/2
f 191/1/2 190/1/2 192/1/2
f 192/1/2 190/1/2 193/1/2
f 193/1/2 194/1/2 195/1/2
f 192/1/2 193/1/2 195/1/2
f 195/1/2 194/1/2 196/1/2
f 196/1/2 194/1/2 197/1/2
f 197/1/2 198/1/2 199/1/2
f 196/1/2 197/1/2 199/1/2
f 199/1/2 198/1/2 200/1/2
f 200/1/2 198/1/2 201/1/2
f 201/1/2 202/1/2 203/1/2
f 200/1/2 201/1/2 203/1/2
f 203/1/2 202/1/2 204/1/2
f 204/1/2 202/1/2 205/1/2
f 205/1/2 206/1/2 207/1/2
f 204/1/2 205/1/2 207/1/2
f 207/1/2 206/1/2 208/1/2
f 209/3/2 210/3/2 211/3/2
f 211/3/2 210/3/2 212/3/2
f 213/3/2 214/3/2 215/3/2
f 215/3/2 214/3/2 216/3/2
f 219/3/3 218/3/3 217/3/3
f 220/3/3 218/3/3 219/3/3
f 223/3/3 222/3/3 221/3/3
f 224/3/3 222/3/3 223/3/3
f 227/3/3 226/3/3 225/3/3
f 228/3/3 226/3/3 227/3/3
f 229/3/3 226/3/3 228/3/3
f 230/3/3 226/3/3 229/3/3
f 231/3/3 229/3/3 228/3/3
f 232/3/3 229/3/3 231/3/3
f 235/3/3 234/3/3 233/3/3
f 236/3/3 234/3/3 235/3/3
f 239/3/3 238/3/3 237/3/3
f 242/3/3 239/3/3 237/3/3
f 242/3/3 240/3/3 239/3/3
f 243/3/3 242/3/3 241/3/3
f 244/3/3 240/3/3 242/3/3
f 244/3/3 242/3/3 243/3/3
f 248/3/3 246/3/3 245/3/3
f 249/1/3 247/1/3 246/1/3
f 249/3/3 246/3/3 248/3/3
f 250/1/3 247/1/3 249/1/3
f 252/2/3 250/2/3 249/2/3
f 253/2/3 250/2/3 252/2/3
f 254/3/3 252/3/3 251/3/3
f 255/1/3 253/1/3 252/1/3
f 255/3/3 252/3/3 254/3/3
f 256/1/3 253/1/3 255/1/3
f 259/1/3 258/1/3 257/1/3
f 260/1/3 258/1/3 259/1/3
f 261/1/3 258/1/3 260/1/3
f 262/4/3 260/4/3 259/4/3
f 263/4/3 260/4/3 262/4/3
f 265/1/3 263/1/3 262/1/3
f 265/1/3 264/1/3 263/1/3
f 266/1/3 264/1/3 265/1/3
f 269/1/3 268/1/3 267/1/3
f 270/1/3 268/1/3 269/1/3
f 271/2/3 270/2/3 269/2/3
f 272/2/3 270/2/3 271/2/3
f 273/1/3 272/1/3 271/1/3
f 274/1/3 272/1/3 273/1/3
f 277/1/3 276/1/3 275/1/3
f 278/1/3 276/1/3 277/1/3
f 279/1/3 276/1/3 278/1/3
f 280/4/3 278/4/3 277/4/3
f 281/4/3 278/4/3 280/4/3
f 283/1/3 281/1/3 280/1/3
f 283/1/3 282/1/3 281/1/3
f 284/1/3 282/1/3 283/1/3
f 287/1/3 286/1/3 285/1/3
f 288/1/3 286/1/3 287/1/3
f 289/2/3 288/2/3 287/2/3
f 290/2/3 288/2/3 289/2/3
f 291/1/3 290/1/3 289/1/3
f 292/1/3 290/1/3 291/1/3
f 295/1/3 294/1/3 293/1/3
f 296/1/3 294/1/3 295/1/3
f 297/1/3 294/1/3 296/1/3
f 298/4/3 296/4/3 295/4/3
f 299/4/3 296/4/3 298/4/3
f 301/1/3 299/1/3 298/1/3
f 301/1/3 300/1/3 299/1/3
f 302/1/3 300/1/3 301/1/3
f 305/1/3 304/1/3 303/1/3
f 306/1/3 304/1/3 305/1/3
f 307/2/3 306/2/3 305/2/3
f 308/2/3 306/2/3 307/2/3
f 309/1/3 308/1/3 307/1/3
f 310/1/3 308/1/3 309/1/3
f 313/1/3 312/1/3 311/1/3
f 314/1/3 312/1/3 313/1/3
f 315/1/3 312/1/3 314/1/3
f 316/4/3 314/4/3 313/4/3
f 317/4/3 314/4/3 316/4/3
f 319/1/3 317/1/3 316/1/3
f 319/1/3 318/1/3 317/1/3
f 320/1/3 318/1/3 319/1/3
f 323/1/3 322/1/3 321/1/3
f 324/1/3 322/1/3 323/1/3
f 325/2/3 324/2/3 323/2/3
f 326/2/3 324/2/3 325/2/3
f 327/1/3 326/1/3 325/1/3
f 328/1/3 326/1/3 327/1/3
f 331/1/3 330/1/3 329/1/3
f 332/1/3 330/1/3 331/1/3
f 333/1/3 330/1/3 332/1/3
f 334/4/3 332/4/3 331/4/3
f 335/4/3 332/4/3 334/4/3
f 337/1/3 335/1/3 334/1/3
f 337/1/3 336/1/3 335/1/3
f 338/1/3 336/1/3 337/1/3
f 339/3/4 340/3/4 341/3/4
f 341/3/4 340/3/4 342/3/4
f 342/3/4 340/3/4 343/3/4
f 339/3/4 341/3/4 344/3/4
f 339/3/4 344/3/4 347/3/4
f 344/3/4 345/3/4 347/3/4
f 345/2/4 346/2/4 348/2/4
f 347/3/4 345/3/4 348/3/4
f 348/2/4 346/2/4 349/2/4
f 339/3/4 347/3/4 350/3/4
f 339/3/4 350/3/4 353/3/4
f 351/3/4 352/3/4 353/3/4
f 350/3/4 351/3/4 353/3/4
f 353/3/4 352/3/4 354/3/4
f 355/1/4 356/1/4 357/1/4
f 357/1/4 356/1/4 358/1/4
f 358/4/4 359/4/4 361/4/4
f 361/4/4 359/4/4 362/4/4
f 360/1/4 361/1/4 363/1/4
f 363/1/4 361/1/4 364/1/4
f 365/1/4 366/1/4 367/1/4
f 367/1/4 366/1/4 368/1/4
f 368/2/4 369/2/4 371/2/4
f 371/2/4 369/2/4 372/2/4
f 370/1/4 371/1/4 373/1/4
f 373/1/4 371/1/4 374/1/4
f 375/1/4 376/1/4 377/1/4
f 377/1/4 376/1/4 378/1/4
f 378/4/4 379/4/4 381/4/4
f 381/4/4 379/4/4 382/4/4
f 380/1/4 381/1/4 383/1/4
f 383/1/4 381/1/4 384/1/4
f 385/1/4 386/1/4 387/1/4
f 387/1/4 386/1/4 388/1/4
f 388/2/4 389/2/4 391/2/4
f 391/2/4 389/2/4 392/2/4
f 390/1/4 391/1/4 393/1/4
f 393/1/4 391/1/4 394/1/4
f 395/1/4 396/1/4 397/1/4
f 397/1/4 396/1/4 398/1/4
f 398/4/4 399/4/4 401/4/4
f 401/4/4 399/4/4 402/4/4
f 400/1/4 401/1/4 403/1/4
f 403/1/4 401/1/4 404/1/4
f 405/1/4 406/1/4 407/1/4
f 407/1/4 406/1/4 408/1/4
f 408/2/4 409/2/4 411/2/4
f 411/2/4 409/2/4 412/2/4
f 410/1/4 411/1/4 413/1/4
f 413/1/4 411/1/4 414/1/4
f 415/1/4 416/1/4 417/1/4
f 417/1/4 416/1/4 418/1/4
f 418/4/4 419/4/4 421/4/4
f 421/4/4 419/4/4 422/4/4
f 420/1/4 421/1/4 423/1/4
f 423/1/4 421/1/4 424/1/4
f 425/1/4 426/1/4 427/1/4
f 427/1/4 426/1/4 428/1/4
f 428/2/4 429/2/4 431/2/4
f 431/2/4 429/2/4 432/2/4
f 430/1/4 431/1/4 433/1/4
f 433/1/4 431/1/4 434/1/4
f 435/1/4 436/1/4 437/1/4
f 437/1/4 436/1/4 438/1/4
f 438/4/4 439/4/4 441/4/4
f 441/4/4 439/4/4 442/4/4
f 440/1/4 441/1/4 443/1/4
f 443/1/4 441/1/4 444/1/4
f 445/1/4 446/1/4 447/1/4
f 447/1/4 446/1/4 448/1/4
f 449/1/4 450/1/4 451/1/4
f 451/1/4 450/1/4 452/1/4
f 456/3/5 454/3/5 453/3/5
f 457/3/5 454/3/5 456/3/5
f 459/3/5 456/3/5 455/3/5
f 459/3/5 458/3/5 457/3/5
f 459/3/5 457/3/5 456/3/5
f 460/3/5 458/3/5 459/3/5
f 465/1/5 462/1/5 461/1/5
f 466/1/5 462/1/5 465/1/5
f 467/1/5 464/1/5 463/1/5
f 468/1/5 464/1/5 467/1/5
f 472/4/5 470/4/5 469/4/5
f 473/4/5 470/4/5 472/4/5
f 475/1/5 472/1/5 471/1/5
f 476/1/5 472/1/5 475/1/5
f 477/1/5 474/1/5 473/1/5
f 478/1/5 474/1/5 477/1/5
f 482/2/5 480/2/5 479/2/5
f 483/2/5 480/2/5 482/2/5
f 485/1/5 482/1/5 481/1/5
f 486/1/5 482/1/5 485/1/5
f 487/1/5 484/1/5 483/1/5
f 488/1/5 484/1/5 487/1/5
f 492/4/5 490/4/5 489/4/5
f 493/4/5 490/4/5 492/4/5
f 495/1/5 492/1/5 491/1/5
f 496/1/5 492/1/5 495/1/5
f 497/1/5 494/1/5 493/1/5
f 498/1/5 494/1/5 497/1/5
f 502/2/5 500/2/5 499/2/5
f 503/2/5 500/2/5 502/2/5
f 505/1/5 502/1/5 501/1/5
f 506/1/5 502/1/5 505/1/5
f 507/1/5 504/1/5 503/1/5
f 508/1/5 504/1/5 507/1/5
f 512/4/5 510/4/5 509/4/5
f 513/4/5 510/4/5 512/4/5
f 515/1/5 512/1/5 511/1/5
f 516/1/5 512/1/5 515/1/5
f 517/1/5 514/1/5 513/1/5
f 518/1/5 514/1/5 517/1/5
f 522/2/5 520/2/5 519/2/5
f 523/2/5 520/2/5 522/2/5
f 525/1/5 522/1/5 521/1/5
f 526/1/5 522/1/5 525/1/5
f 527/1/5 524/1/5 523/1/5
f 528/1/5 524/1/5 527/1/5
f 532/4/5 530/4/5 529/4/5
f 533/4/5 530/4/5 532/4/5
f 535/1/5 532/1/5 531/1/5
f 536/1/5 532/1/5 535/1/5
f 537/1/5 534/1/5 533/1/5
f 538/1/5 534/1/5 537/1/5
f 542/2/5 540/2/5 539/2/5
f 543/2/5 540/2/5 542/2/5
f 545/1/5 542/1/5 541/1/5
f 546/1/5 542/1/5 545/1/5
f 547/1/5 544/1/5 543/1/5
f 548/1/5 544/1/5 547/1/5
f 552/4/5 550/4/5 549/4/5
f 553/4/5 550/4/5 552/4/5
f 555/1/5 552/1/5 551/1/5
f 556/1/5 552/1/5 555/1/5
f 557/1/5 554/1/5 553/1/5
f 558/1/5 554/1/5 557/1/5
f 559/3/6 560/3/6 561/3/6
f 561/3/6 560/3/6 562/3/6
f 559/3/6 561/3/6 563/3/6
f 563/3/6 561/3/6 564/3/6
f 562/3/6 560/3/6 565/3/6
f 565/3/6 560/3/6 566/3/6
f 567/3/6 568/3/6 570/3/6
f 570/3/6 568/3/6 571/3/6
f 571/3/6 568/3/6 572/3/6
f 572/3/6 568/3/6 573/3/6
f 569/3/6 570/3/6 575/3/6
f 570/3/6 571/3/6 575/3/6
f 575/3/6 571/3/6 576/3/6
f 573/3/6 574/3/6 577/3/6
f 572/3/6 573/3/6 577/3/6
f 577/3/6 574/3/6 578/3/6
f 579/3/6 580/3/6 581/3/6
f 581/3/6 580/3/6 582/3/6
f 583/1/6 584/1/6 587/1/6
f 584/2/6 585/2/6 588/2/6
f 587/1/6 584/1/6 588/1/6
f 585/1/6 586/1/6 589/1/6
f 588/2/6 585/2/6 589/2/6
f 589/1/6 586/1/6 590/1/6
f 591/4/6 592/4/6 593/4/6
f 593/4/6 592/4/6 594/4/6
f 595/1/6 596/1/6 599/1/6
f 599/1/6 596/1/6 600/1/6
f 597/1/6 598/1/6 601/1/6
f 601/1/6 598/1/6 602/1/6
f 603/1/6 604/1/6 607/1/6
f 604/2/6 605/2/6 608/2/6
f 607/1/6 604/1/6 608/1/6
f 605/1/6 606/1/6 609/1/6
f 608/2/6 605/2/6 609/2/6
f 609/1/6 606/1/6 610/1/6
f 611/4/6 612/4/6 613/4/6
f 613/4/6 612/4/6 614/4/6
f 615/3/6 616/3/6 619/3/6
f 619/3/6 616/3/6 620/3/6
f 617/3/6 618/3/6 621/3/6
f 621/3/6 618/3/6 622/3/6
f 623/1/6 624/1/6 627/1/6
f 627/1/6 624/1/6 628/1/6
f 625/1/6 626/1/6 629/1/6
f 629/1/6 626/1/6 630/1/6
f 631/1/6 632/1/6 635/1/6
f 632/2/6 633/2/6 636/2/6
f 635/1/6 632/1/6 636/1/6
f 633/1/6 634/1/6 637/1/6
f 636/2/6 633/2/6 637/2/6
f 637/1/6 634/1/6 638/1/6
f 639/4/6 640/4/6 641/4/6
f 641/4/6 640/4/6 642/4/6
f 643/1/6 644/1/6 647/1/6
f 647/1/6 644/1/6 648/1/6
f 645/1/6 646/1/6 649/1/6
f 649/1/6 646/1/6 650/1/6
f 651/1/6 652/1/6 655/1/6
f 652/2/6 653/2/6 656/2/6
f 655/1/6 652/1/6 656/1/6
f 653/1/6 654/1/6 657/1/6
f 656/2/6 653/2/6 657/2/6
f 657/1/6 654/1/6 658/1/6
f 659/4/6 660/4/6 661/4/6
f 661/4/6 660/4/6 662/4/6
f 663/1/6 664/1/6 667/1/6
f 667/1/6 664/1/6 668/1/6
f 665/1/6 666/1/6 669/1/6
f 669/1/6 666/1/6 670/1/6
f 671/1/6 672/1/6 675/1/6
f 672/2/6 673/2/6 676/2/6
f 675/1/6 672/1/6 676/1/6
f 673/1/6 674/1/6 677/1/6
f 676/2/6 673/2/6 677/2/6
f 677/1/6 674/1/6 678/1/6
f 679/4/6 680/4/6 681/4/6
f 681/4/6 680/4/6 682/4/6
f 683/1/6 684/1/6 687/1/6
f 687/1/6 684/1/6 688/1/6
f 685/1/6 686/1/6 689/1/6
f 689/1/6 686/1/6 690/1/6
