# MagicaVoxel @ Ephtracy

# group
o 

# material
mtllib ladder top.mtl
usemtl palette

# normals
vn -1 0 0
vn 1 0 0
vn 0 0 1
vn 0 0 -1
vn 0 -1 0
vn 0 1 0

# texcoords
vt 0.533203 0.5
vt 0.537109 0.5
vt 0.990234 0.5
vt 0.994141 0.5

# verts
v 0.2 4.4 -1.4
v 0.2 4.4 -1.6
v 0.2 5.4 -1.4
v 0.2 5.4 -1.6
v 0.3 4.4 -1.3
v 0.3 4.4 -1.4
v 0.3 4.4 -1.6
v 0.3 4.4 -1.8
v 0.3 4.5 -1.3
v 0.3 4.5 -1.4
v 0.3 4.5 -1.6
v 0.3 4.5 -1.8
v 0.4 4.2 -1.2
v 0.4 4.2 -1.3
v 0.4 4.2 -1.5
v 0.4 4.4 -1.3
v 0.4 4.4 -1.5
v 0.4 4.5 -1.2
v 0.4 4.5 -1.3
v 0.4 4.5 -1.4
v 0.4 4.6 -1.3
v 0.4 4.6 -1.4
v 0.5 4.5 -1.6
v 0.5 4.5 -1.7
v 0.5 4.6 -1.6
v 0.5 4.6 -1.7
v 0.6 4.6 -1.5
v 0.6 4.6 -1.6
v 0.6 4.7 -1.5
v 0.6 4.7 -1.6
v 1 4.2 -1.3
v 1 4.2 -1.5
v 1 4.4 -1.2
v 1 4.4 -1.3
v 1 4.4 -1.5
v 1 4.5 -1.2
v 1 4.5 -1.3
v 1 4.5 -1.4
v 1 4.6 -1.3
v 1 4.6 -1.4
v 1.2 4.6 -1.5
v 1.2 4.6 -1.6
v 1.2 4.7 -1.4
v 1.2 4.7 -1.5
v 1.2 5.4 -1.4
v 1.2 5.4 -1.6
v 0.4 4.6 -1.5
v 0.4 4.6 -1.6
v 0.4 4.7 -1.4
v 0.4 4.7 -1.5
v 0.4 5.4 -1.4
v 0.4 5.4 -1.6
v 0.6 4.2 -1.3
v 0.6 4.2 -1.5
v 0.6 4.4 -1.2
v 0.6 4.4 -1.3
v 0.6 4.4 -1.5
v 0.6 4.5 -1.2
v 0.6 4.5 -1.3
v 0.6 4.5 -1.4
v 0.6 4.6 -1.3
v 0.6 4.6 -1.4
v 1 4.6 -1.5
v 1 4.6 -1.6
v 1 4.7 -1.5
v 1 4.7 -1.6
v 1.1 4.5 -1.6
v 1.1 4.5 -1.7
v 1.1 4.6 -1.6
v 1.1 4.6 -1.7
v 1.2 4.2 -1.2
v 1.2 4.2 -1.3
v 1.2 4.2 -1.5
v 1.2 4.4 -1.3
v 1.2 4.4 -1.5
v 1.2 4.5 -1.2
v 1.2 4.5 -1.3
v 1.2 4.5 -1.4
v 1.2 4.6 -1.3
v 1.2 4.6 -1.4
v 1.3 4.4 -1.3
v 1.3 4.4 -1.4
v 1.3 4.4 -1.5
v 1.3 4.4 -1.8
v 1.3 4.5 -1.3
v 1.3 4.5 -1.4
v 1.3 4.5 -1.5
v 1.3 4.5 -1.6
v 1.3 4.5 -1.8
v 1.4 4.4 -1.4
v 1.4 4.4 -1.5
v 1.4 4.5 -1.5
v 1.4 4.5 -1.6
v 1.4 5.4 -1.4
v 1.4 5.4 -1.6
v 0.4 4.2 -1.2
v 0.4 4.5 -1.2
v 0.6 4.2 -1.2
v 0.6 4.4 -1.2
v 0.6 4.5 -1.2
v 1 4.2 -1.2
v 1 4.4 -1.2
v 1 4.5 -1.2
v 1.2 4.2 -1.2
v 1.2 4.5 -1.2
v 0.3 4.4 -1.3
v 0.3 4.5 -1.3
v 0.4 4.4 -1.3
v 0.4 4.5 -1.3
v 0.4 4.6 -1.3
v 0.6 4.4 -1.3
v 0.6 4.5 -1.3
v 0.6 4.6 -1.3
v 0.7 4.4 -1.3
v 0.7 4.5 -1.3
v 0.9 4.4 -1.3
v 0.9 4.5 -1.3
v 1 4.4 -1.3
v 1 4.5 -1.3
v 1 4.6 -1.3
v 1.2 4.4 -1.3
v 1.2 4.5 -1.3
v 1.2 4.6 -1.3
v 1.3 4.4 -1.3
v 1.3 4.5 -1.3
v 0.2 4.4 -1.4
v 0.2 5.4 -1.4
v 0.3 4.4 -1.4
v 0.3 4.5 -1.4
v 0.4 4.5 -1.4
v 0.4 4.6 -1.4
v 0.4 4.7 -1.4
v 0.4 5.4 -1.4
v 0.6 4.5 -1.4
v 0.6 4.6 -1.4
v 0.7 4.5 -1.4
v 0.9 4.5 -1.4
v 1 4.5 -1.4
v 1 4.6 -1.4
v 1.2 4.5 -1.4
v 1.2 4.6 -1.4
v 1.2 4.7 -1.4
v 1.2 5.4 -1.4
v 1.3 4.4 -1.4
v 1.3 4.5 -1.4
v 1.4 4.4 -1.4
v 1.4 5.4 -1.4
v 0.6 4.2 -1.3
v 0.6 4.4 -1.3
v 0.7 4.4 -1.3
v 0.9 4.4 -1.3
v 1 4.2 -1.3
v 1 4.4 -1.3
v 0.4 4.2 -1.5
v 0.4 4.4 -1.5
v 0.4 4.6 -1.5
v 0.4 4.7 -1.5
v 0.6 4.2 -1.5
v 0.6 4.4 -1.5
v 0.6 4.6 -1.5
v 0.6 4.7 -1.5
v 1 4.2 -1.5
v 1 4.4 -1.5
v 1 4.6 -1.5
v 1 4.7 -1.5
v 1.2 4.2 -1.5
v 1.2 4.4 -1.5
v 1.2 4.6 -1.5
v 1.2 4.7 -1.5
v 1.3 4.4 -1.5
v 1.3 4.5 -1.5
v 1.4 4.4 -1.5
v 1.4 4.5 -1.5
v 0.2 4.4 -1.6
v 0.2 5.4 -1.6
v 0.3 4.4 -1.6
v 0.3 4.5 -1.6
v 0.4 4.6 -1.6
v 0.4 5.4 -1.6
v 0.5 4.5 -1.6
v 0.5 4.6 -1.6
v 0.6 4.6 -1.6
v 0.6 4.7 -1.6
v 1 4.6 -1.6
v 1 4.7 -1.6
v 1.1 4.5 -1.6
v 1.1 4.6 -1.6
v 1.2 4.6 -1.6
v 1.2 5.4 -1.6
v 1.3 4.5 -1.6
v 1.4 4.5 -1.6
v 1.4 5.4 -1.6
v 0.5 4.5 -1.7
v 0.5 4.6 -1.7
v 1.1 4.5 -1.7
v 1.1 4.6 -1.7
v 0.3 4.4 -1.8
v 0.3 4.5 -1.8
v 1.3 4.4 -1.8
v 1.3 4.5 -1.8
v 0.4 4.2 -1.2
v 0.6 4.2 -1.2
v 1 4.2 -1.2
v 1.2 4.2 -1.2
v 0.4 4.2 -1.3
v 0.6 4.2 -1.3
v 1 4.2 -1.3
v 1.2 4.2 -1.3
v 0.4 4.2 -1.5
v 0.6 4.2 -1.5
v 1 4.2 -1.5
v 1.2 4.2 -1.5
v 0.3 4.4 -1.3
v 0.4 4.4 -1.3
v 0.6 4.4 -1.3
v 0.7 4.4 -1.3
v 0.9 4.4 -1.3
v 1 4.4 -1.3
v 1.2 4.4 -1.3
v 1.3 4.4 -1.3
v 0.2 4.4 -1.4
v 0.3 4.4 -1.4
v 0.7 4.4 -1.4
v 0.9 4.4 -1.4
v 1.3 4.4 -1.4
v 1.4 4.4 -1.4
v 0.4 4.4 -1.5
v 0.6 4.4 -1.5
v 1 4.4 -1.5
v 1.2 4.4 -1.5
v 1.3 4.4 -1.5
v 1.4 4.4 -1.5
v 0.2 4.4 -1.6
v 0.3 4.4 -1.6
v 0.3 4.4 -1.8
v 1.3 4.4 -1.8
v 1.3 4.5 -1.5
v 1.4 4.5 -1.5
v 1.3 4.5 -1.6
v 1.4 4.5 -1.6
v 0.6 4.4 -1.2
v 1 4.4 -1.2
v 0.6 4.4 -1.3
v 0.7 4.4 -1.3
v 0.9 4.4 -1.3
v 1 4.4 -1.3
v 0.4 4.5 -1.2
v 0.6 4.5 -1.2
v 1 4.5 -1.2
v 1.2 4.5 -1.2
v 0.3 4.5 -1.3
v 0.4 4.5 -1.3
v 0.6 4.5 -1.3
v 0.7 4.5 -1.3
v 0.9 4.5 -1.3
v 1 4.5 -1.3
v 1.2 4.5 -1.3
v 1.3 4.5 -1.3
v 0.3 4.5 -1.4
v 0.4 4.5 -1.4
v 0.6 4.5 -1.4
v 0.7 4.5 -1.4
v 0.9 4.5 -1.4
v 1 4.5 -1.4
v 1.2 4.5 -1.4
v 1.3 4.5 -1.4
v 0.3 4.5 -1.6
v 0.5 4.5 -1.6
v 1.1 4.5 -1.6
v 1.3 4.5 -1.6
v 0.5 4.5 -1.7
v 1.1 4.5 -1.7
v 0.3 4.5 -1.8
v 1.3 4.5 -1.8
v 0.4 4.6 -1.3
v 0.6 4.6 -1.3
v 1 4.6 -1.3
v 1.2 4.6 -1.3
v 0.4 4.6 -1.4
v 0.6 4.6 -1.4
v 1 4.6 -1.4
v 1.2 4.6 -1.4
v 0.4 4.6 -1.5
v 0.6 4.6 -1.5
v 1 4.6 -1.5
v 1.2 4.6 -1.5
v 0.4 4.6 -1.6
v 0.5 4.6 -1.6
v 0.6 4.6 -1.6
v 1 4.6 -1.6
v 1.1 4.6 -1.6
v 1.2 4.6 -1.6
v 0.5 4.6 -1.7
v 1.1 4.6 -1.7
v 0.4 4.7 -1.4
v 1.2 4.7 -1.4
v 0.4 4.7 -1.5
v 0.6 4.7 -1.5
v 1 4.7 -1.5
v 1.2 4.7 -1.5
v 0.6 4.7 -1.6
v 1 4.7 -1.6
v 0.2 5.4 -1.4
v 0.4 5.4 -1.4
v 1.2 5.4 -1.4
v 1.4 5.4 -1.4
v 0.2 5.4 -1.6
v 0.4 5.4 -1.6
v 1.2 5.4 -1.6
v 1.4 5.4 -1.6

# faces
f 3/3/1 2/3/1 1/3/1
f 4/3/1 2/3/1 3/3/1
f 9/3/1 6/3/1 5/3/1
f 10/3/1 6/3/1 9/3/1
f 11/3/1 8/3/1 7/3/1
f 12/3/1 8/3/1 11/3/1
f 16/3/1 14/3/1 13/3/1
f 16/1/1 15/1/1 14/1/1
f 17/1/1 15/1/1 16/1/1
f 18/3/1 16/3/1 13/3/1
f 19/3/1 16/3/1 18/3/1
f 21/3/1 20/3/1 19/3/1
f 22/3/1 20/3/1 21/3/1
f 25/3/1 24/3/1 23/3/1
f 26/3/1 24/3/1 25/3/1
f 29/3/1 28/3/1 27/3/1
f 30/3/1 28/3/1 29/3/1
f 34/1/1 32/1/1 31/1/1
f 35/1/1 32/1/1 34/1/1
f 36/3/1 34/3/1 33/3/1
f 37/3/1 34/3/1 36/3/1
f 39/3/1 38/3/1 37/3/1
f 40/3/1 38/3/1 39/3/1
f 44/3/1 42/3/1 41/3/1
f 45/3/1 44/3/1 43/3/1
f 46/3/1 42/3/1 44/3/1
f 46/3/1 44/3/1 45/3/1
f 47/3/2 48/3/2 50/3/2
f 49/3/2 50/3/2 51/3/2
f 50/3/2 48/3/2 52/3/2
f 51/3/2 50/3/2 52/3/2
f 53/1/2 54/1/2 56/1/2
f 56/1/2 54/1/2 57/1/2
f 55/3/2 56/3/2 58/3/2
f 58/3/2 56/3/2 59/3/2
f 59/3/2 60/3/2 61/3/2
f 61/3/2 60/3/2 62/3/2
f 63/3/2 64/3/2 65/3/2
f 65/3/2 64/3/2 66/3/2
f 67/3/2 68/3/2 69/3/2
f 69/3/2 68/3/2 70/3/2
f 71/3/2 72/3/2 74/3/2
f 72/1/2 73/1/2 74/1/2
f 74/1/2 73/1/2 75/1/2
f 71/3/2 74/3/2 76/3/2
f 76/3/2 74/3/2 77/3/2
f 77/3/2 78/3/2 79/3/2
f 79/3/2 78/3/2 80/3/2
f 81/3/2 82/3/2 85/3/2
f 85/3/2 82/3/2 86/3/2
f 83/3/2 84/3/2 87/3/2
f 87/3/2 84/3/2 88/3/2
f 88/3/2 84/3/2 89/3/2
f 90/3/2 91/3/2 92/3/2
f 90/3/2 92/3/2 94/3/2
f 92/3/2 93/3/2 94/3/2
f 94/3/2 93/3/2 95/3/2
f 98/3/3 97/3/3 96/3/3
f 99/3/3 97/3/3 98/3/3
f 100/3/3 97/3/3 99/3/3
f 101/2/3 99/2/3 98/2/3
f 102/2/3 99/2/3 101/2/3
f 104/3/3 102/3/3 101/3/3
f 104/3/3 103/3/3 102/3/3
f 105/3/3 103/3/3 104/3/3
f 108/3/3 107/3/3 106/3/3
f 109/3/3 107/3/3 108/3/3
f 112/3/3 110/3/3 109/3/3
f 113/3/3 110/3/3 112/3/3
f 114/3/3 112/3/3 111/3/3
f 115/3/3 112/3/3 114/3/3
f 116/4/3 115/4/3 114/4/3
f 117/4/3 115/4/3 116/4/3
f 118/3/3 117/3/3 116/3/3
f 119/3/3 117/3/3 118/3/3
f 122/3/3 120/3/3 119/3/3
f 123/3/3 120/3/3 122/3/3
f 124/3/3 122/3/3 121/3/3
f 125/3/3 122/3/3 124/3/3
f 128/3/3 127/3/3 126/3/3
f 129/3/3 127/3/3 128/3/3
f 130/3/3 127/3/3 129/3/3
f 131/3/3 127/3/3 130/3/3
f 132/3/3 127/3/3 131/3/3
f 133/3/3 127/3/3 132/3/3
f 135/3/3 132/3/3 131/3/3
f 136/3/3 135/3/3 134/3/3
f 137/3/3 135/3/3 136/3/3
f 138/3/3 135/3/3 137/3/3
f 139/3/3 132/3/3 135/3/3
f 139/3/3 135/3/3 138/3/3
f 141/3/3 132/3/3 139/3/3
f 142/3/3 132/3/3 141/3/3
f 145/3/3 141/3/3 140/3/3
f 145/3/3 143/3/3 142/3/3
f 145/3/3 142/3/3 141/3/3
f 146/3/3 145/3/3 144/3/3
f 147/3/3 143/3/3 145/3/3
f 147/3/3 145/3/3 146/3/3
f 148/2/4 149/2/4 150/2/4
f 148/2/4 150/2/4 151/2/4
f 148/2/4 151/2/4 152/2/4
f 152/2/4 151/2/4 153/2/4
f 154/1/4 155/1/4 158/1/4
f 158/1/4 155/1/4 159/1/4
f 156/3/4 157/3/4 160/3/4
f 160/3/4 157/3/4 161/3/4
f 162/1/4 163/1/4 166/1/4
f 166/1/4 163/1/4 167/1/4
f 164/3/4 165/3/4 168/3/4
f 168/3/4 165/3/4 169/3/4
f 170/3/4 171/3/4 172/3/4
f 172/3/4 171/3/4 173/3/4
f 174/3/4 175/3/4 176/3/4
f 176/3/4 175/3/4 177/3/4
f 177/3/4 175/3/4 178/3/4
f 178/3/4 175/3/4 179/3/4
f 177/3/4 178/3/4 180/3/4
f 180/3/4 178/3/4 181/3/4
f 182/3/4 183/3/4 184/3/4
f 184/3/4 183/3/4 185/3/4
f 186/3/4 187/3/4 188/3/4
f 186/3/4 188/3/4 190/3/4
f 188/3/4 189/3/4 190/3/4
f 190/3/4 189/3/4 191/3/4
f 191/3/4 189/3/4 192/3/4
f 193/3/4 194/3/4 195/3/4
f 195/3/4 194/3/4 196/3/4
f 197/3/4 198/3/4 199/3/4
f 199/3/4 198/3/4 200/3/4
f 205/3/5 202/3/5 201/3/5
f 206/2/5 203/2/5 202/2/5
f 206/3/5 202/3/5 205/3/5
f 207/3/5 204/3/5 203/3/5
f 207/2/5 203/2/5 206/2/5
f 208/3/5 204/3/5 207/3/5
f 209/1/5 206/1/5 205/1/5
f 210/1/5 206/1/5 209/1/5
f 211/1/5 208/1/5 207/1/5
f 212/1/5 208/1/5 211/1/5
f 222/3/5 214/3/5 213/3/5
f 223/3/5 216/3/5 215/3/5
f 223/4/5 217/4/5 216/4/5
f 224/3/5 218/3/5 217/3/5
f 224/4/5 217/4/5 223/4/5
f 225/3/5 220/3/5 219/3/5
f 227/3/5 222/3/5 221/3/5
f 227/3/5 214/3/5 222/3/5
f 228/3/5 223/3/5 215/3/5
f 228/3/5 224/3/5 223/3/5
f 229/3/5 218/3/5 224/3/5
f 229/3/5 224/3/5 228/3/5
f 230/3/5 226/3/5 225/3/5
f 230/3/5 225/3/5 219/3/5
f 231/3/5 226/3/5 230/3/5
f 232/3/5 226/3/5 231/3/5
f 233/3/5 228/3/5 227/3/5
f 233/3/5 229/3/5 228/3/5
f 233/3/5 231/3/5 230/3/5
f 233/3/5 230/3/5 229/3/5
f 233/3/5 227/3/5 221/3/5
f 234/3/5 231/3/5 233/3/5
f 235/3/5 231/3/5 234/3/5
f 236/3/5 231/3/5 235/3/5
f 239/3/5 238/3/5 237/3/5
f 240/3/5 238/3/5 239/3/5
f 241/2/6 242/2/6 243/2/6
f 243/2/6 242/2/6 244/2/6
f 244/2/6 242/2/6 245/2/6
f 245/2/6 242/2/6 246/2/6
f 247/3/6 248/3/6 252/3/6
f 252/3/6 248/3/6 253/3/6
f 249/3/6 250/3/6 256/3/6
f 256/3/6 250/3/6 257/3/6
f 251/3/6 252/3/6 259/3/6
f 259/3/6 252/3/6 260/3/6
f 253/3/6 254/3/6 261/3/6
f 254/4/6 255/4/6 262/4/6
f 261/3/6 254/3/6 262/3/6
f 255/3/6 256/3/6 263/3/6
f 262/4/6 255/4/6 263/4/6
f 263/3/6 256/3/6 264/3/6
f 257/3/6 258/3/6 265/3/6
f 265/3/6 258/3/6 266/3/6
f 267/3/6 268/3/6 271/3/6
f 269/3/6 270/3/6 272/3/6
f 267/3/6 271/3/6 273/3/6
f 271/3/6 272/3/6 273/3/6
f 272/3/6 270/3/6 274/3/6
f 273/3/6 272/3/6 274/3/6
f 275/3/6 276/3/6 279/3/6
f 279/3/6 276/3/6 280/3/6
f 277/3/6 278/3/6 281/3/6
f 281/3/6 278/3/6 282/3/6
f 283/3/6 284/3/6 287/3/6
f 287/3/6 284/3/6 288/3/6
f 288/3/6 284/3/6 289/3/6
f 285/3/6 286/3/6 290/3/6
f 290/3/6 286/3/6 291/3/6
f 291/3/6 286/3/6 292/3/6
f 288/3/6 289/3/6 293/3/6
f 290/3/6 291/3/6 293/3/6
f 289/3/6 290/3/6 293/3/6
f 293/3/6 291/3/6 294/3/6
f 295/3/6 296/3/6 297/3/6
f 297/3/6 296/3/6 298/3/6
f 298/3/6 296/3/6 299/3/6
f 299/3/6 296/3/6 300/3/6
f 298/3/6 299/3/6 301/3/6
f 301/3/6 299/3/6 302/3/6
f 303/3/6 304/3/6 307/3/6
f 307/3/6 304/3/6 308/3/6
f 305/3/6 306/3/6 309/3/6
f 309/3/6 306/3/6 310/3/6
