# MagicaVoxel @ Ephtracy

# material
mtllib Fackel.mtl
usemtl palette

# normals
vn -1 0 0
vn 1 0 0
vn 0 0 1
vn 0 0 -1
vn 0 -1 0
vn 0 1 0

# texcoords
vt 0.0175781 0.5
vt 0.0917969 0.5
vt 0.134766 0.5
vt 0.361328 0.5
vt 0.365234 0.5
vt 0.775391 0.5

# verts
v 0.5 9 1.5
v 0.5 9 -1.5
v 0.5 11 1.5
v 0.5 11 -1.5
v 1.5 11 1.5
v 1.5 11 -1.5
v 1.5 12 1.5
v 1.5 12 -1.5
v 2.5 12 1.5
v 2.5 12 -1.5
v 2.5 13 1.5
v 2.5 13 -1.5
v 3.5 13 1.5
v 3.5 13 -1.5
v 3.5 14 1.5
v 3.5 14 0.5
v 3.5 14 -0.5
v 3.5 14 -1.5
v 3.5 15 0.5
v 3.5 15 -0.5
v 3.5 17 0.5
v 3.5 17 -0.5
v 3.5 18 0.5
v 3.5 18 -0.5
v 4.5 15 0.5
v 4.5 15 -0.5
v 4.5 17 0.5
v 4.5 17 -0.5
v 5.5 17 0.5
v 5.5 17 -0.5
v 5.5 18 0.5
v 5.5 18 -0.5
v 6.5 16 0.5
v 6.5 16 -0.5
v 6.5 17 0.5
v 6.5 17 -0.5
v 6.5 18 0.5
v 6.5 18 -0.5
v 6.5 19 0.5
v 6.5 19 -0.5
v 7.5 17 0.5
v 7.5 17 -0.5
v 7.5 18 0.5
v 7.5 18 -0.5
v 8.5 16 0.5
v 8.5 16 -0.5
v 8.5 17 0.5
v 8.5 17 -0.5
v 8.5 18 0.5
v 8.5 18 -0.5
v 8.5 19 0.5
v 8.5 19 -0.5
v 9.5 14 0.5
v 9.5 14 -0.5
v 9.5 15 0.5
v 9.5 15 -0.5
v 2.5 9 1.5
v 2.5 9 -1.5
v 2.5 10 1.5
v 2.5 10 -1.5
v 3.5 10 1.5
v 3.5 10 -1.5
v 3.5 11 1.5
v 3.5 11 -1.5
v 4.5 11 1.5
v 4.5 11 -1.5
v 4.5 12 1.5
v 4.5 12 -1.5
v 4.5 13 1.5
v 4.5 13 0.5
v 4.5 13 -0.5
v 4.5 13 -1.5
v 4.5 14 1.5
v 4.5 14 0.5
v 4.5 14 -0.5
v 4.5 14 -1.5
v 4.5 17 0.5
v 4.5 17 -0.5
v 4.5 18 0.5
v 4.5 18 -0.5
v 5.5 12 1.5
v 5.5 12 0.5
v 5.5 12 -0.5
v 5.5 12 -1.5
v 5.5 13 1.5
v 5.5 13 0.5
v 5.5 13 -0.5
v 5.5 13 -1.5
v 5.5 16 0.5
v 5.5 16 -0.5
v 5.5 17 0.5
v 5.5 17 -0.5
v 6.5 12 0.5
v 6.5 12 -0.5
v 6.5 13 0.5
v 6.5 13 -0.5
v 6.5 17 0.5
v 6.5 17 -0.5
v 6.5 18 0.5
v 6.5 18 -0.5
v 7.5 13 0.5
v 7.5 13 -0.5
v 7.5 14 0.5
v 7.5 14 -0.5
v 7.5 16 0.5
v 7.5 16 -0.5
v 7.5 17 0.5
v 7.5 17 -0.5
v 7.5 18 0.5
v 7.5 18 -0.5
v 7.5 19 0.5
v 7.5 19 -0.5
v 8.5 14 0.5
v 8.5 14 -0.5
v 8.5 15 0.5
v 8.5 15 -0.5
v 8.5 16 0.5
v 8.5 16 -0.5
v 8.5 17 0.5
v 8.5 17 -0.5
v 8.5 18 0.5
v 8.5 18 -0.5
v 9.5 16 0.5
v 9.5 16 -0.5
v 9.5 17 0.5
v 9.5 17 -0.5
v 9.5 18 0.5
v 9.5 18 -0.5
v 9.5 19 0.5
v 9.5 19 -0.5
v 10.5 14 0.5
v 10.5 14 -0.5
v 10.5 15 0.5
v 10.5 15 -0.5
v 0.5 9 1.5
v 0.5 11 1.5
v 1.5 11 1.5
v 1.5 12 1.5
v 2.5 9 1.5
v 2.5 10 1.5
v 2.5 12 1.5
v 2.5 13 1.5
v 3.5 10 1.5
v 3.5 11 1.5
v 3.5 12 1.5
v 3.5 13 1.5
v 3.5 14 1.5
v 4.5 11 1.5
v 4.5 12 1.5
v 4.5 13 1.5
v 4.5 14 1.5
v 5.5 12 1.5
v 5.5 13 1.5
v 3.5 14 0.5
v 3.5 15 0.5
v 3.5 17 0.5
v 3.5 18 0.5
v 4.5 13 0.5
v 4.5 14 0.5
v 4.5 15 0.5
v 4.5 17 0.5
v 4.5 18 0.5
v 5.5 12 0.5
v 5.5 13 0.5
v 5.5 15 0.5
v 5.5 16 0.5
v 5.5 17 0.5
v 5.5 18 0.5
v 6.5 12 0.5
v 6.5 13 0.5
v 6.5 14 0.5
v 6.5 15 0.5
v 6.5 16 0.5
v 6.5 17 0.5
v 6.5 18 0.5
v 6.5 19 0.5
v 7.5 13 0.5
v 7.5 14 0.5
v 7.5 15 0.5
v 7.5 16 0.5
v 7.5 17 0.5
v 7.5 18 0.5
v 7.5 19 0.5
v 8.5 14 0.5
v 8.5 15 0.5
v 8.5 16 0.5
v 8.5 17 0.5
v 8.5 18 0.5
v 8.5 19 0.5
v 9.5 14 0.5
v 9.5 15 0.5
v 9.5 16 0.5
v 9.5 17 0.5
v 9.5 18 0.5
v 9.5 19 0.5
v 10.5 14 0.5
v 10.5 15 0.5
v 3.5 14 -0.5
v 3.5 15 -0.5
v 3.5 17 -0.5
v 3.5 18 -0.5
v 4.5 13 -0.5
v 4.5 14 -0.5
v 4.5 15 -0.5
v 4.5 17 -0.5
v 4.5 18 -0.5
v 5.5 12 -0.5
v 5.5 13 -0.5
v 5.5 15 -0.5
v 5.5 16 -0.5
v 5.5 17 -0.5
v 5.5 18 -0.5
v 6.5 12 -0.5
v 6.5 13 -0.5
v 6.5 14 -0.5
v 6.5 15 -0.5
v 6.5 16 -0.5
v 6.5 17 -0.5
v 6.5 18 -0.5
v 6.5 19 -0.5
v 7.5 13 -0.5
v 7.5 14 -0.5
v 7.5 15 -0.5
v 7.5 16 -0.5
v 7.5 17 -0.5
v 7.5 18 -0.5
v 7.5 19 -0.5
v 8.5 14 -0.5
v 8.5 15 -0.5
v 8.5 16 -0.5
v 8.5 17 -0.5
v 8.5 18 -0.5
v 8.5 19 -0.5
v 9.5 14 -0.5
v 9.5 15 -0.5
v 9.5 16 -0.5
v 9.5 17 -0.5
v 9.5 18 -0.5
v 9.5 19 -0.5
v 10.5 14 -0.5
v 10.5 15 -0.5
v 0.5 9 -1.5
v 0.5 11 -1.5
v 1.5 11 -1.5
v 1.5 12 -1.5
v 2.5 9 -1.5
v 2.5 10 -1.5
v 2.5 12 -1.5
v 2.5 13 -1.5
v 3.5 10 -1.5
v 3.5 11 -1.5
v 3.5 12 -1.5
v 3.5 13 -1.5
v 3.5 14 -1.5
v 4.5 11 -1.5
v 4.5 12 -1.5
v 4.5 13 -1.5
v 4.5 14 -1.5
v 5.5 12 -1.5
v 5.5 13 -1.5
v 0.5 9 1.5
v 2.5 9 1.5
v 0.5 9 -1.5
v 2.5 9 -1.5
v 2.5 10 1.5
v 3.5 10 1.5
v 2.5 10 -1.5
v 3.5 10 -1.5
v 3.5 11 1.5
v 4.5 11 1.5
v 3.5 11 -1.5
v 4.5 11 -1.5
v 4.5 12 1.5
v 5.5 12 1.5
v 5.5 12 0.5
v 6.5 12 0.5
v 5.5 12 -0.5
v 6.5 12 -0.5
v 4.5 12 -1.5
v 5.5 12 -1.5
v 6.5 13 0.5
v 7.5 13 0.5
v 6.5 13 -0.5
v 7.5 13 -0.5
v 7.5 14 0.5
v 8.5 14 0.5
v 9.5 14 0.5
v 10.5 14 0.5
v 7.5 14 -0.5
v 8.5 14 -0.5
v 9.5 14 -0.5
v 10.5 14 -0.5
v 8.5 16 0.5
v 9.5 16 0.5
v 8.5 16 -0.5
v 9.5 16 -0.5
v 3.5 17 0.5
v 4.5 17 0.5
v 5.5 17 0.5
v 6.5 17 0.5
v 7.5 17 0.5
v 8.5 17 0.5
v 3.5 17 -0.5
v 4.5 17 -0.5
v 5.5 17 -0.5
v 6.5 17 -0.5
v 7.5 17 -0.5
v 8.5 17 -0.5
v 6.5 18 0.5
v 7.5 18 0.5
v 8.5 18 0.5
v 9.5 18 0.5
v 6.5 18 -0.5
v 7.5 18 -0.5
v 8.5 18 -0.5
v 9.5 18 -0.5
v 0.5 11 1.5
v 1.5 11 1.5
v 0.5 11 -1.5
v 1.5 11 -1.5
v 1.5 12 1.5
v 2.5 12 1.5
v 1.5 12 -1.5
v 2.5 12 -1.5
v 2.5 13 1.5
v 3.5 13 1.5
v 4.5 13 1.5
v 5.5 13 1.5
v 4.5 13 0.5
v 5.5 13 0.5
v 4.5 13 -0.5
v 5.5 13 -0.5
v 2.5 13 -1.5
v 3.5 13 -1.5
v 4.5 13 -1.5
v 5.5 13 -1.5
v 3.5 14 1.5
v 4.5 14 1.5
v 3.5 14 0.5
v 4.5 14 0.5
v 3.5 14 -0.5
v 4.5 14 -0.5
v 3.5 14 -1.5
v 4.5 14 -1.5
v 3.5 15 0.5
v 4.5 15 0.5
v 9.5 15 0.5
v 10.5 15 0.5
v 3.5 15 -0.5
v 4.5 15 -0.5
v 9.5 15 -0.5
v 10.5 15 -0.5
v 5.5 16 0.5
v 6.5 16 0.5
v 7.5 16 0.5
v 8.5 16 0.5
v 5.5 16 -0.5
v 6.5 16 -0.5
v 7.5 16 -0.5
v 8.5 16 -0.5
v 4.5 17 0.5
v 5.5 17 0.5
v 6.5 17 0.5
v 7.5 17 0.5
v 8.5 17 0.5
v 9.5 17 0.5
v 4.5 17 -0.5
v 5.5 17 -0.5
v 6.5 17 -0.5
v 7.5 17 -0.5
v 8.5 17 -0.5
v 9.5 17 -0.5
v 3.5 18 0.5
v 4.5 18 0.5
v 5.5 18 0.5
v 6.5 18 0.5
v 7.5 18 0.5
v 8.5 18 0.5
v 3.5 18 -0.5
v 4.5 18 -0.5
v 5.5 18 -0.5
v 6.5 18 -0.5
v 7.5 18 -0.5
v 8.5 18 -0.5
v 6.5 19 0.5
v 7.5 19 0.5
v 8.5 19 0.5
v 9.5 19 0.5
v 6.5 19 -0.5
v 7.5 19 -0.5
v 8.5 19 -0.5
v 9.5 19 -0.5

# faces
f 3/5/1 2/5/1 1/5/1
f 4/5/1 2/5/1 3/5/1
f 7/5/1 6/5/1 5/5/1
f 8/5/1 6/5/1 7/5/1
f 11/4/1 10/4/1 9/4/1
f 12/4/1 10/4/1 11/4/1
f 15/5/1 14/5/1 13/5/1
f 16/5/1 14/5/1 15/5/1
f 17/5/1 14/5/1 16/5/1
f 18/5/1 14/5/1 17/5/1
f 19/1/1 17/1/1 16/1/1
f 20/1/1 17/1/1 19/1/1
f 23/3/1 22/3/1 21/3/1
f 24/3/1 22/3/1 23/3/1
f 27/1/1 26/1/1 25/1/1
f 28/1/1 26/1/1 27/1/1
f 31/3/1 30/3/1 29/3/1
f 32/3/1 30/3/1 31/3/1
f 35/2/1 34/2/1 33/2/1
f 36/2/1 34/2/1 35/2/1
f 39/3/1 38/3/1 37/3/1
f 40/3/1 38/3/1 39/3/1
f 43/2/1 42/2/1 41/2/1
f 44/2/1 42/2/1 43/2/1
f 47/3/1 46/3/1 45/3/1
f 48/3/1 46/3/1 47/3/1
f 51/3/1 50/3/1 49/3/1
f 52/3/1 50/3/1 51/3/1
f 55/3/1 54/3/1 53/3/1
f 56/3/1 54/3/1 55/3/1
f 57/5/2 58/5/2 59/5/2
f 59/5/2 58/5/2 60/5/2
f 61/5/2 62/5/2 63/5/2
f 63/5/2 62/5/2 64/5/2
f 65/4/2 66/4/2 67/4/2
f 67/4/2 66/4/2 68/4/2
f 69/5/2 70/5/2 73/5/2
f 73/5/2 70/5/2 74/5/2
f 71/5/2 72/5/2 75/5/2
f 75/5/2 72/5/2 76/5/2
f 77/3/2 78/3/2 79/3/2
f 79/3/2 78/3/2 80/3/2
f 81/5/2 82/5/2 85/5/2
f 85/5/2 82/5/2 86/5/2
f 83/5/2 84/5/2 87/5/2
f 87/5/2 84/5/2 88/5/2
f 89/1/2 90/1/2 91/1/2
f 91/1/2 90/1/2 92/1/2
f 93/1/2 94/1/2 95/1/2
f 95/1/2 94/1/2 96/1/2
f 97/3/2 98/3/2 99/3/2
f 99/3/2 98/3/2 100/3/2
f 101/1/2 102/1/2 103/1/2
f 103/1/2 102/1/2 104/1/2
f 105/2/2 106/2/2 107/2/2
f 107/2/2 106/2/2 108/2/2
f 109/3/2 110/3/2 111/3/2
f 111/3/2 110/3/2 112/3/2
f 113/3/2 114/3/2 115/3/2
f 115/3/2 114/3/2 116/3/2
f 115/2/2 116/2/2 117/2/2
f 117/2/2 116/2/2 118/2/2
f 119/2/2 120/2/2 121/2/2
f 121/2/2 120/2/2 122/2/2
f 123/3/2 124/3/2 125/3/2
f 125/3/2 124/3/2 126/3/2
f 127/3/2 128/3/2 129/3/2
f 129/3/2 128/3/2 130/3/2
f 131/3/2 132/3/2 133/3/2
f 133/3/2 132/3/2 134/3/2
f 137/5/3 136/5/3 135/5/3
f 139/5/3 137/5/3 135/5/3
f 139/5/3 138/5/3 137/5/3
f 140/5/3 138/5/3 139/5/3
f 141/5/3 138/5/3 140/5/3
f 143/5/3 141/5/3 140/5/3
f 144/5/3 141/5/3 143/5/3
f 145/4/3 142/4/3 141/4/3
f 145/5/3 141/5/3 144/5/3
f 146/4/3 142/4/3 145/4/3
f 148/4/3 145/4/3 144/4/3
f 149/5/3 147/5/3 146/5/3
f 149/4/3 145/4/3 148/4/3
f 149/5/3 146/5/3 145/5/3
f 150/5/3 147/5/3 149/5/3
f 151/5/3 147/5/3 150/5/3
f 152/5/3 150/5/3 149/5/3
f 153/5/3 150/5/3 152/5/3
f 159/1/3 155/1/3 154/1/3
f 160/1/3 155/1/3 159/1/3
f 161/3/3 157/3/3 156/3/3
f 162/3/3 157/3/3 161/3/3
f 164/1/3 160/1/3 159/1/3
f 164/1/3 159/1/3 158/1/3
f 164/1/3 161/1/3 160/1/3
f 165/1/3 161/1/3 164/1/3
f 166/1/3 161/1/3 165/1/3
f 167/1/3 161/1/3 166/1/3
f 169/1/3 164/1/3 163/1/3
f 169/1/3 165/1/3 164/1/3
f 170/1/3 165/1/3 169/1/3
f 171/1/3 165/1/3 170/1/3
f 172/2/3 166/2/3 165/2/3
f 172/1/3 165/1/3 171/1/3
f 173/2/3 166/2/3 172/2/3
f 174/3/3 168/3/3 167/3/3
f 175/3/3 168/3/3 174/3/3
f 177/1/3 171/1/3 170/1/3
f 178/2/3 173/2/3 172/2/3
f 178/1/3 171/1/3 177/1/3
f 178/2/3 174/2/3 173/2/3
f 178/2/3 172/2/3 171/2/3
f 179/2/3 174/2/3 178/2/3
f 180/2/3 174/2/3 179/2/3
f 181/2/3 174/2/3 180/2/3
f 182/3/3 176/3/3 175/3/3
f 183/3/3 176/3/3 182/3/3
f 184/3/3 179/3/3 178/3/3
f 185/2/3 180/2/3 179/2/3
f 185/3/3 179/3/3 184/3/3
f 186/2/3 180/2/3 185/2/3
f 187/2/3 182/2/3 181/2/3
f 188/2/3 182/2/3 187/2/3
f 192/3/3 187/3/3 186/3/3
f 193/3/3 187/3/3 192/3/3
f 194/3/3 189/3/3 188/3/3
f 195/3/3 189/3/3 194/3/3
f 196/3/3 191/3/3 190/3/3
f 197/3/3 191/3/3 196/3/3
f 198/1/4 199/1/4 203/1/4
f 203/1/4 199/1/4 204/1/4
f 200/3/4 201/3/4 205/3/4
f 205/3/4 201/3/4 206/3/4
f 203/1/4 204/1/4 208/1/4
f 202/1/4 203/1/4 208/1/4
f 204/1/4 205/1/4 208/1/4
f 208/1/4 205/1/4 209/1/4
f 209/1/4 205/1/4 210/1/4
f 210/1/4 205/1/4 211/1/4
f 207/1/4 208/1/4 213/1/4
f 208/1/4 209/1/4 213/1/4
f 213/1/4 209/1/4 214/1/4
f 214/1/4 209/1/4 215/1/4
f 209/2/4 210/2/4 216/2/4
f 215/1/4 209/1/4 216/1/4
f 216/2/4 210/2/4 217/2/4
f 211/3/4 212/3/4 218/3/4
f 218/3/4 212/3/4 219/3/4
f 214/1/4 215/1/4 221/1/4
f 216/2/4 217/2/4 222/2/4
f 221/1/4 215/1/4 222/1/4
f 217/2/4 218/2/4 222/2/4
f 215/2/4 216/2/4 222/2/4
f 222/2/4 218/2/4 223/2/4
f 223/2/4 218/2/4 224/2/4
f 224/2/4 218/2/4 225/2/4
f 219/3/4 220/3/4 226/3/4
f 226/3/4 220/3/4 227/3/4
f 222/3/4 223/3/4 228/3/4
f 223/2/4 224/2/4 229/2/4
f 228/3/4 223/3/4 229/3/4
f 229/2/4 224/2/4 230/2/4
f 225/2/4 226/2/4 231/2/4
f 231/2/4 226/2/4 232/2/4
f 230/3/4 231/3/4 236/3/4
f 236/3/4 231/3/4 237/3/4
f 232/3/4 233/3/4 238/3/4
f 238/3/4 233/3/4 239/3/4
f 234/3/4 235/3/4 240/3/4
f 240/3/4 235/3/4 241/3/4
f 242/5/4 243/5/4 244/5/4
f 242/5/4 244/5/4 246/5/4
f 244/5/4 245/5/4 246/5/4
f 246/5/4 245/5/4 247/5/4
f 247/5/4 245/5/4 248/5/4
f 247/5/4 248/5/4 250/5/4
f 250/5/4 248/5/4 251/5/4
f 248/4/4 249/4/4 252/4/4
f 251/5/4 248/5/4 252/5/4
f 252/4/4 249/4/4 253/4/4
f 251/4/4 252/4/4 255/4/4
f 253/5/4 254/5/4 256/5/4
f 255/4/4 252/4/4 256/4/4
f 252/5/4 253/5/4 256/5/4
f 256/5/4 254/5/4 257/5/4
f 257/5/4 254/5/4 258/5/4
f 256/5/4 257/5/4 259/5/4
f 259/5/4 257/5/4 260/5/4
f 263/5/5 262/5/5 261/5/5
f 264/5/5 262/5/5 263/5/5
f 267/5/5 266/5/5 265/5/5
f 268/5/5 266/5/5 267/5/5
f 271/4/5 270/4/5 269/4/5
f 272/4/5 270/4/5 271/4/5
f 275/5/5 274/5/5 273/5/5
f 277/5/5 275/5/5 273/5/5
f 277/1/5 276/1/5 275/1/5
f 278/1/5 276/1/5 277/1/5
f 279/5/5 277/5/5 273/5/5
f 280/5/5 277/5/5 279/5/5
f 283/1/5 282/1/5 281/1/5
f 284/1/5 282/1/5 283/1/5
f 289/3/5 286/3/5 285/3/5
f 290/3/5 286/3/5 289/3/5
f 291/3/5 288/3/5 287/3/5
f 292/3/5 288/3/5 291/3/5
f 295/3/5 294/3/5 293/3/5
f 296/3/5 294/3/5 295/3/5
f 303/3/5 298/3/5 297/3/5
f 304/3/5 298/3/5 303/3/5
f 305/3/5 300/3/5 299/3/5
f 306/3/5 300/3/5 305/3/5
f 307/2/5 302/2/5 301/2/5
f 308/2/5 302/2/5 307/2/5
f 313/3/5 310/3/5 309/3/5
f 314/3/5 310/3/5 313/3/5
f 315/3/5 312/3/5 311/3/5
f 316/3/5 312/3/5 315/3/5
f 317/5/6 318/5/6 319/5/6
f 319/5/6 318/5/6 320/5/6
f 321/5/6 322/5/6 323/5/6
f 323/5/6 322/5/6 324/5/6
f 327/5/6 328/5/6 329/5/6
f 329/5/6 328/5/6 330/5/6
f 325/4/6 326/4/6 333/4/6
f 333/4/6 326/4/6 334/4/6
f 331/5/6 332/5/6 335/5/6
f 335/5/6 332/5/6 336/5/6
f 337/5/6 338/5/6 339/5/6
f 339/5/6 338/5/6 340/5/6
f 341/5/6 342/5/6 343/5/6
f 343/5/6 342/5/6 344/5/6
f 345/1/6 346/1/6 349/1/6
f 349/1/6 346/1/6 350/1/6
f 347/3/6 348/3/6 351/3/6
f 351/3/6 348/3/6 352/3/6
f 353/2/6 354/2/6 357/2/6
f 357/2/6 354/2/6 358/2/6
f 355/2/6 356/2/6 359/2/6
f 359/2/6 356/2/6 360/2/6
f 361/1/6 362/1/6 367/1/6
f 367/1/6 362/1/6 368/1/6
f 363/2/6 364/2/6 369/2/6
f 369/2/6 364/2/6 370/2/6
f 365/3/6 366/3/6 371/3/6
f 371/3/6 366/3/6 372/3/6
f 373/3/6 374/3/6 379/3/6
f 379/3/6 374/3/6 380/3/6
f 375/3/6 376/3/6 381/3/6
f 381/3/6 376/3/6 382/3/6
f 377/2/6 378/2/6 383/2/6
f 383/2/6 378/2/6 384/2/6
f 385/3/6 386/3/6 389/3/6
f 389/3/6 386/3/6 390/3/6
f 387/3/6 388/3/6 391/3/6
f 391/3/6 388/3/6 392/3/6
