# MagicaVoxel @ Ephtracy

# material
mtllib Spitzhacke.mtl
usemtl palette

# normals
vn -1 0 0
vn 1 0 0
vn 0 0 1
vn 0 0 -1
vn 0 -1 0
vn 0 1 0

# texcoords
vt 0.970703 0.5
vt 0.994141 0.5

# verts
v 3 8 0.5
v 3 8 -0.5
v 3 9 0.5
v 3 9 -0.5
v 4 9 0.5
v 4 9 -0.5
v 4 10 0.5
v 4 10 -0.5
v 5 10 0.5
v 5 10 -0.5
v 5 12 0.5
v 5 12 -0.5
v 6 12 0.5
v 6 12 -0.5
v 6 13 0.5
v 6 13 -0.5
v 6 16 0.5
v 6 16 -0.5
v 6 17 0.5
v 6 17 -0.5
v 7 13 0.5
v 7 13 -0.5
v 7 14 0.5
v 7 14 -0.5
v 7 15 0.5
v 7 15 -0.5
v 7 16 0.5
v 7 16 -0.5
v 8 14 0.5
v 8 14 -0.5
v 8 15 0.5
v 8 15 -0.5
v 10 12 0.5
v 10 12 -0.5
v 10 13 0.5
v 10 13 -0.5
v 11 11 0.5
v 11 11 -0.5
v 11 12 0.5
v 11 12 -0.5
v 5 8 0.5
v 5 8 -0.5
v 5 9 0.5
v 5 9 -0.5
v 6 9 0.5
v 6 9 -0.5
v 6 11 0.5
v 6 11 -0.5
v 7 11 0.5
v 7 11 -0.5
v 7 12 0.5
v 7 12 -0.5
v 8 12 0.5
v 8 12 -0.5
v 8 13 0.5
v 8 13 -0.5
v 8 16 0.5
v 8 16 -0.5
v 8 17 0.5
v 8 17 -0.5
v 9 15 0.5
v 9 15 -0.5
v 9 16 0.5
v 9 16 -0.5
v 10 14 0.5
v 10 14 -0.5
v 10 15 0.5
v 10 15 -0.5
v 11 13 0.5
v 11 13 -0.5
v 11 14 0.5
v 11 14 -0.5
v 12 11 0.5
v 12 11 -0.5
v 12 13 0.5
v 12 13 -0.5
v 3 8 0.5
v 3 9 0.5
v 4 9 0.5
v 4 10 0.5
v 5 8 0.5
v 5 9 0.5
v 5 10 0.5
v 5 12 0.5
v 6 9 0.5
v 6 11 0.5
v 6 12 0.5
v 6 13 0.5
v 6 16 0.5
v 6 17 0.5
v 7 11 0.5
v 7 12 0.5
v 7 13 0.5
v 7 14 0.5
v 7 15 0.5
v 7 16 0.5
v 8 12 0.5
v 8 13 0.5
v 8 14 0.5
v 8 15 0.5
v 8 16 0.5
v 8 17 0.5
v 9 13 0.5
v 9 14 0.5
v 9 15 0.5
v 9 16 0.5
v 10 12 0.5
v 10 13 0.5
v 10 14 0.5
v 10 15 0.5
v 11 11 0.5
v 11 12 0.5
v 11 13 0.5
v 11 14 0.5
v 12 11 0.5
v 12 13 0.5
v 3 8 -0.5
v 3 9 -0.5
v 4 9 -0.5
v 4 10 -0.5
v 5 8 -0.5
v 5 9 -0.5
v 5 10 -0.5
v 5 12 -0.5
v 6 9 -0.5
v 6 11 -0.5
v 6 12 -0.5
v 6 13 -0.5
v 6 16 -0.5
v 6 17 -0.5
v 7 11 -0.5
v 7 12 -0.5
v 7 13 -0.5
v 7 14 -0.5
v 7 15 -0.5
v 7 16 -0.5
v 8 12 -0.5
v 8 13 -0.5
v 8 14 -0.5
v 8 15 -0.5
v 8 16 -0.5
v 8 17 -0.5
v 9 13 -0.5
v 9 14 -0.5
v 9 15 -0.5
v 9 16 -0.5
v 10 12 -0.5
v 10 13 -0.5
v 10 14 -0.5
v 10 15 -0.5
v 11 11 -0.5
v 11 12 -0.5
v 11 13 -0.5
v 11 14 -0.5
v 12 11 -0.5
v 12 13 -0.5
v 3 8 0.5
v 5 8 0.5
v 3 8 -0.5
v 5 8 -0.5
v 5 9 0.5
v 6 9 0.5
v 5 9 -0.5
v 6 9 -0.5
v 6 11 0.5
v 7 11 0.5
v 11 11 0.5
v 12 11 0.5
v 6 11 -0.5
v 7 11 -0.5
v 11 11 -0.5
v 12 11 -0.5
v 7 12 0.5
v 8 12 0.5
v 10 12 0.5
v 11 12 0.5
v 7 12 -0.5
v 8 12 -0.5
v 10 12 -0.5
v 11 12 -0.5
v 8 13 0.5
v 9 13 0.5
v 10 13 0.5
v 8 13 -0.5
v 9 13 -0.5
v 10 13 -0.5
v 7 15 0.5
v 8 15 0.5
v 7 15 -0.5
v 8 15 -0.5
v 6 16 0.5
v 7 16 0.5
v 6 16 -0.5
v 7 16 -0.5
v 3 9 0.5
v 4 9 0.5
v 3 9 -0.5
v 4 9 -0.5
v 4 10 0.5
v 5 10 0.5
v 4 10 -0.5
v 5 10 -0.5
v 5 12 0.5
v 6 12 0.5
v 5 12 -0.5
v 6 12 -0.5
v 6 13 0.5
v 7 13 0.5
v 11 13 0.5
v 12 13 0.5
v 6 13 -0.5
v 7 13 -0.5
v 11 13 -0.5
v 12 13 -0.5
v 7 14 0.5
v 8 14 0.5
v 10 14 0.5
v 11 14 0.5
v 7 14 -0.5
v 8 14 -0.5
v 10 14 -0.5
v 11 14 -0.5
v 9 15 0.5
v 10 15 0.5
v 9 15 -0.5
v 10 15 -0.5
v 8 16 0.5
v 9 16 0.5
v 8 16 -0.5
v 9 16 -0.5
v 6 17 0.5
v 8 17 0.5
v 6 17 -0.5
v 8 17 -0.5

# faces
f 3/2/1 2/2/1 1/2/1
f 4/2/1 2/2/1 3/2/1
f 7/2/1 6/2/1 5/2/1
f 8/2/1 6/2/1 7/2/1
f 11/2/1 10/2/1 9/2/1
f 12/2/1 10/2/1 11/2/1
f 15/2/1 14/2/1 13/2/1
f 16/2/1 14/2/1 15/2/1
f 19/1/1 18/1/1 17/1/1
f 20/1/1 18/1/1 19/1/1
f 23/2/1 22/2/1 21/2/1
f 24/2/1 22/2/1 23/2/1
f 27/1/1 26/1/1 25/1/1
f 28/1/1 26/1/1 27/1/1
f 31/1/1 30/1/1 29/1/1
f 32/1/1 30/1/1 31/1/1
f 35/1/1 34/1/1 33/1/1
f 36/1/1 34/1/1 35/1/1
f 39/1/1 38/1/1 37/1/1
f 40/1/1 38/1/1 39/1/1
f 41/2/2 42/2/2 43/2/2
f 43/2/2 42/2/2 44/2/2
f 45/2/2 46/2/2 47/2/2
f 47/2/2 46/2/2 48/2/2
f 49/2/2 50/2/2 51/2/2
f 51/2/2 50/2/2 52/2/2
f 53/2/2 54/2/2 55/2/2
f 55/2/2 54/2/2 56/2/2
f 57/1/2 58/1/2 59/1/2
f 59/1/2 58/1/2 60/1/2
f 61/1/2 62/1/2 63/1/2
f 63/1/2 62/1/2 64/1/2
f 65/1/2 66/1/2 67/1/2
f 67/1/2 66/1/2 68/1/2
f 69/1/2 70/1/2 71/1/2
f 71/1/2 70/1/2 72/1/2
f 73/1/2 74/1/2 75/1/2
f 75/1/2 74/1/2 76/1/2
f 79/2/3 78/2/3 77/2/3
f 81/2/3 79/2/3 77/2/3
f 81/2/3 80/2/3 79/2/3
f 82/2/3 80/2/3 81/2/3
f 83/2/3 80/2/3 82/2/3
f 85/2/3 84/2/3 83/2/3
f 85/2/3 83/2/3 82/2/3
f 86/2/3 84/2/3 85/2/3
f 87/2/3 84/2/3 86/2/3
f 91/2/3 87/2/3 86/2/3
f 91/2/3 88/2/3 87/2/3
f 92/2/3 88/2/3 91/2/3
f 93/2/3 88/2/3 92/2/3
f 96/1/3 90/1/3 89/1/3
f 97/2/3 94/2/3 93/2/3
f 97/2/3 93/2/3 92/2/3
f 98/2/3 94/2/3 97/2/3
f 99/2/3 94/2/3 98/2/3
f 100/1/3 96/1/3 95/1/3
f 101/1/3 90/1/3 96/1/3
f 101/1/3 96/1/3 100/1/3
f 102/1/3 90/1/3 101/1/3
f 103/2/3 99/2/3 98/2/3
f 104/1/3 100/1/3 99/1/3
f 104/2/3 99/2/3 103/2/3
f 104/1/3 101/1/3 100/1/3
f 105/1/3 101/1/3 104/1/3
f 106/1/3 101/1/3 105/1/3
f 108/1/3 104/1/3 103/1/3
f 108/1/3 105/1/3 104/1/3
f 109/1/3 105/1/3 108/1/3
f 110/1/3 105/1/3 109/1/3
f 112/1/3 108/1/3 107/1/3
f 112/1/3 109/1/3 108/1/3
f 113/1/3 109/1/3 112/1/3
f 114/1/3 109/1/3 113/1/3
f 115/1/3 112/1/3 111/1/3
f 115/1/3 113/1/3 112/1/3
f 116/1/3 113/1/3 115/1/3
f 117/2/4 118/2/4 119/2/4
f 117/2/4 119/2/4 121/2/4
f 119/2/4 120/2/4 121/2/4
f 121/2/4 120/2/4 122/2/4
f 122/2/4 120/2/4 123/2/4
f 123/2/4 124/2/4 125/2/4
f 122/2/4 123/2/4 125/2/4
f 125/2/4 124/2/4 126/2/4
f 126/2/4 124/2/4 127/2/4
f 126/2/4 127/2/4 131/2/4
f 127/2/4 128/2/4 131/2/4
f 131/2/4 128/2/4 132/2/4
f 132/2/4 128/2/4 133/2/4
f 129/1/4 130/1/4 136/1/4
f 133/2/4 134/2/4 137/2/4
f 132/2/4 133/2/4 137/2/4
f 137/2/4 134/2/4 138/2/4
f 138/2/4 134/2/4 139/2/4
f 135/1/4 136/1/4 140/1/4
f 136/1/4 130/1/4 141/1/4
f 140/1/4 136/1/4 141/1/4
f 141/1/4 130/1/4 142/1/4
f 138/2/4 139/2/4 143/2/4
f 139/1/4 140/1/4 144/1/4
f 143/2/4 139/2/4 144/2/4
f 140/1/4 141/1/4 144/1/4
f 144/1/4 141/1/4 145/1/4
f 145/1/4 141/1/4 146/1/4
f 143/1/4 144/1/4 148/1/4
f 144/1/4 145/1/4 148/1/4
f 148/1/4 145/1/4 149/1/4
f 149/1/4 145/1/4 150/1/4
f 147/1/4 148/1/4 152/1/4
f 148/1/4 149/1/4 152/1/4
f 152/1/4 149/1/4 153/1/4
f 153/1/4 149/1/4 154/1/4
f 151/1/4 152/1/4 155/1/4
f 152/1/4 153/1/4 155/1/4
f 155/1/4 153/1/4 156/1/4
f 159/2/5 158/2/5 157/2/5
f 160/2/5 158/2/5 159/2/5
f 163/2/5 162/2/5 161/2/5
f 164/2/5 162/2/5 163/2/5
f 169/2/5 166/2/5 165/2/5
f 170/2/5 166/2/5 169/2/5
f 171/1/5 168/1/5 167/1/5
f 172/1/5 168/1/5 171/1/5
f 177/2/5 174/2/5 173/2/5
f 178/2/5 174/2/5 177/2/5
f 179/1/5 176/1/5 175/1/5
f 180/1/5 176/1/5 179/1/5
f 184/2/5 182/2/5 181/2/5
f 185/1/5 183/1/5 182/1/5
f 185/2/5 182/2/5 184/2/5
f 186/1/5 183/1/5 185/1/5
f 189/1/5 188/1/5 187/1/5
f 190/1/5 188/1/5 189/1/5
f 193/1/5 192/1/5 191/1/5
f 194/1/5 192/1/5 193/1/5
f 195/2/6 196/2/6 197/2/6
f 197/2/6 196/2/6 198/2/6
f 199/2/6 200/2/6 201/2/6
f 201/2/6 200/2/6 202/2/6
f 203/2/6 204/2/6 205/2/6
f 205/2/6 204/2/6 206/2/6
f 207/2/6 208/2/6 211/2/6
f 211/2/6 208/2/6 212/2/6
f 209/1/6 210/1/6 213/1/6
f 213/1/6 210/1/6 214/1/6
f 215/2/6 216/2/6 219/2/6
f 219/2/6 216/2/6 220/2/6
f 217/1/6 218/1/6 221/1/6
f 221/1/6 218/1/6 222/1/6
f 223/1/6 224/1/6 225/1/6
f 225/1/6 224/1/6 226/1/6
f 227/1/6 228/1/6 229/1/6
f 229/1/6 228/1/6 230/1/6
f 231/1/6 232/1/6 233/1/6
f 233/1/6 232/1/6 234/1/6
