# MagicaVoxel @ Ephtracy

# material
mtllib Water.mtl
usemtl palette

# normals
vn -1 0 0
vn 1 0 0
vn 0 0 1
vn 0 0 -1
vn 0 -1 0
vn 0 1 0

# texcoords
vt 0.361328 0.5
vt 0.365234 0.5
vt 0.775391 0.5

# verts
v 4 5 1.5
v 4 5 -1.5
v 4 9 1.5
v 4 9 -1.5
v 10 3 0.5
v 10 3 -0.5
v 10 4 0.5
v 10 4 -0.5
v 10 5 0.5
v 10 5 -0.5
v 10 6 0.5
v 10 6 -0.5
v 10 10 0.5
v 10 10 -0.5
v 10 11 0.5
v 10 11 -0.5
v 11 7 0.5
v 11 7 -0.5
v 11 8 0.5
v 11 8 -0.5
v 12 4 0.5
v 12 4 -0.5
v 12 5 0.5
v 12 5 -0.5
v 12 6 0.5
v 12 6 -0.5
v 12 7 0.5
v 12 7 -0.5
v 12 9 0.5
v 12 9 -0.5
v 12 10 0.5
v 12 10 -0.5
v 8 5 1.5
v 8 5 0.5
v 8 5 -0.5
v 8 5 -1.5
v 8 9 1.5
v 8 9 0.5
v 8 9 -0.5
v 8 9 -1.5
v 9 5 0.5
v 9 5 -0.5
v 9 6 0.5
v 9 6 -0.5
v 10 7 0.5
v 10 7 -0.5
v 10 8 0.5
v 10 8 -0.5
v 11 3 0.5
v 11 3 -0.5
v 11 4 0.5
v 11 4 -0.5
v 11 6 0.5
v 11 6 -0.5
v 11 7 0.5
v 11 7 -0.5
v 11 8 0.5
v 11 8 -0.5
v 11 9 0.5
v 11 9 -0.5
v 11 10 0.5
v 11 10 -0.5
v 11 11 0.5
v 11 11 -0.5
v 12 5 0.5
v 12 5 -0.5
v 12 6 0.5
v 12 6 -0.5
v 12 7 0.5
v 12 7 -0.5
v 12 8 0.5
v 12 8 -0.5
v 13 4 0.5
v 13 4 -0.5
v 13 5 0.5
v 13 5 -0.5
v 13 6 0.5
v 13 6 -0.5
v 13 7 0.5
v 13 7 -0.5
v 13 9 0.5
v 13 9 -0.5
v 13 10 0.5
v 13 10 -0.5
v 4 5 1.5
v 4 9 1.5
v 6 5 1.5
v 6 9 1.5
v 7 5 1.5
v 7 9 1.5
v 8 5 1.5
v 8 9 1.5
v 8 5 0.5
v 8 9 0.5
v 9 5 0.5
v 9 6 0.5
v 10 3 0.5
v 10 4 0.5
v 10 5 0.5
v 10 6 0.5
v 10 7 0.5
v 10 8 0.5
v 10 10 0.5
v 10 11 0.5
v 11 3 0.5
v 11 4 0.5
v 11 6 0.5
v 11 7 0.5
v 11 8 0.5
v 11 9 0.5
v 11 10 0.5
v 11 11 0.5
v 12 4 0.5
v 12 5 0.5
v 12 6 0.5
v 12 7 0.5
v 12 8 0.5
v 12 9 0.5
v 12 10 0.5
v 13 4 0.5
v 13 5 0.5
v 13 6 0.5
v 13 7 0.5
v 13 9 0.5
v 13 10 0.5
v 8 5 -0.5
v 8 9 -0.5
v 9 5 -0.5
v 9 6 -0.5
v 10 3 -0.5
v 10 4 -0.5
v 10 5 -0.5
v 10 6 -0.5
v 10 7 -0.5
v 10 8 -0.5
v 10 10 -0.5
v 10 11 -0.5
v 11 3 -0.5
v 11 4 -0.5
v 11 6 -0.5
v 11 7 -0.5
v 11 8 -0.5
v 11 9 -0.5
v 11 10 -0.5
v 11 11 -0.5
v 12 4 -0.5
v 12 5 -0.5
v 12 6 -0.5
v 12 7 -0.5
v 12 8 -0.5
v 12 9 -0.5
v 12 10 -0.5
v 13 4 -0.5
v 13 5 -0.5
v 13 6 -0.5
v 13 7 -0.5
v 13 9 -0.5
v 13 10 -0.5
v 4 5 -1.5
v 4 9 -1.5
v 6 5 -1.5
v 6 9 -1.5
v 7 5 -1.5
v 7 9 -1.5
v 8 5 -1.5
v 8 9 -1.5
v 10 3 0.5
v 11 3 0.5
v 10 3 -0.5
v 11 3 -0.5
v 12 4 0.5
v 13 4 0.5
v 12 4 -0.5
v 13 4 -0.5
v 4 5 1.5
v 6 5 1.5
v 7 5 1.5
v 8 5 1.5
v 8 5 0.5
v 9 5 0.5
v 10 5 0.5
v 12 5 0.5
v 8 5 -0.5
v 9 5 -0.5
v 10 5 -0.5
v 12 5 -0.5
v 4 5 -1.5
v 6 5 -1.5
v 7 5 -1.5
v 8 5 -1.5
v 9 6 0.5
v 10 6 0.5
v 12 6 0.5
v 13 6 0.5
v 9 6 -0.5
v 10 6 -0.5
v 12 6 -0.5
v 13 6 -0.5
v 11 7 0.5
v 12 7 0.5
v 11 7 -0.5
v 12 7 -0.5
v 10 8 0.5
v 11 8 0.5
v 10 8 -0.5
v 11 8 -0.5
v 12 9 0.5
v 13 9 0.5
v 12 9 -0.5
v 13 9 -0.5
v 10 10 0.5
v 11 10 0.5
v 10 10 -0.5
v 11 10 -0.5
v 10 4 0.5
v 11 4 0.5
v 10 4 -0.5
v 11 4 -0.5
v 12 5 0.5
v 13 5 0.5
v 12 5 -0.5
v 13 5 -0.5
v 11 6 0.5
v 12 6 0.5
v 11 6 -0.5
v 12 6 -0.5
v 10 7 0.5
v 11 7 0.5
v 12 7 0.5
v 13 7 0.5
v 10 7 -0.5
v 11 7 -0.5
v 12 7 -0.5
v 13 7 -0.5
v 11 8 0.5
v 12 8 0.5
v 11 8 -0.5
v 12 8 -0.5
v 4 9 1.5
v 6 9 1.5
v 7 9 1.5
v 8 9 1.5
v 8 9 0.5
v 11 9 0.5
v 8 9 -0.5
v 11 9 -0.5
v 4 9 -1.5
v 6 9 -1.5
v 7 9 -1.5
v 8 9 -1.5
v 12 10 0.5
v 13 10 0.5
v 12 10 -0.5
v 13 10 -0.5
v 10 11 0.5
v 11 11 0.5
v 10 11 -0.5
v 11 11 -0.5

# faces
f 3/2/1 2/2/1 1/2/1
f 4/2/1 2/2/1 3/2/1
f 7/3/1 6/3/1 5/3/1
f 8/3/1 6/3/1 7/3/1
f 11/3/1 10/3/1 9/3/1
f 12/3/1 10/3/1 11/3/1
f 15/3/1 14/3/1 13/3/1
f 16/3/1 14/3/1 15/3/1
f 19/3/1 18/3/1 17/3/1
f 20/3/1 18/3/1 19/3/1
f 23/3/1 22/3/1 21/3/1
f 24/3/1 22/3/1 23/3/1
f 27/3/1 26/3/1 25/3/1
f 28/3/1 26/3/1 27/3/1
f 31/3/1 30/3/1 29/3/1
f 32/3/1 30/3/1 31/3/1
f 33/2/2 34/2/2 37/2/2
f 37/2/2 34/2/2 38/2/2
f 35/2/2 36/2/2 39/2/2
f 39/2/2 36/2/2 40/2/2
f 41/3/2 42/3/2 43/3/2
f 43/3/2 42/3/2 44/3/2
f 45/3/2 46/3/2 47/3/2
f 47/3/2 46/3/2 48/3/2
f 49/3/2 50/3/2 51/3/2
f 51/3/2 50/3/2 52/3/2
f 53/3/2 54/3/2 55/3/2
f 55/3/2 54/3/2 56/3/2
f 57/3/2 58/3/2 59/3/2
f 59/3/2 58/3/2 60/3/2
f 61/3/2 62/3/2 63/3/2
f 63/3/2 62/3/2 64/3/2
f 65/3/2 66/3/2 67/3/2
f 67/3/2 66/3/2 68/3/2
f 69/3/2 70/3/2 71/3/2
f 71/3/2 70/3/2 72/3/2
f 73/3/2 74/3/2 75/3/2
f 75/3/2 74/3/2 76/3/2
f 77/3/2 78/3/2 79/3/2
f 79/3/2 78/3/2 80/3/2
f 81/3/2 82/3/2 83/3/2
f 83/3/2 82/3/2 84/3/2
f 87/2/3 86/2/3 85/2/3
f 88/2/3 86/2/3 87/2/3
f 89/1/3 88/1/3 87/1/3
f 90/1/3 88/1/3 89/1/3
f 91/2/3 90/2/3 89/2/3
f 92/2/3 90/2/3 91/2/3
f 95/3/3 94/3/3 93/3/3
f 96/3/3 94/3/3 95/3/3
f 100/3/3 94/3/3 96/3/3
f 101/3/3 94/3/3 100/3/3
f 102/3/3 94/3/3 101/3/3
f 105/3/3 98/3/3 97/3/3
f 106/3/3 98/3/3 105/3/3
f 107/3/3 100/3/3 99/3/3
f 107/3/3 101/3/3 100/3/3
f 108/3/3 101/3/3 107/3/3
f 109/3/3 94/3/3 102/3/3
f 110/3/3 94/3/3 109/3/3
f 111/3/3 104/3/3 103/3/3
f 112/3/3 104/3/3 111/3/3
f 114/3/3 107/3/3 99/3/3
f 115/3/3 107/3/3 114/3/3
f 116/3/3 109/3/3 108/3/3
f 117/3/3 109/3/3 116/3/3
f 120/3/3 114/3/3 113/3/3
f 121/3/3 114/3/3 120/3/3
f 122/3/3 116/3/3 115/3/3
f 123/3/3 116/3/3 122/3/3
f 124/3/3 119/3/3 118/3/3
f 125/3/3 119/3/3 124/3/3
f 126/3/4 127/3/4 128/3/4
f 128/3/4 127/3/4 129/3/4
f 129/3/4 127/3/4 133/3/4
f 133/3/4 127/3/4 134/3/4
f 134/3/4 127/3/4 135/3/4
f 130/3/4 131/3/4 138/3/4
f 138/3/4 131/3/4 139/3/4
f 132/3/4 133/3/4 140/3/4
f 133/3/4 134/3/4 140/3/4
f 140/3/4 134/3/4 141/3/4
f 135/3/4 127/3/4 142/3/4
f 142/3/4 127/3/4 143/3/4
f 136/3/4 137/3/4 144/3/4
f 144/3/4 137/3/4 145/3/4
f 132/3/4 140/3/4 147/3/4
f 147/3/4 140/3/4 148/3/4
f 141/3/4 142/3/4 149/3/4
f 149/3/4 142/3/4 150/3/4
f 146/3/4 147/3/4 153/3/4
f 153/3/4 147/3/4 154/3/4
f 148/3/4 149/3/4 155/3/4
f 155/3/4 149/3/4 156/3/4
f 151/3/4 152/3/4 157/3/4
f 157/3/4 152/3/4 158/3/4
f 159/2/4 160/2/4 161/2/4
f 161/2/4 160/2/4 162/2/4
f 161/1/4 162/1/4 163/1/4
f 163/1/4 162/1/4 164/1/4
f 163/2/4 164/2/4 165/2/4
f 165/2/4 164/2/4 166/2/4
f 169/3/5 168/3/5 167/3/5
f 170/3/5 168/3/5 169/3/5
f 173/3/5 172/3/5 171/3/5
f 174/3/5 172/3/5 173/3/5
f 179/2/5 178/2/5 177/2/5
f 183/2/5 179/2/5 177/2/5
f 183/3/5 180/3/5 179/3/5
f 184/3/5 180/3/5 183/3/5
f 185/3/5 182/3/5 181/3/5
f 186/3/5 182/3/5 185/3/5
f 187/2/5 176/2/5 175/2/5
f 188/1/5 177/1/5 176/1/5
f 188/2/5 176/2/5 187/2/5
f 189/2/5 183/2/5 177/2/5
f 189/1/5 177/1/5 188/1/5
f 190/2/5 183/2/5 189/2/5
f 195/3/5 192/3/5 191/3/5
f 196/3/5 192/3/5 195/3/5
f 197/3/5 194/3/5 193/3/5
f 198/3/5 194/3/5 197/3/5
f 201/3/5 200/3/5 199/3/5
f 202/3/5 200/3/5 201/3/5
f 205/3/5 204/3/5 203/3/5
f 206/3/5 204/3/5 205/3/5
f 209/3/5 208/3/5 207/3/5
f 210/3/5 208/3/5 209/3/5
f 213/3/5 212/3/5 211/3/5
f 214/3/5 212/3/5 213/3/5
f 215/3/6 216/3/6 217/3/6
f 217/3/6 216/3/6 218/3/6
f 219/3/6 220/3/6 221/3/6
f 221/3/6 220/3/6 222/3/6
f 223/3/6 224/3/6 225/3/6
f 225/3/6 224/3/6 226/3/6
f 227/3/6 228/3/6 231/3/6
f 231/3/6 228/3/6 232/3/6
f 229/3/6 230/3/6 233/3/6
f 233/3/6 230/3/6 234/3/6
f 235/3/6 236/3/6 237/3/6
f 237/3/6 236/3/6 238/3/6
f 241/2/6 242/2/6 243/2/6
f 241/2/6 243/2/6 245/2/6
f 243/3/6 244/3/6 245/3/6
f 245/3/6 244/3/6 246/3/6
f 239/2/6 240/2/6 247/2/6
f 240/1/6 241/1/6 248/1/6
f 247/2/6 240/2/6 248/2/6
f 241/2/6 245/2/6 249/2/6
f 248/1/6 241/1/6 249/1/6
f 249/2/6 245/2/6 250/2/6
f 251/3/6 252/3/6 253/3/6
f 253/3/6 252/3/6 254/3/6
f 255/3/6 256/3/6 257/3/6
f 257/3/6 256/3/6 258/3/6
