# Blender v2.79 (sub 0) OBJ File: ''
# www.blender.org
mtllib DonkeyKopf.mtl
o DonkeyKopf
v -4.000000 2.083205 0.548281
v -4.000000 0.083205 -1.451719
v -4.000000 0.083205 0.548281
v -4.000000 2.083205 -1.451719
v -3.000000 -0.916796 1.548281
v -3.000000 -2.916795 0.548280
v -3.000000 -2.916795 1.548280
v -3.000000 -0.916795 0.548281
v -3.000000 -2.916795 -2.451720
v -3.000000 0.083205 0.548281
v -3.000000 0.083205 -1.451719
v -3.000000 2.083205 -1.451719
v -3.000000 3.083205 0.548281
v -3.000000 2.083205 0.548281
v -3.000000 3.083205 -2.451719
v -2.000000 -0.916796 2.548281
v -2.000000 -2.916795 1.548280
v -2.000000 -2.916796 2.548280
v -2.000000 -0.916796 1.548281
v -2.000000 0.083204 1.548281
v -2.000000 -0.916795 0.548281
v -2.000000 1.083204 2.548281
v -2.000000 0.083204 2.548281
v -2.000000 1.083204 1.548281
v -2.000000 2.083205 1.548281
v -2.000000 2.083205 0.548281
v -1.000000 0.083204 2.548281
v -1.000000 -0.916796 1.548281
v -1.000000 -0.916796 2.548281
v -1.000000 0.083204 1.548281
v 1.000000 1.083204 2.548281
v 1.000000 0.083204 1.548281
v 1.000000 0.083204 2.548281
v 1.000000 1.083204 1.548281
v 1.000000 2.083205 1.548281
v 1.000000 1.083205 0.548281
v 1.000000 2.083205 0.548281
v -1.000000 0.083204 2.548281
v -1.000000 0.083204 1.548281
v -1.000000 1.083204 2.548281
v -1.000000 1.083204 1.548281
v -1.000000 1.083205 0.548281
v -1.000000 2.083205 1.548281
v -1.000000 2.083205 0.548281
v 1.000000 -0.916796 2.548281
v 1.000000 -0.916796 1.548281
v 1.000000 0.083204 2.548281
v 1.000000 0.083204 1.548281
v 2.000000 -2.916796 2.548280
v 2.000000 -2.916795 1.548280
v 2.000000 -0.916796 2.548281
v 2.000000 -0.916796 1.548281
v 2.000000 -0.916795 0.548281
v 2.000000 0.083204 1.548281
v 2.000000 0.083204 2.548281
v 2.000000 1.083204 2.548281
v 2.000000 1.083204 1.548281
v 2.000000 2.083205 1.548281
v 2.000000 2.083205 0.548281
v 3.000000 -2.916795 1.548280
v 3.000000 -2.916795 0.548280
v 3.000000 -0.916796 1.548281
v 3.000000 -2.916795 -2.451720
v 3.000000 -0.916795 0.548281
v 3.000000 0.083205 0.548281
v 3.000000 0.083205 -1.451719
v 3.000000 2.083205 -1.451719
v 3.000000 2.083205 0.548281
v 3.000000 3.083205 0.548281
v 3.000000 3.083205 -2.451719
v 4.000000 0.083205 0.548281
v 4.000000 0.083205 -1.451719
v 4.000000 2.083205 0.548281
v 4.000000 2.083205 -1.451719
v -1.000000 -0.916796 2.548281
v -2.000000 -0.916796 2.548281
v -2.000000 -2.916796 2.548280
v -1.000000 0.083204 2.548281
v -2.000000 1.083204 2.548281
v -2.000000 0.083204 2.548281
v -1.000000 1.083204 2.548281
v 1.000000 -0.916796 2.548281
v 1.000000 0.083204 2.548281
v 2.000000 -2.916796 2.548280
v 2.000000 -0.916796 2.548281
v 2.000000 0.083204 2.548281
v 1.000000 1.083204 2.548281
v 2.000000 1.083204 2.548281
v -2.000000 -2.916795 1.548280
v -3.000000 -0.916796 1.548281
v -3.000000 -2.916795 1.548280
v -2.000000 -0.916796 1.548281
v -1.000000 -0.916796 1.548281
v -2.000000 0.083204 1.548281
v -1.000000 0.083204 1.548281
v -1.000000 1.083204 1.548281
v -2.000000 2.083205 1.548281
v -2.000000 1.083204 1.548281
v -1.000000 2.083205 1.548281
v 1.000000 0.083204 1.548281
v 1.000000 1.083204 1.548281
v 2.000000 -0.916796 1.548281
v 1.000000 -0.916796 1.548281
v 2.000000 0.083204 1.548281
v 2.000000 1.083204 1.548281
v 1.000000 2.083205 1.548281
v 2.000000 2.083205 1.548281
v 3.000000 -2.916795 1.548280
v 2.000000 -2.916795 1.548280
v 3.000000 -0.916796 1.548281
v -3.000000 0.083205 0.548281
v -4.000000 2.083205 0.548281
v -4.000000 0.083205 0.548281
v -3.000000 2.083205 0.548281
v -2.000000 -0.916795 0.548281
v -3.000000 -0.916795 0.548281
v -3.000000 3.083205 0.548281
v -2.000000 2.083205 0.548281
v -1.000000 2.083205 0.548281
v 1.000000 1.083205 0.548281
v -1.000000 1.083205 0.548281
v 1.000000 2.083205 0.548281
v 2.000000 2.083205 0.548281
v 3.000000 -0.916795 0.548281
v 2.000000 -0.916795 0.548281
v 3.000000 0.083205 0.548281
v 3.000000 2.083205 0.548281
v 3.000000 3.083205 0.548281
v 4.000000 0.083205 0.548281
v 4.000000 2.083205 0.548281
v -4.000000 0.083205 -1.451719
v -4.000000 2.083205 -1.451719
v -3.000000 0.083205 -1.451719
v -3.000000 2.083205 -1.451719
v 3.000000 0.083205 -1.451719
v 3.000000 2.083205 -1.451719
v 4.000000 0.083205 -1.451719
v 4.000000 2.083205 -1.451719
v -3.000000 -2.916795 -2.451720
v -3.000000 3.083205 -2.451719
v 3.000000 -2.916795 -2.451720
v 3.000000 3.083205 -2.451719
v -2.000000 -2.916795 1.548280
v 2.000000 -2.916796 2.548280
v -2.000000 -2.916796 2.548280
v 2.000000 -2.916795 1.548280
v -3.000000 -2.916795 0.548280
v -3.000000 -2.916795 1.548280
v 3.000000 -2.916795 1.548280
v 3.000000 -2.916795 0.548280
v -3.000000 -2.916795 -2.451720
v 3.000000 -2.916795 -2.451720
v -2.000000 0.083204 1.548281
v -1.000000 0.083204 2.548281
v -2.000000 0.083204 2.548281
v -1.000000 0.083204 1.548281
v 1.000000 0.083204 1.548281
v 2.000000 0.083204 2.548281
v 1.000000 0.083204 2.548281
v 2.000000 0.083204 1.548281
v -4.000000 0.083205 -1.451719
v -3.000000 0.083205 0.548281
v -4.000000 0.083205 0.548281
v -3.000000 0.083205 -1.451719
v 3.000000 0.083205 -1.451719
v 4.000000 0.083205 0.548281
v 3.000000 0.083205 0.548281
v 4.000000 0.083205 -1.451719
v -2.000000 -0.916796 2.548281
v -1.000000 -0.916796 2.548281
v -2.000000 -0.916796 1.548281
v -1.000000 -0.916796 1.548281
v 1.000000 -0.916796 2.548281
v 2.000000 -0.916796 2.548281
v 1.000000 -0.916796 1.548281
v 2.000000 -0.916796 1.548281
v -3.000000 -0.916796 1.548281
v -3.000000 -0.916795 0.548281
v -2.000000 -0.916795 0.548281
v 3.000000 -0.916796 1.548281
v 2.000000 -0.916795 0.548281
v 3.000000 -0.916795 0.548281
v -1.000000 0.083204 2.548281
v 1.000000 0.083204 2.548281
v -1.000000 0.083204 1.548281
v 1.000000 0.083204 1.548281
v -2.000000 1.083204 2.548281
v -1.000000 1.083204 2.548281
v -2.000000 1.083204 1.548281
v -1.000000 1.083204 1.548281
v 1.000000 1.083204 2.548281
v 2.000000 1.083204 2.548281
v 1.000000 1.083204 1.548281
v 2.000000 1.083204 1.548281
v -1.000000 1.083205 0.548281
v 1.000000 1.083205 0.548281
v -2.000000 2.083205 1.548281
v -1.000000 2.083205 1.548281
v -2.000000 2.083205 0.548281
v -1.000000 2.083205 0.548281
v 1.000000 2.083205 1.548281
v 2.000000 2.083205 1.548281
v 1.000000 2.083205 0.548281
v 2.000000 2.083205 0.548281
v -4.000000 2.083205 0.548281
v -3.000000 2.083205 0.548281
v -4.000000 2.083205 -1.451719
v -3.000000 2.083205 -1.451719
v 3.000000 2.083205 0.548281
v 4.000000 2.083205 0.548281
v 3.000000 2.083205 -1.451719
v 4.000000 2.083205 -1.451719
v -3.000000 3.083205 0.548281
v 3.000000 3.083205 0.548281
v -3.000000 3.083205 -2.451719
v 3.000000 3.083205 -2.451719
vt 0.033203 0.500000
vt 0.033203 0.500000
vt 0.033203 0.500000
vt 0.033203 0.500000
vt 0.033203 0.500000
vt 0.033203 0.500000
vt 0.033203 0.500000
vt 0.115234 0.500000
vt 0.115234 0.500000
vt 0.115234 0.500000
vt 0.033203 0.500000
vt 0.115234 0.500000
vt 0.115234 0.500000
vt 0.115234 0.500000
vt 0.115234 0.500000
vt 0.115234 0.500000
vt 0.115234 0.500000
vt 0.033203 0.500000
vt 0.033203 0.500000
vt 0.033203 0.500000
vt 0.033203 0.500000
vt 0.033203 0.500000
vt 0.033203 0.500000
vt 0.001953 0.500000
vt 0.001953 0.500000
vt 0.001953 0.500000
vt 0.033203 0.500000
vt 0.001953 0.500000
vt 0.033203 0.500000
vt 0.033203 0.500000
vt 0.115234 0.500000
vt 0.115234 0.500000
vt 0.115234 0.500000
vt 0.115234 0.500000
vt 0.001953 0.500000
vt 0.001953 0.500000
vt 0.001953 0.500000
vt 0.001953 0.500000
vt 0.033203 0.500000
vt 0.033203 0.500000
vt 0.033203 0.500000
vt 0.033203 0.500000
vt 0.001953 0.500000
vt 0.001953 0.500000
vt 0.001953 0.500000
vt 0.001953 0.500000
vt 0.033203 0.500000
vt 0.033203 0.500000
vt 0.033203 0.500000
vt 0.033203 0.500000
vt 0.115234 0.500000
vt 0.115234 0.500000
vt 0.115234 0.500000
vt 0.115234 0.500000
vt 0.033203 0.500000
vt 0.033203 0.500000
vt 0.033203 0.500000
vt 0.033203 0.500000
vt 0.033203 0.500000
vt 0.033203 0.500000
vt 0.001953 0.500000
vt 0.001953 0.500000
vt 0.001953 0.500000
vt 0.033203 0.500000
vt 0.001953 0.500000
vt 0.033203 0.500000
vt 0.033203 0.500000
vt 0.033203 0.500000
vt 0.033203 0.500000
vt 0.033203 0.500000
vt 0.115234 0.500000
vt 0.115234 0.500000
vt 0.115234 0.500000
vt 0.033203 0.500000
vt 0.115234 0.500000
vt 0.115234 0.500000
vt 0.115234 0.500000
vt 0.115234 0.500000
vt 0.115234 0.500000
vt 0.115234 0.500000
vt 0.033203 0.500000
vt 0.033203 0.500000
vt 0.033203 0.500000
vt 0.033203 0.500000
vt 0.033203 0.500000
vt 0.033203 0.500000
vt 0.033203 0.500000
vt 0.001953 0.500000
vt 0.001953 0.500000
vt 0.001953 0.500000
vt 0.001953 0.500000
vt 0.033203 0.500000
vt 0.115234 0.500000
vt 0.115234 0.500000
vt 0.115234 0.500000
vt 0.115234 0.500000
vt 0.033203 0.500000
vt 0.033203 0.500000
vt 0.001953 0.500000
vt 0.001953 0.500000
vt 0.001953 0.500000
vt 0.001953 0.500000
vt 0.033203 0.500000
vt 0.033203 0.500000
vt 0.033203 0.500000
vt 0.033203 0.500000
vt 0.033203 0.500000
vt 0.033203 0.500000
vt 0.033203 0.500000
vt 0.033203 0.500000
vt 0.033203 0.500000
vt 0.033203 0.500000
vt 0.033203 0.500000
vt 0.033203 0.500000
vt 0.033203 0.500000
vt 0.033203 0.500000
vt 0.033203 0.500000
vt 0.033203 0.500000
vt 0.033203 0.500000
vt 0.033203 0.500000
vt 0.033203 0.500000
vt 0.033203 0.500000
vt 0.033203 0.500000
vt 0.033203 0.500000
vt 0.033203 0.500000
vt 0.033203 0.500000
vt 0.033203 0.500000
vt 0.033203 0.500000
vt 0.115234 0.500000
vt 0.115234 0.500000
vt 0.115234 0.500000
vt 0.115234 0.500000
vt 0.115234 0.500000
vt 0.115234 0.500000
vt 0.115234 0.500000
vt 0.115234 0.500000
vt 0.115234 0.500000
vt 0.115234 0.500000
vt 0.115234 0.500000
vt 0.115234 0.500000
vt 0.115234 0.500000
vt 0.115234 0.500000
vt 0.115234 0.500000
vt 0.115234 0.500000
vt 0.033203 0.500000
vt 0.033203 0.500000
vt 0.033203 0.500000
vt 0.033203 0.500000
vt 0.033203 0.500000
vt 0.033203 0.500000
vt 0.033203 0.500000
vt 0.033203 0.500000
vt 0.033203 0.500000
vt 0.033203 0.500000
vt 0.033203 0.500000
vt 0.033203 0.500000
vt 0.115234 0.500000
vt 0.115234 0.500000
vt 0.115234 0.500000
vt 0.115234 0.500000
vt 0.033203 0.500000
vt 0.033203 0.500000
vt 0.033203 0.500000
vt 0.033203 0.500000
vt 0.033203 0.500000
vt 0.033203 0.500000
vt 0.033203 0.500000
vt 0.033203 0.500000
vt 0.115234 0.500000
vt 0.115234 0.500000
vt 0.115234 0.500000
vt 0.115234 0.500000
vt 0.001953 0.500000
vt 0.001953 0.500000
vt 0.001953 0.500000
vt 0.001953 0.500000
vt 0.001953 0.500000
vt 0.001953 0.500000
vt 0.001953 0.500000
vt 0.001953 0.500000
vt 0.033203 0.500000
vt 0.033203 0.500000
vt 0.033203 0.500000
vt 0.033203 0.500000
vt 0.033203 0.500000
vt 0.033203 0.500000
vt 0.033203 0.500000
vt 0.033203 0.500000
vt 0.033203 0.500000
vt 0.033203 0.500000
vt 0.033203 0.500000
vt 0.033203 0.500000
vt 0.033203 0.500000
vt 0.033203 0.500000
vt 0.033203 0.500000
vt 0.033203 0.500000
vt 0.033203 0.500000
vt 0.033203 0.500000
vt 0.033203 0.500000
vt 0.033203 0.500000
vt 0.033203 0.500000
vt 0.033203 0.500000
vt 0.115234 0.500000
vt 0.115234 0.500000
vt 0.115234 0.500000
vt 0.115234 0.500000
vt 0.001953 0.500000
vt 0.001953 0.500000
vt 0.001953 0.500000
vt 0.001953 0.500000
vt 0.001953 0.500000
vt 0.001953 0.500000
vt 0.001953 0.500000
vt 0.001953 0.500000
vt 0.033203 0.500000
vt 0.033203 0.500000
vt 0.033203 0.500000
vt 0.033203 0.500000
vt 0.033203 0.500000
vt 0.033203 0.500000
vt 0.033203 0.500000
vt 0.033203 0.500000
vt 0.033203 0.500000
vt 0.033203 0.500000
vt 0.033203 0.500000
vt 0.033203 0.500000
vt 0.033203 0.500000
vt 0.033203 0.500000
vt 0.033203 0.500000
vt 0.033203 0.500000
vt 0.033203 0.500000
vt 0.033203 0.500000
vt 0.033203 0.500000
vt 0.033203 0.500000
vt 0.115234 0.500000
vt 0.115234 0.500000
vt 0.115234 0.500000
vt 0.115234 0.500000
vn -1.0000 0.0000 0.0000
vn 1.0000 0.0000 0.0000
vn 0.0000 -0.0000 1.0000
vn 0.0000 0.0000 -1.0000
vn 0.0000 -1.0000 -0.0000
vn 0.0000 1.0000 0.0000
usemtl palette
s 1
f 1/1/1 2/2/1 3/3/1
f 4/4/1 2/2/1 1/1/1
f 5/5/1 6/6/1 7/7/1
f 8/8/1 9/9/1 6/10/1
f 8/11/1 6/6/1 5/5/1
f 10/12/1 9/9/1 8/8/1
f 11/13/1 9/9/1 10/12/1
f 12/14/1 9/9/1 11/13/1
f 13/15/1 12/14/1 14/16/1
f 15/17/1 9/9/1 12/14/1
f 15/17/1 12/14/1 13/15/1
f 16/18/1 17/19/1 18/20/1
f 19/21/1 17/19/1 16/18/1
f 20/22/1 21/23/1 19/21/1
f 22/24/1 20/25/1 23/26/1
f 24/27/1 21/23/1 20/22/1
f 24/28/1 20/25/1 22/24/1
f 25/29/1 21/23/1 24/27/1
f 26/30/1 21/23/1 25/29/1
f 27/31/1 28/32/1 29/33/1
f 30/34/1 28/32/1 27/31/1
f 31/35/1 32/36/1 33/37/1
f 34/38/1 32/36/1 31/35/1
f 35/39/1 36/40/1 34/41/1
f 37/42/1 36/40/1 35/39/1
f 38/43/2 39/44/2 40/45/2
f 40/45/2 39/44/2 41/46/2
f 41/47/2 42/48/2 43/49/2
f 43/49/2 42/48/2 44/50/2
f 45/51/2 46/52/2 47/53/2
f 47/53/2 46/52/2 48/54/2
f 49/55/2 50/56/2 51/57/2
f 51/57/2 50/56/2 52/58/2
f 52/58/2 53/59/2 54/60/2
f 55/61/2 54/62/2 56/63/2
f 54/60/2 53/59/2 57/64/2
f 56/63/2 54/62/2 57/65/2
f 57/64/2 53/59/2 58/66/2
f 58/66/2 53/59/2 59/67/2
f 60/68/2 61/69/2 62/70/2
f 61/71/2 63/72/2 64/73/2
f 62/70/2 61/69/2 64/74/2
f 64/73/2 63/72/2 65/75/2
f 65/75/2 63/72/2 66/76/2
f 66/76/2 63/72/2 67/77/2
f 68/78/2 67/77/2 69/79/2
f 67/77/2 63/72/2 70/80/2
f 69/79/2 67/77/2 70/80/2
f 71/81/2 72/82/2 73/83/2
f 73/83/2 72/82/2 74/84/2
f 75/85/3 76/86/3 77/87/3
f 78/88/3 79/89/3 80/90/3
f 81/91/3 79/89/3 78/88/3
f 82/92/3 75/85/3 77/87/3
f 82/93/3 78/94/3 75/95/3
f 83/96/3 78/94/3 82/93/3
f 84/97/3 82/92/3 77/87/3
f 85/98/3 82/92/3 84/97/3
f 86/99/3 87/100/3 83/101/3
f 88/102/3 87/100/3 86/99/3
f 89/103/3 90/104/3 91/105/3
f 92/106/3 90/104/3 89/103/3
f 93/107/3 94/108/3 92/106/3
f 95/109/3 94/108/3 93/107/3
f 96/110/3 97/111/3 98/112/3
f 99/113/3 97/111/3 96/110/3
f 100/114/3 96/110/3 95/109/3
f 101/115/3 96/110/3 100/114/3
f 102/116/3 100/114/3 103/117/3
f 104/118/3 100/114/3 102/116/3
f 105/119/3 106/120/3 101/115/3
f 107/121/3 106/120/3 105/119/3
f 108/122/3 102/116/3 109/123/3
f 110/124/3 102/116/3 108/122/3
f 111/125/3 112/126/3 113/127/3
f 114/128/3 112/126/3 111/125/3
f 115/129/3 111/130/3 116/131/3
f 115/129/3 117/132/3 114/133/3
f 115/129/3 114/133/3 111/130/3
f 118/134/3 117/132/3 115/129/3
f 119/135/3 117/132/3 118/134/3
f 120/136/3 119/135/3 121/137/3
f 122/138/3 117/132/3 119/135/3
f 122/138/3 119/135/3 120/136/3
f 123/139/3 117/132/3 122/138/3
f 124/140/3 123/139/3 125/141/3
f 126/142/3 123/139/3 124/140/3
f 127/143/3 117/132/3 123/139/3
f 127/143/3 123/139/3 126/142/3
f 128/144/3 117/132/3 127/143/3
f 129/145/3 127/146/3 126/147/3
f 130/148/3 127/146/3 129/145/3
f 131/149/4 132/150/4 133/151/4
f 133/151/4 132/150/4 134/152/4
f 135/153/4 136/154/4 137/155/4
f 137/155/4 136/154/4 138/156/4
f 139/157/4 140/158/4 141/159/4
f 141/159/4 140/158/4 142/160/4
f 143/161/5 144/162/5 145/163/5
f 146/164/5 144/162/5 143/161/5
f 147/165/5 143/161/5 148/166/5
f 147/165/5 149/167/5 146/164/5
f 147/165/5 146/164/5 143/161/5
f 150/168/5 149/167/5 147/165/5
f 151/169/5 150/170/5 147/171/5
f 152/172/5 150/170/5 151/169/5
f 153/173/5 154/174/5 155/175/5
f 156/176/5 154/174/5 153/173/5
f 157/177/5 158/178/5 159/179/5
f 160/180/5 158/178/5 157/177/5
f 161/181/5 162/182/5 163/183/5
f 164/184/5 162/182/5 161/181/5
f 165/185/5 166/186/5 167/187/5
f 168/188/5 166/186/5 165/185/5
f 169/189/6 170/190/6 171/191/6
f 171/191/6 170/190/6 172/192/6
f 173/193/6 174/194/6 175/195/6
f 175/195/6 174/194/6 176/196/6
f 177/197/6 171/191/6 178/198/6
f 178/198/6 171/191/6 179/199/6
f 176/196/6 180/200/6 181/201/6
f 181/201/6 180/200/6 182/202/6
f 183/203/6 184/204/6 185/205/6
f 185/205/6 184/204/6 186/206/6
f 187/207/6 188/208/6 189/209/6
f 189/209/6 188/208/6 190/210/6
f 191/211/6 192/212/6 193/213/6
f 193/213/6 192/212/6 194/214/6
f 190/215/6 193/216/6 195/217/6
f 195/217/6 193/216/6 196/218/6
f 197/219/6 198/220/6 199/221/6
f 199/221/6 198/220/6 200/222/6
f 201/223/6 202/224/6 203/225/6
f 203/225/6 202/224/6 204/226/6
f 205/227/6 206/228/6 207/229/6
f 207/229/6 206/228/6 208/230/6
f 209/231/6 210/232/6 211/233/6
f 211/233/6 210/232/6 212/234/6
f 213/235/6 214/236/6 215/237/6
f 215/237/6 214/236/6 216/238/6
o Cube
v 1.000000 -1.000000 -1.000000
v 1.000000 -1.000000 1.000000
v -1.000000 -1.000000 1.000000
v -1.000000 -1.000000 -1.000000
v 1.000000 1.000000 -0.999999
v 0.999999 1.000000 1.000001
v -1.000000 1.000000 1.000000
v -1.000000 1.000000 -1.000000
vn 0.0000 -1.0000 0.0000
vn 0.0000 1.0000 0.0000
vn 1.0000 0.0000 0.0000
vn -0.0000 -0.0000 1.0000
vn -1.0000 -0.0000 -0.0000
vn 0.0000 0.0000 -1.0000
usemtl Material
s off
f 217//7 218//7 219//7 220//7
f 221//8 224//8 223//8 222//8
f 217//9 221//9 222//9 218//9
f 218//10 222//10 223//10 219//10
f 219//11 223//11 224//11 220//11
f 221//12 217//12 220//12 224//12
