# MagicaVoxel @ Ephtracy

# group
g fass

# material
mtllib fass.mtl
usemtl palette

# normals
vn -1 0 0
vn 1 0 0
vn 0 0 1
vn 0 0 -1
vn 0 -1 0
vn 0 1 0

# texcoords
vt 0.205078 0.5
vt 0.232422 0.5
vt 0.822266 0.5
vt 0.919922 0.5

# verts
v -4.5 1 1.5
v -4.5 1 -2.5
v -4.5 2 1.5
v -4.5 2 -0.5
v -4.5 2 -1.5
v -4.5 2 -2.5
v -4.5 3 1.5
v -4.5 3 -0.5
v -4.5 3 -1.5
v -4.5 3 -2.5
v -4.5 4 1.5
v -4.5 4 -0.5
v -4.5 4 -1.5
v -4.5 4 -2.5
v -4.5 12 1.5
v -4.5 12 -0.5
v -4.5 12 -1.5
v -4.5 12 -2.5
v -4.5 13 1.5
v -4.5 13 -2.5
v -3.5 0 1.5
v -3.5 0 -2.5
v -3.5 1 1.5
v -3.5 1 -2.5
v -3.5 2 2.5
v -3.5 2 1.5
v -3.5 2 -2.5
v -3.5 2 -3.5
v -3.5 3 1.5
v -3.5 3 -2.5
v -3.5 4 1.5
v -3.5 4 -2.5
v -3.5 12 2.5
v -3.5 12 1.5
v -3.5 12 -2.5
v -3.5 12 -3.5
v -3.5 13 2.5
v -3.5 13 1.5
v -3.5 13 -2.5
v -3.5 13 -3.5
v -3.5 14 1.5
v -3.5 14 -2.5
v -2.5 1 2.5
v -2.5 1 1.5
v -2.5 1 -2.5
v -2.5 1 -3.5
v -2.5 2 2.5
v -2.5 2 1.5
v -2.5 2 -2.5
v -2.5 2 -3.5
v -2.5 3 3.5
v -2.5 3 2.5
v -2.5 3 -3.5
v -2.5 3 -4.5
v -2.5 11 3.5
v -2.5 11 2.5
v -2.5 11 -3.5
v -2.5 11 -4.5
v -2.5 13 2.5
v -2.5 13 1.5
v -2.5 13 -2.5
v -2.5 13 -3.5
v -2.5 14 2.5
v -2.5 14 1.5
v -2.5 14 -2.5
v -2.5 14 -3.5
v -1.5 0 2.5
v -1.5 0 1.5
v -1.5 0 -2.5
v -1.5 0 -3.5
v -1.5 1 3.5
v -1.5 1 2.5
v -1.5 1 1.5
v -1.5 1 -2.5
v -1.5 1 -3.5
v -1.5 1 -4.5
v -1.5 2 3.5
v -1.5 2 2.5
v -1.5 2 -3.5
v -1.5 2 -4.5
v -1.5 3 4.5
v -1.5 3 3.5
v -1.5 3 2.5
v -1.5 3 -3.5
v -1.5 3 -4.5
v -1.5 3 -5.5
v -1.5 4 4.5
v -1.5 4 3.5
v -1.5 4 -4.5
v -1.5 4 -5.5
v -1.5 10 4.5
v -1.5 10 3.5
v -1.5 10 -4.5
v -1.5 10 -5.5
v -1.5 11 4.5
v -1.5 11 3.5
v -1.5 11 2.5
v -1.5 11 -3.5
v -1.5 11 -4.5
v -1.5 11 -5.5
v -1.5 12 3.5
v -1.5 12 2.5
v -1.5 12 -3.5
v -1.5 12 -4.5
v -1.5 13 3.5
v -1.5 13 2.5
v -1.5 13 -3.5
v -1.5 13 -4.5
v 2.5 2 2.5
v 2.5 2 1.5
v 2.5 2 -2.5
v 2.5 2 -3.5
v 2.5 3 2.5
v 2.5 4 2.5
v 2.5 12 2.5
v 2.5 12 1.5
v 2.5 12 -2.5
v 2.5 12 -3.5
v 3.5 2 1.5
v 3.5 2 0.5
v 3.5 2 -1.5
v 3.5 2 -2.5
v 3.5 12 1.5
v 3.5 12 0.5
v 3.5 12 -1.5
v 3.5 12 -2.5
v 4.5 2 0.5
v 4.5 2 -0.5
v 4.5 2 -1.5
v 4.5 3 0.5
v 4.5 3 -0.5
v 4.5 3 -1.5
v 4.5 4 0.5
v 4.5 4 -0.5
v 4.5 4 -1.5
v 4.5 12 0.5
v 4.5 12 -0.5
v 4.5 12 -1.5
v -3.5 2 0.5
v -3.5 2 -0.5
v -3.5 2 -1.5
v -3.5 3 0.5
v -3.5 3 -0.5
v -3.5 3 -1.5
v -3.5 4 0.5
v -3.5 4 -0.5
v -3.5 4 -1.5
v -3.5 12 0.5
v -3.5 12 -0.5
v -3.5 12 -1.5
v -2.5 2 1.5
v -2.5 2 0.5
v -2.5 2 -1.5
v -2.5 2 -2.5
v -2.5 12 1.5
v -2.5 12 0.5
v -2.5 12 -1.5
v -2.5 12 -2.5
v -1.5 2 2.5
v -1.5 2 1.5
v -1.5 2 -2.5
v -1.5 2 -3.5
v -1.5 3 2.5
v -1.5 4 2.5
v -1.5 12 2.5
v -1.5 12 1.5
v -1.5 12 -2.5
v -1.5 12 -3.5
v 2.5 0 2.5
v 2.5 0 1.5
v 2.5 0 -2.5
v 2.5 0 -3.5
v 2.5 1 3.5
v 2.5 1 2.5
v 2.5 1 1.5
v 2.5 1 -2.5
v 2.5 1 -3.5
v 2.5 1 -4.5
v 2.5 2 3.5
v 2.5 2 2.5
v 2.5 2 -3.5
v 2.5 2 -4.5
v 2.5 3 4.5
v 2.5 3 3.5
v 2.5 3 2.5
v 2.5 3 -3.5
v 2.5 3 -4.5
v 2.5 3 -5.5
v 2.5 4 4.5
v 2.5 4 3.5
v 2.5 4 -4.5
v 2.5 4 -5.5
v 2.5 10 4.5
v 2.5 10 3.5
v 2.5 10 -4.5
v 2.5 10 -5.5
v 2.5 11 4.5
v 2.5 11 3.5
v 2.5 11 2.5
v 2.5 11 -3.5
v 2.5 11 -4.5
v 2.5 11 -5.5
v 2.5 12 3.5
v 2.5 12 2.5
v 2.5 12 -3.5
v 2.5 12 -4.5
v 2.5 13 3.5
v 2.5 13 2.5
v 2.5 13 1.5
v 2.5 13 -2.5
v 2.5 13 -3.5
v 2.5 13 -4.5
v 2.5 14 2.5
v 2.5 14 1.5
v 2.5 14 -2.5
v 2.5 14 -3.5
v 3.5 1 2.5
v 3.5 1 1.5
v 3.5 1 -2.5
v 3.5 1 -3.5
v 3.5 2 2.5
v 3.5 2 1.5
v 3.5 2 -2.5
v 3.5 2 -3.5
v 3.5 3 3.5
v 3.5 3 2.5
v 3.5 3 -3.5
v 3.5 3 -4.5
v 3.5 11 3.5
v 3.5 11 2.5
v 3.5 11 -3.5
v 3.5 11 -4.5
v 3.5 12 2.5
v 3.5 12 1.5
v 3.5 12 -2.5
v 3.5 12 -3.5
v 3.5 13 2.5
v 3.5 13 1.5
v 3.5 13 -2.5
v 3.5 13 -3.5
v 4.5 0 1.5
v 4.5 0 -2.5
v 4.5 1 1.5
v 4.5 1 -2.5
v 4.5 13 1.5
v 4.5 13 -2.5
v 4.5 14 1.5
v 4.5 14 -2.5
v 5.5 1 1.5
v 5.5 1 -2.5
v 5.5 2 1.5
v 5.5 2 -0.5
v 5.5 2 -1.5
v 5.5 2 -2.5
v 5.5 3 1.5
v 5.5 3 -0.5
v 5.5 3 -1.5
v 5.5 3 -2.5
v 5.5 4 1.5
v 5.5 4 -0.5
v 5.5 4 -1.5
v 5.5 4 -2.5
v 5.5 12 1.5
v 5.5 12 -0.5
v 5.5 12 -1.5
v 5.5 12 -2.5
v 5.5 13 1.5
v 5.5 13 -2.5
v -1.5 3 4.5
v -1.5 4 4.5
v -1.5 10 4.5
v -1.5 11 4.5
v 2.5 3 4.5
v 2.5 4 4.5
v 2.5 10 4.5
v 2.5 11 4.5
v -2.5 3 3.5
v -2.5 11 3.5
v -1.5 1 3.5
v -1.5 2 3.5
v -1.5 3 3.5
v -1.5 4 3.5
v -1.5 10 3.5
v -1.5 11 3.5
v -1.5 12 3.5
v -1.5 13 3.5
v 2.5 1 3.5
v 2.5 2 3.5
v 2.5 3 3.5
v 2.5 4 3.5
v 2.5 10 3.5
v 2.5 11 3.5
v 2.5 12 3.5
v 2.5 13 3.5
v 3.5 3 3.5
v 3.5 11 3.5
v -3.5 2 2.5
v -3.5 12 2.5
v -3.5 13 2.5
v -2.5 1 2.5
v -2.5 2 2.5
v -2.5 3 2.5
v -2.5 11 2.5
v -2.5 13 2.5
v -2.5 14 2.5
v -1.5 0 2.5
v -1.5 1 2.5
v -1.5 2 2.5
v -1.5 3 2.5
v -1.5 11 2.5
v -1.5 12 2.5
v -1.5 13 2.5
v 2.5 0 2.5
v 2.5 1 2.5
v 2.5 2 2.5
v 2.5 3 2.5
v 2.5 11 2.5
v 2.5 12 2.5
v 2.5 13 2.5
v 2.5 14 2.5
v 3.5 1 2.5
v 3.5 2 2.5
v 3.5 3 2.5
v 3.5 11 2.5
v 3.5 12 2.5
v 3.5 13 2.5
v -4.5 1 1.5
v -4.5 2 1.5
v -4.5 3 1.5
v -4.5 4 1.5
v -4.5 12 1.5
v -4.5 13 1.5
v -3.5 0 1.5
v -3.5 1 1.5
v -3.5 2 1.5
v -3.5 3 1.5
v -3.5 4 1.5
v -3.5 12 1.5
v -3.5 13 1.5
v -3.5 14 1.5
v -2.5 1 1.5
v -2.5 2 1.5
v -2.5 13 1.5
v -2.5 14 1.5
v -1.5 0 1.5
v -1.5 1 1.5
v 2.5 0 1.5
v 2.5 1 1.5
v 2.5 13 1.5
v 2.5 14 1.5
v 3.5 1 1.5
v 3.5 2 1.5
v 3.5 12 1.5
v 3.5 13 1.5
v 4.5 0 1.5
v 4.5 1 1.5
v 4.5 2 1.5
v 4.5 3 1.5
v 4.5 4 1.5
v 4.5 13 1.5
v 4.5 14 1.5
v 5.5 1 1.5
v 5.5 2 1.5
v 5.5 3 1.5
v 5.5 4 1.5
v 5.5 12 1.5
v 5.5 13 1.5
v -3.5 2 -1.5
v -3.5 3 -1.5
v -3.5 4 -1.5
v -3.5 12 -1.5
v -2.5 2 -1.5
v -2.5 12 -1.5
v 3.5 2 -1.5
v 3.5 12 -1.5
v 4.5 2 -1.5
v 4.5 3 -1.5
v 4.5 4 -1.5
v 4.5 12 -1.5
v -2.5 2 -2.5
v -2.5 12 -2.5
v -1.5 2 -2.5
v -1.5 12 -2.5
v 2.5 2 -2.5
v 2.5 12 -2.5
v 3.5 2 -2.5
v 3.5 12 -2.5
v -1.5 2 -3.5
v -1.5 12 -3.5
v 2.5 2 -3.5
v 2.5 12 -3.5
v -1.5 2 2.5
v -1.5 3 2.5
v -1.5 4 2.5
v -1.5 12 2.5
v 2.5 2 2.5
v 2.5 3 2.5
v 2.5 4 2.5
v 2.5 12 2.5
v -2.5 2 1.5
v -2.5 12 1.5
v -1.5 2 1.5
v -1.5 12 1.5
v 2.5 2 1.5
v 2.5 12 1.5
v 3.5 2 1.5
v 3.5 12 1.5
v -3.5 2 0.5
v -3.5 3 0.5
v -3.5 4 0.5
v -3.5 12 0.5
v -2.5 2 0.5
v -2.5 12 0.5
v 3.5 2 0.5
v 3.5 12 0.5
v 4.5 2 0.5
v 4.5 3 0.5
v 4.5 4 0.5
v 4.5 12 0.5
v -4.5 1 -2.5
v -4.5 2 -2.5
v -4.5 3 -2.5
v -4.5 4 -2.5
v -4.5 12 -2.5
v -4.5 13 -2.5
v -3.5 0 -2.5
v -3.5 1 -2.5
v -3.5 2 -2.5
v -3.5 3 -2.5
v -3.5 4 -2.5
v -3.5 12 -2.5
v -3.5 13 -2.5
v -3.5 14 -2.5
v -2.5 1 -2.5
v -2.5 2 -2.5
v -2.5 13 -2.5
v -2.5 14 -2.5
v -1.5 0 -2.5
v -1.5 1 -2.5
v 2.5 0 -2.5
v 2.5 1 -2.5
v 2.5 13 -2.5
v 2.5 14 -2.5
v 3.5 1 -2.5
v 3.5 2 -2.5
v 3.5 12 -2.5
v 3.5 13 -2.5
v 4.5 0 -2.5
v 4.5 1 -2.5
v 4.5 2 -2.5
v 4.5 3 -2.5
v 4.5 4 -2.5
v 4.5 13 -2.5
v 4.5 14 -2.5
v 5.5 1 -2.5
v 5.5 2 -2.5
v 5.5 3 -2.5
v 5.5 4 -2.5
v 5.5 12 -2.5
v 5.5 13 -2.5
v -3.5 2 -3.5
v -3.5 12 -3.5
v -3.5 13 -3.5
v -2.5 1 -3.5
v -2.5 2 -3.5
v -2.5 3 -3.5
v -2.5 11 -3.5
v -2.5 13 -3.5
v -2.5 14 -3.5
v -1.5 0 -3.5
v -1.5 1 -3.5
v -1.5 2 -3.5
v -1.5 3 -3.5
v -1.5 11 -3.5
v -1.5 12 -3.5
v -1.5 13 -3.5
v 2.5 0 -3.5
v 2.5 1 -3.5
v 2.5 2 -3.5
v 2.5 3 -3.5
v 2.5 11 -3.5
v 2.5 12 -3.5
v 2.5 13 -3.5
v 2.5 14 -3.5
v 3.5 1 -3.5
v 3.5 2 -3.5
v 3.5 3 -3.5
v 3.5 11 -3.5
v 3.5 12 -3.5
v 3.5 13 -3.5
v -2.5 3 -4.5
v -2.5 11 -4.5
v -1.5 1 -4.5
v -1.5 2 -4.5
v -1.5 3 -4.5
v -1.5 4 -4.5
v -1.5 10 -4.5
v -1.5 11 -4.5
v -1.5 12 -4.5
v -1.5 13 -4.5
v 2.5 1 -4.5
v 2.5 2 -4.5
v 2.5 3 -4.5
v 2.5 4 -4.5
v 2.5 10 -4.5
v 2.5 11 -4.5
v 2.5 12 -4.5
v 2.5 13 -4.5
v 3.5 3 -4.5
v 3.5 11 -4.5
v -1.5 3 -5.5
v -1.5 4 -5.5
v -1.5 10 -5.5
v -1.5 11 -5.5
v 2.5 3 -5.5
v 2.5 4 -5.5
v 2.5 10 -5.5
v 2.5 11 -5.5
v -1.5 0 2.5
v 2.5 0 2.5
v -3.5 0 1.5
v -1.5 0 1.5
v 2.5 0 1.5
v 4.5 0 1.5
v -3.5 0 -2.5
v -1.5 0 -2.5
v 2.5 0 -2.5
v 4.5 0 -2.5
v -1.5 0 -3.5
v 2.5 0 -3.5
v -1.5 1 3.5
v 2.5 1 3.5
v -2.5 1 2.5
v -1.5 1 2.5
v 2.5 1 2.5
v 3.5 1 2.5
v -4.5 1 1.5
v -3.5 1 1.5
v -2.5 1 1.5
v -1.5 1 1.5
v 2.5 1 1.5
v 3.5 1 1.5
v 4.5 1 1.5
v 5.5 1 1.5
v -4.5 1 -2.5
v -3.5 1 -2.5
v -2.5 1 -2.5
v -1.5 1 -2.5
v 2.5 1 -2.5
v 3.5 1 -2.5
v 4.5 1 -2.5
v 5.5 1 -2.5
v -2.5 1 -3.5
v -1.5 1 -3.5
v 2.5 1 -3.5
v 3.5 1 -3.5
v -1.5 1 -4.5
v 2.5 1 -4.5
v -3.5 2 2.5
v -2.5 2 2.5
v -3.5 2 1.5
v -2.5 2 1.5
v -3.5 2 -2.5
v -2.5 2 -2.5
v -3.5 2 -3.5
v -2.5 2 -3.5
v -1.5 3 4.5
v 2.5 3 4.5
v -2.5 3 3.5
v -1.5 3 3.5
v 2.5 3 3.5
v 3.5 3 3.5
v -2.5 3 2.5
v -1.5 3 2.5
v 2.5 3 2.5
v 3.5 3 2.5
v -2.5 3 -3.5
v -1.5 3 -3.5
v 2.5 3 -3.5
v 3.5 3 -3.5
v -2.5 3 -4.5
v -1.5 3 -4.5
v 2.5 3 -4.5
v 3.5 3 -4.5
v -1.5 3 -5.5
v 2.5 3 -5.5
v -1.5 12 2.5
v 2.5 12 2.5
v -2.5 12 1.5
v -1.5 12 1.5
v 2.5 12 1.5
v 3.5 12 1.5
v -3.5 12 0.5
v -2.5 12 0.5
v 3.5 12 0.5
v 4.5 12 0.5
v -3.5 12 -0.5
v 4.5 12 -0.5
v -3.5 12 -1.5
v -2.5 12 -1.5
v 3.5 12 -1.5
v 4.5 12 -1.5
v -2.5 12 -2.5
v -1.5 12 -2.5
v 2.5 12 -2.5
v 3.5 12 -2.5
v -1.5 12 -3.5
v 2.5 12 -3.5
v -1.5 2 2.5
v 2.5 2 2.5
v -2.5 2 1.5
v -1.5 2 1.5
v 2.5 2 1.5
v 3.5 2 1.5
v -3.5 2 0.5
v -2.5 2 0.5
v 3.5 2 0.5
v 4.5 2 0.5
v -3.5 2 -0.5
v 4.5 2 -0.5
v -3.5 2 -1.5
v -2.5 2 -1.5
v 3.5 2 -1.5
v 4.5 2 -1.5
v -2.5 2 -2.5
v -1.5 2 -2.5
v 2.5 2 -2.5
v 3.5 2 -2.5
v -1.5 2 -3.5
v 2.5 2 -3.5
v -1.5 11 4.5
v 2.5 11 4.5
v -2.5 11 3.5
v -1.5 11 3.5
v 2.5 11 3.5
v 3.5 11 3.5
v -2.5 11 2.5
v -1.5 11 2.5
v 2.5 11 2.5
v 3.5 11 2.5
v -2.5 11 -3.5
v -1.5 11 -3.5
v 2.5 11 -3.5
v 3.5 11 -3.5
v -2.5 11 -4.5
v -1.5 11 -4.5
v 2.5 11 -4.5
v 3.5 11 -4.5
v -1.5 11 -5.5
v 2.5 11 -5.5
v -1.5 13 3.5
v 2.5 13 3.5
v -3.5 13 2.5
v -2.5 13 2.5
v -1.5 13 2.5
v 2.5 13 2.5
v 3.5 13 2.5
v -4.5 13 1.5
v -3.5 13 1.5
v -2.5 13 1.5
v 2.5 13 1.5
v 3.5 13 1.5
v 4.5 13 1.5
v 5.5 13 1.5
v -4.5 13 -2.5
v -3.5 13 -2.5
v -2.5 13 -2.5
v 2.5 13 -2.5
v 3.5 13 -2.5
v 4.5 13 -2.5
v 5.5 13 -2.5
v -3.5 13 -3.5
v -2.5 13 -3.5
v -1.5 13 -3.5
v 2.5 13 -3.5
v 3.5 13 -3.5
v -1.5 13 -4.5
v 2.5 13 -4.5
v -2.5 14 2.5
v 2.5 14 2.5
v -3.5 14 1.5
v -2.5 14 1.5
v 2.5 14 1.5
v 4.5 14 1.5
v -3.5 14 -2.5
v -2.5 14 -2.5
v 2.5 14 -2.5
v 4.5 14 -2.5
v -2.5 14 -3.5
v 2.5 14 -3.5

# faces
f 3/4/1 2/4/1 1/4/1
f 4/4/1 2/4/1 3/4/1
f 5/4/1 2/4/1 4/4/1
f 6/4/1 2/4/1 5/4/1
f 7/2/1 4/2/1 3/2/1
f 8/1/1 5/1/1 4/1/1
f 8/2/1 4/2/1 7/2/1
f 9/2/1 6/2/1 5/2/1
f 9/1/1 5/1/1 8/1/1
f 10/2/1 6/2/1 9/2/1
f 11/4/1 8/4/1 7/4/1
f 11/4/1 9/4/1 8/4/1
f 11/4/1 10/4/1 9/4/1
f 12/4/1 10/4/1 11/4/1
f 13/4/1 10/4/1 12/4/1
f 14/4/1 10/4/1 13/4/1
f 15/2/1 12/2/1 11/2/1
f 16/1/1 13/1/1 12/1/1
f 16/2/1 12/2/1 15/2/1
f 17/2/1 14/2/1 13/2/1
f 17/1/1 13/1/1 16/1/1
f 18/2/1 14/2/1 17/2/1
f 19/4/1 16/4/1 15/4/1
f 19/4/1 17/4/1 16/4/1
f 19/4/1 18/4/1 17/4/1
f 20/4/1 18/4/1 19/4/1
f 23/2/1 22/2/1 21/2/1
f 24/2/1 22/2/1 23/2/1
f 29/2/1 26/2/1 25/2/1
f 30/2/1 28/2/1 27/2/1
f 31/2/1 29/2/1 25/2/1
f 32/2/1 28/2/1 30/2/1
f 33/2/1 31/2/1 25/2/1
f 34/2/1 31/2/1 33/2/1
f 35/2/1 28/2/1 32/2/1
f 36/2/1 28/2/1 35/2/1
f 37/4/1 34/4/1 33/4/1
f 38/4/1 34/4/1 37/4/1
f 39/4/1 36/4/1 35/4/1
f 40/4/1 36/4/1 39/4/1
f 41/2/1 39/2/1 38/2/1
f 42/2/1 39/2/1 41/2/1
f 47/3/1 44/3/1 43/3/1
f 48/3/1 44/3/1 47/3/1
f 49/3/1 46/3/1 45/3/1
f 50/3/1 46/3/1 49/3/1
f 55/1/1 52/1/1 51/1/1
f 56/1/1 52/1/1 55/1/1
f 57/1/1 54/1/1 53/1/1
f 58/1/1 54/1/1 57/1/1
f 63/1/1 60/1/1 59/1/1
f 64/1/1 60/1/1 63/1/1
f 65/1/1 62/1/1 61/1/1
f 66/1/1 62/1/1 65/1/1
f 72/1/1 68/1/1 67/1/1
f 73/1/1 68/1/1 72/1/1
f 74/1/1 70/1/1 69/1/1
f 75/1/1 70/1/1 74/1/1
f 77/3/1 72/3/1 71/3/1
f 78/3/1 72/3/1 77/3/1
f 79/3/1 76/3/1 75/3/1
f 80/3/1 76/3/1 79/3/1
f 82/1/1 78/1/1 77/1/1
f 83/1/1 78/1/1 82/1/1
f 84/1/1 80/1/1 79/1/1
f 85/1/1 80/1/1 84/1/1
f 87/2/1 82/2/1 81/2/1
f 88/2/1 82/2/1 87/2/1
f 89/2/1 86/2/1 85/2/1
f 90/2/1 86/2/1 89/2/1
f 91/1/1 88/1/1 87/1/1
f 92/1/1 88/1/1 91/1/1
f 93/1/1 90/1/1 89/1/1
f 94/1/1 90/1/1 93/1/1
f 95/2/1 92/2/1 91/2/1
f 96/2/1 92/2/1 95/2/1
f 99/2/1 94/2/1 93/2/1
f 100/2/1 94/2/1 99/2/1
f 101/1/1 97/1/1 96/1/1
f 102/1/1 97/1/1 101/1/1
f 103/1/1 99/1/1 98/1/1
f 104/1/1 99/1/1 103/1/1
f 105/4/1 102/4/1 101/4/1
f 106/4/1 102/4/1 105/4/1
f 107/4/1 104/4/1 103/4/1
f 108/4/1 104/4/1 107/4/1
f 113/2/1 110/2/1 109/2/1
f 114/2/1 110/2/1 113/2/1
f 115/2/1 110/2/1 114/2/1
f 116/2/1 110/2/1 115/2/1
f 117/2/1 112/2/1 111/2/1
f 118/2/1 112/2/1 117/2/1
f 123/2/1 120/2/1 119/2/1
f 124/2/1 120/2/1 123/2/1
f 125/2/1 122/2/1 121/2/1
f 126/2/1 122/2/1 125/2/1
f 130/2/1 128/2/1 127/2/1
f 131/1/1 129/1/1 128/1/1
f 131/2/1 128/2/1 130/2/1
f 132/1/1 129/1/1 131/1/1
f 133/4/1 131/4/1 130/4/1
f 133/4/1 132/4/1 131/4/1
f 134/4/1 132/4/1 133/4/1
f 135/4/1 132/4/1 134/4/1
f 136/2/1 134/2/1 133/2/1
f 137/1/1 135/1/1 134/1/1
f 137/2/1 134/2/1 136/2/1
f 138/1/1 135/1/1 137/1/1
f 139/2/2 140/2/2 142/2/2
f 140/1/2 141/1/2 143/1/2
f 142/2/2 140/2/2 143/2/2
f 143/1/2 141/1/2 144/1/2
f 142/4/2 143/4/2 145/4/2
f 143/4/2 144/4/2 145/4/2
f 145/4/2 144/4/2 146/4/2
f 146/4/2 144/4/2 147/4/2
f 145/2/2 146/2/2 148/2/2
f 146/1/2 147/1/2 149/1/2
f 148/2/2 146/2/2 149/2/2
f 149/1/2 147/1/2 150/1/2
f 151/2/2 152/2/2 155/2/2
f 155/2/2 152/2/2 156/2/2
f 153/2/2 154/2/2 157/2/2
f 157/2/2 154/2/2 158/2/2
f 159/2/2 160/2/2 163/2/2
f 163/2/2 160/2/2 164/2/2
f 164/2/2 160/2/2 165/2/2
f 165/2/2 160/2/2 166/2/2
f 161/2/2 162/2/2 167/2/2
f 167/2/2 162/2/2 168/2/2
f 169/1/2 170/1/2 174/1/2
f 174/1/2 170/1/2 175/1/2
f 171/1/2 172/1/2 176/1/2
f 176/1/2 172/1/2 177/1/2
f 173/3/2 174/3/2 179/3/2
f 179/3/2 174/3/2 180/3/2
f 177/3/2 178/3/2 181/3/2
f 181/3/2 178/3/2 182/3/2
f 179/1/2 180/1/2 184/1/2
f 184/1/2 180/1/2 185/1/2
f 181/1/2 182/1/2 186/1/2
f 186/1/2 182/1/2 187/1/2
f 183/2/2 184/2/2 189/2/2
f 189/2/2 184/2/2 190/2/2
f 187/2/2 188/2/2 191/2/2
f 191/2/2 188/2/2 192/2/2
f 189/1/2 190/1/2 193/1/2
f 193/1/2 190/1/2 194/1/2
f 191/1/2 192/1/2 195/1/2
f 195/1/2 192/1/2 196/1/2
f 193/2/2 194/2/2 197/2/2
f 197/2/2 194/2/2 198/2/2
f 195/2/2 196/2/2 201/2/2
f 201/2/2 196/2/2 202/2/2
f 198/1/2 199/1/2 203/1/2
f 203/1/2 199/1/2 204/1/2
f 200/1/2 201/1/2 205/1/2
f 205/1/2 201/1/2 206/1/2
f 203/4/2 204/4/2 207/4/2
f 207/4/2 204/4/2 208/4/2
f 205/4/2 206/4/2 211/4/2
f 211/4/2 206/4/2 212/4/2
f 208/1/2 209/1/2 213/1/2
f 213/1/2 209/1/2 214/1/2
f 210/1/2 211/1/2 215/1/2
f 215/1/2 211/1/2 216/1/2
f 217/3/2 218/3/2 221/3/2
f 221/3/2 218/3/2 222/3/2
f 219/3/2 220/3/2 223/3/2
f 223/3/2 220/3/2 224/3/2
f 221/2/2 222/2/2 226/2/2
f 223/2/2 224/2/2 227/2/2
f 225/1/2 226/1/2 229/1/2
f 226/2/2 222/2/2 230/2/2
f 229/1/2 226/1/2 230/1/2
f 223/2/2 227/2/2 231/2/2
f 227/1/2 228/1/2 231/1/2
f 231/1/2 228/1/2 232/1/2
f 230/2/2 222/2/2 233/2/2
f 233/2/2 222/2/2 234/2/2
f 223/2/2 231/2/2 235/2/2
f 235/2/2 231/2/2 236/2/2
f 233/4/2 234/4/2 237/4/2
f 237/4/2 234/4/2 238/4/2
f 235/4/2 236/4/2 239/4/2
f 239/4/2 236/4/2 240/4/2
f 241/2/2 242/2/2 243/2/2
f 243/2/2 242/2/2 244/2/2
f 245/2/2 246/2/2 247/2/2
f 247/2/2 246/2/2 248/2/2
f 249/4/2 250/4/2 251/4/2
f 251/4/2 250/4/2 252/4/2
f 252/4/2 250/4/2 253/4/2
f 253/4/2 250/4/2 254/4/2
f 251/2/2 252/2/2 255/2/2
f 252/1/2 253/1/2 256/1/2
f 255/2/2 252/2/2 256/2/2
f 253/2/2 254/2/2 257/2/2
f 256/1/2 253/1/2 257/1/2
f 257/2/2 254/2/2 258/2/2
f 255/4/2 256/4/2 259/4/2
f 256/4/2 257/4/2 259/4/2
f 257/4/2 258/4/2 259/4/2
f 259/4/2 258/4/2 260/4/2
f 260/4/2 258/4/2 261/4/2
f 261/4/2 258/4/2 262/4/2
f 259/2/2 260/2/2 263/2/2
f 260/1/2 261/1/2 264/1/2
f 263/2/2 260/2/2 264/2/2
f 261/2/2 262/2/2 265/2/2
f 264/1/2 261/1/2 265/1/2
f 265/2/2 262/2/2 266/2/2
f 263/4/2 264/4/2 267/4/2
f 264/4/2 265/4/2 267/4/2
f 265/4/2 266/4/2 267/4/2
f 267/4/2 266/4/2 268/4/2
f 273/2/3 270/2/3 269/2/3
f 274/1/3 271/1/3 270/1/3
f 274/2/3 270/2/3 273/2/3
f 275/2/3 272/2/3 271/2/3
f 275/1/3 271/1/3 274/1/3
f 276/2/3 272/2/3 275/2/3
f 281/1/3 278/1/3 277/1/3
f 282/1/3 278/1/3 281/1/3
f 283/1/3 278/1/3 282/1/3
f 284/1/3 278/1/3 283/1/3
f 287/3/3 280/3/3 279/3/3
f 288/1/3 281/1/3 280/1/3
f 288/3/3 280/3/3 287/3/3
f 289/1/3 281/1/3 288/1/3
f 292/1/3 285/1/3 284/1/3
f 293/4/3 286/4/3 285/4/3
f 293/1/3 285/1/3 292/1/3
f 294/4/3 286/4/3 293/4/3
f 295/1/3 292/1/3 291/1/3
f 295/1/3 291/1/3 290/1/3
f 295/1/3 290/1/3 289/1/3
f 296/1/3 292/1/3 295/1/3
f 301/2/3 298/2/3 297/2/3
f 302/2/3 298/2/3 301/2/3
f 303/2/3 298/2/3 302/2/3
f 304/4/3 299/4/3 298/4/3
f 307/3/3 301/3/3 300/3/3
f 308/2/3 302/2/3 301/2/3
f 308/3/3 301/3/3 307/3/3
f 309/2/3 302/2/3 308/2/3
f 310/2/3 298/2/3 303/2/3
f 311/4/3 304/4/3 298/4/3
f 311/2/3 298/2/3 310/2/3
f 312/1/3 305/1/3 304/1/3
f 312/4/3 304/4/3 311/4/3
f 313/1/3 307/1/3 306/1/3
f 314/1/3 307/1/3 313/1/3
f 319/1/3 305/1/3 312/1/3
f 320/1/3 305/1/3 319/1/3
f 321/3/3 315/3/3 314/3/3
f 322/2/3 316/2/3 315/2/3
f 322/3/3 315/3/3 321/3/3
f 323/2/3 316/2/3 322/2/3
f 324/2/3 318/2/3 317/2/3
f 325/4/3 319/4/3 318/4/3
f 325/2/3 318/2/3 324/2/3
f 326/4/3 319/4/3 325/4/3
f 334/4/3 328/4/3 327/4/3
f 335/2/3 329/2/3 328/2/3
f 335/4/3 328/4/3 334/4/3
f 336/4/3 330/4/3 329/4/3
f 336/2/3 329/2/3 335/2/3
f 337/2/3 331/2/3 330/2/3
f 337/4/3 330/4/3 336/4/3
f 338/4/3 332/4/3 331/4/3
f 338/2/3 331/2/3 337/2/3
f 339/4/3 332/4/3 338/4/3
f 341/2/3 334/2/3 333/2/3
f 341/3/3 335/3/3 334/3/3
f 342/3/3 335/3/3 341/3/3
f 343/2/3 340/2/3 339/2/3
f 344/2/3 340/2/3 343/2/3
f 345/2/3 341/2/3 333/2/3
f 346/2/3 341/2/3 345/2/3
f 351/2/3 348/2/3 347/2/3
f 354/2/3 350/2/3 349/2/3
f 355/2/3 351/2/3 347/2/3
f 356/3/3 352/3/3 351/3/3
f 356/2/3 351/2/3 355/2/3
f 357/2/3 353/2/3 352/2/3
f 357/3/3 352/3/3 356/3/3
f 358/2/3 353/2/3 357/2/3
f 359/2/3 353/2/3 358/2/3
f 360/4/3 354/4/3 353/4/3
f 360/2/3 350/2/3 354/2/3
f 361/2/3 350/2/3 360/2/3
f 362/4/3 357/4/3 356/4/3
f 363/2/3 358/2/3 357/2/3
f 363/4/3 357/4/3 362/4/3
f 364/4/3 359/4/3 358/4/3
f 364/2/3 358/2/3 363/2/3
f 365/2/3 353/2/3 359/2/3
f 365/4/3 359/4/3 364/4/3
f 366/4/3 360/4/3 353/4/3
f 366/2/3 353/2/3 365/2/3
f 367/4/3 360/4/3 366/4/3
f 372/2/3 369/2/3 368/2/3
f 372/2/3 371/2/3 370/2/3
f 372/2/3 370/2/3 369/2/3
f 373/2/3 371/2/3 372/2/3
f 376/2/3 375/2/3 374/2/3
f 377/2/3 375/2/3 376/2/3
f 378/2/3 375/2/3 377/2/3
f 379/2/3 375/2/3 378/2/3
f 382/2/3 381/2/3 380/2/3
f 383/2/3 381/2/3 382/2/3
f 386/2/3 385/2/3 384/2/3
f 387/2/3 385/2/3 386/2/3
f 390/1/3 389/1/3 388/1/3
f 391/1/3 389/1/3 390/1/3
f 392/1/4 393/1/4 396/1/4
f 393/2/4 394/2/4 397/2/4
f 396/1/4 393/1/4 397/1/4
f 394/1/4 395/1/4 398/1/4
f 397/2/4 394/2/4 398/2/4
f 398/1/4 395/1/4 399/1/4
f 400/2/4 401/2/4 402/2/4
f 402/2/4 401/2/4 403/2/4
f 404/2/4 405/2/4 406/2/4
f 406/2/4 405/2/4 407/2/4
f 408/2/4 409/2/4 412/2/4
f 410/2/4 411/2/4 412/2/4
f 409/2/4 410/2/4 412/2/4
f 412/2/4 411/2/4 413/2/4
f 414/2/4 415/2/4 416/2/4
f 416/2/4 415/2/4 417/2/4
f 417/2/4 415/2/4 418/2/4
f 418/2/4 415/2/4 419/2/4
f 420/4/4 421/4/4 427/4/4
f 421/2/4 422/2/4 428/2/4
f 427/4/4 421/4/4 428/4/4
f 422/4/4 423/4/4 429/4/4
f 428/2/4 422/2/4 429/2/4
f 423/2/4 424/2/4 430/2/4
f 429/4/4 423/4/4 430/4/4
f 424/4/4 425/4/4 431/4/4
f 430/2/4 424/2/4 431/2/4
f 431/4/4 425/4/4 432/4/4
f 426/2/4 427/2/4 434/2/4
f 427/3/4 428/3/4 434/3/4
f 434/3/4 428/3/4 435/3/4
f 432/2/4 433/2/4 436/2/4
f 436/2/4 433/2/4 437/2/4
f 426/2/4 434/2/4 438/2/4
f 438/2/4 434/2/4 439/2/4
f 440/2/4 441/2/4 444/2/4
f 442/2/4 443/2/4 447/2/4
f 440/2/4 444/2/4 448/2/4
f 444/3/4 445/3/4 449/3/4
f 448/2/4 444/2/4 449/2/4
f 445/2/4 446/2/4 450/2/4
f 449/3/4 445/3/4 450/3/4
f 450/2/4 446/2/4 451/2/4
f 451/2/4 446/2/4 452/2/4
f 446/4/4 447/4/4 453/4/4
f 447/2/4 443/2/4 453/2/4
f 453/2/4 443/2/4 454/2/4
f 449/4/4 450/4/4 455/4/4
f 450/2/4 451/2/4 456/2/4
f 455/4/4 450/4/4 456/4/4
f 451/4/4 452/4/4 457/4/4
f 456/2/4 451/2/4 457/2/4
f 452/2/4 446/2/4 458/2/4
f 457/4/4 452/4/4 458/4/4
f 446/4/4 453/4/4 459/4/4
f 458/2/4 446/2/4 459/2/4
f 459/4/4 453/4/4 460/4/4
f 461/2/4 462/2/4 465/2/4
f 465/2/4 462/2/4 466/2/4
f 466/2/4 462/2/4 467/2/4
f 462/4/4 463/4/4 468/4/4
f 464/3/4 465/3/4 471/3/4
f 465/2/4 466/2/4 472/2/4
f 471/3/4 465/3/4 472/3/4
f 472/2/4 466/2/4 473/2/4
f 467/2/4 462/2/4 474/2/4
f 462/4/4 468/4/4 475/4/4
f 474/2/4 462/2/4 475/2/4
f 468/1/4 469/1/4 476/1/4
f 475/4/4 468/4/4 476/4/4
f 470/1/4 471/1/4 477/1/4
f 477/1/4 471/1/4 478/1/4
f 476/1/4 469/1/4 483/1/4
f 483/1/4 469/1/4 484/1/4
f 478/3/4 479/3/4 485/3/4
f 479/2/4 480/2/4 486/2/4
f 485/3/4 479/3/4 486/3/4
f 486/2/4 480/2/4 487/2/4
f 481/2/4 482/2/4 488/2/4
f 482/4/4 483/4/4 489/4/4
f 488/2/4 482/2/4 489/2/4
f 489/4/4 483/4/4 490/4/4
f 491/1/4 492/1/4 495/1/4
f 495/1/4 492/1/4 496/1/4
f 496/1/4 492/1/4 497/1/4
f 497/1/4 492/1/4 498/1/4
f 493/3/4 494/3/4 501/3/4
f 494/1/4 495/1/4 502/1/4
f 501/3/4 494/3/4 502/3/4
f 502/1/4 495/1/4 503/1/4
f 498/1/4 499/1/4 506/1/4
f 499/4/4 500/4/4 507/4/4
f 506/1/4 499/1/4 507/1/4
f 507/4/4 500/4/4 508/4/4
f 505/1/4 506/1/4 509/1/4
f 504/1/4 505/1/4 509/1/4
f 503/1/4 504/1/4 509/1/4
f 509/1/4 506/1/4 510/1/4
f 511/2/4 512/2/4 515/2/4
f 512/1/4 513/1/4 516/1/4
f 515/2/4 512/2/4 516/2/4
f 513/2/4 514/2/4 517/2/4
f 516/1/4 513/1/4 517/1/4
f 517/2/4 514/2/4 518/2/4
f 522/1/5 520/1/5 519/1/5
f 523/1/5 520/1/5 522/1/5
f 525/2/5 522/2/5 521/2/5
f 525/2/5 524/2/5 523/2/5
f 525/2/5 523/2/5 522/2/5
f 526/2/5 524/2/5 525/2/5
f 527/2/5 524/2/5 526/2/5
f 528/2/5 524/2/5 527/2/5
f 529/1/5 527/1/5 526/1/5
f 530/1/5 527/1/5 529/1/5
f 534/3/5 532/3/5 531/3/5
f 535/3/5 532/3/5 534/3/5
f 539/3/5 534/3/5 533/3/5
f 540/3/5 534/3/5 539/3/5
f 541/3/5 536/3/5 535/3/5
f 542/3/5 536/3/5 541/3/5
f 545/4/5 538/4/5 537/4/5
f 546/4/5 538/4/5 545/4/5
f 551/4/5 544/4/5 543/4/5
f 552/4/5 544/4/5 551/4/5
f 553/3/5 548/3/5 547/3/5
f 554/3/5 548/3/5 553/3/5
f 555/3/5 550/3/5 549/3/5
f 556/3/5 550/3/5 555/3/5
f 557/3/5 555/3/5 554/3/5
f 558/3/5 555/3/5 557/3/5
f 561/2/5 560/2/5 559/2/5
f 562/2/5 560/2/5 561/2/5
f 565/2/5 564/2/5 563/2/5
f 566/2/5 564/2/5 565/2/5
f 570/2/5 568/2/5 567/2/5
f 571/2/5 568/2/5 570/2/5
f 573/1/5 570/1/5 569/1/5
f 574/1/5 570/1/5 573/1/5
f 575/1/5 572/1/5 571/1/5
f 576/1/5 572/1/5 575/1/5
f 581/1/5 578/1/5 577/1/5
f 582/1/5 578/1/5 581/1/5
f 583/1/5 580/1/5 579/1/5
f 584/1/5 580/1/5 583/1/5
f 585/2/5 583/2/5 582/2/5
f 586/2/5 583/2/5 585/2/5
f 590/4/5 588/4/5 587/4/5
f 591/4/5 588/4/5 590/4/5
f 594/4/5 590/4/5 589/4/5
f 594/4/5 592/4/5 591/4/5
f 594/4/5 591/4/5 590/4/5
f 595/4/5 592/4/5 594/4/5
f 597/4/5 594/4/5 593/4/5
f 597/4/5 596/4/5 595/4/5
f 597/4/5 595/4/5 594/4/5
f 598/4/5 596/4/5 597/4/5
f 599/4/5 598/4/5 597/4/5
f 600/4/5 598/4/5 599/4/5
f 601/4/5 598/4/5 600/4/5
f 602/4/5 598/4/5 601/4/5
f 603/4/5 601/4/5 600/4/5
f 604/4/5 601/4/5 603/4/5
f 605/4/5 601/4/5 604/4/5
f 606/4/5 601/4/5 605/4/5
f 607/4/5 605/4/5 604/4/5
f 608/4/5 605/4/5 607/4/5
f 609/3/6 610/3/6 612/3/6
f 612/3/6 610/3/6 613/3/6
f 611/3/6 612/3/6 616/3/6
f 613/3/6 614/3/6 616/3/6
f 612/3/6 613/3/6 616/3/6
f 616/3/6 614/3/6 617/3/6
f 615/3/6 616/3/6 619/3/6
f 617/3/6 618/3/6 619/3/6
f 616/3/6 617/3/6 619/3/6
f 619/3/6 618/3/6 620/3/6
f 619/3/6 620/3/6 621/3/6
f 621/3/6 620/3/6 622/3/6
f 622/3/6 620/3/6 623/3/6
f 623/3/6 620/3/6 624/3/6
f 622/3/6 623/3/6 625/3/6
f 625/3/6 623/3/6 626/3/6
f 626/3/6 623/3/6 627/3/6
f 627/3/6 623/3/6 628/3/6
f 626/3/6 627/3/6 629/3/6
f 629/3/6 627/3/6 630/3/6
f 631/2/6 632/2/6 634/2/6
f 634/2/6 632/2/6 635/2/6
f 633/1/6 634/1/6 637/1/6
f 637/1/6 634/1/6 638/1/6
f 635/1/6 636/1/6 639/1/6
f 639/1/6 636/1/6 640/1/6
f 641/1/6 642/1/6 645/1/6
f 645/1/6 642/1/6 646/1/6
f 643/1/6 644/1/6 647/1/6
f 647/1/6 644/1/6 648/1/6
f 646/2/6 647/2/6 649/2/6
f 649/2/6 647/2/6 650/2/6
f 651/4/6 652/4/6 655/4/6
f 655/4/6 652/4/6 656/4/6
f 653/4/6 654/4/6 659/4/6
f 659/4/6 654/4/6 660/4/6
f 656/4/6 657/4/6 661/4/6
f 661/4/6 657/4/6 662/4/6
f 658/4/6 659/4/6 665/4/6
f 665/4/6 659/4/6 666/4/6
f 663/4/6 664/4/6 670/4/6
f 670/4/6 664/4/6 671/4/6
f 666/4/6 667/4/6 672/4/6
f 672/4/6 667/4/6 673/4/6
f 668/4/6 669/4/6 675/4/6
f 675/4/6 669/4/6 676/4/6
f 674/4/6 675/4/6 677/4/6
f 677/4/6 675/4/6 678/4/6
f 679/1/6 680/1/6 682/1/6
f 682/1/6 680/1/6 683/1/6
f 681/2/6 682/2/6 685/2/6
f 683/2/6 684/2/6 685/2/6
f 682/2/6 683/2/6 685/2/6
f 685/2/6 684/2/6 686/2/6
f 686/2/6 684/2/6 687/2/6
f 687/2/6 684/2/6 688/2/6
f 686/1/6 687/1/6 689/1/6
f 689/1/6 687/1/6 690/1/6
