# This file uses centimeters as units for non-parametric coordinates.

mtllib Ladder 2 subdivisions.mtl
g default
v 0.105739 20.854433 10.437387
v 0.284339 20.854433 10.437387
v 0.105739 21.918399 10.437387
v 0.284339 21.918399 10.437387
v 0.105739 21.918399 9.437387
v 0.284339 21.918399 9.437387
v 0.105739 20.854433 9.437387
v 0.284339 20.854433 9.437387
v 0.105739 21.766405 10.437387
v 0.105739 21.766405 9.437387
v 0.284339 21.766405 9.437387
v 0.284339 21.766405 10.437387
v 0.105739 21.614409 10.437387
v 0.105739 21.614409 9.437387
v 0.284339 21.614409 9.437387
v 0.284339 21.614409 10.437387
v 0.105739 21.249105 10.437387
v 0.105739 21.249105 9.437387
v 0.284339 21.249105 9.437387
v 0.284339 21.249105 10.437387
v 0.105739 21.097109 10.437387
v 0.105739 21.097109 9.437387
v 0.284339 21.097109 9.437387
v 0.284339 21.097109 10.437387
v -0.658125 20.854433 10.437387
v -0.479524 20.854433 10.437387
v -0.658125 21.918399 10.437387
v -0.479524 21.918399 10.437387
v -0.658125 21.918399 9.437387
v -0.479524 21.918399 9.437387
v -0.658125 20.854433 9.437387
v -0.479524 20.854433 9.437387
v -0.479524 21.766405 10.437387
v -0.658125 21.766405 10.437387
v -0.658125 21.766405 9.437387
v -0.479524 21.766405 9.437387
v -0.479524 21.614409 10.437387
v -0.658125 21.614409 10.437387
v -0.658125 21.614409 9.437387
v -0.479524 21.614409 9.437387
v -0.479524 21.249105 10.437387
v -0.658125 21.249105 10.437387
v -0.658125 21.249105 9.437387
v -0.479524 21.249105 9.437387
v -0.479524 21.097109 10.437387
v -0.658125 21.097109 10.437387
v -0.658125 21.097109 9.437387
v -0.479524 21.097109 9.437387
v -0.658125 21.918399 9.580244
v -0.658125 21.766405 9.580244
v -0.658125 21.614409 9.580244
v -0.658125 21.249105 9.580244
v -0.658125 21.097109 9.580244
v -0.658125 20.854433 9.580244
v -0.479524 20.854433 9.580244
v -0.479524 21.097109 9.580244
v -0.479524 21.249105 9.580244
v -0.479524 21.614409 9.580244
v -0.479524 21.766405 9.580244
v -0.479524 21.918399 9.580244
v -0.658125 21.918400 10.294531
v -0.658125 21.766405 10.294531
v -0.658125 21.614409 10.294531
v -0.658125 21.249105 10.294531
v -0.658125 21.097109 10.294531
v -0.658125 20.854433 10.294531
v -0.479524 20.854433 10.294531
v -0.479524 21.097109 10.294531
v -0.479524 21.249105 10.294531
v -0.479524 21.614409 10.294531
v -0.479524 21.766405 10.294531
v -0.479524 21.918400 10.294531
v 0.105739 21.918399 9.580244
v 0.105739 21.766405 9.580244
v 0.105739 21.614409 9.580244
v 0.105739 21.249105 9.580244
v 0.105739 21.097109 9.580244
v 0.105739 20.854433 9.580244
v 0.284339 20.854433 9.580244
v 0.284339 21.097109 9.580244
v 0.284339 21.249105 9.580244
v 0.284339 21.614409 9.580244
v 0.284339 21.766405 9.580244
v 0.284339 21.918399 9.580244
v 0.105739 21.918400 10.294531
v 0.105739 21.766405 10.294531
v 0.105739 21.614409 10.294531
v 0.105739 21.249105 10.294531
v 0.105739 21.097109 10.294531
v 0.105739 20.854433 10.294531
v 0.284339 20.854433 10.294531
v 0.284339 21.097109 10.294531
v 0.284339 21.249105 10.294531
v 0.284339 21.614409 10.294531
v 0.284339 21.766405 10.294531
v 0.284339 21.918400 10.294531
vt 0.897829 0.002686
vt 0.394226 0.251486
vt 0.897829 0.251486
vt 0.643026 0.251486
vt 0.001792 0.500169
vt 0.044872 0.500169
vt 0.044872 0.558704
vt 0.001792 0.558704
vt 0.001792 0.756803
vt 0.044872 0.756803
vt 0.394226 0.002686
vt 0.643026 0.002686
vt 0.649029 0.002686
vt 0.649029 0.251486
vt 0.897829 0.215943
vt 0.649029 0.215943
vt 0.044872 0.791261
vt 0.001792 0.791261
vt 0.607483 0.002686
vt 0.607483 0.251486
vt 0.897829 0.180400
vt 0.649029 0.180400
vt 0.001792 0.200429
vt 0.044872 0.200429
vt 0.571940 0.002686
vt 0.571940 0.251486
vt 0.897829 0.073772
vt 0.649029 0.073772
vt 0.044872 0.258964
vt 0.001792 0.258964
vt 0.465312 0.002686
vt 0.465312 0.251486
vt 0.897829 0.038229
vt 0.649029 0.038229
vt 0.001792 0.465711
vt 0.044872 0.465711
vt 0.429769 0.002686
vt 0.429769 0.251486
vt 0.897829 0.257490
vt 0.394226 0.257490
vt 0.394226 0.293033
vt 0.897829 0.293033
vt 0.897829 0.506290
vt 0.394226 0.506290
vt 0.001792 0.002329
vt 0.044872 0.998008
vt 0.044872 0.038991
vt 0.001792 0.038991
vt 0.001792 0.720141
vt 0.044872 0.720141
vt 0.044872 0.075653
vt 0.001792 0.075653
vt 0.643026 0.257490
vt 0.643026 0.293033
vt 0.649029 0.257490
vt 0.649029 0.293033
vt 0.897829 0.470747
vt 0.394226 0.470747
vt 0.649029 0.470747
vt 0.649029 0.506290
vt 0.001792 0.683479
vt 0.044872 0.683479
vt 0.643026 0.470747
vt 0.643026 0.506290
vt 0.897829 0.435204
vt 0.394226 0.435204
vt 0.649029 0.435204
vt 0.044872 0.163767
vt 0.001792 0.163767
vt 0.643026 0.435204
vt 0.897829 0.328575
vt 0.394226 0.328575
vt 0.649029 0.328575
vt 0.001792 0.595366
vt 0.044872 0.595366
vt 0.643026 0.328575
vt 0.684572 0.506290
vt 0.052009 0.500168
vt 0.684572 0.470747
vt 0.684572 0.435204
vt 0.684572 0.328575
vt 0.684572 0.293033
vt 0.684572 0.257490
vt 0.095088 0.500168
vt 0.095088 0.558705
vt 0.607483 0.257490
vt 0.607483 0.293033
vt 0.607483 0.328575
vt 0.607483 0.435204
vt 0.607483 0.470747
vt 0.052009 0.558705
vt 0.607483 0.506290
vt 0.862286 0.506290
vt 0.052009 0.756817
vt 0.862286 0.470747
vt 0.862286 0.435204
vt 0.862286 0.328575
vt 0.862286 0.293033
vt 0.862286 0.257490
vt 0.095088 0.756817
vt 0.095088 0.791254
vt 0.429769 0.257490
vt 0.429769 0.293033
vt 0.429769 0.328575
vt 0.429769 0.435204
vt 0.429769 0.470747
vt 0.052009 0.791254
vt 0.429769 0.506290
vt 0.684572 0.251486
vt 0.052009 0.200429
vt 0.684572 0.215943
vt 0.684572 0.180400
vt 0.684572 0.073772
vt 0.684572 0.038229
vt 0.684572 0.002686
vt 0.095088 0.200429
vt 0.095088 0.258964
vt 0.394226 0.038229
vt 0.429769 0.038229
vt 0.465312 0.038229
vt 0.571940 0.038229
vt 0.607483 0.038229
vt 0.052009 0.258964
vt 0.643026 0.038229
vt 0.862286 0.251486
vt 0.052009 0.465711
vt 0.862286 0.215943
vt 0.862286 0.180400
vt 0.862286 0.073772
vt 0.862286 0.038229
vt 0.862286 0.002686
vt 0.095088 0.465711
vt 0.052009 0.720127
vt 0.394226 0.215943
vt 0.429769 0.215943
vt 0.465312 0.215943
vt 0.571940 0.215943
vt 0.607483 0.215943
vt 0.095088 0.720127
vt 0.643026 0.215943
vt 0.052009 0.002329
vt 0.095088 0.998007
vt 0.095088 0.038992
vt 0.052009 0.038992
vt 0.052009 0.683486
vt 0.095088 0.683486
vt 0.095088 0.075653
vt 0.052009 0.075653
vt 0.052009 0.595364
vt 0.095088 0.595364
vt 0.095088 0.163767
vt 0.052009 0.163767
vt 0.095088 0.293421
vt 0.052009 0.293421
vt 0.052009 0.963551
vt 0.095088 0.963551
vt 0.044872 0.293421
vt 0.001792 0.293421
vt 0.001792 0.963550
vt 0.044872 0.963550
vt 0.100366 0.210944
vt 0.100366 0.038654
vt 0.241534 0.038654
vt 0.241534 0.210944
vt 0.100366 0.419895
vt 0.241534 0.001992
vt 0.100366 0.247606
vt 0.241534 0.247606
vt 0.247296 0.212307
vt 0.247296 0.040018
vt 0.388464 0.040018
vt 0.388464 0.212307
vt 0.247296 0.421259
vt 0.388464 0.003356
vt 0.247296 0.248969
vt 0.388464 0.248969
vt 0.052009 0.998007
vt 0.095088 0.002329
vt 0.001792 0.998008
vt 0.044872 0.002329
vt 0.247296 0.003356
vt 0.388464 0.421259
vt 0.100366 0.001992
vt 0.241534 0.419895
vn 0.000000 0.000000 1.000000
vn 0.000000 0.000000 1.000000
vn 0.000000 0.000000 1.000000
vn 0.000000 0.000000 1.000000
vn 0.000000 1.000000 0.000005
vn 0.000000 1.000000 0.000005
vn 0.000000 1.000000 -0.000000
vn 0.000000 1.000000 -0.000000
vn 0.000000 0.000000 -1.000000
vn 0.000000 0.000000 -1.000000
vn 0.000000 0.000000 -1.000000
vn 0.000000 0.000000 -1.000000
vn 0.000000 -1.000000 0.000000
vn 0.000000 -1.000000 0.000000
vn 0.000000 -1.000000 0.000000
vn 0.000000 -1.000000 0.000000
vn 1.000000 0.000000 0.000000
vn 1.000000 0.000000 0.000000
vn 1.000000 0.000000 0.000000
vn 1.000000 0.000000 0.000000
vn -1.000000 0.000000 0.000000
vn -1.000000 0.000000 0.000000
vn -1.000000 0.000000 0.000000
vn -1.000000 0.000000 0.000000
vn -1.000000 0.000000 0.000000
vn -1.000000 0.000000 0.000000
vn -1.000000 0.000000 0.000000
vn -1.000000 0.000000 0.000000
vn 0.000000 0.000000 -1.000000
vn 0.000000 0.000000 -1.000000
vn 0.000000 0.000000 -1.000000
vn 0.000000 0.000000 -1.000000
vn 1.000000 0.000000 0.000000
vn 1.000000 0.000000 0.000000
vn 1.000000 0.000000 0.000000
vn 1.000000 0.000000 0.000000
vn 0.000000 0.000000 1.000000
vn 0.000000 0.000000 1.000000
vn 0.000000 0.000000 1.000000
vn 0.000000 0.000000 1.000000
vn -1.000000 0.000000 0.000000
vn -1.000000 0.000000 0.000000
vn 0.000000 0.000000 -1.000000
vn 0.000000 0.000000 -1.000000
vn 1.000000 0.000000 0.000000
vn 1.000000 0.000000 0.000000
vn 0.000000 0.000000 1.000000
vn 0.000000 0.000000 1.000000
vn -1.000000 0.000000 0.000000
vn -1.000000 0.000000 0.000000
vn 0.000000 0.000000 -1.000000
vn 0.000000 0.000000 -1.000000
vn 1.000000 0.000000 0.000000
vn 1.000000 0.000000 0.000000
vn 0.000000 0.000000 1.000000
vn 0.000000 0.000000 1.000000
vn 0.000000 0.000000 1.000000
vn 0.000000 0.000000 1.000000
vn 0.000000 0.000000 1.000000
vn 0.000000 0.000000 1.000000
vn 0.000000 1.000000 0.000005
vn 0.000000 1.000000 0.000005
vn 0.000000 1.000000 -0.000000
vn 0.000000 1.000000 -0.000000
vn 0.000000 0.000000 -1.000000
vn 0.000000 0.000000 -1.000000
vn 0.000000 0.000000 -1.000000
vn 0.000000 0.000000 -1.000000
vn 0.000000 -1.000000 0.000000
vn 0.000000 -1.000000 0.000000
vn 0.000000 -1.000000 0.000000
vn 0.000000 -1.000000 0.000000
vn 1.000000 0.000000 0.000000
vn 1.000000 0.000000 0.000000
vn 1.000000 0.000000 0.000000
vn 1.000000 0.000000 0.000000
vn -1.000000 0.000000 0.000000
vn -1.000000 0.000000 0.000000
vn -1.000000 0.000000 0.000000
vn -1.000000 0.000000 0.000000
vn 0.000000 0.000000 1.000000
vn 0.000000 0.000000 1.000000
vn 0.000000 0.000000 1.000000
vn 0.000000 0.000000 1.000000
vn -1.000000 0.000000 0.000000
vn -1.000000 0.000000 0.000000
vn -1.000000 0.000000 0.000000
vn -1.000000 0.000000 0.000000
vn 0.000000 0.000000 -1.000000
vn 0.000000 0.000000 -1.000000
vn 0.000000 0.000000 -1.000000
vn 0.000000 0.000000 -1.000000
vn 1.000000 0.000000 0.000000
vn 1.000000 0.000000 0.000000
vn 1.000000 0.000000 0.000000
vn 1.000000 0.000000 0.000000
vn 0.000000 0.000000 1.000000
vn 0.000000 0.000000 1.000000
vn -1.000000 0.000000 0.000000
vn -1.000000 0.000000 0.000000
vn 0.000000 0.000000 -1.000000
vn 0.000000 0.000000 -1.000000
vn 1.000000 0.000000 0.000000
vn 1.000000 0.000000 0.000000
vn 0.000000 0.000000 1.000000
vn 0.000000 0.000000 1.000000
vn -1.000000 0.000000 0.000000
vn -1.000000 0.000000 0.000000
vn 0.000000 0.000000 -1.000000
vn 0.000000 0.000000 -1.000000
vn 1.000000 0.000000 0.000000
vn 1.000000 0.000000 0.000000
vn -1.000000 0.000000 0.000000
vn -1.000000 0.000000 0.000000
vn -1.000000 0.000000 0.000000
vn -1.000000 0.000000 0.000000
vn -1.000000 0.000000 0.000000
vn -1.000000 0.000000 0.000000
vn -1.000000 0.000000 0.000000
vn -1.000000 0.000000 0.000000
vn -1.000000 0.000000 0.000000
vn -1.000000 0.000000 0.000000
vn -1.000000 0.000000 0.000000
vn -1.000000 0.000000 0.000000
vn 0.000000 -1.000000 0.000000
vn 0.000000 -1.000000 0.000000
vn 0.000000 -1.000000 0.000000
vn 0.000000 -1.000000 0.000000
vn 1.000000 0.000000 0.000000
vn 1.000000 0.000000 0.000000
vn 1.000000 0.000000 0.000000
vn 1.000000 0.000000 0.000000
vn 1.000000 0.000000 0.000000
vn 1.000000 0.000000 0.000000
vn 1.000000 0.000000 0.000000
vn 1.000000 0.000000 0.000000
vn 1.000000 0.000000 0.000000
vn 1.000000 0.000000 0.000000
vn 1.000000 0.000000 0.000000
vn 1.000000 0.000000 0.000000
vn 0.000000 1.000000 -0.000001
vn 0.000000 1.000000 -0.000001
vn 0.000000 1.000000 0.000000
vn 0.000000 1.000000 0.000000
vn -1.000000 0.000000 0.000000
vn -1.000000 0.000000 0.000000
vn -1.000000 0.000000 0.000000
vn -1.000000 0.000000 0.000000
vn -1.000000 0.000000 0.000000
vn -1.000000 0.000000 0.000000
vn -1.000000 0.000000 0.000000
vn -1.000000 0.000000 0.000000
vn -1.000000 0.000000 0.000000
vn -1.000000 0.000000 0.000000
vn -1.000000 0.000000 0.000000
vn -1.000000 0.000000 0.000000
vn 0.000000 -1.000000 0.000000
vn 0.000000 -1.000000 0.000000
vn 0.000000 -1.000000 0.000000
vn 0.000000 -1.000000 0.000000
vn 1.000000 0.000000 0.000000
vn 1.000000 0.000000 0.000000
vn 1.000000 0.000000 0.000000
vn 1.000000 0.000000 0.000000
vn 1.000000 0.000000 0.000000
vn 1.000000 0.000000 0.000000
vn 1.000000 0.000000 0.000000
vn 1.000000 0.000000 0.000000
vn 1.000000 0.000000 0.000000
vn 1.000000 0.000000 0.000000
vn 1.000000 0.000000 0.000000
vn 1.000000 0.000000 0.000000
vn 0.000000 1.000000 -0.000001
vn 0.000000 1.000000 -0.000001
vn 0.000000 1.000000 0.000000
vn 0.000000 1.000000 0.000000
vn 0.000000 -1.000000 0.000000
vn 0.000000 -1.000000 0.000000
vn 0.000000 -1.000000 0.000000
vn 0.000000 -1.000000 0.000000
vn 0.000000 0.000000 -1.000000
vn 0.000000 0.000000 -1.000000
vn 0.000000 0.000000 -1.000000
vn 0.000000 0.000000 -1.000000
vn 0.000000 1.000000 0.000000
vn 0.000000 1.000000 0.000000
vn 0.000000 1.000000 0.000000
vn 0.000000 1.000000 0.000000
vn 0.000000 0.000000 1.000000
vn 0.000000 0.000000 1.000000
vn 0.000000 0.000000 1.000000
vn 0.000000 0.000000 1.000000
vn 0.000000 -1.000000 0.000000
vn 0.000000 -1.000000 0.000000
vn 0.000000 -1.000000 0.000000
vn 0.000000 -1.000000 0.000000
vn 0.000000 0.000000 -1.000000
vn 0.000000 0.000000 -1.000000
vn 0.000000 0.000000 -1.000000
vn 0.000000 0.000000 -1.000000
vn 0.000000 1.000000 0.000000
vn 0.000000 1.000000 0.000000
vn 0.000000 1.000000 0.000000
vn 0.000000 1.000000 0.000000
vn 0.000000 0.000000 1.000000
vn 0.000000 0.000000 1.000000
vn 0.000000 0.000000 1.000000
vn 0.000000 0.000000 1.000000
s 1
g pCube116
usemtl initialShadingGroup
f 1/5/1 2/6/2 24/7/3 21/8/4
s 2
f 3/9/5 4/10/6 96/17/7 85/18/8
s 3
f 22/23/9 23/24/10 8/29/11 7/30/12
s 4
f 90/35/13 91/36/14 2/6/15 1/5/16
s 5
f 2/2/17 91/134/18 92/135/19 24/38/20
s 6
f 90/131/21 1/1/22 21/33/23 89/130/24
f 86/127/25 9/15/26 3/3/27 85/125/28
s 3
f 5/45/29 6/180/30 11/47/31 10/48/32
s 5
f 12/20/33 95/138/34 96/140/35 4/4/36
s 1
f 9/49/37 12/50/38 4/10/39 3/9/40
s 6
f 87/128/41 13/21/42 9/15/26 86/127/25
s 3
f 10/48/32 11/47/31 15/51/43 14/52/44
s 5
f 16/26/45 94/137/46 95/138/34 12/20/33
s 1
f 13/61/47 16/62/48 12/50/38 9/49/37
s 6
f 88/129/49 17/27/50 13/21/42 87/128/41
s 3
f 19/68/51 18/69/52 14/52/44 15/51/43
s 5
f 16/26/45 20/32/53 93/136/54 94/137/46
s 1
f 13/61/47 17/74/55 20/75/56 16/62/48
s 6
f 89/130/24 21/33/23 17/27/50 88/129/49
s 3
f 18/69/52 19/68/51 23/24/10 22/23/9
s 5
f 24/38/20 92/135/19 93/136/54 20/32/53
s 1
f 21/8/4 24/7/3 20/75/56 17/74/55
s 11
f 25/78/57 26/84/58 45/85/59 46/91/60
s 12
f 27/94/61 28/100/62 72/101/63 61/107/64
s 13
f 47/110/65 48/116/66 32/117/67 31/123/68
s 14
f 66/126/69 67/132/70 26/84/71 25/78/72
s 15
f 26/40/73 67/102/74 68/103/75 45/41/76
s 16
f 66/99/77 25/39/78 46/42/79 65/98/80
s 11
f 34/133/81 33/139/82 28/100/83 27/94/84
s 16
f 62/95/85 34/57/86 27/43/87 61/93/88
s 13
f 29/141/89 30/178/90 36/143/91 35/144/92
s 15
f 33/58/93 71/106/94 72/108/95 28/44/96
s 11
f 38/145/97 37/146/98 33/139/82 34/133/81
s 16
f 63/96/99 38/65/100 34/57/86 62/95/85
s 13
f 35/144/92 36/143/91 40/147/101 39/148/102
s 15
f 37/66/103 70/105/104 71/106/94 33/58/93
s 11
f 38/145/97 42/149/105 41/150/106 37/146/98
s 16
f 64/97/107 42/71/108 38/65/100 63/96/99
s 13
f 44/151/109 43/152/110 39/148/102 40/147/101
s 15
f 37/66/103 41/72/111 69/104/112 70/105/104
s 11
f 46/91/60 45/85/59 41/150/106 42/149/105
s 16
f 65/98/80 46/42/79 42/71/108 64/97/107
s 13
f 43/152/110 44/151/109 48/116/66 47/110/65
s 15
f 45/41/76 68/103/75 69/104/112 41/72/111
s 16
f 35/59/113 50/79/114 49/77/115 29/60/116
f 39/67/117 51/80/118 50/79/114 35/59/113
f 43/73/119 52/81/120 51/80/118 39/67/117
f 47/56/121 53/82/122 52/81/120 43/73/119
f 31/55/123 54/83/124 53/82/122 47/56/121
s 14
f 31/123/125 32/117/126 55/153/127 54/154/128
s 15
f 56/87/129 55/86/130 32/53/131 48/54/132
f 57/88/133 56/87/129 48/54/132 44/76/134
f 58/89/135 57/88/133 44/76/134 40/70/136
f 59/90/137 58/89/135 40/70/136 36/63/138
f 60/92/139 59/90/137 36/63/138 30/64/140
s 12
f 49/155/141 60/156/142 30/142/143 29/177/144
s 16
f 50/79/114 62/95/85 61/93/88 49/77/115
f 51/80/118 63/96/99 62/95/85 50/79/114
f 52/81/120 64/97/107 63/96/99 51/80/118
f 53/82/122 65/98/80 64/97/107 52/81/120
f 66/99/77 65/98/80 53/82/122 54/83/124
s 14
f 67/132/70 66/126/69 54/154/128 55/153/127
s 15
f 68/103/75 67/102/74 55/86/130 56/87/129
f 70/105/104 69/104/112 57/88/133 58/89/135
f 60/92/139 72/108/95 71/106/94 59/90/137
s 12
f 49/155/141 61/107/64 72/101/63 60/156/142
s 6
f 10/16/145 74/111/146 73/109/147 5/14/148
f 14/22/149 75/112/150 74/111/146 10/16/145
f 18/28/151 76/113/152 75/112/150 14/22/149
f 22/34/153 77/114/154 76/113/152 18/28/151
f 7/13/155 78/115/156 77/114/154 22/34/153
s 4
f 7/30/157 8/29/158 79/157/159 78/158/160
s 5
f 80/119/161 79/118/162 8/11/163 23/37/164
f 81/120/165 80/119/161 23/37/164 19/31/166
f 82/121/167 81/120/165 19/31/166 15/25/168
f 83/122/169 82/121/167 15/25/168 11/19/170
f 84/124/171 83/122/169 11/19/170 6/12/172
s 2
f 73/159/173 84/160/174 6/46/175 5/179/176
s 6
f 74/111/146 86/127/25 85/125/28 73/109/147
f 76/113/152 88/129/49 87/128/41 75/112/150
f 90/131/21 89/130/24 77/114/154 78/115/156
s 4
f 91/36/14 90/35/13 78/158/160 79/157/159
s 5
f 92/135/19 91/134/18 79/118/162 80/119/161
f 93/136/54 92/135/19 80/119/161 81/120/165
f 94/137/46 93/136/54 81/120/165 82/121/167
f 95/138/34 94/137/46 82/121/167 83/122/169
f 84/124/171 96/140/35 95/138/34 83/122/169
s 2
f 73/159/173 85/18/8 96/17/7 84/160/174
s off
f 70/161/177 58/162/178 75/163/179 87/164/180
f 58/162/181 59/183/182 74/166/183 75/163/184
f 59/165/185 71/167/186 86/168/187 74/184/188
f 71/167/189 70/161/190 87/164/191 86/168/192
f 68/169/193 56/170/194 77/171/195 89/172/196
f 56/170/197 57/181/198 76/174/199 77/171/200
f 57/173/201 69/175/202 88/176/203 76/182/204
f 69/175/205 68/169/206 89/172/207 88/176/208
