# MagicaVoxel @ Ephtracy

# group
g ohne kopf2

# material
mtllib ohne kopf2.mtl
usemtl palette

# normals
vn -1 0 0
vn 1 0 0
vn 0 0 1
vn 0 0 -1
vn 0 -1 0
vn 0 1 0

# texcoords
vt 0.0332031 0.5
vt 0.0878906 0.5
vt 0.115234 0.5

# verts
v -9 11 -0.5
v -9 11 -1.5
v -9 11 -3.5
v -9 12 -0.5
v -9 12 -1.5
v -9 17 -0.5
v -9 17 -3.5
v -8 0 1.5
v -8 0 -0.5
v -8 0 -3.5
v -8 1 1.5
v -8 1 -0.5
v -8 1 -3.5
v -8 10 -0.5
v -8 10 -3.5
v -8 11 -0.5
v -8 11 -1.5
v -8 11 -3.5
v -7 1 0.5
v -7 1 -0.5
v -7 1 -3.5
v -7 2 0.5
v -7 2 -0.5
v -7 2 -1.5
v -7 2 -2.5
v -7 2 -3.5
v -7 4 -0.5
v -7 4 -1.5
v -7 4 -2.5
v -7 4 -3.5
v -7 9 -0.5
v -7 9 -3.5
v -7 10 -0.5
v -7 10 -3.5
v -6 4 -0.5
v -6 4 -1.5
v -6 4 -2.5
v -6 4 -3.5
v -6 5 -0.5
v -6 5 -1.5
v -6 5 -2.5
v -6 5 -3.5
v -6 7 -0.5
v -6 7 -3.5
v -6 9 -0.5
v -6 9 -3.5
v -5 5 -0.5
v -5 5 -1.5
v -5 5 -2.5
v -5 5 -3.5
v -5 7 -0.5
v -5 7 -3.5
v -3 4 0.5
v -3 4 -0.5
v -3 7 0.5
v -3 7 -0.5
v -2 7 0.5
v -2 7 -0.5
v -2 9 0.5
v -2 9 -0.5
v 1 2 -0.5
v 1 2 -3.5
v 1 3 -0.5
v 1 3 -3.5
v 2 0 0.5
v 2 0 -0.5
v 2 0 -3.5
v 2 1 0.5
v 2 1 -0.5
v 2 2 -0.5
v 2 2 -3.5
v 3 0 1.5
v 3 0 0.5
v 3 1 1.5
v 3 1 0.5
v 3 1 -0.5
v 3 2 0.5
v 3 2 -0.5
v 4 12 -0.5
v 4 12 -1.5
v 4 12 -3.5
v 4 13 -0.5
v 4 13 -1.5
v 4 13 -3.5
v 4 15 -0.5
v 4 15 -2.5
v 4 17 -0.5
v 4 17 -2.5
v 5 13 -0.5
v 5 13 -1.5
v 5 13 -3.5
v 5 15 -0.5
v 5 15 -1.5
v 5 15 -2.5
v 5 15 -3.5
v 7 15 -2.5
v 7 15 -3.5
v 7 17 -2.5
v 7 17 -3.5
v -7 15 -2.5
v -7 15 -3.5
v -7 17 -2.5
v -7 17 -3.5
v -5 13 -0.5
v -5 13 -1.5
v -5 13 -3.5
v -5 15 -0.5
v -5 15 -1.5
v -5 15 -2.5
v -5 15 -3.5
v -4 12 -0.5
v -4 12 -1.5
v -4 12 -3.5
v -4 13 -0.5
v -4 13 -1.5
v -4 13 -3.5
v -4 15 -0.5
v -4 15 -2.5
v -4 17 -0.5
v -4 17 -2.5
v -3 0 1.5
v -3 0 0.5
v -3 1 1.5
v -3 1 0.5
v -3 1 -0.5
v -3 2 0.5
v -3 2 -0.5
v -2 0 0.5
v -2 0 -0.5
v -2 0 -3.5
v -2 1 0.5
v -2 1 -0.5
v -2 2 -0.5
v -2 2 -3.5
v -1 2 -0.5
v -1 2 -3.5
v -1 3 -0.5
v -1 3 -3.5
v 2 7 0.5
v 2 7 -0.5
v 2 9 0.5
v 2 9 -0.5
v 3 4 0.5
v 3 4 -0.5
v 3 7 0.5
v 3 7 -0.5
v 5 5 -0.5
v 5 5 -1.5
v 5 5 -2.5
v 5 5 -3.5
v 5 7 -0.5
v 5 7 -3.5
v 6 4 -0.5
v 6 4 -1.5
v 6 4 -2.5
v 6 4 -3.5
v 6 5 -0.5
v 6 5 -1.5
v 6 5 -2.5
v 6 5 -3.5
v 6 7 -0.5
v 6 7 -3.5
v 6 9 -0.5
v 6 9 -3.5
v 7 1 0.5
v 7 1 -0.5
v 7 1 -1.5
v 7 1 -3.5
v 7 2 0.5
v 7 2 -0.5
v 7 2 -1.5
v 7 2 -2.5
v 7 2 -3.5
v 7 4 -0.5
v 7 4 -1.5
v 7 4 -2.5
v 7 4 -3.5
v 7 9 -0.5
v 7 9 -3.5
v 7 10 -0.5
v 7 10 -3.5
v 8 0 1.5
v 8 0 -1.5
v 8 0 -3.5
v 8 1 1.5
v 8 1 -1.5
v 8 1 -3.5
v 8 10 -0.5
v 8 10 -3.5
v 8 11 -0.5
v 8 11 -1.5
v 8 11 -2.5
v 8 11 -3.5
v 9 11 -0.5
v 9 11 -1.5
v 9 11 -2.5
v 9 11 -3.5
v 9 12 -0.5
v 9 12 -1.5
v 9 12 -2.5
v 9 12 -3.5
v 9 17 -0.5
v 9 17 -3.5
v -8 0 1.5
v -8 1 1.5
v -3 0 1.5
v -3 1 1.5
v 3 0 1.5
v 3 1 1.5
v 8 0 1.5
v 8 1 1.5
v -7 1 0.5
v -7 2 0.5
v -3 0 0.5
v -3 1 0.5
v -3 2 0.5
v -3 4 0.5
v -3 7 0.5
v -2 0 0.5
v -2 1 0.5
v -2 5 0.5
v -2 7 0.5
v -2 9 0.5
v -1 4 0.5
v -1 5 0.5
v -1 7 0.5
v -1 9 0.5
v 1 4 0.5
v 1 5 0.5
v 1 7 0.5
v 1 9 0.5
v 2 0 0.5
v 2 1 0.5
v 2 5 0.5
v 2 7 0.5
v 2 9 0.5
v 3 0 0.5
v 3 1 0.5
v 3 2 0.5
v 3 4 0.5
v 3 7 0.5
v 7 1 0.5
v 7 2 0.5
v -9 11 -0.5
v -9 12 -0.5
v -9 17 -0.5
v -8 10 -0.5
v -8 11 -0.5
v -8 12 -0.5
v -7 2 -0.5
v -7 4 -0.5
v -7 9 -0.5
v -7 10 -0.5
v -7 15 -0.5
v -7 17 -0.5
v -6 2 -0.5
v -6 4 -0.5
v -6 5 -0.5
v -6 7 -0.5
v -6 9 -0.5
v -6 13 -0.5
v -6 15 -0.5
v -5 4 -0.5
v -5 5 -0.5
v -5 7 -0.5
v -5 12 -0.5
v -5 13 -0.5
v -5 15 -0.5
v -4 11 -0.5
v -4 12 -0.5
v -4 13 -0.5
v -4 15 -0.5
v -4 17 -0.5
v -3 1 -0.5
v -3 2 -0.5
v -3 4 -0.5
v -3 7 -0.5
v -3 11 -0.5
v -3 12 -0.5
v -2 1 -0.5
v -2 2 -0.5
v -2 7 -0.5
v -2 9 -0.5
v -1 2 -0.5
v -1 3 -0.5
v -1 4 -0.5
v -1 9 -0.5
v 1 2 -0.5
v 1 3 -0.5
v 1 4 -0.5
v 1 9 -0.5
v 2 1 -0.5
v 2 2 -0.5
v 2 7 -0.5
v 2 9 -0.5
v 3 1 -0.5
v 3 2 -0.5
v 3 4 -0.5
v 3 7 -0.5
v 3 11 -0.5
v 3 12 -0.5
v 4 11 -0.5
v 4 12 -0.5
v 4 13 -0.5
v 4 15 -0.5
v 4 17 -0.5
v 5 4 -0.5
v 5 5 -0.5
v 5 7 -0.5
v 5 12 -0.5
v 5 13 -0.5
v 5 15 -0.5
v 6 2 -0.5
v 6 4 -0.5
v 6 5 -0.5
v 6 7 -0.5
v 6 9 -0.5
v 6 13 -0.5
v 6 15 -0.5
v 7 2 -0.5
v 7 4 -0.5
v 7 9 -0.5
v 7 10 -0.5
v 7 15 -0.5
v 7 17 -0.5
v 8 10 -0.5
v 8 11 -0.5
v 8 12 -0.5
v 9 11 -0.5
v 9 12 -0.5
v 9 17 -0.5
v -7 15 -2.5
v -7 17 -2.5
v -5 15 -2.5
v -4 15 -2.5
v -4 17 -2.5
v 4 15 -2.5
v 4 17 -2.5
v 5 15 -2.5
v 7 15 -2.5
v 7 17 -2.5
v -9 11 -3.5
v -9 17 -3.5
v -8 0 -3.5
v -8 1 -3.5
v -8 10 -3.5
v -8 11 -3.5
v -7 1 -3.5
v -7 2 -3.5
v -7 4 -3.5
v -7 9 -3.5
v -7 10 -3.5
v -7 15 -3.5
v -7 17 -3.5
v -6 2 -3.5
v -6 4 -3.5
v -6 5 -3.5
v -6 7 -3.5
v -6 9 -3.5
v -5 4 -3.5
v -5 5 -3.5
v -5 7 -3.5
v -5 13 -3.5
v -5 15 -3.5
v -4 12 -3.5
v -4 13 -3.5
v -2 0 -3.5
v -2 2 -3.5
v -1 2 -3.5
v -1 3 -3.5
v 1 2 -3.5
v 1 3 -3.5
v 2 0 -3.5
v 2 2 -3.5
v 4 12 -3.5
v 4 13 -3.5
v 5 4 -3.5
v 5 5 -3.5
v 5 7 -3.5
v 5 13 -3.5
v 5 15 -3.5
v 6 2 -3.5
v 6 4 -3.5
v 6 5 -3.5
v 6 7 -3.5
v 6 9 -3.5
v 7 1 -3.5
v 7 2 -3.5
v 7 4 -3.5
v 7 9 -3.5
v 7 10 -3.5
v 7 15 -3.5
v 7 17 -3.5
v 8 0 -3.5
v 8 1 -3.5
v 8 10 -3.5
v 8 11 -3.5
v 8 12 -3.5
v 9 11 -3.5
v 9 12 -3.5
v 9 17 -3.5
v -8 0 1.5
v -3 0 1.5
v 3 0 1.5
v 8 0 1.5
v -3 0 0.5
v -2 0 0.5
v 2 0 0.5
v 3 0 0.5
v -8 0 -0.5
v -2 0 -0.5
v 2 0 -0.5
v 7 0 -0.5
v 7 0 -1.5
v 8 0 -1.5
v -8 0 -3.5
v -2 0 -3.5
v 2 0 -3.5
v 8 0 -3.5
v -2 2 -0.5
v -1 2 -0.5
v 1 2 -0.5
v 2 2 -0.5
v -2 2 -3.5
v -1 2 -3.5
v 1 2 -3.5
v 2 2 -3.5
v -1 3 -0.5
v 1 3 -0.5
v -1 3 -3.5
v 1 3 -3.5
v -3 4 0.5
v -1 4 0.5
v 1 4 0.5
v 3 4 0.5
v -3 4 -0.5
v -1 4 -0.5
v 1 4 -0.5
v 3 4 -0.5
v -6 7 -0.5
v -5 7 -0.5
v 5 7 -0.5
v 6 7 -0.5
v -6 7 -3.5
v -5 7 -3.5
v 5 7 -3.5
v 6 7 -3.5
v -7 9 -0.5
v -6 9 -0.5
v 6 9 -0.5
v 7 9 -0.5
v -7 9 -3.5
v -6 9 -3.5
v 6 9 -3.5
v 7 9 -3.5
v -8 10 -0.5
v -7 10 -0.5
v 7 10 -0.5
v 8 10 -0.5
v -8 10 -3.5
v -7 10 -3.5
v 7 10 -3.5
v 8 10 -3.5
v -9 11 -0.5
v -8 11 -0.5
v 8 11 -0.5
v 9 11 -0.5
v -9 11 -1.5
v -8 11 -1.5
v 8 11 -1.5
v 9 11 -1.5
v 8 11 -2.5
v 9 11 -2.5
v -9 11 -3.5
v -8 11 -3.5
v 8 11 -3.5
v 9 11 -3.5
v -5 15 -0.5
v -4 15 -0.5
v 4 15 -0.5
v 5 15 -0.5
v -5 15 -1.5
v 5 15 -1.5
v -5 15 -2.5
v -4 15 -2.5
v 4 15 -2.5
v 5 15 -2.5
v -8 1 1.5
v -3 1 1.5
v 3 1 1.5
v 8 1 1.5
v -7 1 0.5
v -3 1 0.5
v -2 1 0.5
v 2 1 0.5
v 3 1 0.5
v 7 1 0.5
v -8 1 -0.5
v -7 1 -0.5
v -3 1 -0.5
v -2 1 -0.5
v 2 1 -0.5
v 3 1 -0.5
v 7 1 -0.5
v 7 1 -1.5
v 8 1 -1.5
v -8 1 -3.5
v -7 1 -3.5
v 7 1 -3.5
v 8 1 -3.5
v -7 2 0.5
v -3 2 0.5
v 3 2 0.5
v 7 2 0.5
v -7 2 -0.5
v -6 2 -0.5
v -3 2 -0.5
v 3 2 -0.5
v 6 2 -0.5
v 7 2 -0.5
v -7 4 -0.5
v -6 4 -0.5
v 6 4 -0.5
v 7 4 -0.5
v -7 4 -1.5
v -6 4 -1.5
v 6 4 -1.5
v 7 4 -1.5
v -7 4 -2.5
v -6 4 -2.5
v 6 4 -2.5
v 7 4 -2.5
v -7 4 -3.5
v -6 4 -3.5
v 6 4 -3.5
v 7 4 -3.5
v -6 5 -0.5
v -5 5 -0.5
v 5 5 -0.5
v 6 5 -0.5
v -6 5 -1.5
v -5 5 -1.5
v 5 5 -1.5
v 6 5 -1.5
v -6 5 -2.5
v -5 5 -2.5
v 5 5 -2.5
v 6 5 -2.5
v -6 5 -3.5
v -5 5 -3.5
v 5 5 -3.5
v 6 5 -3.5
v -3 7 0.5
v -2 7 0.5
v 2 7 0.5
v 3 7 0.5
v -3 7 -0.5
v -2 7 -0.5
v 2 7 -0.5
v 3 7 -0.5
v -2 9 0.5
v -1 9 0.5
v 1 9 0.5
v 2 9 0.5
v -2 9 -0.5
v -1 9 -0.5
v 1 9 -0.5
v 2 9 -0.5
v -4 12 -0.5
v -3 12 -0.5
v 3 12 -0.5
v 4 12 -0.5
v -4 12 -1.5
v -3 12 -1.5
v 3 12 -1.5
v 4 12 -1.5
v -4 12 -3.5
v 4 12 -3.5
v -5 13 -0.5
v -4 13 -0.5
v 4 13 -0.5
v 5 13 -0.5
v -5 13 -1.5
v -4 13 -1.5
v 4 13 -1.5
v 5 13 -1.5
v -5 13 -3.5
v -4 13 -3.5
v 4 13 -3.5
v 5 13 -3.5
v -7 15 -2.5
v -5 15 -2.5
v 5 15 -2.5
v 7 15 -2.5
v -7 15 -3.5
v -5 15 -3.5
v 5 15 -3.5
v 7 15 -3.5
v -9 17 -0.5
v -7 17 -0.5
v -4 17 -0.5
v 4 17 -0.5
v 7 17 -0.5
v 9 17 -0.5
v -7 17 -2.5
v -4 17 -2.5
v 4 17 -2.5
v 7 17 -2.5
v -9 17 -3.5
v -7 17 -3.5
v 7 17 -3.5
v 9 17 -3.5

# faces
f 4/2/1 2/2/1 1/2/1
f 5/3/1 3/3/1 2/3/1
f 5/2/1 2/2/1 4/2/1
f 6/3/1 5/3/1 4/3/1
f 7/3/1 3/3/1 5/3/1
f 7/3/1 5/3/1 6/3/1
f 11/1/1 9/1/1 8/1/1
f 12/3/1 10/3/1 9/3/1
f 12/1/1 9/1/1 11/1/1
f 13/3/1 10/3/1 12/3/1
f 16/3/1 15/3/1 14/3/1
f 17/3/1 15/3/1 16/3/1
f 18/3/1 15/3/1 17/3/1
f 22/1/1 20/1/1 19/1/1
f 23/3/1 21/3/1 20/3/1
f 23/1/1 20/1/1 22/1/1
f 24/3/1 21/3/1 23/3/1
f 25/3/1 21/3/1 24/3/1
f 26/3/1 21/3/1 25/3/1
f 27/2/1 24/2/1 23/2/1
f 28/3/1 25/3/1 24/3/1
f 28/2/1 24/2/1 27/2/1
f 29/2/1 26/2/1 25/2/1
f 29/3/1 25/3/1 28/3/1
f 30/2/1 26/2/1 29/2/1
f 33/3/1 32/3/1 31/3/1
f 34/3/1 32/3/1 33/3/1
f 39/2/1 36/2/1 35/2/1
f 40/3/1 37/3/1 36/3/1
f 40/2/1 36/2/1 39/2/1
f 41/2/1 38/2/1 37/2/1
f 41/3/1 37/3/1 40/3/1
f 42/2/1 38/2/1 41/2/1
f 45/3/1 44/3/1 43/3/1
f 46/3/1 44/3/1 45/3/1
f 51/3/1 48/3/1 47/3/1
f 51/3/1 50/3/1 49/3/1
f 51/3/1 49/3/1 48/3/1
f 52/3/1 50/3/1 51/3/1
f 55/2/1 54/2/1 53/2/1
f 56/2/1 54/2/1 55/2/1
f 59/2/1 58/2/1 57/2/1
f 60/2/1 58/2/1 59/2/1
f 63/3/1 62/3/1 61/3/1
f 64/3/1 62/3/1 63/3/1
f 68/1/1 66/1/1 65/1/1
f 69/3/1 67/3/1 66/3/1
f 69/1/1 66/1/1 68/1/1
f 70/3/1 67/3/1 69/3/1
f 71/3/1 67/3/1 70/3/1
f 74/1/1 73/1/1 72/1/1
f 75/1/1 73/1/1 74/1/1
f 77/1/1 76/1/1 75/1/1
f 78/1/1 76/1/1 77/1/1
f 82/2/1 80/2/1 79/2/1
f 83/3/1 81/3/1 80/3/1
f 83/2/1 80/2/1 82/2/1
f 84/3/1 81/3/1 83/3/1
f 87/1/1 86/1/1 85/1/1
f 88/1/1 86/1/1 87/1/1
f 92/2/1 90/2/1 89/2/1
f 93/3/1 91/3/1 90/3/1
f 93/2/1 90/2/1 92/2/1
f 94/3/1 91/3/1 93/3/1
f 95/3/1 91/3/1 94/3/1
f 98/3/1 97/3/1 96/3/1
f 99/3/1 97/3/1 98/3/1
f 100/3/2 101/3/2 102/3/2
f 102/3/2 101/3/2 103/3/2
f 104/2/2 105/2/2 107/2/2
f 105/3/2 106/3/2 108/3/2
f 107/2/2 105/2/2 108/2/2
f 108/3/2 106/3/2 109/3/2
f 109/3/2 106/3/2 110/3/2
f 111/2/2 112/2/2 114/2/2
f 112/3/2 113/3/2 115/3/2
f 114/2/2 112/2/2 115/2/2
f 115/3/2 113/3/2 116/3/2
f 117/1/2 118/1/2 119/1/2
f 119/1/2 118/1/2 120/1/2
f 121/1/2 122/1/2 123/1/2
f 123/1/2 122/1/2 124/1/2
f 124/1/2 125/1/2 126/1/2
f 126/1/2 125/1/2 127/1/2
f 128/1/2 129/1/2 131/1/2
f 129/3/2 130/3/2 132/3/2
f 131/1/2 129/1/2 132/1/2
f 132/3/2 130/3/2 133/3/2
f 133/3/2 130/3/2 134/3/2
f 135/3/2 136/3/2 137/3/2
f 137/3/2 136/3/2 138/3/2
f 139/2/2 140/2/2 141/2/2
f 141/2/2 140/2/2 142/2/2
f 143/2/2 144/2/2 145/2/2
f 145/2/2 144/2/2 146/2/2
f 147/3/2 148/3/2 151/3/2
f 149/3/2 150/3/2 151/3/2
f 148/3/2 149/3/2 151/3/2
f 151/3/2 150/3/2 152/3/2
f 153/2/2 154/2/2 157/2/2
f 154/3/2 155/3/2 158/3/2
f 157/2/2 154/2/2 158/2/2
f 155/2/2 156/2/2 159/2/2
f 158/3/2 155/3/2 159/3/2
f 159/2/2 156/2/2 160/2/2
f 161/3/2 162/3/2 163/3/2
f 163/3/2 162/3/2 164/3/2
f 165/1/2 166/1/2 169/1/2
f 167/3/2 168/3/2 170/3/2
f 169/1/2 166/1/2 170/1/2
f 166/3/2 167/3/2 170/3/2
f 170/3/2 168/3/2 171/3/2
f 171/3/2 168/3/2 172/3/2
f 172/3/2 168/3/2 173/3/2
f 170/2/2 171/2/2 174/2/2
f 171/3/2 172/3/2 175/3/2
f 174/2/2 171/2/2 175/2/2
f 172/2/2 173/2/2 176/2/2
f 175/3/2 172/3/2 176/3/2
f 176/2/2 173/2/2 177/2/2
f 178/3/2 179/3/2 180/3/2
f 180/3/2 179/3/2 181/3/2
f 182/1/2 183/1/2 185/1/2
f 183/3/2 184/3/2 186/3/2
f 185/1/2 183/1/2 186/1/2
f 186/3/2 184/3/2 187/3/2
f 188/3/2 189/3/2 190/3/2
f 190/3/2 189/3/2 191/3/2
f 191/3/2 189/3/2 192/3/2
f 192/3/2 189/3/2 193/3/2
f 194/2/2 195/2/2 198/2/2
f 195/3/2 196/3/2 199/3/2
f 198/2/2 195/2/2 199/2/2
f 196/2/2 197/2/2 200/2/2
f 199/3/2 196/3/2 200/3/2
f 200/2/2 197/2/2 201/2/2
f 198/3/2 199/3/2 202/3/2
f 199/3/2 200/3/2 202/3/2
f 200/3/2 201/3/2 202/3/2
f 202/3/2 201/3/2 203/3/2
f 206/1/3 205/1/3 204/1/3
f 207/1/3 205/1/3 206/1/3
f 210/1/3 209/1/3 208/1/3
f 211/1/3 209/1/3 210/1/3
f 215/1/3 213/1/3 212/1/3
f 216/1/3 213/1/3 215/1/3
f 219/1/3 215/1/3 214/1/3
f 220/1/3 215/1/3 219/1/3
f 221/2/3 218/2/3 217/2/3
f 222/2/3 218/2/3 221/2/3
f 224/2/3 221/2/3 217/2/3
f 225/1/3 222/1/3 221/1/3
f 225/2/3 221/2/3 224/2/3
f 226/2/3 223/2/3 222/2/3
f 226/1/3 222/1/3 225/1/3
f 227/2/3 223/2/3 226/2/3
f 228/1/3 225/1/3 224/1/3
f 228/1/3 226/1/3 225/1/3
f 228/1/3 227/1/3 226/1/3
f 229/1/3 227/1/3 228/1/3
f 230/1/3 227/1/3 229/1/3
f 231/1/3 227/1/3 230/1/3
f 234/2/3 229/2/3 228/2/3
f 234/1/3 230/1/3 229/1/3
f 235/2/3 231/2/3 230/2/3
f 235/1/3 230/1/3 234/1/3
f 236/2/3 231/2/3 235/2/3
f 237/1/3 233/1/3 232/1/3
f 238/1/3 233/1/3 237/1/3
f 240/2/3 234/2/3 228/2/3
f 240/2/3 235/2/3 234/2/3
f 241/2/3 235/2/3 240/2/3
f 242/1/3 239/1/3 238/1/3
f 243/1/3 239/1/3 242/1/3
f 248/2/3 245/2/3 244/2/3
f 249/3/3 246/3/3 245/3/3
f 249/2/3 245/2/3 248/2/3
f 253/3/3 248/3/3 247/3/3
f 253/3/3 249/3/3 248/3/3
f 254/3/3 246/3/3 249/3/3
f 254/3/3 249/3/3 253/3/3
f 255/3/3 246/3/3 254/3/3
f 256/2/3 251/2/3 250/2/3
f 257/2/3 251/2/3 256/2/3
f 260/3/3 253/3/3 252/3/3
f 260/3/3 254/3/3 253/3/3
f 261/3/3 254/3/3 260/3/3
f 262/1/3 255/1/3 254/1/3
f 262/3/3 254/3/3 261/3/3
f 263/2/3 258/2/3 257/2/3
f 263/3/3 257/3/3 256/3/3
f 264/2/3 258/2/3 263/2/3
f 265/3/3 261/3/3 260/3/3
f 265/3/3 260/3/3 259/3/3
f 266/3/3 261/3/3 265/3/3
f 267/2/3 262/2/3 261/2/3
f 267/3/3 261/3/3 266/3/3
f 268/1/3 255/1/3 262/1/3
f 268/2/3 262/2/3 267/2/3
f 269/3/3 266/3/3 265/3/3
f 269/3/3 264/3/3 263/3/3
f 269/3/3 265/3/3 264/3/3
f 270/2/3 267/2/3 266/2/3
f 270/3/3 266/3/3 269/3/3
f 271/2/3 267/2/3 270/2/3
f 272/1/3 255/1/3 268/1/3
f 273/1/3 255/1/3 272/1/3
f 275/3/3 269/3/3 263/3/3
f 275/3/3 263/3/3 256/3/3
f 276/3/3 269/3/3 275/3/3
f 277/3/3 269/3/3 276/3/3
f 278/2/3 270/2/3 269/2/3
f 278/3/3 269/3/3 277/3/3
f 279/2/3 270/2/3 278/2/3
f 280/3/3 275/3/3 274/3/3
f 280/3/3 276/3/3 275/3/3
f 281/3/3 276/3/3 280/3/3
f 282/3/3 279/3/3 278/3/3
f 282/3/3 278/3/3 277/3/3
f 283/3/3 279/3/3 282/3/3
f 284/3/3 276/3/3 281/3/3
f 285/3/3 276/3/3 284/3/3
f 286/3/3 276/3/3 285/3/3
f 287/3/3 279/3/3 283/3/3
f 289/3/3 286/3/3 285/3/3
f 290/3/3 286/3/3 289/3/3
f 291/3/3 279/3/3 287/3/3
f 293/3/3 290/3/3 289/3/3
f 293/3/3 289/3/3 288/3/3
f 295/3/3 279/3/3 291/3/3
f 296/3/3 293/3/3 292/3/3
f 297/3/3 290/3/3 293/3/3
f 297/3/3 293/3/3 296/3/3
f 298/3/3 290/3/3 297/3/3
f 299/3/3 295/3/3 294/3/3
f 300/3/3 279/3/3 295/3/3
f 300/3/3 295/3/3 299/3/3
f 301/3/3 279/3/3 300/3/3
f 302/3/3 298/3/3 297/3/3
f 302/3/3 299/3/3 298/3/3
f 302/2/3 301/2/3 300/2/3
f 302/3/3 300/3/3 299/3/3
f 303/2/3 301/2/3 302/2/3
f 307/3/3 303/3/3 302/3/3
f 307/3/3 302/3/3 297/3/3
f 308/3/3 303/3/3 307/3/3
f 309/3/3 303/3/3 308/3/3
f 310/2/3 304/2/3 303/2/3
f 310/3/3 303/3/3 309/3/3
f 311/2/3 304/2/3 310/2/3
f 312/1/3 306/1/3 305/1/3
f 313/3/3 307/3/3 297/3/3
f 314/2/3 308/2/3 307/2/3
f 314/3/3 307/3/3 313/3/3
f 315/2/3 308/2/3 314/2/3
f 316/3/3 311/3/3 310/3/3
f 316/3/3 310/3/3 309/3/3
f 317/3/3 311/3/3 316/3/3
f 318/2/3 312/2/3 311/2/3
f 318/3/3 311/3/3 317/3/3
f 319/1/3 306/1/3 312/1/3
f 319/2/3 312/2/3 318/2/3
f 320/2/3 314/2/3 313/2/3
f 321/2/3 314/2/3 320/2/3
f 322/3/3 319/3/3 318/3/3
f 322/3/3 318/3/3 317/3/3
f 323/3/3 319/3/3 322/3/3
f 324/1/3 306/1/3 319/1/3
f 324/3/3 319/3/3 323/3/3
f 325/1/3 306/1/3 324/1/3
f 326/3/3 325/3/3 324/3/3
f 326/3/3 324/3/3 323/3/3
f 327/3/3 325/3/3 326/3/3
f 328/3/3 325/3/3 327/3/3
f 329/2/3 328/2/3 327/2/3
f 330/3/3 325/3/3 328/3/3
f 330/2/3 328/2/3 329/2/3
f 331/3/3 325/3/3 330/3/3
f 332/1/4 333/1/4 334/1/4
f 334/1/4 333/1/4 335/1/4
f 335/1/4 333/1/4 336/1/4
f 337/1/4 338/1/4 339/1/4
f 339/1/4 338/1/4 340/1/4
f 340/1/4 338/1/4 341/1/4
f 342/3/4 343/3/4 347/3/4
f 344/3/4 345/3/4 348/3/4
f 346/3/4 347/3/4 352/3/4
f 347/3/4 343/3/4 353/3/4
f 352/3/4 347/3/4 353/3/4
f 353/3/4 343/3/4 354/3/4
f 349/2/4 350/2/4 355/2/4
f 348/3/4 349/3/4 355/3/4
f 355/2/4 350/2/4 356/2/4
f 351/3/4 352/3/4 359/3/4
f 352/3/4 353/3/4 359/3/4
f 356/2/4 357/2/4 360/2/4
f 355/3/4 356/3/4 360/3/4
f 360/2/4 357/2/4 361/2/4
f 358/3/4 359/3/4 362/3/4
f 359/3/4 353/3/4 363/3/4
f 362/3/4 359/3/4 363/3/4
f 363/3/4 353/3/4 364/3/4
f 360/3/4 361/3/4 365/3/4
f 361/3/4 362/3/4 365/3/4
f 362/3/4 363/3/4 365/3/4
f 365/3/4 363/3/4 366/3/4
f 344/3/4 348/3/4 367/3/4
f 348/3/4 355/3/4 367/3/4
f 360/3/4 365/3/4 367/3/4
f 355/3/4 360/3/4 367/3/4
f 367/3/4 365/3/4 368/3/4
f 368/3/4 365/3/4 369/3/4
f 369/3/4 365/3/4 370/3/4
f 370/3/4 365/3/4 372/3/4
f 371/3/4 372/3/4 374/3/4
f 372/3/4 365/3/4 375/3/4
f 373/3/4 374/3/4 375/3/4
f 374/3/4 372/3/4 375/3/4
f 373/3/4 375/3/4 377/3/4
f 375/3/4 376/3/4 377/3/4
f 377/3/4 376/3/4 378/3/4
f 378/3/4 376/3/4 379/3/4
f 379/3/4 376/3/4 380/3/4
f 373/3/4 377/3/4 382/3/4
f 377/2/4 378/2/4 383/2/4
f 382/3/4 377/3/4 383/3/4
f 383/2/4 378/2/4 384/2/4
f 379/3/4 380/3/4 385/3/4
f 380/3/4 381/3/4 385/3/4
f 385/3/4 381/3/4 386/3/4
f 373/3/4 382/3/4 387/3/4
f 382/2/4 383/2/4 388/2/4
f 387/3/4 382/3/4 388/3/4
f 388/2/4 383/2/4 389/2/4
f 386/3/4 381/3/4 390/3/4
f 390/3/4 381/3/4 391/3/4
f 391/3/4 381/3/4 392/3/4
f 373/3/4 387/3/4 394/3/4
f 394/3/4 387/3/4 395/3/4
f 391/3/4 392/3/4 396/3/4
f 392/3/4 393/3/4 396/3/4
f 396/3/4 393/3/4 397/3/4
f 397/3/4 393/3/4 398/3/4
f 397/2/4 398/2/4 399/2/4
f 398/3/4 393/3/4 400/3/4
f 399/2/4 398/2/4 400/2/4
f 400/3/4 393/3/4 401/3/4
f 406/1/5 403/1/5 402/1/5
f 409/1/5 405/1/5 404/1/5
f 410/1/5 407/1/5 406/1/5
f 410/1/5 406/1/5 402/1/5
f 411/1/5 407/1/5 410/1/5
f 412/1/5 409/1/5 408/1/5
f 413/1/5 405/1/5 409/1/5
f 413/1/5 409/1/5 412/1/5
f 414/3/5 413/3/5 412/3/5
f 414/1/5 405/1/5 413/1/5
f 415/1/5 405/1/5 414/1/5
f 416/3/5 411/3/5 410/3/5
f 417/3/5 411/3/5 416/3/5
f 418/3/5 414/3/5 412/3/5
f 418/3/5 415/3/5 414/3/5
f 419/3/5 415/3/5 418/3/5
f 424/3/5 421/3/5 420/3/5
f 425/3/5 421/3/5 424/3/5
f 426/3/5 423/3/5 422/3/5
f 427/3/5 423/3/5 426/3/5
f 430/3/5 429/3/5 428/3/5
f 431/3/5 429/3/5 430/3/5
f 436/2/5 433/2/5 432/2/5
f 437/1/5 434/1/5 433/1/5
f 437/2/5 433/2/5 436/2/5
f 438/2/5 435/2/5 434/2/5
f 438/1/5 434/1/5 437/1/5
f 439/2/5 435/2/5 438/2/5
f 444/3/5 441/3/5 440/3/5
f 445/3/5 441/3/5 444/3/5
f 446/3/5 443/3/5 442/3/5
f 447/3/5 443/3/5 446/3/5
f 452/3/5 449/3/5 448/3/5
f 453/3/5 449/3/5 452/3/5
f 454/3/5 451/3/5 450/3/5
f 455/3/5 451/3/5 454/3/5
f 460/3/5 457/3/5 456/3/5
f 461/3/5 457/3/5 460/3/5
f 462/3/5 459/3/5 458/3/5
f 463/3/5 459/3/5 462/3/5
f 468/2/5 465/2/5 464/2/5
f 469/2/5 465/2/5 468/2/5
f 470/2/5 467/2/5 466/2/5
f 471/2/5 467/2/5 470/2/5
f 472/3/5 471/3/5 470/3/5
f 473/3/5 471/3/5 472/3/5
f 474/3/5 469/3/5 468/3/5
f 475/3/5 469/3/5 474/3/5
f 476/2/5 473/2/5 472/2/5
f 477/2/5 473/2/5 476/2/5
f 482/1/5 479/1/5 478/1/5
f 483/1/5 481/1/5 480/1/5
f 484/1/5 479/1/5 482/1/5
f 485/1/5 479/1/5 484/1/5
f 486/1/5 483/1/5 480/1/5
f 487/1/5 483/1/5 486/1/5
f 488/1/6 489/1/6 492/1/6
f 492/1/6 489/1/6 493/1/6
f 490/1/6 491/1/6 496/1/6
f 496/1/6 491/1/6 497/1/6
f 488/1/6 492/1/6 498/1/6
f 498/1/6 492/1/6 499/1/6
f 493/1/6 494/1/6 500/1/6
f 500/1/6 494/1/6 501/1/6
f 495/1/6 496/1/6 502/1/6
f 502/1/6 496/1/6 503/1/6
f 497/1/6 491/1/6 504/1/6
f 504/1/6 491/1/6 505/1/6
f 505/1/6 491/1/6 506/1/6
f 498/3/6 499/3/6 507/3/6
f 507/3/6 499/3/6 508/3/6
f 505/3/6 506/3/6 509/3/6
f 509/3/6 506/3/6 510/3/6
f 511/1/6 512/1/6 515/1/6
f 515/1/6 512/1/6 516/1/6
f 516/1/6 512/1/6 517/1/6
f 513/1/6 514/1/6 518/1/6
f 518/1/6 514/1/6 519/1/6
f 519/1/6 514/1/6 520/1/6
f 521/2/6 522/2/6 525/2/6
f 525/2/6 522/2/6 526/2/6
f 523/2/6 524/2/6 527/2/6
f 527/2/6 524/2/6 528/2/6
f 525/3/6 526/3/6 529/3/6
f 529/3/6 526/3/6 530/3/6
f 527/3/6 528/3/6 531/3/6
f 531/3/6 528/3/6 532/3/6
f 529/2/6 530/2/6 533/2/6
f 533/2/6 530/2/6 534/2/6
f 531/2/6 532/2/6 535/2/6
f 535/2/6 532/2/6 536/2/6
f 537/2/6 538/2/6 541/2/6
f 541/2/6 538/2/6 542/2/6
f 539/2/6 540/2/6 543/2/6
f 543/2/6 540/2/6 544/2/6
f 541/3/6 542/3/6 545/3/6
f 545/3/6 542/3/6 546/3/6
f 543/3/6 544/3/6 547/3/6
f 547/3/6 544/3/6 548/3/6
f 545/2/6 546/2/6 549/2/6
f 549/2/6 546/2/6 550/2/6
f 547/2/6 548/2/6 551/2/6
f 551/2/6 548/2/6 552/2/6
f 553/2/6 554/2/6 557/2/6
f 557/2/6 554/2/6 558/2/6
f 555/2/6 556/2/6 559/2/6
f 559/2/6 556/2/6 560/2/6
f 561/2/6 562/2/6 565/2/6
f 562/1/6 563/1/6 566/1/6
f 565/2/6 562/2/6 566/2/6
f 563/2/6 564/2/6 567/2/6
f 566/1/6 563/1/6 567/1/6
f 567/2/6 564/2/6 568/2/6
f 569/2/6 570/2/6 573/2/6
f 570/3/6 571/3/6 574/3/6
f 573/2/6 570/2/6 574/2/6
f 571/2/6 572/2/6 575/2/6
f 574/3/6 571/3/6 575/3/6
f 575/2/6 572/2/6 576/2/6
f 573/3/6 574/3/6 577/3/6
f 574/3/6 575/3/6 577/3/6
f 575/3/6 576/3/6 577/3/6
f 577/3/6 576/3/6 578/3/6
f 579/2/6 580/2/6 583/2/6
f 583/2/6 580/2/6 584/2/6
f 581/2/6 582/2/6 585/2/6
f 585/2/6 582/2/6 586/2/6
f 583/3/6 584/3/6 587/3/6
f 587/3/6 584/3/6 588/3/6
f 585/3/6 586/3/6 589/3/6
f 589/3/6 586/3/6 590/3/6
f 591/3/6 592/3/6 595/3/6
f 595/3/6 592/3/6 596/3/6
f 593/3/6 594/3/6 597/3/6
f 597/3/6 594/3/6 598/3/6
f 599/3/6 600/3/6 605/3/6
f 600/1/6 601/1/6 605/1/6
f 605/1/6 601/1/6 606/1/6
f 602/1/6 603/1/6 607/1/6
f 603/3/6 604/3/6 608/3/6
f 607/1/6 603/1/6 608/1/6
f 599/3/6 605/3/6 609/3/6
f 609/3/6 605/3/6 610/3/6
f 608/3/6 604/3/6 611/3/6
f 611/3/6 604/3/6 612/3/6
