# MagicaVoxel @ Ephtracy

# group
g Peach

# material
mtllib Peach.mtl
usemtl palette

# normals
vn -1 0 0
vn 1 0 0
vn 0 0 1
vn 0 0 -1
vn 0 -1 0
vn 0 1 0

# texcoords
vt 0.00195313 0.5
vt 0.0566406 0.5
vt 0.0878906 0.5
vt 0.0917969 0.5
vt 0.126953 0.5
vt 0.822266 0.5

# verts
v -4 12 3.5
v -4 12 -0.5
v -4 13 3.5
v -4 13 -0.5
v -3 11 3.5
v -3 11 -0.5
v -3 12 3.5
v -3 12 -0.5
v -2 10 3.5
v -2 10 -0.5
v -2 11 3.5
v -2 11 -0.5
v -1 12 3.5
v -1 12 -0.5
v -1 15 3.5
v -1 15 -0.5
v 0 3 2.5
v 0 3 0.5
v 0 4 2.5
v 0 4 0.5
v 0 5 2.5
v 0 5 0.5
v 0 7 2.5
v 0 7 0.5
v 0 15 3.5
v 0 15 -0.5
v 0 16 3.5
v 0 16 -0.5
v 1 7 2.5
v 1 7 0.5
v 1 9 2.5
v 1 9 0.5
v 1 10 2.5
v 1 10 0.5
v 1 11 2.5
v 1 11 0.5
v 1 16 2.5
v 1 16 0.5
v 1 17 2.5
v 1 17 0.5
v 2 0 2.5
v 2 0 0.5
v 2 2 2.5
v 2 2 0.5
v 2 3 2.5
v 2 3 0.5
v 2 9 2.5
v 2 9 0.5
v 2 10 2.5
v 2 10 0.5
v 2 16 3.5
v 2 16 2.5
v 2 16 0.5
v 2 16 -0.5
v 2 17 3.5
v 2 17 2.5
v 2 17 0.5
v 2 17 -0.5
v 3 8 3.5
v 3 8 2.5
v 3 8 0.5
v 3 8 -0.5
v 3 9 3.5
v 3 9 2.5
v 3 9 0.5
v 3 9 -0.5
v 4 1 2.5
v 4 1 0.5
v 4 2 2.5
v 4 2 0.5
v 4 3 2.5
v 4 3 0.5
v -2 12 3.5
v -2 12 -0.5
v -2 13 3.5
v -2 13 -0.5
v 0 10 3.5
v 0 10 -0.5
v 0 11 3.5
v 0 11 -0.5
v 1 11 3.5
v 1 11 2.5
v 1 11 0.5
v 1 11 -0.5
v 1 12 3.5
v 1 12 2.5
v 1 14 0.5
v 1 15 0.5
v 1 15 -0.5
v 2 12 3.5
v 2 12 2.5
v 2 14 3.5
v 2 14 2.5
v 3 1 2.5
v 3 1 0.5
v 3 2 2.5
v 3 2 0.5
v 3 3 2.5
v 3 3 0.5
v 3 9 2.5
v 3 9 0.5
v 3 10 2.5
v 3 10 0.5
v 3 14 3.5
v 3 14 2.5
v 3 15 3.5
v 3 15 2.5
v 4 6 2.5
v 4 6 0.5
v 4 8 2.5
v 4 8 0.5
v 4 9 2.5
v 4 9 0.5
v 4 10 2.5
v 4 10 0.5
v 4 11 2.5
v 4 11 0.5
v 4 16 3.5
v 4 16 2.5
v 4 16 0.5
v 4 16 -0.5
v 4 17 3.5
v 4 17 2.5
v 4 17 0.5
v 4 17 -0.5
v 5 1 2.5
v 5 1 0.5
v 5 2 2.5
v 5 2 0.5
v 5 3 2.5
v 5 3 0.5
v 5 4 2.5
v 5 4 0.5
v 5 5 2.5
v 5 5 0.5
v 5 6 2.5
v 5 6 0.5
v 5 11 2.5
v 5 11 0.5
v 5 15 3.5
v 5 15 2.5
v 5 15 0.5
v 5 15 -0.5
v 5 16 3.5
v 5 16 2.5
v 5 16 0.5
v 5 16 -0.5
v 5 17 2.5
v 5 17 0.5
v 6 0 2.5
v 6 0 0.5
v 6 1 2.5
v 6 1 0.5
v 6 3 2.5
v 6 3 0.5
v 6 4 2.5
v 6 4 0.5
v 6 8 3.5
v 6 8 2.5
v 6 8 0.5
v 6 8 -0.5
v 6 9 3.5
v 6 9 2.5
v 6 9 0.5
v 6 9 -0.5
v 6 15 2.5
v 6 15 0.5
v 6 16 2.5
v 6 16 0.5
v -4 12 3.5
v -4 13 3.5
v -3 11 3.5
v -3 12 3.5
v -2 10 3.5
v -2 11 3.5
v -2 12 3.5
v -2 13 3.5
v -1 12 3.5
v -1 15 3.5
v 0 10 3.5
v 0 11 3.5
v 0 15 3.5
v 0 16 3.5
v 1 11 3.5
v 1 12 3.5
v 2 12 3.5
v 2 14 3.5
v 2 16 3.5
v 2 17 3.5
v 3 8 3.5
v 3 9 3.5
v 3 14 3.5
v 3 15 3.5
v 4 16 3.5
v 4 17 3.5
v 5 15 3.5
v 5 16 3.5
v 6 8 3.5
v 6 9 3.5
v 0 3 2.5
v 0 4 2.5
v 0 5 2.5
v 0 7 2.5
v 1 7 2.5
v 1 9 2.5
v 1 10 2.5
v 1 11 2.5
v 1 12 2.5
v 1 16 2.5
v 1 17 2.5
v 2 0 2.5
v 2 2 2.5
v 2 3 2.5
v 2 9 2.5
v 2 10 2.5
v 2 12 2.5
v 2 14 2.5
v 2 16 2.5
v 2 17 2.5
v 3 1 2.5
v 3 2 2.5
v 3 3 2.5
v 3 8 2.5
v 3 9 2.5
v 3 10 2.5
v 3 12 2.5
v 3 13 2.5
v 3 14 2.5
v 3 15 2.5
v 4 1 2.5
v 4 2 2.5
v 4 3 2.5
v 4 6 2.5
v 4 8 2.5
v 4 10 2.5
v 4 11 2.5
v 4 12 2.5
v 4 13 2.5
v 4 16 2.5
v 4 17 2.5
v 5 1 2.5
v 5 2 2.5
v 5 3 2.5
v 5 4 2.5
v 5 5 2.5
v 5 6 2.5
v 5 11 2.5
v 5 15 2.5
v 5 16 2.5
v 5 17 2.5
v 6 0 2.5
v 6 1 2.5
v 6 3 2.5
v 6 4 2.5
v 6 15 2.5
v 6 16 2.5
v 4 8 0.5
v 4 9 0.5
v 6 8 0.5
v 6 9 0.5
v 4 8 2.5
v 4 9 2.5
v 6 8 2.5
v 6 9 2.5
v 0 3 0.5
v 0 4 0.5
v 0 5 0.5
v 0 7 0.5
v 1 7 0.5
v 1 9 0.5
v 1 10 0.5
v 1 11 0.5
v 1 14 0.5
v 1 15 0.5
v 1 16 0.5
v 1 17 0.5
v 2 0 0.5
v 2 2 0.5
v 2 3 0.5
v 2 9 0.5
v 2 10 0.5
v 2 16 0.5
v 2 17 0.5
v 3 1 0.5
v 3 2 0.5
v 3 3 0.5
v 3 8 0.5
v 3 9 0.5
v 3 10 0.5
v 3 12 0.5
v 3 13 0.5
v 3 14 0.5
v 3 15 0.5
v 4 1 0.5
v 4 2 0.5
v 4 3 0.5
v 4 6 0.5
v 4 8 0.5
v 4 10 0.5
v 4 11 0.5
v 4 12 0.5
v 4 13 0.5
v 4 16 0.5
v 4 17 0.5
v 5 1 0.5
v 5 2 0.5
v 5 3 0.5
v 5 4 0.5
v 5 5 0.5
v 5 6 0.5
v 5 11 0.5
v 5 15 0.5
v 5 16 0.5
v 5 17 0.5
v 6 0 0.5
v 6 1 0.5
v 6 3 0.5
v 6 4 0.5
v 6 15 0.5
v 6 16 0.5
v -4 12 -0.5
v -4 13 -0.5
v -3 11 -0.5
v -3 12 -0.5
v -2 10 -0.5
v -2 11 -0.5
v -2 12 -0.5
v -2 13 -0.5
v -1 12 -0.5
v -1 15 -0.5
v 0 10 -0.5
v 0 11 -0.5
v 0 15 -0.5
v 0 16 -0.5
v 1 11 -0.5
v 1 15 -0.5
v 2 16 -0.5
v 2 17 -0.5
v 3 8 -0.5
v 3 9 -0.5
v 4 16 -0.5
v 4 17 -0.5
v 5 15 -0.5
v 5 16 -0.5
v 6 8 -0.5
v 6 9 -0.5
v 2 0 2.5
v 6 0 2.5
v 2 0 0.5
v 6 0 0.5
v 0 3 2.5
v 2 3 2.5
v 3 3 2.5
v 4 3 2.5
v 5 3 2.5
v 6 3 2.5
v 0 3 0.5
v 2 3 0.5
v 3 3 0.5
v 4 3 0.5
v 5 3 0.5
v 6 3 0.5
v 3 8 3.5
v 6 8 3.5
v 3 8 2.5
v 4 8 2.5
v 6 8 2.5
v 3 8 0.5
v 4 8 0.5
v 6 8 0.5
v 3 8 -0.5
v 6 8 -0.5
v -2 10 3.5
v 0 10 3.5
v 1 10 2.5
v 2 10 2.5
v 3 10 2.5
v 4 10 2.5
v 1 10 0.5
v 2 10 0.5
v 3 10 0.5
v 4 10 0.5
v -2 10 -0.5
v 0 10 -0.5
v -3 11 3.5
v -2 11 3.5
v 0 11 3.5
v 1 11 3.5
v 1 11 2.5
v 4 11 2.5
v 5 11 2.5
v 1 11 0.5
v 4 11 0.5
v 5 11 0.5
v -3 11 -0.5
v -2 11 -0.5
v 0 11 -0.5
v 1 11 -0.5
v -4 12 3.5
v -3 12 3.5
v 1 12 3.5
v 2 12 3.5
v 1 12 2.5
v 2 12 2.5
v -4 12 -0.5
v -3 12 -0.5
v 2 14 3.5
v 3 14 3.5
v 2 14 2.5
v 3 14 2.5
v 3 15 3.5
v 5 15 3.5
v 3 15 2.5
v 5 15 2.5
v 6 15 2.5
v 1 15 0.5
v 3 15 0.5
v 5 15 0.5
v 6 15 0.5
v 1 15 -0.5
v 5 15 -0.5
v 3 1 2.5
v 4 1 2.5
v 5 1 2.5
v 6 1 2.5
v 3 1 0.5
v 4 1 0.5
v 5 1 0.5
v 6 1 0.5
v 5 4 2.5
v 6 4 2.5
v 5 4 0.5
v 6 4 0.5
v 4 6 2.5
v 5 6 2.5
v 4 6 0.5
v 5 6 0.5
v 0 7 2.5
v 1 7 2.5
v 0 7 0.5
v 1 7 0.5
v 3 9 3.5
v 6 9 3.5
v 1 9 2.5
v 2 9 2.5
v 3 9 2.5
v 4 9 2.5
v 6 9 2.5
v 1 9 0.5
v 2 9 0.5
v 3 9 0.5
v 4 9 0.5
v 6 9 0.5
v 3 9 -0.5
v 6 9 -0.5
v -2 12 3.5
v -1 12 3.5
v -2 12 -0.5
v -1 12 -0.5
v -4 13 3.5
v -2 13 3.5
v -4 13 -0.5
v -2 13 -0.5
v -1 15 3.5
v 0 15 3.5
v -1 15 -0.5
v 0 15 -0.5
v 0 16 3.5
v 2 16 3.5
v 4 16 3.5
v 5 16 3.5
v 1 16 2.5
v 2 16 2.5
v 4 16 2.5
v 5 16 2.5
v 6 16 2.5
v 1 16 0.5
v 2 16 0.5
v 4 16 0.5
v 5 16 0.5
v 6 16 0.5
v 0 16 -0.5
v 2 16 -0.5
v 4 16 -0.5
v 5 16 -0.5
v 2 17 3.5
v 4 17 3.5
v 1 17 2.5
v 2 17 2.5
v 4 17 2.5
v 5 17 2.5
v 1 17 0.5
v 2 17 0.5
v 4 17 0.5
v 5 17 0.5
v 2 17 -0.5
v 4 17 -0.5

# faces
f 3/3/1 2/3/1 1/3/1
f 4/3/1 2/3/1 3/3/1
f 7/3/1 6/3/1 5/3/1
f 8/3/1 6/3/1 7/3/1
f 11/3/1 10/3/1 9/3/1
f 12/3/1 10/3/1 11/3/1
f 15/3/1 14/3/1 13/3/1
f 16/3/1 14/3/1 15/3/1
f 19/5/1 18/5/1 17/5/1
f 20/5/1 18/5/1 19/5/1
f 21/1/1 20/1/1 19/1/1
f 22/1/1 20/1/1 21/1/1
f 23/5/1 22/5/1 21/5/1
f 24/5/1 22/5/1 23/5/1
f 27/3/1 26/3/1 25/3/1
f 28/3/1 26/3/1 27/3/1
f 31/5/1 30/5/1 29/5/1
f 32/5/1 30/5/1 31/5/1
f 35/2/1 34/2/1 33/2/1
f 36/2/1 34/2/1 35/2/1
f 39/3/1 38/3/1 37/3/1
f 40/3/1 38/3/1 39/3/1
f 43/6/1 42/6/1 41/6/1
f 44/6/1 42/6/1 43/6/1
f 45/2/1 44/2/1 43/2/1
f 46/2/1 44/2/1 45/2/1
f 49/5/1 48/5/1 47/5/1
f 50/5/1 48/5/1 49/5/1
f 55/3/1 52/3/1 51/3/1
f 56/3/1 52/3/1 55/3/1
f 57/3/1 54/3/1 53/3/1
f 58/3/1 54/3/1 57/3/1
f 63/2/1 60/2/1 59/2/1
f 64/2/1 60/2/1 63/2/1
f 65/2/1 62/2/1 61/2/1
f 66/2/1 62/2/1 65/2/1
f 69/6/1 68/6/1 67/6/1
f 70/6/1 68/6/1 69/6/1
f 71/2/1 70/2/1 69/2/1
f 72/2/1 70/2/1 71/2/1
f 73/3/2 74/3/2 75/3/2
f 75/3/2 74/3/2 76/3/2
f 77/3/2 78/3/2 79/3/2
f 79/3/2 78/3/2 80/3/2
f 81/3/2 82/3/2 85/3/2
f 85/3/2 82/3/2 86/3/2
f 83/3/2 84/3/2 87/3/2
f 87/3/2 84/3/2 88/3/2
f 88/3/2 84/3/2 89/3/2
f 90/3/2 91/3/2 92/3/2
f 92/3/2 91/3/2 93/3/2
f 94/6/2 95/6/2 96/6/2
f 96/6/2 95/6/2 97/6/2
f 96/2/2 97/2/2 98/2/2
f 98/2/2 97/2/2 99/2/2
f 100/5/2 101/5/2 102/5/2
f 102/5/2 101/5/2 103/5/2
f 104/3/2 105/3/2 106/3/2
f 106/3/2 105/3/2 107/3/2
f 108/5/2 109/5/2 110/5/2
f 110/5/2 109/5/2 111/5/2
f 110/5/2 111/5/2 112/5/2
f 112/5/2 111/5/2 113/5/2
f 114/2/2 115/2/2 116/2/2
f 116/2/2 115/2/2 117/2/2
f 118/3/2 119/3/2 122/3/2
f 122/3/2 119/3/2 123/3/2
f 120/3/2 121/3/2 124/3/2
f 124/3/2 121/3/2 125/3/2
f 126/6/2 127/6/2 128/6/2
f 128/6/2 127/6/2 129/6/2
f 128/2/2 129/2/2 130/2/2
f 130/2/2 129/2/2 131/2/2
f 132/1/2 133/1/2 134/1/2
f 134/1/2 133/1/2 135/1/2
f 134/5/2 135/5/2 136/5/2
f 136/5/2 135/5/2 137/5/2
f 138/2/2 139/2/2 141/2/2
f 141/2/2 139/2/2 142/2/2
f 140/3/2 141/3/2 144/3/2
f 144/3/2 141/3/2 145/3/2
f 142/3/2 143/3/2 146/3/2
f 146/3/2 143/3/2 147/3/2
f 145/3/2 146/3/2 148/3/2
f 148/3/2 146/3/2 149/3/2
f 150/6/2 151/6/2 152/6/2
f 152/6/2 151/6/2 153/6/2
f 154/5/2 155/5/2 156/5/2
f 156/5/2 155/5/2 157/5/2
f 158/2/2 159/2/2 162/2/2
f 162/2/2 159/2/2 163/2/2
f 160/2/2 161/2/2 164/2/2
f 164/2/2 161/2/2 165/2/2
f 166/3/2 167/3/2 168/3/2
f 168/3/2 167/3/2 169/3/2
f 173/3/3 171/3/3 170/3/3
f 175/3/3 173/3/3 172/3/3
f 176/3/3 171/3/3 173/3/3
f 176/3/3 173/3/3 175/3/3
f 177/3/3 171/3/3 176/3/3
f 178/3/3 175/3/3 174/3/3
f 178/3/3 176/3/3 175/3/3
f 180/3/3 178/3/3 174/3/3
f 180/3/3 179/3/3 178/3/3
f 181/3/3 179/3/3 180/3/3
f 182/3/3 179/3/3 181/3/3
f 184/3/3 183/3/3 182/3/3
f 184/3/3 182/3/3 181/3/3
f 185/3/3 183/3/3 184/3/3
f 186/3/3 183/3/3 185/3/3
f 187/3/3 183/3/3 186/3/3
f 188/3/3 183/3/3 187/3/3
f 192/3/3 189/3/3 188/3/3
f 192/3/3 188/3/3 187/3/3
f 193/3/3 189/3/3 192/3/3
f 194/3/3 189/3/3 193/3/3
f 195/3/3 189/3/3 194/3/3
f 196/3/3 194/3/3 193/3/3
f 197/3/3 194/3/3 196/3/3
f 198/2/3 191/2/3 190/2/3
f 199/2/3 191/2/3 198/2/3
f 204/5/3 203/5/3 202/5/3
f 213/5/3 201/5/3 200/5/3
f 214/5/3 205/5/3 204/5/3
f 215/2/3 207/2/3 206/2/3
f 215/2/3 208/2/3 207/2/3
f 216/2/3 208/2/3 215/2/3
f 218/3/3 210/3/3 209/3/3
f 219/3/3 210/3/3 218/3/3
f 220/6/3 212/6/3 211/6/3
f 221/2/3 213/2/3 212/2/3
f 221/6/3 212/6/3 220/6/3
f 222/5/3 201/5/3 213/5/3
f 222/2/3 213/2/3 221/2/3
f 223/5/3 214/5/3 204/5/3
f 223/5/3 215/5/3 214/5/3
f 224/5/3 215/5/3 223/5/3
f 225/2/3 217/2/3 216/2/3
f 225/5/3 215/5/3 224/5/3
f 225/2/3 216/2/3 215/2/3
f 226/2/3 217/2/3 225/2/3
f 227/2/3 217/2/3 226/2/3
f 228/2/3 217/2/3 227/2/3
f 230/6/3 220/6/3 211/6/3
f 232/5/3 201/5/3 222/5/3
f 233/5/3 204/5/3 202/5/3
f 233/5/3 223/5/3 204/5/3
f 234/5/3 223/5/3 233/5/3
f 235/2/3 226/2/3 225/2/3
f 236/2/3 226/2/3 235/2/3
f 237/4/3 227/4/3 226/4/3
f 237/2/3 226/2/3 236/2/3
f 238/2/3 229/2/3 228/2/3
f 238/4/3 227/4/3 237/4/3
f 238/2/3 228/2/3 227/2/3
f 241/6/3 231/6/3 230/6/3
f 241/6/3 230/6/3 211/6/3
f 242/2/3 232/2/3 231/2/3
f 242/6/3 231/6/3 241/6/3
f 243/5/3 201/5/3 232/5/3
f 243/2/3 232/2/3 242/2/3
f 244/1/3 202/1/3 201/1/3
f 244/5/3 201/5/3 243/5/3
f 245/5/3 233/5/3 202/5/3
f 245/1/3 202/1/3 244/1/3
f 246/5/3 233/5/3 245/5/3
f 247/2/3 237/2/3 236/2/3
f 247/2/3 238/2/3 237/2/3
f 248/2/3 229/2/3 238/2/3
f 248/2/3 238/2/3 247/2/3
f 249/3/3 240/3/3 239/3/3
f 250/3/3 240/3/3 249/3/3
f 251/6/3 241/6/3 211/6/3
f 252/6/3 241/6/3 251/6/3
f 253/5/3 244/5/3 243/5/3
f 254/5/3 244/5/3 253/5/3
f 255/3/3 249/3/3 248/3/3
f 256/3/3 249/3/3 255/3/3
f 259/2/3 258/2/3 257/2/3
f 260/2/3 258/2/3 259/2/3
f 261/2/4 262/2/4 263/2/4
f 263/2/4 262/2/4 264/2/4
f 267/5/4 268/5/4 269/5/4
f 265/5/4 266/5/4 279/5/4
f 269/5/4 270/5/4 280/5/4
f 271/2/4 272/2/4 281/2/4
f 272/2/4 273/2/4 281/2/4
f 275/3/4 276/3/4 282/3/4
f 282/3/4 276/3/4 283/3/4
f 277/6/4 278/6/4 284/6/4
f 278/2/4 279/2/4 285/2/4
f 284/6/4 278/6/4 285/6/4
f 279/5/4 266/5/4 286/5/4
f 285/2/4 279/2/4 286/2/4
f 269/5/4 280/5/4 287/5/4
f 280/5/4 281/5/4 287/5/4
f 287/5/4 281/5/4 288/5/4
f 281/2/4 273/2/4 289/2/4
f 288/5/4 281/5/4 289/5/4
f 289/2/4 273/2/4 290/2/4
f 290/2/4 273/2/4 291/2/4
f 273/3/4 274/3/4 292/3/4
f 291/2/4 273/2/4 292/2/4
f 292/3/4 274/3/4 293/3/4
f 277/6/4 284/6/4 294/6/4
f 286/5/4 266/5/4 296/5/4
f 267/5/4 269/5/4 297/5/4
f 269/5/4 287/5/4 297/5/4
f 297/5/4 287/5/4 298/5/4
f 289/2/4 290/2/4 299/2/4
f 299/2/4 290/2/4 300/2/4
f 290/4/4 291/4/4 301/4/4
f 300/2/4 290/2/4 301/2/4
f 292/2/4 293/2/4 302/2/4
f 301/4/4 291/4/4 302/4/4
f 291/2/4 292/2/4 302/2/4
f 294/6/4 295/6/4 305/6/4
f 277/6/4 294/6/4 305/6/4
f 295/2/4 296/2/4 306/2/4
f 305/6/4 295/6/4 306/6/4
f 296/5/4 266/5/4 307/5/4
f 306/2/4 296/2/4 307/2/4
f 266/1/4 267/1/4 308/1/4
f 307/5/4 266/5/4 308/5/4
f 267/5/4 297/5/4 309/5/4
f 308/1/4 267/1/4 309/1/4
f 309/5/4 297/5/4 310/5/4
f 300/2/4 301/2/4 311/2/4
f 301/2/4 302/2/4 311/2/4
f 302/2/4 293/2/4 312/2/4
f 311/2/4 302/2/4 312/2/4
f 303/3/4 304/3/4 313/3/4
f 313/3/4 304/3/4 314/3/4
f 277/6/4 305/6/4 315/6/4
f 315/6/4 305/6/4 316/6/4
f 307/5/4 308/5/4 317/5/4
f 317/5/4 308/5/4 318/5/4
f 312/3/4 313/3/4 319/3/4
f 319/3/4 313/3/4 320/3/4
f 321/3/4 322/3/4 324/3/4
f 323/3/4 324/3/4 326/3/4
f 324/3/4 322/3/4 327/3/4
f 326/3/4 324/3/4 327/3/4
f 327/3/4 322/3/4 328/3/4
f 325/3/4 326/3/4 329/3/4
f 326/3/4 327/3/4 329/3/4
f 325/3/4 329/3/4 331/3/4
f 329/3/4 330/3/4 331/3/4
f 331/3/4 330/3/4 332/3/4
f 332/3/4 330/3/4 333/3/4
f 333/3/4 334/3/4 335/3/4
f 332/3/4 333/3/4 335/3/4
f 335/3/4 334/3/4 336/3/4
f 336/3/4 334/3/4 337/3/4
f 336/3/4 337/3/4 341/3/4
f 337/3/4 338/3/4 341/3/4
f 341/3/4 338/3/4 342/3/4
f 336/3/4 341/3/4 343/3/4
f 343/3/4 341/3/4 344/3/4
f 339/2/4 340/2/4 345/2/4
f 345/2/4 340/2/4 346/2/4
f 349/6/5 348/6/5 347/6/5
f 350/6/5 348/6/5 349/6/5
f 357/5/5 352/5/5 351/5/5
f 358/5/5 352/5/5 357/5/5
f 359/5/5 354/5/5 353/5/5
f 360/5/5 354/5/5 359/5/5
f 361/5/5 356/5/5 355/5/5
f 362/5/5 356/5/5 361/5/5
f 365/2/5 364/2/5 363/2/5
f 366/2/5 364/2/5 365/2/5
f 367/2/5 364/2/5 366/2/5
f 371/2/5 369/2/5 368/2/5
f 371/2/5 370/2/5 369/2/5
f 372/2/5 370/2/5 371/2/5
f 379/2/5 376/2/5 375/2/5
f 380/2/5 376/2/5 379/2/5
f 381/2/5 378/2/5 377/2/5
f 382/2/5 378/2/5 381/2/5
f 383/3/5 374/3/5 373/3/5
f 384/3/5 374/3/5 383/3/5
f 389/3/5 388/3/5 387/3/5
f 392/3/5 389/3/5 387/3/5
f 393/2/5 391/2/5 390/2/5
f 394/2/5 391/2/5 393/2/5
f 395/3/5 386/3/5 385/3/5
f 396/3/5 386/3/5 395/3/5
f 397/3/5 392/3/5 387/3/5
f 398/3/5 392/3/5 397/3/5
f 403/3/5 402/3/5 401/3/5
f 404/3/5 402/3/5 403/3/5
f 405/3/5 400/3/5 399/3/5
f 406/3/5 400/3/5 405/3/5
f 409/3/5 408/3/5 407/3/5
f 410/3/5 408/3/5 409/3/5
f 413/3/5 412/3/5 411/3/5
f 414/3/5 412/3/5 413/3/5
f 418/3/5 415/3/5 414/3/5
f 419/3/5 415/3/5 418/3/5
f 420/3/5 417/3/5 416/3/5
f 420/3/5 418/3/5 417/3/5
f 421/3/5 418/3/5 420/3/5
f 422/6/6 423/6/6 426/6/6
f 426/6/6 423/6/6 427/6/6
f 424/6/6 425/6/6 428/6/6
f 428/6/6 425/6/6 429/6/6
f 430/5/6 431/5/6 432/5/6
f 432/5/6 431/5/6 433/5/6
f 434/5/6 435/5/6 436/5/6
f 436/5/6 435/5/6 437/5/6
f 438/5/6 439/5/6 440/5/6
f 440/5/6 439/5/6 441/5/6
f 442/2/6 443/2/6 446/2/6
f 446/2/6 443/2/6 447/2/6
f 447/2/6 443/2/6 448/2/6
f 444/5/6 445/5/6 449/5/6
f 449/5/6 445/5/6 450/5/6
f 446/5/6 447/5/6 451/5/6
f 451/5/6 447/5/6 452/5/6
f 452/2/6 453/2/6 454/2/6
f 451/2/6 452/2/6 454/2/6
f 454/2/6 453/2/6 455/2/6
f 456/3/6 457/3/6 458/3/6
f 458/3/6 457/3/6 459/3/6
f 460/3/6 461/3/6 462/3/6
f 462/3/6 461/3/6 463/3/6
f 464/3/6 465/3/6 466/3/6
f 466/3/6 465/3/6 467/3/6
f 468/3/6 469/3/6 472/3/6
f 472/3/6 469/3/6 473/3/6
f 470/3/6 471/3/6 474/3/6
f 474/3/6 471/3/6 475/3/6
f 468/3/6 472/3/6 477/3/6
f 475/3/6 476/3/6 480/3/6
f 480/3/6 476/3/6 481/3/6
f 477/3/6 478/3/6 482/3/6
f 468/3/6 477/3/6 482/3/6
f 482/3/6 478/3/6 483/3/6
f 479/3/6 480/3/6 484/3/6
f 484/3/6 480/3/6 485/3/6
f 486/3/6 487/3/6 489/3/6
f 489/3/6 487/3/6 490/3/6
f 488/3/6 489/3/6 492/3/6
f 490/3/6 491/3/6 492/3/6
f 489/3/6 490/3/6 492/3/6
f 492/3/6 491/3/6 493/3/6
f 493/3/6 491/3/6 494/3/6
f 494/3/6 491/3/6 495/3/6
f 493/3/6 494/3/6 496/3/6
f 496/3/6 494/3/6 497/3/6
