# MagicaVoxel @ Ephtracy

# group
o 

# material
mtllib Bohrer only hand.mtl
usemtl palette

# normals
vn -1 0 0
vn 1 0 0
vn 0 0 1
vn 0 0 -1
vn 0 -1 0
vn 0 1 0

# texcoords
vt 0.912109 0.5
vt 0.916016 0.5

# verts
v 0.2 2 -1.7
v 0.2 2 -1.8
v 0.2 2 -2.3
v 0.2 2 -2.4
v 0.2 3.9 -1.8
v 0.2 3.9 -2.3
v 0.2 4 -1.7
v 0.2 4 -2.4
v 0.3 2 -1.6
v 0.3 2 -1.7
v 0.3 2 -2.4
v 0.3 2 -2.5
v 0.3 3.9 -1.6
v 0.3 3.9 -1.7
v 0.3 3.9 -2.4
v 0.3 3.9 -2.5
v 0.3 4 -1.8
v 0.3 4 -2.3
v 0.3 4.1 -1.8
v 0.3 4.1 -2.3
v 0.6 2 -1.2
v 0.6 2 -1.6
v 0.6 2 -2.5
v 0.6 2 -2.8
v 0.6 3.9 -1.6
v 0.6 3.9 -1.7
v 0.6 3.9 -2.4
v 0.6 3.9 -2.5
v 0.6 4 -1.7
v 0.6 4 -1.8
v 0.6 4 -2.3
v 0.6 4 -2.4
v 0.6 4.1 -1.8
v 0.6 4.1 -2.3
v 0.6 4.3 -1.2
v 0.6 4.3 -2.8
v 0.8 2 -1.1
v 0.8 2 -1.2
v 0.8 4 -1.1
v 0.8 4 -1.2
v 0.9 4 -1.1
v 0.9 4 -1.2
v 0.9 4.2 -1.1
v 0.9 4.2 -1.2
v 1.7 2 -1.1
v 1.7 2 -1.2
v 1.7 4 -1.1
v 1.7 4 -1.2
v 1.8 4 -1.1
v 1.8 4 -1.2
v 1.8 4.2 -1.1
v 1.8 4.2 -1.2
v 2.6 2 -1.1
v 2.6 2 -1.2
v 2.6 4 -1.1
v 2.6 4 -1.2
v 2.7 4 -1.1
v 2.7 4 -1.2
v 2.7 4.2 -1.1
v 2.7 4.2 -1.2
v 1.3 4 -1.1
v 1.3 4 -1.2
v 1.3 4.2 -1.1
v 1.3 4.2 -1.2
v 1.4 2 -1.1
v 1.4 2 -1.2
v 1.4 4 -1.1
v 1.4 4 -1.2
v 2.2 4 -1.1
v 2.2 4 -1.2
v 2.2 4.2 -1.1
v 2.2 4.2 -1.2
v 2.3 2 -1.1
v 2.3 2 -1.2
v 2.3 4 -1.1
v 2.3 4 -1.2
v 3.1 4 -1.1
v 3.1 4 -1.2
v 3.1 4.2 -1.1
v 3.1 4.2 -1.2
v 3.2 2 -1.1
v 3.2 2 -1.2
v 3.2 4 -1.1
v 3.2 4 -1.2
v 3.4 2 -1.2
v 3.4 2 -1.6
v 3.4 2 -2.5
v 3.4 2 -2.8
v 3.4 3.9 -1.6
v 3.4 3.9 -1.7
v 3.4 3.9 -2.4
v 3.4 3.9 -2.5
v 3.4 4 -1.7
v 3.4 4 -1.8
v 3.4 4 -2.3
v 3.4 4 -2.4
v 3.4 4.1 -1.8
v 3.4 4.1 -2.3
v 3.4 4.3 -1.2
v 3.4 4.3 -2.8
v 3.7 2 -1.6
v 3.7 2 -1.7
v 3.7 2 -2.4
v 3.7 2 -2.5
v 3.7 3.9 -1.6
v 3.7 3.9 -1.7
v 3.7 3.9 -2.4
v 3.7 3.9 -2.5
v 3.7 4 -1.8
v 3.7 4 -2.3
v 3.7 4.1 -1.8
v 3.7 4.1 -2.3
v 3.8 2 -1.7
v 3.8 2 -1.8
v 3.8 2 -2.3
v 3.8 2 -2.4
v 3.8 3.9 -1.8
v 3.8 3.9 -2.3
v 3.8 4 -1.7
v 3.8 4 -2.4
v 0.8 2 -1.1
v 0.8 4 -1.1
v 0.9 2 -1.1
v 0.9 3.9 -1.1
v 0.9 4 -1.1
v 0.9 4.2 -1.1
v 1 3.9 -1.1
v 1 4.1 -1.1
v 1.2 3.9 -1.1
v 1.2 4.1 -1.1
v 1.3 2 -1.1
v 1.3 3.9 -1.1
v 1.3 4 -1.1
v 1.3 4.2 -1.1
v 1.4 2 -1.1
v 1.4 4 -1.1
v 1.7 2 -1.1
v 1.7 4 -1.1
v 1.8 2 -1.1
v 1.8 3.9 -1.1
v 1.8 4 -1.1
v 1.8 4.2 -1.1
v 1.9 3.9 -1.1
v 1.9 4.1 -1.1
v 2.1 3.9 -1.1
v 2.1 4.1 -1.1
v 2.2 2 -1.1
v 2.2 3.9 -1.1
v 2.2 4 -1.1
v 2.2 4.2 -1.1
v 2.3 2 -1.1
v 2.3 4 -1.1
v 2.6 2 -1.1
v 2.6 4 -1.1
v 2.7 2 -1.1
v 2.7 3.9 -1.1
v 2.7 4 -1.1
v 2.7 4.2 -1.1
v 2.8 3.9 -1.1
v 2.8 4.1 -1.1
v 3 3.9 -1.1
v 3 4.1 -1.1
v 3.1 2 -1.1
v 3.1 3.9 -1.1
v 3.1 4 -1.1
v 3.1 4.2 -1.1
v 3.2 2 -1.1
v 3.2 4 -1.1
v 0.6 2 -1.2
v 0.6 4.3 -1.2
v 0.8 2 -1.2
v 0.8 4 -1.2
v 0.9 4 -1.2
v 0.9 4.2 -1.2
v 1.3 4 -1.2
v 1.3 4.2 -1.2
v 1.4 2 -1.2
v 1.4 4 -1.2
v 1.7 2 -1.2
v 1.7 4 -1.2
v 1.8 4 -1.2
v 1.8 4.2 -1.2
v 2.2 4 -1.2
v 2.2 4.2 -1.2
v 2.3 2 -1.2
v 2.3 4 -1.2
v 2.6 2 -1.2
v 2.6 4 -1.2
v 2.7 4 -1.2
v 2.7 4.2 -1.2
v 3.1 4 -1.2
v 3.1 4.2 -1.2
v 3.2 2 -1.2
v 3.2 4 -1.2
v 3.4 2 -1.2
v 3.4 4.3 -1.2
v 0.3 2 -1.6
v 0.3 3.9 -1.6
v 0.6 2 -1.6
v 0.6 3.9 -1.6
v 3.4 2 -1.6
v 3.4 3.9 -1.6
v 3.7 2 -1.6
v 3.7 3.9 -1.6
v 0.2 2 -1.7
v 0.2 4 -1.7
v 0.3 2 -1.7
v 0.3 3.9 -1.7
v 0.6 3.9 -1.7
v 0.6 4 -1.7
v 3.4 3.9 -1.7
v 3.4 4 -1.7
v 3.7 2 -1.7
v 3.7 3.9 -1.7
v 3.8 2 -1.7
v 3.8 4 -1.7
v 0.3 4 -1.8
v 0.3 4.1 -1.8
v 0.6 4 -1.8
v 0.6 4.1 -1.8
v 3.4 4 -1.8
v 3.4 4.1 -1.8
v 3.7 4 -1.8
v 3.7 4.1 -1.8
v 0.3 4 -2.3
v 0.3 4.1 -2.3
v 0.6 4 -2.3
v 0.6 4.1 -2.3
v 3.4 4 -2.3
v 3.4 4.1 -2.3
v 3.7 4 -2.3
v 3.7 4.1 -2.3
v 0.2 2 -2.4
v 0.2 4 -2.4
v 0.3 2 -2.4
v 0.3 3.9 -2.4
v 0.6 3.9 -2.4
v 0.6 4 -2.4
v 3.4 3.9 -2.4
v 3.4 4 -2.4
v 3.7 2 -2.4
v 3.7 3.9 -2.4
v 3.8 2 -2.4
v 3.8 4 -2.4
v 0.3 2 -2.5
v 0.3 3.9 -2.5
v 0.6 2 -2.5
v 0.6 3.9 -2.5
v 3.4 2 -2.5
v 3.4 3.9 -2.5
v 3.7 2 -2.5
v 3.7 3.9 -2.5
v 0.6 2 -2.8
v 0.6 4.3 -2.8
v 3.4 2 -2.8
v 3.4 4.3 -2.8
v 0.8 2 -1.1
v 0.9 2 -1.1
v 1.3 2 -1.1
v 1.4 2 -1.1
v 1.7 2 -1.1
v 1.8 2 -1.1
v 2.2 2 -1.1
v 2.3 2 -1.1
v 2.6 2 -1.1
v 2.7 2 -1.1
v 3.1 2 -1.1
v 3.2 2 -1.1
v 0.6 2 -1.2
v 0.8 2 -1.2
v 0.9 2 -1.2
v 1.3 2 -1.2
v 1.4 2 -1.2
v 1.7 2 -1.2
v 1.8 2 -1.2
v 2.2 2 -1.2
v 2.3 2 -1.2
v 2.6 2 -1.2
v 2.7 2 -1.2
v 3.1 2 -1.2
v 3.2 2 -1.2
v 3.4 2 -1.2
v 0.3 2 -1.6
v 0.6 2 -1.6
v 3.4 2 -1.6
v 3.7 2 -1.6
v 0.2 2 -1.7
v 0.3 2 -1.7
v 0.6 2 -1.7
v 3.4 2 -1.7
v 3.7 2 -1.7
v 3.8 2 -1.7
v 0.2 2 -1.8
v 0.3 2 -1.8
v 3.7 2 -1.8
v 3.8 2 -1.8
v 0.2 2 -2.3
v 0.3 2 -2.3
v 3.7 2 -2.3
v 3.8 2 -2.3
v 0.2 2 -2.4
v 0.3 2 -2.4
v 0.6 2 -2.4
v 3.4 2 -2.4
v 3.7 2 -2.4
v 3.8 2 -2.4
v 0.3 2 -2.5
v 0.6 2 -2.5
v 3.4 2 -2.5
v 3.7 2 -2.5
v 0.6 2 -2.8
v 3.4 2 -2.8
v 0.3 3.9 -1.6
v 0.6 3.9 -1.6
v 3.4 3.9 -1.6
v 3.7 3.9 -1.6
v 0.3 3.9 -1.7
v 0.6 3.9 -1.7
v 3.4 3.9 -1.7
v 3.7 3.9 -1.7
v 0.3 3.9 -2.4
v 0.6 3.9 -2.4
v 3.4 3.9 -2.4
v 3.7 3.9 -2.4
v 0.3 3.9 -2.5
v 0.6 3.9 -2.5
v 3.4 3.9 -2.5
v 3.7 3.9 -2.5
v 0.8 4 -1.1
v 0.9 4 -1.1
v 1.3 4 -1.1
v 1.4 4 -1.1
v 1.7 4 -1.1
v 1.8 4 -1.1
v 2.2 4 -1.1
v 2.3 4 -1.1
v 2.6 4 -1.1
v 2.7 4 -1.1
v 3.1 4 -1.1
v 3.2 4 -1.1
v 0.8 4 -1.2
v 0.9 4 -1.2
v 1.3 4 -1.2
v 1.4 4 -1.2
v 1.7 4 -1.2
v 1.8 4 -1.2
v 2.2 4 -1.2
v 2.3 4 -1.2
v 2.6 4 -1.2
v 2.7 4 -1.2
v 3.1 4 -1.2
v 3.2 4 -1.2
v 0.2 4 -1.7
v 0.6 4 -1.7
v 3.4 4 -1.7
v 3.8 4 -1.7
v 0.3 4 -1.8
v 0.6 4 -1.8
v 3.4 4 -1.8
v 3.7 4 -1.8
v 0.3 4 -2.3
v 0.6 4 -2.3
v 3.4 4 -2.3
v 3.7 4 -2.3
v 0.2 4 -2.4
v 0.6 4 -2.4
v 3.4 4 -2.4
v 3.8 4 -2.4
v 0.3 4.1 -1.8
v 0.6 4.1 -1.8
v 3.4 4.1 -1.8
v 3.7 4.1 -1.8
v 0.3 4.1 -2.3
v 0.6 4.1 -2.3
v 3.4 4.1 -2.3
v 3.7 4.1 -2.3
v 0.9 4.2 -1.1
v 1.3 4.2 -1.1
v 1.8 4.2 -1.1
v 2.2 4.2 -1.1
v 2.7 4.2 -1.1
v 3.1 4.2 -1.1
v 0.9 4.2 -1.2
v 1.3 4.2 -1.2
v 1.8 4.2 -1.2
v 2.2 4.2 -1.2
v 2.7 4.2 -1.2
v 3.1 4.2 -1.2
v 0.6 4.3 -1.2
v 3.4 4.3 -1.2
v 0.6 4.3 -2.8
v 3.4 4.3 -2.8

# faces
f 5/2/1 2/2/1 1/2/1
f 5/1/1 3/1/1 2/1/1
f 6/2/1 4/2/1 3/2/1
f 6/1/1 3/1/1 5/1/1
f 7/2/1 5/2/1 1/2/1
f 7/2/1 6/2/1 5/2/1
f 8/2/1 4/2/1 6/2/1
f 8/2/1 6/2/1 7/2/1
f 13/1/1 10/1/1 9/1/1
f 14/1/1 10/1/1 13/1/1
f 15/1/1 12/1/1 11/1/1
f 16/1/1 12/1/1 15/1/1
f 19/1/1 18/1/1 17/1/1
f 20/1/1 18/1/1 19/1/1
f 25/2/1 22/2/1 21/2/1
f 28/2/1 24/2/1 23/2/1
f 29/2/1 26/2/1 25/2/1
f 32/2/1 28/2/1 27/2/1
f 33/2/1 30/2/1 29/2/1
f 34/2/1 32/2/1 31/2/1
f 35/2/1 33/2/1 29/2/1
f 35/2/1 34/2/1 33/2/1
f 35/2/1 25/2/1 21/2/1
f 35/2/1 29/2/1 25/2/1
f 36/2/1 32/2/1 34/2/1
f 36/2/1 34/2/1 35/2/1
f 36/2/1 24/2/1 28/2/1
f 36/2/1 28/2/1 32/2/1
f 39/2/1 38/2/1 37/2/1
f 40/2/1 38/2/1 39/2/1
f 43/2/1 42/2/1 41/2/1
f 44/2/1 42/2/1 43/2/1
f 47/2/1 46/2/1 45/2/1
f 48/2/1 46/2/1 47/2/1
f 51/2/1 50/2/1 49/2/1
f 52/2/1 50/2/1 51/2/1
f 55/2/1 54/2/1 53/2/1
f 56/2/1 54/2/1 55/2/1
f 59/2/1 58/2/1 57/2/1
f 60/2/1 58/2/1 59/2/1
f 61/2/2 62/2/2 63/2/2
f 63/2/2 62/2/2 64/2/2
f 65/2/2 66/2/2 67/2/2
f 67/2/2 66/2/2 68/2/2
f 69/2/2 70/2/2 71/2/2
f 71/2/2 70/2/2 72/2/2
f 73/2/2 74/2/2 75/2/2
f 75/2/2 74/2/2 76/2/2
f 77/2/2 78/2/2 79/2/2
f 79/2/2 78/2/2 80/2/2
f 81/2/2 82/2/2 83/2/2
f 83/2/2 82/2/2 84/2/2
f 85/2/2 86/2/2 89/2/2
f 87/2/2 88/2/2 92/2/2
f 89/2/2 90/2/2 93/2/2
f 91/2/2 92/2/2 96/2/2
f 93/2/2 94/2/2 97/2/2
f 95/2/2 96/2/2 98/2/2
f 93/2/2 97/2/2 99/2/2
f 97/2/2 98/2/2 99/2/2
f 85/2/2 89/2/2 99/2/2
f 89/2/2 93/2/2 99/2/2
f 98/2/2 96/2/2 100/2/2
f 99/2/2 98/2/2 100/2/2
f 92/2/2 88/2/2 100/2/2
f 96/2/2 92/2/2 100/2/2
f 101/1/2 102/1/2 105/1/2
f 105/1/2 102/1/2 106/1/2
f 103/1/2 104/1/2 107/1/2
f 107/1/2 104/1/2 108/1/2
f 109/1/2 110/1/2 111/1/2
f 111/1/2 110/1/2 112/1/2
f 113/2/2 114/2/2 117/2/2
f 114/1/2 115/1/2 117/1/2
f 115/2/2 116/2/2 118/2/2
f 117/1/2 115/1/2 118/1/2
f 113/2/2 117/2/2 119/2/2
f 117/2/2 118/2/2 119/2/2
f 118/2/2 116/2/2 120/2/2
f 119/2/2 118/2/2 120/2/2
f 123/2/3 122/2/3 121/2/3
f 124/2/3 122/2/3 123/2/3
f 125/2/3 122/2/3 124/2/3
f 127/1/3 124/1/3 123/1/3
f 127/2/3 126/2/3 125/2/3
f 127/2/3 125/2/3 124/2/3
f 128/2/3 126/2/3 127/2/3
f 129/1/3 127/1/3 123/1/3
f 129/1/3 128/1/3 127/1/3
f 130/2/3 126/2/3 128/2/3
f 130/1/3 128/1/3 129/1/3
f 131/1/3 129/1/3 123/1/3
f 132/2/3 130/2/3 129/2/3
f 132/1/3 129/1/3 131/1/3
f 133/2/3 130/2/3 132/2/3
f 134/2/3 126/2/3 130/2/3
f 134/2/3 130/2/3 133/2/3
f 135/2/3 133/2/3 132/2/3
f 135/2/3 132/2/3 131/2/3
f 136/2/3 133/2/3 135/2/3
f 139/2/3 138/2/3 137/2/3
f 140/2/3 138/2/3 139/2/3
f 141/2/3 138/2/3 140/2/3
f 143/2/3 141/2/3 140/2/3
f 143/2/3 142/2/3 141/2/3
f 143/1/3 140/1/3 139/1/3
f 144/2/3 142/2/3 143/2/3
f 145/1/3 143/1/3 139/1/3
f 145/1/3 144/1/3 143/1/3
f 146/2/3 142/2/3 144/2/3
f 146/1/3 144/1/3 145/1/3
f 147/1/3 145/1/3 139/1/3
f 148/2/3 146/2/3 145/2/3
f 148/1/3 145/1/3 147/1/3
f 149/2/3 146/2/3 148/2/3
f 150/2/3 142/2/3 146/2/3
f 150/2/3 146/2/3 149/2/3
f 151/2/3 149/2/3 148/2/3
f 151/2/3 148/2/3 147/2/3
f 152/2/3 149/2/3 151/2/3
f 155/2/3 154/2/3 153/2/3
f 156/2/3 154/2/3 155/2/3
f 157/2/3 154/2/3 156/2/3
f 159/2/3 157/2/3 156/2/3
f 159/2/3 158/2/3 157/2/3
f 159/1/3 156/1/3 155/1/3
f 160/2/3 158/2/3 159/2/3
f 161/1/3 159/1/3 155/1/3
f 161/1/3 160/1/3 159/1/3
f 162/2/3 158/2/3 160/2/3
f 162/1/3 160/1/3 161/1/3
f 163/1/3 161/1/3 155/1/3
f 164/2/3 162/2/3 161/2/3
f 164/1/3 161/1/3 163/1/3
f 165/2/3 162/2/3 164/2/3
f 166/2/3 158/2/3 162/2/3
f 166/2/3 162/2/3 165/2/3
f 167/2/3 165/2/3 164/2/3
f 167/2/3 164/2/3 163/2/3
f 168/2/3 165/2/3 167/2/3
f 171/2/3 170/2/3 169/2/3
f 172/2/3 170/2/3 171/2/3
f 173/2/3 170/2/3 172/2/3
f 174/2/3 170/2/3 173/2/3
f 176/2/3 170/2/3 174/2/3
f 178/2/3 176/2/3 175/2/3
f 179/2/3 178/2/3 177/2/3
f 180/2/3 176/2/3 178/2/3
f 180/2/3 178/2/3 179/2/3
f 181/2/3 176/2/3 180/2/3
f 182/2/3 170/2/3 176/2/3
f 182/2/3 176/2/3 181/2/3
f 184/2/3 170/2/3 182/2/3
f 186/2/3 184/2/3 183/2/3
f 187/2/3 186/2/3 185/2/3
f 188/2/3 184/2/3 186/2/3
f 188/2/3 186/2/3 187/2/3
f 189/2/3 184/2/3 188/2/3
f 190/2/3 170/2/3 184/2/3
f 190/2/3 184/2/3 189/2/3
f 192/2/3 170/2/3 190/2/3
f 194/2/3 192/2/3 191/2/3
f 195/2/3 194/2/3 193/2/3
f 196/2/3 170/2/3 192/2/3
f 196/2/3 194/2/3 195/2/3
f 196/2/3 192/2/3 194/2/3
f 199/1/3 198/1/3 197/1/3
f 200/1/3 198/1/3 199/1/3
f 203/1/3 202/1/3 201/1/3
f 204/1/3 202/1/3 203/1/3
f 207/2/3 206/2/3 205/2/3
f 208/2/3 206/2/3 207/2/3
f 209/2/3 206/2/3 208/2/3
f 210/2/3 206/2/3 209/2/3
f 214/2/3 212/2/3 211/2/3
f 215/2/3 214/2/3 213/2/3
f 216/2/3 212/2/3 214/2/3
f 216/2/3 214/2/3 215/2/3
f 219/1/3 218/1/3 217/1/3
f 220/1/3 218/1/3 219/1/3
f 223/1/3 222/1/3 221/1/3
f 224/1/3 222/1/3 223/1/3
f 225/1/4 226/1/4 227/1/4
f 227/1/4 226/1/4 228/1/4
f 229/1/4 230/1/4 231/1/4
f 231/1/4 230/1/4 232/1/4
f 233/2/4 234/2/4 235/2/4
f 235/2/4 234/2/4 236/2/4
f 236/2/4 234/2/4 237/2/4
f 237/2/4 234/2/4 238/2/4
f 239/2/4 240/2/4 242/2/4
f 241/2/4 242/2/4 243/2/4
f 242/2/4 240/2/4 244/2/4
f 243/2/4 242/2/4 244/2/4
f 245/1/4 246/1/4 247/1/4
f 247/1/4 246/1/4 248/1/4
f 249/1/4 250/1/4 251/1/4
f 251/1/4 250/1/4 252/1/4
f 253/2/4 254/2/4 255/2/4
f 255/2/4 254/2/4 256/2/4
f 270/2/5 258/2/5 257/2/5
f 271/1/5 259/1/5 258/1/5
f 271/2/5 258/2/5 270/2/5
f 272/2/5 260/2/5 259/2/5
f 272/1/5 259/1/5 271/1/5
f 273/2/5 260/2/5 272/2/5
f 274/2/5 262/2/5 261/2/5
f 275/1/5 263/1/5 262/1/5
f 275/2/5 262/2/5 274/2/5
f 276/2/5 264/2/5 263/2/5
f 276/1/5 263/1/5 275/1/5
f 277/2/5 264/2/5 276/2/5
f 278/2/5 266/2/5 265/2/5
f 279/1/5 267/1/5 266/1/5
f 279/2/5 266/2/5 278/2/5
f 280/2/5 268/2/5 267/2/5
f 280/1/5 267/1/5 279/1/5
f 281/2/5 268/2/5 280/2/5
f 284/2/5 279/2/5 278/2/5
f 284/2/5 282/2/5 281/2/5
f 284/2/5 281/2/5 280/2/5
f 284/2/5 280/2/5 279/2/5
f 284/2/5 270/2/5 269/2/5
f 284/2/5 276/2/5 275/2/5
f 284/2/5 271/2/5 270/2/5
f 284/2/5 272/2/5 271/2/5
f 284/2/5 273/2/5 272/2/5
f 284/2/5 278/2/5 277/2/5
f 284/2/5 277/2/5 276/2/5
f 284/2/5 275/2/5 274/2/5
f 284/2/5 274/2/5 273/2/5
f 285/2/5 282/2/5 284/2/5
f 288/1/5 284/1/5 283/1/5
f 289/2/5 285/2/5 284/2/5
f 289/1/5 284/1/5 288/1/5
f 290/1/5 286/1/5 285/1/5
f 290/2/5 285/2/5 289/2/5
f 291/1/5 286/1/5 290/1/5
f 293/2/5 289/2/5 288/2/5
f 293/2/5 292/2/5 291/2/5
f 293/2/5 291/2/5 290/2/5
f 293/2/5 290/2/5 289/2/5
f 293/2/5 288/2/5 287/2/5
f 294/2/5 292/2/5 293/2/5
f 295/2/5 292/2/5 294/2/5
f 296/2/5 292/2/5 295/2/5
f 297/1/5 294/1/5 293/1/5
f 298/2/5 295/2/5 294/2/5
f 298/1/5 294/1/5 297/1/5
f 299/1/5 296/1/5 295/1/5
f 299/2/5 295/2/5 298/2/5
f 300/1/5 296/1/5 299/1/5
f 301/2/5 298/2/5 297/2/5
f 301/2/5 299/2/5 298/2/5
f 301/2/5 300/2/5 299/2/5
f 302/2/5 300/2/5 301/2/5
f 303/2/5 300/2/5 302/2/5
f 304/2/5 300/2/5 303/2/5
f 305/2/5 300/2/5 304/2/5
f 306/2/5 300/2/5 305/2/5
f 307/1/5 303/1/5 302/1/5
f 308/2/5 304/2/5 303/2/5
f 308/1/5 303/1/5 307/1/5
f 309/1/5 305/1/5 304/1/5
f 309/2/5 304/2/5 308/2/5
f 310/1/5 305/1/5 309/1/5
f 311/2/5 309/2/5 308/2/5
f 312/2/5 309/2/5 311/2/5
f 313/1/6 314/1/6 317/1/6
f 317/1/6 314/1/6 318/1/6
f 315/1/6 316/1/6 319/1/6
f 319/1/6 316/1/6 320/1/6
f 321/1/6 322/1/6 325/1/6
f 325/1/6 322/1/6 326/1/6
f 323/1/6 324/1/6 327/1/6
f 327/1/6 324/1/6 328/1/6
f 329/2/6 330/2/6 341/2/6
f 341/2/6 330/2/6 342/2/6
f 331/2/6 332/2/6 343/2/6
f 343/2/6 332/2/6 344/2/6
f 333/2/6 334/2/6 345/2/6
f 345/2/6 334/2/6 346/2/6
f 335/2/6 336/2/6 347/2/6
f 347/2/6 336/2/6 348/2/6
f 337/2/6 338/2/6 349/2/6
f 349/2/6 338/2/6 350/2/6
f 339/2/6 340/2/6 351/2/6
f 351/2/6 340/2/6 352/2/6
f 353/2/6 354/2/6 357/2/6
f 357/2/6 354/2/6 358/2/6
f 355/2/6 356/2/6 359/2/6
f 359/2/6 356/2/6 360/2/6
f 353/2/6 357/2/6 361/2/6
f 360/2/6 356/2/6 364/2/6
f 361/2/6 362/2/6 365/2/6
f 353/2/6 361/2/6 365/2/6
f 365/2/6 362/2/6 366/2/6
f 363/2/6 364/2/6 367/2/6
f 364/2/6 356/2/6 368/2/6
f 367/2/6 364/2/6 368/2/6
f 369/1/6 370/1/6 373/1/6
f 373/1/6 370/1/6 374/1/6
f 371/1/6 372/1/6 375/1/6
f 375/1/6 372/1/6 376/1/6
f 377/2/6 378/2/6 383/2/6
f 383/2/6 378/2/6 384/2/6
f 379/2/6 380/2/6 385/2/6
f 385/2/6 380/2/6 386/2/6
f 381/2/6 382/2/6 387/2/6
f 387/2/6 382/2/6 388/2/6
f 389/2/6 390/2/6 391/2/6
f 391/2/6 390/2/6 392/2/6
