# MagicaVoxel @ Ephtracy

# group
o 

# material
mtllib ampel closed 1.mtl
usemtl palette

# normals
vn -1 0 0
vn 1 0 0
vn 0 0 1
vn 0 0 -1
vn 0 -1 0
vn 0 1 0

# texcoords
vt 0.0136719 0.5
vt 0.841797 0.5
vt 0.845703 0.5
vt 0.876953 0.5
vt 0.962891 0.5
vt 0.966797 0.5
vt 0.990234 0.5
vt 0.994141 0.5

# verts
v 0 4 -2.3
v 0 4 -2.5
v 0 4.8 -2.3
v 0 4.8 -2.5
v 0.1 2 0
v 0.1 2 -0.6
v 0.1 2 -2
v 0.1 2 -2.6
v 0.1 2.4 0
v 0.1 2.4 -0.6
v 0.1 2.4 -2
v 0.1 2.4 -2.6
v 0.1 4.1 -2.2
v 0.1 4.1 -2.3
v 0.1 4.1 -2.5
v 0.1 4.1 -2.6
v 0.1 4.7 -2.2
v 0.1 4.7 -2.3
v 0.1 4.7 -2.5
v 0.1 4.7 -2.6
v 0.3 2.4 -2.3
v 0.3 2.4 -2.5
v 0.3 4 -2.3
v 0.3 4 -2.5
v 0.5 2.4 -0.4
v 0.5 2.4 -0.6
v 0.5 2.4 -2
v 0.5 2.4 -2.3
v 0.5 2.4 -2.5
v 0.5 2.4 -2.6
v 0.5 2.6 -0.4
v 0.5 2.6 -0.6
v 0.5 2.6 -2
v 0.5 2.6 -2.2
v 0.5 2.8 -2
v 0.5 2.8 -2.2
v 0.5 2.8 -2.3
v 0.5 2.8 -2.5
v 0.5 2.8 -2.6
v 0.5 3 -2
v 0.5 3 -2.2
v 0.5 3.1 -1.9
v 0.5 3.1 -2
v 0.5 3.2 -1.8
v 0.5 3.2 -1.9
v 0.5 3.2 -2.1
v 0.5 3.2 -2.2
v 0.5 3.3 -2
v 0.5 3.3 -2.1
v 0.5 3.4 -1.8
v 0.5 3.4 -2
v 0.5 3.6 -1.8
v 0.5 3.6 -2
v 0.5 3.7 -1.7
v 0.5 3.7 -1.8
v 0.5 3.8 -1.6
v 0.5 3.8 -1.7
v 0.5 3.8 -1.8
v 0.5 3.8 -1.9
v 0.5 3.8 -2
v 0.5 3.9 -1.8
v 0.5 3.9 -1.9
v 0.5 4 -1.6
v 0.5 4 -1.8
v 0.5 4.2 -1.6
v 0.5 4.2 -1.8
v 0.5 4.4 -1.6
v 0.5 4.4 -1.8
v 0.6 4.2 -2.4
v 0.6 4.2 -2.5
v 0.6 4.3 -2.5
v 0.6 4.5 -2.5
v 0.6 4.6 -2.4
v 0.6 4.6 -2.5
v 0.7 2.6 -0.4
v 0.7 2.6 -0.6
v 0.7 2.8 -0.4
v 0.7 2.8 -0.6
v 0.2 4.2 -2.4
v 0.2 4.2 -2.5
v 0.2 4.3 -2.5
v 0.2 4.5 -2.5
v 0.2 4.6 -2.4
v 0.2 4.6 -2.5
v 0.5 2.8 -2.3
v 0.5 2.8 -2.5
v 0.5 4 -2.3
v 0.5 4 -2.5
v 0.7 2.8 -2
v 0.7 2.8 -2.2
v 0.7 3 -2
v 0.7 3 -2.2
v 0.7 3.1 -1.9
v 0.7 3.1 -2
v 0.7 3.2 -1.8
v 0.7 3.2 -1.9
v 0.7 3.2 -2.1
v 0.7 3.2 -2.2
v 0.7 3.3 -2
v 0.7 3.3 -2.1
v 0.7 3.4 -1.8
v 0.7 3.4 -2
v 0.7 3.6 -1.8
v 0.7 3.6 -2
v 0.7 3.7 -1.7
v 0.7 3.7 -1.8
v 0.7 3.8 -1.6
v 0.7 3.8 -1.7
v 0.7 3.8 -1.8
v 0.7 3.8 -1.9
v 0.7 3.8 -2
v 0.7 3.9 -1.8
v 0.7 3.9 -1.9
v 0.7 4 -1.6
v 0.7 4 -1.8
v 0.7 4.1 -2.2
v 0.7 4.1 -2.3
v 0.7 4.1 -2.5
v 0.7 4.1 -2.6
v 0.7 4.2 -1.6
v 0.7 4.2 -1.8
v 0.7 4.4 -1.6
v 0.7 4.4 -1.8
v 0.7 4.7 -2.2
v 0.7 4.7 -2.3
v 0.7 4.7 -2.5
v 0.7 4.7 -2.6
v 0.8 2 0
v 0.8 2 -0.6
v 0.8 2 -2
v 0.8 2 -2.6
v 0.8 2.4 0
v 0.8 2.4 -0.4
v 0.8 2.4 -0.6
v 0.8 2.4 -2
v 0.8 2.4 -2.6
v 0.8 2.8 -0.4
v 0.8 2.8 -0.6
v 0.8 2.8 -2
v 0.8 2.8 -2.6
v 0.8 4 -2.3
v 0.8 4 -2.5
v 0.8 4.8 -2.3
v 0.8 4.8 -2.5
v 0.1 2 0
v 0.1 2.4 0
v 0.8 2 0
v 0.8 2.4 0
v 0.5 2.4 -0.4
v 0.5 2.6 -0.4
v 0.7 2.6 -0.4
v 0.7 2.8 -0.4
v 0.8 2.4 -0.4
v 0.8 2.8 -0.4
v 0.5 3.8 -1.6
v 0.5 4 -1.6
v 0.5 4.2 -1.6
v 0.5 4.4 -1.6
v 0.7 3.8 -1.6
v 0.7 4 -1.6
v 0.7 4.2 -1.6
v 0.7 4.4 -1.6
v 0.5 3.7 -1.7
v 0.5 3.8 -1.7
v 0.7 3.7 -1.7
v 0.7 3.8 -1.7
v 0.5 3.2 -1.8
v 0.5 3.4 -1.8
v 0.5 3.6 -1.8
v 0.5 3.7 -1.8
v 0.7 3.2 -1.8
v 0.7 3.4 -1.8
v 0.7 3.6 -1.8
v 0.7 3.7 -1.8
v 0.5 3.1 -1.9
v 0.5 3.2 -1.9
v 0.7 3.1 -1.9
v 0.7 3.2 -1.9
v 0.1 2 -2
v 0.1 2.4 -2
v 0.5 2.4 -2
v 0.5 2.6 -2
v 0.5 2.8 -2
v 0.5 3 -2
v 0.5 3.1 -2
v 0.7 2.6 -2
v 0.7 2.8 -2
v 0.7 3 -2
v 0.7 3.1 -2
v 0.8 2 -2
v 0.8 2.4 -2
v 0.8 2.8 -2
v 0.1 4.1 -2.2
v 0.1 4.7 -2.2
v 0.2 4.2 -2.2
v 0.2 4.3 -2.2
v 0.2 4.5 -2.2
v 0.2 4.6 -2.2
v 0.3 4.2 -2.2
v 0.3 4.3 -2.2
v 0.3 4.5 -2.2
v 0.3 4.6 -2.2
v 0.5 4.2 -2.2
v 0.5 4.3 -2.2
v 0.5 4.5 -2.2
v 0.5 4.6 -2.2
v 0.6 4.2 -2.2
v 0.6 4.3 -2.2
v 0.6 4.5 -2.2
v 0.6 4.6 -2.2
v 0.7 4.1 -2.2
v 0.7 4.7 -2.2
v 0 4 -2.3
v 0 4.8 -2.3
v 0.1 4.1 -2.3
v 0.1 4.7 -2.3
v 0.3 2.4 -2.3
v 0.3 4 -2.3
v 0.5 2.4 -2.3
v 0.5 2.8 -2.3
v 0.5 4 -2.3
v 0.7 4.1 -2.3
v 0.7 4.7 -2.3
v 0.8 4 -2.3
v 0.8 4.8 -2.3
v 0.2 4.2 -2.5
v 0.2 4.3 -2.5
v 0.2 4.5 -2.5
v 0.2 4.6 -2.5
v 0.3 4.2 -2.5
v 0.3 4.3 -2.5
v 0.3 4.5 -2.5
v 0.3 4.6 -2.5
v 0.5 4.2 -2.5
v 0.5 4.3 -2.5
v 0.5 4.5 -2.5
v 0.5 4.6 -2.5
v 0.6 4.2 -2.5
v 0.6 4.3 -2.5
v 0.6 4.5 -2.5
v 0.6 4.6 -2.5
v 0.1 2 -0.6
v 0.1 2.4 -0.6
v 0.5 2.4 -0.6
v 0.5 2.6 -0.6
v 0.7 2.6 -0.6
v 0.7 2.8 -0.6
v 0.8 2 -0.6
v 0.8 2.4 -0.6
v 0.8 2.8 -0.6
v 0.5 3.9 -1.8
v 0.5 4 -1.8
v 0.5 4.2 -1.8
v 0.5 4.4 -1.8
v 0.7 3.9 -1.8
v 0.7 4 -1.8
v 0.7 4.2 -1.8
v 0.7 4.4 -1.8
v 0.5 3.8 -1.9
v 0.5 3.9 -1.9
v 0.7 3.8 -1.9
v 0.7 3.9 -1.9
v 0.5 3.3 -2
v 0.5 3.4 -2
v 0.5 3.6 -2
v 0.5 3.8 -2
v 0.7 3.3 -2
v 0.7 3.4 -2
v 0.7 3.6 -2
v 0.7 3.8 -2
v 0.5 3.2 -2.1
v 0.5 3.3 -2.1
v 0.7 3.2 -2.1
v 0.7 3.3 -2.1
v 0.5 2.8 -2.2
v 0.5 3 -2.2
v 0.5 3.2 -2.2
v 0.7 2.8 -2.2
v 0.7 3 -2.2
v 0.7 3.2 -2.2
v 0.2 4.2 -2.4
v 0.2 4.6 -2.4
v 0.6 4.2 -2.4
v 0.6 4.6 -2.4
v 0 4 -2.5
v 0 4.8 -2.5
v 0.1 4.1 -2.5
v 0.1 4.7 -2.5
v 0.3 2.4 -2.5
v 0.3 4 -2.5
v 0.5 2.4 -2.5
v 0.5 2.8 -2.5
v 0.5 4 -2.5
v 0.7 4.1 -2.5
v 0.7 4.7 -2.5
v 0.8 4 -2.5
v 0.8 4.8 -2.5
v 0.1 2 -2.6
v 0.1 2.4 -2.6
v 0.1 4.1 -2.6
v 0.1 4.7 -2.6
v 0.2 4.2 -2.6
v 0.2 4.3 -2.6
v 0.2 4.5 -2.6
v 0.2 4.6 -2.6
v 0.3 4.2 -2.6
v 0.3 4.3 -2.6
v 0.3 4.5 -2.6
v 0.3 4.6 -2.6
v 0.5 2.4 -2.6
v 0.5 2.8 -2.6
v 0.5 4.2 -2.6
v 0.5 4.3 -2.6
v 0.5 4.5 -2.6
v 0.5 4.6 -2.6
v 0.6 4.2 -2.6
v 0.6 4.3 -2.6
v 0.6 4.5 -2.6
v 0.6 4.6 -2.6
v 0.7 4.1 -2.6
v 0.7 4.7 -2.6
v 0.8 2 -2.6
v 0.8 2.4 -2.6
v 0.8 2.8 -2.6
v 0.1 2 0
v 0.8 2 0
v 0.1 2 -0.6
v 0.8 2 -0.6
v 0.1 2 -2
v 0.8 2 -2
v 0.1 2 -2.6
v 0.8 2 -2.6
v 0.5 3.1 -1.9
v 0.7 3.1 -1.9
v 0.5 3.1 -2
v 0.7 3.1 -2
v 0.5 3.2 -1.8
v 0.7 3.2 -1.8
v 0.5 3.2 -1.9
v 0.7 3.2 -1.9
v 0.5 3.7 -1.7
v 0.7 3.7 -1.7
v 0.5 3.7 -1.8
v 0.7 3.7 -1.8
v 0.5 3.8 -1.6
v 0.7 3.8 -1.6
v 0.5 3.8 -1.7
v 0.7 3.8 -1.7
v 0 4 -2.3
v 0.3 4 -2.3
v 0.5 4 -2.3
v 0.8 4 -2.3
v 0 4 -2.5
v 0.3 4 -2.5
v 0.5 4 -2.5
v 0.8 4 -2.5
v 0.1 4.1 -2.2
v 0.7 4.1 -2.2
v 0.1 4.1 -2.3
v 0.7 4.1 -2.3
v 0.1 4.1 -2.5
v 0.7 4.1 -2.5
v 0.1 4.1 -2.6
v 0.7 4.1 -2.6
v 0.2 4.6 -2.4
v 0.6 4.6 -2.4
v 0.2 4.6 -2.5
v 0.3 4.6 -2.5
v 0.5 4.6 -2.5
v 0.6 4.6 -2.5
v 0.1 2.4 0
v 0.8 2.4 0
v 0.5 2.4 -0.4
v 0.8 2.4 -0.4
v 0.1 2.4 -0.6
v 0.5 2.4 -0.6
v 0.1 2.4 -2
v 0.5 2.4 -2
v 0.3 2.4 -2.3
v 0.5 2.4 -2.3
v 0.3 2.4 -2.5
v 0.5 2.4 -2.5
v 0.1 2.4 -2.6
v 0.5 2.4 -2.6
v 0.5 2.6 -0.4
v 0.7 2.6 -0.4
v 0.5 2.6 -0.6
v 0.7 2.6 -0.6
v 0.7 2.8 -0.4
v 0.8 2.8 -0.4
v 0.7 2.8 -0.6
v 0.8 2.8 -0.6
v 0.7 2.8 -2
v 0.8 2.8 -2
v 0.5 2.8 -2.2
v 0.7 2.8 -2.2
v 0.5 2.8 -2.3
v 0.5 2.8 -2.5
v 0.5 2.8 -2.6
v 0.8 2.8 -2.6
v 0.5 3.2 -2.1
v 0.7 3.2 -2.1
v 0.5 3.2 -2.2
v 0.7 3.2 -2.2
v 0.5 3.3 -2
v 0.7 3.3 -2
v 0.5 3.3 -2.1
v 0.7 3.3 -2.1
v 0.5 3.8 -1.9
v 0.7 3.8 -1.9
v 0.5 3.8 -2
v 0.7 3.8 -2
v 0.5 3.9 -1.8
v 0.7 3.9 -1.8
v 0.5 3.9 -1.9
v 0.7 3.9 -1.9
v 0.2 4.2 -2.4
v 0.6 4.2 -2.4
v 0.2 4.2 -2.5
v 0.3 4.2 -2.5
v 0.5 4.2 -2.5
v 0.6 4.2 -2.5
v 0.5 4.4 -1.6
v 0.7 4.4 -1.6
v 0.5 4.4 -1.8
v 0.7 4.4 -1.8
v 0.1 4.7 -2.2
v 0.7 4.7 -2.2
v 0.1 4.7 -2.3
v 0.7 4.7 -2.3
v 0.1 4.7 -2.5
v 0.7 4.7 -2.5
v 0.1 4.7 -2.6
v 0.7 4.7 -2.6
v 0 4.8 -2.3
v 0.8 4.8 -2.3
v 0 4.8 -2.5
v 0.8 4.8 -2.5

# faces
f 3/8/1 2/8/1 1/8/1
f 4/8/1 2/8/1 3/8/1
f 9/4/1 6/4/1 5/4/1
f 10/4/1 6/4/1 9/4/1
f 11/4/1 8/4/1 7/4/1
f 12/4/1 8/4/1 11/4/1
f 17/8/1 14/8/1 13/8/1
f 18/8/1 14/8/1 17/8/1
f 19/8/1 16/8/1 15/8/1
f 20/8/1 16/8/1 19/8/1
f 23/7/1 22/7/1 21/7/1
f 24/7/1 22/7/1 23/7/1
f 31/6/1 26/6/1 25/6/1
f 32/6/1 26/6/1 31/6/1
f 33/6/1 28/6/1 27/6/1
f 34/6/1 28/6/1 33/6/1
f 35/1/1 34/1/1 33/1/1
f 36/6/1 28/6/1 34/6/1
f 36/1/1 34/1/1 35/1/1
f 37/6/1 28/6/1 36/6/1
f 38/6/1 30/6/1 29/6/1
f 39/6/1 30/6/1 38/6/1
f 40/5/1 36/5/1 35/5/1
f 41/5/1 36/5/1 40/5/1
f 43/1/1 41/1/1 40/1/1
f 45/5/1 43/5/1 42/5/1
f 46/1/1 41/1/1 43/1/1
f 47/1/1 41/1/1 46/1/1
f 48/5/1 45/5/1 44/5/1
f 48/5/1 43/5/1 45/5/1
f 48/1/1 46/1/1 43/1/1
f 49/1/1 46/1/1 48/1/1
f 50/5/1 48/5/1 44/5/1
f 51/5/1 48/5/1 50/5/1
f 52/1/1 51/1/1 50/1/1
f 53/1/1 51/1/1 52/1/1
f 55/5/1 53/5/1 52/5/1
f 57/5/1 55/5/1 54/5/1
f 58/5/1 53/5/1 55/5/1
f 58/5/1 55/5/1 57/5/1
f 59/5/1 53/5/1 58/5/1
f 60/5/1 53/5/1 59/5/1
f 61/1/1 57/1/1 56/1/1
f 61/1/1 58/1/1 57/1/1
f 61/5/1 59/5/1 58/5/1
f 62/5/1 59/5/1 61/5/1
f 63/1/1 61/1/1 56/1/1
f 64/1/1 61/1/1 63/1/1
f 65/5/1 64/5/1 63/5/1
f 66/5/1 64/5/1 65/5/1
f 67/1/1 66/1/1 65/1/1
f 68/1/1 66/1/1 67/1/1
f 71/8/1 70/8/1 69/8/1
f 72/8/1 71/8/1 69/8/1
f 73/8/1 72/8/1 69/8/1
f 74/8/1 72/8/1 73/8/1
f 77/6/1 76/6/1 75/6/1
f 78/6/1 76/6/1 77/6/1
f 79/8/2 80/8/2 81/8/2
f 79/8/2 81/8/2 82/8/2
f 79/8/2 82/8/2 83/8/2
f 83/8/2 82/8/2 84/8/2
f 85/7/2 86/7/2 87/7/2
f 87/7/2 86/7/2 88/7/2
f 89/5/2 90/5/2 91/5/2
f 91/5/2 90/5/2 92/5/2
f 91/1/2 92/1/2 94/1/2
f 93/5/2 94/5/2 96/5/2
f 94/1/2 92/1/2 97/1/2
f 97/1/2 92/1/2 98/1/2
f 95/5/2 96/5/2 99/5/2
f 96/5/2 94/5/2 99/5/2
f 94/1/2 97/1/2 99/1/2
f 99/1/2 97/1/2 100/1/2
f 95/5/2 99/5/2 101/5/2
f 101/5/2 99/5/2 102/5/2
f 101/1/2 102/1/2 103/1/2
f 103/1/2 102/1/2 104/1/2
f 103/5/2 104/5/2 106/5/2
f 105/5/2 106/5/2 108/5/2
f 106/5/2 104/5/2 109/5/2
f 108/5/2 106/5/2 109/5/2
f 109/5/2 104/5/2 110/5/2
f 110/5/2 104/5/2 111/5/2
f 107/1/2 108/1/2 112/1/2
f 108/1/2 109/1/2 112/1/2
f 109/5/2 110/5/2 112/5/2
f 112/5/2 110/5/2 113/5/2
f 107/1/2 112/1/2 114/1/2
f 114/1/2 112/1/2 115/1/2
f 114/5/2 115/5/2 120/5/2
f 120/5/2 115/5/2 121/5/2
f 120/1/2 121/1/2 122/1/2
f 122/1/2 121/1/2 123/1/2
f 116/8/2 117/8/2 124/8/2
f 124/8/2 117/8/2 125/8/2
f 118/8/2 119/8/2 126/8/2
f 126/8/2 119/8/2 127/8/2
f 128/4/2 129/4/2 132/4/2
f 132/4/2 129/4/2 133/4/2
f 133/4/2 129/4/2 134/4/2
f 130/4/2 131/4/2 135/4/2
f 135/4/2 131/4/2 136/4/2
f 133/6/2 134/6/2 137/6/2
f 137/6/2 134/6/2 138/6/2
f 135/6/2 136/6/2 139/6/2
f 139/6/2 136/6/2 140/6/2
f 141/8/2 142/8/2 143/8/2
f 143/8/2 142/8/2 144/8/2
f 147/4/3 146/4/3 145/4/3
f 148/4/3 146/4/3 147/4/3
f 151/6/3 150/6/3 149/6/3
f 153/6/3 151/6/3 149/6/3
f 153/6/3 152/6/3 151/6/3
f 154/6/3 152/6/3 153/6/3
f 159/1/3 156/1/3 155/1/3
f 160/5/3 157/5/3 156/5/3
f 160/1/3 156/1/3 159/1/3
f 161/1/3 158/1/3 157/1/3
f 161/5/3 157/5/3 160/5/3
f 162/1/3 158/1/3 161/1/3
f 165/5/3 164/5/3 163/5/3
f 166/5/3 164/5/3 165/5/3
f 171/5/3 168/5/3 167/5/3
f 172/1/3 169/1/3 168/1/3
f 172/5/3 168/5/3 171/5/3
f 173/5/3 170/5/3 169/5/3
f 173/1/3 169/1/3 172/1/3
f 174/5/3 170/5/3 173/5/3
f 177/5/3 176/5/3 175/5/3
f 178/5/3 176/5/3 177/5/3
f 181/4/3 180/4/3 179/4/3
f 186/6/3 182/6/3 181/6/3
f 186/1/3 183/1/3 182/1/3
f 187/5/3 184/5/3 183/5/3
f 187/1/3 183/1/3 186/1/3
f 188/1/3 185/1/3 184/1/3
f 188/5/3 184/5/3 187/5/3
f 189/1/3 185/1/3 188/1/3
f 190/4/3 181/4/3 179/4/3
f 191/6/3 187/6/3 186/6/3
f 191/4/3 181/4/3 190/4/3
f 191/6/3 186/6/3 181/6/3
f 192/6/3 187/6/3 191/6/3
f 195/8/3 194/8/3 193/8/3
f 196/8/3 194/8/3 195/8/3
f 197/8/3 194/8/3 196/8/3
f 198/8/3 194/8/3 197/8/3
f 199/8/3 195/8/3 193/8/3
f 199/3/3 196/3/3 195/3/3
f 200/2/3 197/2/3 196/2/3
f 200/3/3 196/3/3 199/3/3
f 201/3/3 198/3/3 197/3/3
f 201/2/3 197/2/3 200/2/3
f 202/8/3 194/8/3 198/8/3
f 202/3/3 198/3/3 201/3/3
f 203/2/3 200/2/3 199/2/3
f 203/8/3 199/8/3 193/8/3
f 204/3/3 201/3/3 200/3/3
f 204/2/3 200/2/3 203/2/3
f 205/2/3 202/2/3 201/2/3
f 205/3/3 201/3/3 204/3/3
f 206/8/3 194/8/3 202/8/3
f 206/2/3 202/2/3 205/2/3
f 207/8/3 203/8/3 193/8/3
f 207/3/3 204/3/3 203/3/3
f 208/2/3 205/2/3 204/2/3
f 208/3/3 204/3/3 207/3/3
f 209/3/3 206/3/3 205/3/3
f 209/2/3 205/2/3 208/2/3
f 210/8/3 194/8/3 206/8/3
f 210/3/3 206/3/3 209/3/3
f 211/8/3 209/8/3 208/8/3
f 211/8/3 207/8/3 193/8/3
f 211/8/3 210/8/3 209/8/3
f 211/8/3 208/8/3 207/8/3
f 212/8/3 194/8/3 210/8/3
f 212/8/3 210/8/3 211/8/3
f 215/8/3 214/8/3 213/8/3
f 216/8/3 214/8/3 215/8/3
f 218/8/3 215/8/3 213/8/3
f 219/7/3 218/7/3 217/7/3
f 220/7/3 218/7/3 219/7/3
f 221/8/3 215/8/3 218/8/3
f 221/7/3 218/7/3 220/7/3
f 222/8/3 215/8/3 221/8/3
f 223/8/3 214/8/3 216/8/3
f 224/8/3 222/8/3 221/8/3
f 224/8/3 223/8/3 222/8/3
f 225/8/3 214/8/3 223/8/3
f 225/8/3 223/8/3 224/8/3
f 230/3/3 227/3/3 226/3/3
f 231/2/3 228/2/3 227/2/3
f 231/3/3 227/3/3 230/3/3
f 232/3/3 229/3/3 228/3/3
f 232/2/3 228/2/3 231/2/3
f 233/3/3 229/3/3 232/3/3
f 234/2/3 231/2/3 230/2/3
f 235/3/3 232/3/3 231/3/3
f 235/2/3 231/2/3 234/2/3
f 236/2/3 233/2/3 232/2/3
f 236/3/3 232/3/3 235/3/3
f 237/2/3 233/2/3 236/2/3
f 238/3/3 235/3/3 234/3/3
f 239/2/3 236/2/3 235/2/3
f 239/3/3 235/3/3 238/3/3
f 240/3/3 237/3/3 236/3/3
f 240/2/3 236/2/3 239/2/3
f 241/3/3 237/3/3 240/3/3
f 242/4/4 243/4/4 244/4/4
f 244/6/4 245/6/4 246/6/4
f 242/4/4 244/4/4 248/4/4
f 246/6/4 247/6/4 249/6/4
f 248/4/4 244/4/4 249/4/4
f 244/6/4 246/6/4 249/6/4
f 249/6/4 247/6/4 250/6/4
f 251/1/4 252/1/4 255/1/4
f 252/5/4 253/5/4 256/5/4
f 255/1/4 252/1/4 256/1/4
f 253/1/4 254/1/4 257/1/4
f 256/5/4 253/5/4 257/5/4
f 257/1/4 254/1/4 258/1/4
f 259/5/4 260/5/4 261/5/4
f 261/5/4 260/5/4 262/5/4
f 263/5/4 264/5/4 267/5/4
f 264/1/4 265/1/4 268/1/4
f 267/5/4 264/5/4 268/5/4
f 265/5/4 266/5/4 269/5/4
f 268/1/4 265/1/4 269/1/4
f 269/5/4 266/5/4 270/5/4
f 271/1/4 272/1/4 273/1/4
f 273/1/4 272/1/4 274/1/4
f 275/5/4 276/5/4 278/5/4
f 276/1/4 277/1/4 279/1/4
f 278/5/4 276/5/4 279/5/4
f 279/1/4 277/1/4 280/1/4
f 281/8/4 282/8/4 283/8/4
f 283/8/4 282/8/4 284/8/4
f 285/8/4 286/8/4 287/8/4
f 287/8/4 286/8/4 288/8/4
f 285/8/4 287/8/4 290/8/4
f 289/7/4 290/7/4 291/7/4
f 291/7/4 290/7/4 292/7/4
f 290/8/4 287/8/4 293/8/4
f 292/7/4 290/7/4 293/7/4
f 293/8/4 287/8/4 294/8/4
f 288/8/4 286/8/4 295/8/4
f 293/8/4 294/8/4 296/8/4
f 294/8/4 295/8/4 296/8/4
f 295/8/4 286/8/4 297/8/4
f 296/8/4 295/8/4 297/8/4
f 300/8/4 301/8/4 302/8/4
f 302/8/4 301/8/4 303/8/4
f 303/8/4 301/8/4 304/8/4
f 304/8/4 301/8/4 305/8/4
f 300/8/4 302/8/4 306/8/4
f 302/3/4 303/3/4 306/3/4
f 303/2/4 304/2/4 307/2/4
f 306/3/4 303/3/4 307/3/4
f 304/3/4 305/3/4 308/3/4
f 307/2/4 304/2/4 308/2/4
f 305/8/4 301/8/4 309/8/4
f 308/3/4 305/3/4 309/3/4
f 298/4/4 299/4/4 310/4/4
f 306/2/4 307/2/4 312/2/4
f 300/8/4 306/8/4 312/8/4
f 307/3/4 308/3/4 313/3/4
f 312/2/4 307/2/4 313/2/4
f 308/2/4 309/2/4 314/2/4
f 313/3/4 308/3/4 314/3/4
f 309/8/4 301/8/4 315/8/4
f 314/2/4 309/2/4 315/2/4
f 300/8/4 312/8/4 316/8/4
f 312/3/4 313/3/4 316/3/4
f 313/2/4 314/2/4 317/2/4
f 316/3/4 313/3/4 317/3/4
f 314/3/4 315/3/4 318/3/4
f 317/2/4 314/2/4 318/2/4
f 315/8/4 301/8/4 319/8/4
f 318/3/4 315/3/4 319/3/4
f 300/8/4 316/8/4 320/8/4
f 317/8/4 318/8/4 320/8/4
f 318/8/4 319/8/4 320/8/4
f 316/8/4 317/8/4 320/8/4
f 319/8/4 301/8/4 321/8/4
f 320/8/4 319/8/4 321/8/4
f 298/4/4 310/4/4 322/4/4
f 310/6/4 311/6/4 323/6/4
f 322/4/4 310/4/4 323/4/4
f 323/6/4 311/6/4 324/6/4
f 327/4/5 326/4/5 325/4/5
f 328/4/5 326/4/5 327/4/5
f 331/4/5 330/4/5 329/4/5
f 332/4/5 330/4/5 331/4/5
f 335/5/5 334/5/5 333/5/5
f 336/5/5 334/5/5 335/5/5
f 339/5/5 338/5/5 337/5/5
f 340/5/5 338/5/5 339/5/5
f 343/5/5 342/5/5 341/5/5
f 344/5/5 342/5/5 343/5/5
f 347/1/5 346/1/5 345/1/5
f 348/1/5 346/1/5 347/1/5
f 353/8/5 350/8/5 349/8/5
f 354/8/5 350/8/5 353/8/5
f 355/8/5 352/8/5 351/8/5
f 356/8/5 352/8/5 355/8/5
f 359/8/5 358/8/5 357/8/5
f 360/8/5 358/8/5 359/8/5
f 363/8/5 362/8/5 361/8/5
f 364/8/5 362/8/5 363/8/5
f 367/8/5 366/8/5 365/8/5
f 368/8/5 366/8/5 367/8/5
f 369/8/5 366/8/5 368/8/5
f 370/8/5 366/8/5 369/8/5
f 371/4/6 372/4/6 373/4/6
f 373/4/6 372/4/6 374/4/6
f 371/4/6 373/4/6 375/4/6
f 375/4/6 373/4/6 376/4/6
f 377/4/6 378/4/6 379/4/6
f 379/4/6 378/4/6 380/4/6
f 377/4/6 379/4/6 381/4/6
f 377/4/6 381/4/6 383/4/6
f 381/4/6 382/4/6 383/4/6
f 383/4/6 382/4/6 384/4/6
f 385/6/6 386/6/6 387/6/6
f 387/6/6 386/6/6 388/6/6
f 389/6/6 390/6/6 391/6/6
f 391/6/6 390/6/6 392/6/6
f 393/6/6 394/6/6 396/6/6
f 395/6/6 396/6/6 397/6/6
f 397/6/6 396/6/6 398/6/6
f 398/6/6 396/6/6 399/6/6
f 396/6/6 394/6/6 400/6/6
f 399/6/6 396/6/6 400/6/6
f 401/1/6 402/1/6 403/1/6
f 403/1/6 402/1/6 404/1/6
f 405/1/6 406/1/6 407/1/6
f 407/1/6 406/1/6 408/1/6
f 409/5/6 410/5/6 411/5/6
f 411/5/6 410/5/6 412/5/6
f 413/5/6 414/5/6 415/5/6
f 415/5/6 414/5/6 416/5/6
f 417/8/6 418/8/6 419/8/6
f 419/8/6 418/8/6 420/8/6
f 420/8/6 418/8/6 421/8/6
f 421/8/6 418/8/6 422/8/6
f 423/1/6 424/1/6 425/1/6
f 425/1/6 424/1/6 426/1/6
f 427/8/6 428/8/6 429/8/6
f 429/8/6 428/8/6 430/8/6
f 431/8/6 432/8/6 433/8/6
f 433/8/6 432/8/6 434/8/6
f 435/8/6 436/8/6 437/8/6
f 437/8/6 436/8/6 438/8/6
