# MagicaVoxel @ Ephtracy

# group
o 

# material
mtllib ampel open.mtl
usemtl palette

# normals
vn -1 0 0
vn 1 0 0
vn 0 0 1
vn 0 0 -1
vn 0 -1 0
vn 0 1 0

# texcoords
vt 0.0136719 0.5
vt 0.724609 0.5
vt 0.876953 0.5
vt 0.880859 0.5
vt 0.962891 0.5
vt 0.966797 0.5
vt 0.990234 0.5
vt 0.994141 0.5

# verts
v 0 4 -2.3
v 0 4 -2.5
v 0 4.8 -2.3
v 0 4.8 -2.5
v 0.1 2 0
v 0.1 2 -0.6
v 0.1 2 -2
v 0.1 2 -2.6
v 0.1 2.4 0
v 0.1 2.4 -0.6
v 0.1 2.4 -2
v 0.1 2.4 -2.6
v 0.1 4.1 -2.2
v 0.1 4.1 -2.3
v 0.1 4.1 -2.5
v 0.1 4.1 -2.6
v 0.1 4.7 -2.2
v 0.1 4.7 -2.3
v 0.1 4.7 -2.5
v 0.1 4.7 -2.6
v 0.3 2.4 -2.3
v 0.3 2.4 -2.5
v 0.3 4 -2.3
v 0.3 4 -2.5
v 0.5 2.4 -0.4
v 0.5 2.4 -0.6
v 0.5 2.4 -2
v 0.5 2.4 -2.3
v 0.5 2.4 -2.5
v 0.5 2.4 -2.6
v 0.5 2.6 -0.4
v 0.5 2.6 -0.6
v 0.5 2.6 -2
v 0.5 2.6 -2.2
v 0.5 2.8 -2
v 0.5 2.8 -2.2
v 0.5 2.8 -2.3
v 0.5 2.8 -2.5
v 0.5 2.8 -2.6
v 0.5 3 -2
v 0.5 3 -2.2
v 0.5 3.2 -2
v 0.5 3.2 -2.2
v 0.5 3.4 -2
v 0.5 3.4 -2.2
v 0.5 3.6 -2
v 0.5 3.6 -2.2
v 0.5 3.8 -2
v 0.5 3.8 -2.2
v 0.5 4 -2
v 0.5 4 -2.2
v 0.5 4.1 -2.2
v 0.5 4.2 -2
v 0.5 4.2 -2.2
v 0.5 4.3 -2.2
v 0.5 4.4 -2
v 0.5 4.4 -2.2
v 0.6 4.2 -2.4
v 0.6 4.2 -2.5
v 0.6 4.3 -2.5
v 0.6 4.5 -2.5
v 0.6 4.6 -2.4
v 0.6 4.6 -2.5
v 0.7 2.6 -0.4
v 0.7 2.6 -0.6
v 0.7 2.8 -0.4
v 0.7 2.8 -0.6
v 0.2 4.2 -2.4
v 0.2 4.2 -2.5
v 0.2 4.3 -2.5
v 0.2 4.5 -2.5
v 0.2 4.6 -2.4
v 0.2 4.6 -2.5
v 0.5 2.8 -2.3
v 0.5 2.8 -2.5
v 0.5 4 -2.3
v 0.5 4 -2.5
v 0.7 2.8 -2
v 0.7 2.8 -2.2
v 0.7 3 -2
v 0.7 3 -2.2
v 0.7 3.2 -2
v 0.7 3.2 -2.2
v 0.7 3.4 -2
v 0.7 3.4 -2.2
v 0.7 3.6 -2
v 0.7 3.6 -2.2
v 0.7 3.8 -2
v 0.7 3.8 -2.2
v 0.7 4 -2
v 0.7 4 -2.2
v 0.7 4.1 -2.2
v 0.7 4.1 -2.3
v 0.7 4.1 -2.5
v 0.7 4.1 -2.6
v 0.7 4.2 -2
v 0.7 4.2 -2.2
v 0.7 4.4 -2
v 0.7 4.4 -2.2
v 0.7 4.7 -2.2
v 0.7 4.7 -2.3
v 0.7 4.7 -2.5
v 0.7 4.7 -2.6
v 0.8 2 0
v 0.8 2 -0.6
v 0.8 2 -2
v 0.8 2 -2.6
v 0.8 2.4 0
v 0.8 2.4 -0.4
v 0.8 2.4 -0.6
v 0.8 2.4 -2
v 0.8 2.4 -2.6
v 0.8 2.8 -0.4
v 0.8 2.8 -0.6
v 0.8 2.8 -2
v 0.8 2.8 -2.6
v 0.8 4 -2.3
v 0.8 4 -2.5
v 0.8 4.8 -2.3
v 0.8 4.8 -2.5
v 0.1 2 0
v 0.1 2.4 0
v 0.8 2 0
v 0.8 2.4 0
v 0.5 2.4 -0.4
v 0.5 2.6 -0.4
v 0.7 2.6 -0.4
v 0.7 2.8 -0.4
v 0.8 2.4 -0.4
v 0.8 2.8 -0.4
v 0.1 2 -2
v 0.1 2.4 -2
v 0.5 2.4 -2
v 0.5 2.6 -2
v 0.5 2.8 -2
v 0.5 3 -2
v 0.5 3.2 -2
v 0.5 3.4 -2
v 0.5 3.6 -2
v 0.5 3.8 -2
v 0.5 4 -2
v 0.5 4.2 -2
v 0.5 4.4 -2
v 0.7 2.6 -2
v 0.7 2.8 -2
v 0.7 3 -2
v 0.7 3.2 -2
v 0.7 3.4 -2
v 0.7 3.6 -2
v 0.7 3.8 -2
v 0.7 4 -2
v 0.7 4.2 -2
v 0.7 4.4 -2
v 0.8 2 -2
v 0.8 2.4 -2
v 0.8 2.8 -2
v 0.1 4.1 -2.2
v 0.1 4.7 -2.2
v 0.2 4.2 -2.2
v 0.2 4.3 -2.2
v 0.2 4.5 -2.2
v 0.2 4.6 -2.2
v 0.3 4.2 -2.2
v 0.3 4.3 -2.2
v 0.3 4.5 -2.2
v 0.3 4.6 -2.2
v 0.5 4.1 -2.2
v 0.5 4.2 -2.2
v 0.5 4.3 -2.2
v 0.5 4.4 -2.2
v 0.5 4.5 -2.2
v 0.5 4.6 -2.2
v 0.6 4.4 -2.2
v 0.6 4.5 -2.2
v 0.6 4.6 -2.2
v 0.7 4.4 -2.2
v 0.7 4.7 -2.2
v 0 4 -2.3
v 0 4.8 -2.3
v 0.1 4.1 -2.3
v 0.1 4.7 -2.3
v 0.3 2.4 -2.3
v 0.3 4 -2.3
v 0.5 2.4 -2.3
v 0.5 2.8 -2.3
v 0.5 4 -2.3
v 0.7 4.1 -2.3
v 0.7 4.7 -2.3
v 0.8 4 -2.3
v 0.8 4.8 -2.3
v 0.2 4.2 -2.5
v 0.2 4.3 -2.5
v 0.2 4.5 -2.5
v 0.2 4.6 -2.5
v 0.3 4.2 -2.5
v 0.3 4.3 -2.5
v 0.3 4.5 -2.5
v 0.3 4.6 -2.5
v 0.5 4.2 -2.5
v 0.5 4.3 -2.5
v 0.5 4.5 -2.5
v 0.5 4.6 -2.5
v 0.6 4.2 -2.5
v 0.6 4.3 -2.5
v 0.6 4.5 -2.5
v 0.6 4.6 -2.5
v 0.1 2 -0.6
v 0.1 2.4 -0.6
v 0.5 2.4 -0.6
v 0.5 2.6 -0.6
v 0.7 2.6 -0.6
v 0.7 2.8 -0.6
v 0.8 2 -0.6
v 0.8 2.4 -0.6
v 0.8 2.8 -0.6
v 0.5 2.8 -2.2
v 0.5 3 -2.2
v 0.5 3.2 -2.2
v 0.5 3.4 -2.2
v 0.5 3.6 -2.2
v 0.5 3.8 -2.2
v 0.5 4 -2.2
v 0.5 4.1 -2.2
v 0.7 2.8 -2.2
v 0.7 3 -2.2
v 0.7 3.2 -2.2
v 0.7 3.4 -2.2
v 0.7 3.6 -2.2
v 0.7 3.8 -2.2
v 0.7 4 -2.2
v 0.7 4.1 -2.2
v 0.2 4.2 -2.4
v 0.2 4.6 -2.4
v 0.6 4.2 -2.4
v 0.6 4.6 -2.4
v 0 4 -2.5
v 0 4.8 -2.5
v 0.1 4.1 -2.5
v 0.1 4.7 -2.5
v 0.3 2.4 -2.5
v 0.3 4 -2.5
v 0.3 4.1 -2.5
v 0.5 2.4 -2.5
v 0.5 2.8 -2.5
v 0.5 4 -2.5
v 0.5 4.1 -2.5
v 0.7 4.1 -2.5
v 0.7 4.7 -2.5
v 0.8 4 -2.5
v 0.8 4.8 -2.5
v 0.1 2 -2.6
v 0.1 2.4 -2.6
v 0.1 4.1 -2.6
v 0.1 4.7 -2.6
v 0.2 4.2 -2.6
v 0.2 4.3 -2.6
v 0.2 4.5 -2.6
v 0.2 4.6 -2.6
v 0.3 4.2 -2.6
v 0.3 4.3 -2.6
v 0.3 4.5 -2.6
v 0.3 4.6 -2.6
v 0.5 2.4 -2.6
v 0.5 2.8 -2.6
v 0.5 4.2 -2.6
v 0.5 4.3 -2.6
v 0.5 4.5 -2.6
v 0.5 4.6 -2.6
v 0.6 4.2 -2.6
v 0.6 4.3 -2.6
v 0.6 4.5 -2.6
v 0.6 4.6 -2.6
v 0.7 4.1 -2.6
v 0.7 4.7 -2.6
v 0.8 2 -2.6
v 0.8 2.4 -2.6
v 0.8 2.8 -2.6
v 0.1 2 0
v 0.8 2 0
v 0.1 2 -0.6
v 0.8 2 -0.6
v 0.1 2 -2
v 0.8 2 -2
v 0.1 2 -2.6
v 0.8 2 -2.6
v 0 4 -2.3
v 0.3 4 -2.3
v 0.5 4 -2.3
v 0.8 4 -2.3
v 0 4 -2.5
v 0.3 4 -2.5
v 0.5 4 -2.5
v 0.8 4 -2.5
v 0.1 4.1 -2.2
v 0.5 4.1 -2.2
v 0.7 4.1 -2.2
v 0.1 4.1 -2.3
v 0.7 4.1 -2.3
v 0.1 4.1 -2.5
v 0.3 4.1 -2.5
v 0.5 4.1 -2.5
v 0.7 4.1 -2.5
v 0.1 4.1 -2.6
v 0.7 4.1 -2.6
v 0.2 4.6 -2.4
v 0.6 4.6 -2.4
v 0.2 4.6 -2.5
v 0.3 4.6 -2.5
v 0.5 4.6 -2.5
v 0.6 4.6 -2.5
v 0.1 2.4 0
v 0.8 2.4 0
v 0.5 2.4 -0.4
v 0.8 2.4 -0.4
v 0.1 2.4 -0.6
v 0.5 2.4 -0.6
v 0.1 2.4 -2
v 0.5 2.4 -2
v 0.3 2.4 -2.3
v 0.5 2.4 -2.3
v 0.3 2.4 -2.5
v 0.5 2.4 -2.5
v 0.1 2.4 -2.6
v 0.5 2.4 -2.6
v 0.5 2.6 -0.4
v 0.7 2.6 -0.4
v 0.5 2.6 -0.6
v 0.7 2.6 -0.6
v 0.7 2.8 -0.4
v 0.8 2.8 -0.4
v 0.7 2.8 -0.6
v 0.8 2.8 -0.6
v 0.7 2.8 -2
v 0.8 2.8 -2
v 0.5 2.8 -2.2
v 0.7 2.8 -2.2
v 0.5 2.8 -2.3
v 0.5 2.8 -2.5
v 0.5 2.8 -2.6
v 0.8 2.8 -2.6
v 0.2 4.2 -2.4
v 0.6 4.2 -2.4
v 0.2 4.2 -2.5
v 0.3 4.2 -2.5
v 0.5 4.2 -2.5
v 0.6 4.2 -2.5
v 0.5 4.4 -2
v 0.7 4.4 -2
v 0.5 4.4 -2.2
v 0.6 4.4 -2.2
v 0.7 4.4 -2.2
v 0.1 4.7 -2.2
v 0.7 4.7 -2.2
v 0.1 4.7 -2.3
v 0.7 4.7 -2.3
v 0.1 4.7 -2.5
v 0.7 4.7 -2.5
v 0.1 4.7 -2.6
v 0.7 4.7 -2.6
v 0 4.8 -2.3
v 0.8 4.8 -2.3
v 0 4.8 -2.5
v 0.8 4.8 -2.5

# faces
f 3/8/1 2/8/1 1/8/1
f 4/8/1 2/8/1 3/8/1
f 9/3/1 6/3/1 5/3/1
f 10/3/1 6/3/1 9/3/1
f 11/3/1 8/3/1 7/3/1
f 12/3/1 8/3/1 11/3/1
f 17/8/1 14/8/1 13/8/1
f 18/8/1 14/8/1 17/8/1
f 19/8/1 16/8/1 15/8/1
f 20/8/1 16/8/1 19/8/1
f 23/7/1 22/7/1 21/7/1
f 24/7/1 22/7/1 23/7/1
f 31/6/1 26/6/1 25/6/1
f 32/6/1 26/6/1 31/6/1
f 33/6/1 28/6/1 27/6/1
f 34/6/1 28/6/1 33/6/1
f 35/1/1 34/1/1 33/1/1
f 36/6/1 28/6/1 34/6/1
f 36/1/1 34/1/1 35/1/1
f 37/6/1 28/6/1 36/6/1
f 38/6/1 30/6/1 29/6/1
f 39/6/1 30/6/1 38/6/1
f 40/5/1 36/5/1 35/5/1
f 41/5/1 36/5/1 40/5/1
f 42/1/1 41/1/1 40/1/1
f 43/1/1 41/1/1 42/1/1
f 44/5/1 43/5/1 42/5/1
f 45/5/1 43/5/1 44/5/1
f 46/1/1 45/1/1 44/1/1
f 47/1/1 45/1/1 46/1/1
f 48/5/1 47/5/1 46/5/1
f 49/5/1 47/5/1 48/5/1
f 50/1/1 49/1/1 48/1/1
f 51/1/1 49/1/1 50/1/1
f 52/5/1 51/5/1 50/5/1
f 53/5/1 52/5/1 50/5/1
f 54/5/1 52/5/1 53/5/1
f 55/1/1 54/1/1 53/1/1
f 56/1/1 55/1/1 53/1/1
f 57/1/1 55/1/1 56/1/1
f 60/8/1 59/8/1 58/8/1
f 61/8/1 60/8/1 58/8/1
f 62/8/1 61/8/1 58/8/1
f 63/8/1 61/8/1 62/8/1
f 66/6/1 65/6/1 64/6/1
f 67/6/1 65/6/1 66/6/1
f 68/8/2 69/8/2 70/8/2
f 68/8/2 70/8/2 71/8/2
f 68/8/2 71/8/2 72/8/2
f 72/8/2 71/8/2 73/8/2
f 74/7/2 75/7/2 76/7/2
f 76/7/2 75/7/2 77/7/2
f 78/5/2 79/5/2 80/5/2
f 80/5/2 79/5/2 81/5/2
f 80/1/2 81/1/2 82/1/2
f 82/1/2 81/1/2 83/1/2
f 82/5/2 83/5/2 84/5/2
f 84/5/2 83/5/2 85/5/2
f 84/1/2 85/1/2 86/1/2
f 86/1/2 85/1/2 87/1/2
f 86/5/2 87/5/2 88/5/2
f 88/5/2 87/5/2 89/5/2
f 88/1/2 89/1/2 90/1/2
f 90/1/2 89/1/2 91/1/2
f 90/5/2 91/5/2 92/5/2
f 90/5/2 92/5/2 96/5/2
f 92/8/2 93/8/2 97/8/2
f 96/5/2 92/5/2 97/5/2
f 96/1/2 97/1/2 98/1/2
f 97/8/2 93/8/2 99/8/2
f 98/1/2 97/1/2 99/1/2
f 99/8/2 93/8/2 100/8/2
f 100/8/2 93/8/2 101/8/2
f 94/8/2 95/8/2 102/8/2
f 102/8/2 95/8/2 103/8/2
f 104/3/2 105/3/2 108/3/2
f 108/3/2 105/3/2 109/3/2
f 109/3/2 105/3/2 110/3/2
f 106/3/2 107/3/2 111/3/2
f 111/3/2 107/3/2 112/3/2
f 109/6/2 110/6/2 113/6/2
f 113/6/2 110/6/2 114/6/2
f 111/6/2 112/6/2 115/6/2
f 115/6/2 112/6/2 116/6/2
f 117/8/2 118/8/2 119/8/2
f 119/8/2 118/8/2 120/8/2
f 123/3/3 122/3/3 121/3/3
f 124/3/3 122/3/3 123/3/3
f 127/6/3 126/6/3 125/6/3
f 129/6/3 127/6/3 125/6/3
f 129/6/3 128/6/3 127/6/3
f 130/6/3 128/6/3 129/6/3
f 133/3/3 132/3/3 131/3/3
f 144/6/3 134/6/3 133/6/3
f 144/1/3 135/1/3 134/1/3
f 145/5/3 136/5/3 135/5/3
f 145/1/3 135/1/3 144/1/3
f 146/1/3 137/1/3 136/1/3
f 146/5/3 136/5/3 145/5/3
f 147/5/3 138/5/3 137/5/3
f 147/1/3 137/1/3 146/1/3
f 148/1/3 139/1/3 138/1/3
f 148/5/3 138/5/3 147/5/3
f 149/5/3 140/5/3 139/5/3
f 149/1/3 139/1/3 148/1/3
f 150/1/3 141/1/3 140/1/3
f 150/5/3 140/5/3 149/5/3
f 151/5/3 142/5/3 141/5/3
f 151/1/3 141/1/3 150/1/3
f 152/1/3 143/1/3 142/1/3
f 152/5/3 142/5/3 151/5/3
f 153/1/3 143/1/3 152/1/3
f 154/3/3 133/3/3 131/3/3
f 155/6/3 145/6/3 144/6/3
f 155/3/3 133/3/3 154/3/3
f 155/6/3 144/6/3 133/6/3
f 156/6/3 145/6/3 155/6/3
f 159/8/3 158/8/3 157/8/3
f 160/8/3 158/8/3 159/8/3
f 161/8/3 158/8/3 160/8/3
f 162/8/3 158/8/3 161/8/3
f 163/8/3 159/8/3 157/8/3
f 163/4/3 160/4/3 159/4/3
f 164/2/3 161/2/3 160/2/3
f 164/4/3 160/4/3 163/4/3
f 165/4/3 162/4/3 161/4/3
f 165/2/3 161/2/3 164/2/3
f 166/8/3 158/8/3 162/8/3
f 166/4/3 162/4/3 165/4/3
f 167/8/3 163/8/3 157/8/3
f 168/2/3 164/2/3 163/2/3
f 168/8/3 163/8/3 167/8/3
f 169/4/3 165/4/3 164/4/3
f 169/2/3 164/2/3 168/2/3
f 170/4/3 165/4/3 169/4/3
f 171/2/3 166/2/3 165/2/3
f 171/4/3 165/4/3 170/4/3
f 172/8/3 158/8/3 166/8/3
f 172/2/3 166/2/3 171/2/3
f 173/2/3 171/2/3 170/2/3
f 174/4/3 172/4/3 171/4/3
f 174/2/3 171/2/3 173/2/3
f 175/8/3 158/8/3 172/8/3
f 175/4/3 172/4/3 174/4/3
f 176/8/3 174/8/3 173/8/3
f 176/8/3 175/8/3 174/8/3
f 177/8/3 158/8/3 175/8/3
f 177/8/3 175/8/3 176/8/3
f 180/8/3 179/8/3 178/8/3
f 181/8/3 179/8/3 180/8/3
f 183/8/3 180/8/3 178/8/3
f 184/7/3 183/7/3 182/7/3
f 185/7/3 183/7/3 184/7/3
f 186/8/3 180/8/3 183/8/3
f 186/7/3 183/7/3 185/7/3
f 187/8/3 180/8/3 186/8/3
f 188/8/3 179/8/3 181/8/3
f 189/8/3 187/8/3 186/8/3
f 189/8/3 188/8/3 187/8/3
f 190/8/3 179/8/3 188/8/3
f 190/8/3 188/8/3 189/8/3
f 195/4/3 192/4/3 191/4/3
f 196/2/3 193/2/3 192/2/3
f 196/4/3 192/4/3 195/4/3
f 197/4/3 194/4/3 193/4/3
f 197/2/3 193/2/3 196/2/3
f 198/4/3 194/4/3 197/4/3
f 199/2/3 196/2/3 195/2/3
f 200/4/3 197/4/3 196/4/3
f 200/2/3 196/2/3 199/2/3
f 201/2/3 198/2/3 197/2/3
f 201/4/3 197/4/3 200/4/3
f 202/2/3 198/2/3 201/2/3
f 203/4/3 200/4/3 199/4/3
f 204/2/3 201/2/3 200/2/3
f 204/4/3 200/4/3 203/4/3
f 205/4/3 202/4/3 201/4/3
f 205/2/3 201/2/3 204/2/3
f 206/4/3 202/4/3 205/4/3
f 207/3/4 208/3/4 209/3/4
f 209/6/4 210/6/4 211/6/4
f 207/3/4 209/3/4 213/3/4
f 211/6/4 212/6/4 214/6/4
f 213/3/4 209/3/4 214/3/4
f 209/6/4 211/6/4 214/6/4
f 214/6/4 212/6/4 215/6/4
f 216/5/4 217/5/4 224/5/4
f 217/1/4 218/1/4 225/1/4
f 224/5/4 217/5/4 225/5/4
f 218/5/4 219/5/4 226/5/4
f 225/1/4 218/1/4 226/1/4
f 219/1/4 220/1/4 227/1/4
f 226/5/4 219/5/4 227/5/4
f 220/5/4 221/5/4 228/5/4
f 227/1/4 220/1/4 228/1/4
f 221/1/4 222/1/4 229/1/4
f 228/5/4 221/5/4 229/5/4
f 222/5/4 223/5/4 230/5/4
f 229/1/4 222/1/4 230/1/4
f 230/5/4 223/5/4 231/5/4
f 232/8/4 233/8/4 234/8/4
f 234/8/4 233/8/4 235/8/4
f 236/8/4 237/8/4 238/8/4
f 238/8/4 237/8/4 239/8/4
f 236/8/4 238/8/4 241/8/4
f 241/8/4 238/8/4 242/8/4
f 240/7/4 241/7/4 243/7/4
f 241/7/4 242/7/4 243/7/4
f 243/7/4 242/7/4 244/7/4
f 244/7/4 242/7/4 245/7/4
f 245/7/4 242/7/4 246/7/4
f 245/8/4 246/8/4 247/8/4
f 239/8/4 237/8/4 248/8/4
f 245/8/4 247/8/4 249/8/4
f 247/8/4 248/8/4 249/8/4
f 248/8/4 237/8/4 250/8/4
f 249/8/4 248/8/4 250/8/4
f 253/8/4 254/8/4 255/8/4
f 255/8/4 254/8/4 256/8/4
f 256/8/4 254/8/4 257/8/4
f 257/8/4 254/8/4 258/8/4
f 253/8/4 255/8/4 259/8/4
f 255/4/4 256/4/4 259/4/4
f 256/2/4 257/2/4 260/2/4
f 259/4/4 256/4/4 260/4/4
f 257/4/4 258/4/4 261/4/4
f 260/2/4 257/2/4 261/2/4
f 258/8/4 254/8/4 262/8/4
f 261/4/4 258/4/4 262/4/4
f 251/3/4 252/3/4 263/3/4
f 259/2/4 260/2/4 265/2/4
f 253/8/4 259/8/4 265/8/4
f 260/4/4 261/4/4 266/4/4
f 265/2/4 260/2/4 266/2/4
f 261/2/4 262/2/4 267/2/4
f 266/4/4 261/4/4 267/4/4
f 262/8/4 254/8/4 268/8/4
f 267/2/4 262/2/4 268/2/4
f 253/8/4 265/8/4 269/8/4
f 265/4/4 266/4/4 269/4/4
f 266/2/4 267/2/4 270/2/4
f 269/4/4 266/4/4 270/4/4
f 267/4/4 268/4/4 271/4/4
f 270/2/4 267/2/4 271/2/4
f 268/8/4 254/8/4 272/8/4
f 271/4/4 268/4/4 272/4/4
f 253/8/4 269/8/4 273/8/4
f 270/8/4 271/8/4 273/8/4
f 271/8/4 272/8/4 273/8/4
f 269/8/4 270/8/4 273/8/4
f 272/8/4 254/8/4 274/8/4
f 273/8/4 272/8/4 274/8/4
f 251/3/4 263/3/4 275/3/4
f 263/6/4 264/6/4 276/6/4
f 275/3/4 263/3/4 276/3/4
f 276/6/4 264/6/4 277/6/4
f 280/3/5 279/3/5 278/3/5
f 281/3/5 279/3/5 280/3/5
f 284/3/5 283/3/5 282/3/5
f 285/3/5 283/3/5 284/3/5
f 290/8/5 287/8/5 286/8/5
f 291/8/5 287/8/5 290/8/5
f 292/8/5 289/8/5 288/8/5
f 293/8/5 289/8/5 292/8/5
f 297/8/5 295/8/5 294/8/5
f 297/8/5 296/8/5 295/8/5
f 298/8/5 296/8/5 297/8/5
f 303/8/5 300/8/5 299/8/5
f 303/8/5 302/8/5 301/8/5
f 303/8/5 301/8/5 300/8/5
f 304/8/5 302/8/5 303/8/5
f 307/8/5 306/8/5 305/8/5
f 308/8/5 306/8/5 307/8/5
f 309/8/5 306/8/5 308/8/5
f 310/8/5 306/8/5 309/8/5
f 311/3/6 312/3/6 313/3/6
f 313/3/6 312/3/6 314/3/6
f 311/3/6 313/3/6 315/3/6
f 315/3/6 313/3/6 316/3/6
f 317/3/6 318/3/6 319/3/6
f 319/3/6 318/3/6 320/3/6
f 317/3/6 319/3/6 321/3/6
f 317/3/6 321/3/6 323/3/6
f 321/3/6 322/3/6 323/3/6
f 323/3/6 322/3/6 324/3/6
f 325/6/6 326/6/6 327/6/6
f 327/6/6 326/6/6 328/6/6
f 329/6/6 330/6/6 331/6/6
f 331/6/6 330/6/6 332/6/6
f 333/6/6 334/6/6 336/6/6
f 335/6/6 336/6/6 337/6/6
f 337/6/6 336/6/6 338/6/6
f 338/6/6 336/6/6 339/6/6
f 336/6/6 334/6/6 340/6/6
f 339/6/6 336/6/6 340/6/6
f 341/8/6 342/8/6 343/8/6
f 343/8/6 342/8/6 344/8/6
f 344/8/6 342/8/6 345/8/6
f 345/8/6 342/8/6 346/8/6
f 347/1/6 348/1/6 349/1/6
f 349/1/6 348/1/6 350/1/6
f 350/1/6 348/1/6 351/1/6
f 352/8/6 353/8/6 354/8/6
f 354/8/6 353/8/6 355/8/6
f 356/8/6 357/8/6 358/8/6
f 358/8/6 357/8/6 359/8/6
f 360/8/6 361/8/6 362/8/6
f 362/8/6 361/8/6 363/8/6
