# MagicaVoxel @ Ephtracy

# group
o 

# material
mtllib ampel closed.mtl
usemtl palette

# normals
vn -1 0 0
vn 1 0 0
vn 0 0 1
vn 0 0 -1
vn 0 -1 0
vn 0 1 0

# texcoords
vt 0.0136719 0.5
vt 0.841797 0.5
vt 0.845703 0.5
vt 0.876953 0.5
vt 0.962891 0.5
vt 0.966797 0.5
vt 0.990234 0.5
vt 0.994141 0.5

# verts
v 0 4 -2.3
v 0 4 -2.5
v 0 4.8 -2.3
v 0 4.8 -2.5
v 0.1 2 0
v 0.1 2 -0.6
v 0.1 2 -2
v 0.1 2 -2.6
v 0.1 2.4 0
v 0.1 2.4 -0.6
v 0.1 2.4 -2
v 0.1 2.4 -2.6
v 0.1 4.1 -2.2
v 0.1 4.1 -2.3
v 0.1 4.1 -2.5
v 0.1 4.1 -2.6
v 0.1 4.7 -2.2
v 0.1 4.7 -2.3
v 0.1 4.7 -2.5
v 0.1 4.7 -2.6
v 0.3 2.4 -2.3
v 0.3 2.4 -2.5
v 0.3 4 -2.3
v 0.3 4 -2.5
v 0.5 2.4 -0.4
v 0.5 2.4 -0.6
v 0.5 2.4 -2
v 0.5 2.4 -2.3
v 0.5 2.4 -2.5
v 0.5 2.4 -2.6
v 0.5 2.6 -0.4
v 0.5 2.6 -0.6
v 0.5 2.6 -0.8
v 0.5 2.6 -1
v 0.5 2.6 -1.2
v 0.5 2.6 -1.4
v 0.5 2.6 -1.6
v 0.5 2.6 -1.8
v 0.5 2.6 -2
v 0.5 2.6 -2.2
v 0.5 2.8 -0.4
v 0.5 2.8 -0.6
v 0.5 2.8 -0.8
v 0.5 2.8 -1
v 0.5 2.8 -1.2
v 0.5 2.8 -1.4
v 0.5 2.8 -1.6
v 0.5 2.8 -1.8
v 0.5 2.8 -2
v 0.5 2.8 -2.2
v 0.5 2.8 -2.3
v 0.5 2.8 -2.5
v 0.5 2.8 -2.6
v 0.6 4.2 -2.4
v 0.6 4.2 -2.5
v 0.6 4.3 -2.5
v 0.6 4.5 -2.5
v 0.6 4.6 -2.4
v 0.6 4.6 -2.5
v 0.2 4.2 -2.4
v 0.2 4.2 -2.5
v 0.2 4.3 -2.5
v 0.2 4.5 -2.5
v 0.2 4.6 -2.4
v 0.2 4.6 -2.5
v 0.5 2.8 -2.3
v 0.5 2.8 -2.5
v 0.5 4 -2.3
v 0.5 4 -2.5
v 0.7 2.6 -0.6
v 0.7 2.6 -0.8
v 0.7 2.6 -1
v 0.7 2.6 -1.2
v 0.7 2.6 -1.4
v 0.7 2.6 -1.6
v 0.7 2.6 -1.8
v 0.7 2.6 -2
v 0.7 2.8 -0.6
v 0.7 2.8 -0.8
v 0.7 2.8 -1
v 0.7 2.8 -1.2
v 0.7 2.8 -1.4
v 0.7 2.8 -1.6
v 0.7 2.8 -1.8
v 0.7 2.8 -2
v 0.7 4.1 -2.2
v 0.7 4.1 -2.3
v 0.7 4.1 -2.5
v 0.7 4.1 -2.6
v 0.7 4.7 -2.2
v 0.7 4.7 -2.3
v 0.7 4.7 -2.5
v 0.7 4.7 -2.6
v 0.8 2 0
v 0.8 2 -0.6
v 0.8 2 -2
v 0.8 2 -2.6
v 0.8 2.4 0
v 0.8 2.4 -0.4
v 0.8 2.4 -0.6
v 0.8 2.4 -2
v 0.8 2.4 -2.6
v 0.8 2.8 -0.4
v 0.8 2.8 -0.6
v 0.8 2.8 -2
v 0.8 2.8 -2.6
v 0.8 4 -2.3
v 0.8 4 -2.5
v 0.8 4.8 -2.3
v 0.8 4.8 -2.5
v 0.1 2 0
v 0.1 2.4 0
v 0.8 2 0
v 0.8 2.4 0
v 0.5 2.4 -0.4
v 0.5 2.6 -0.4
v 0.5 2.8 -0.4
v 0.7 2.6 -0.4
v 0.7 2.8 -0.4
v 0.8 2.4 -0.4
v 0.8 2.8 -0.4
v 0.1 2 -2
v 0.1 2.4 -2
v 0.5 2.4 -2
v 0.5 2.6 -2
v 0.7 2.6 -2
v 0.7 2.8 -2
v 0.8 2 -2
v 0.8 2.4 -2
v 0.8 2.8 -2
v 0.1 4.1 -2.2
v 0.1 4.7 -2.2
v 0.2 4.2 -2.2
v 0.2 4.3 -2.2
v 0.2 4.5 -2.2
v 0.2 4.6 -2.2
v 0.3 4.2 -2.2
v 0.3 4.3 -2.2
v 0.3 4.5 -2.2
v 0.3 4.6 -2.2
v 0.5 4.2 -2.2
v 0.5 4.3 -2.2
v 0.5 4.5 -2.2
v 0.5 4.6 -2.2
v 0.6 4.2 -2.2
v 0.6 4.3 -2.2
v 0.6 4.5 -2.2
v 0.6 4.6 -2.2
v 0.7 4.1 -2.2
v 0.7 4.7 -2.2
v 0 4 -2.3
v 0 4.8 -2.3
v 0.1 4.1 -2.3
v 0.1 4.7 -2.3
v 0.3 2.4 -2.3
v 0.3 4 -2.3
v 0.5 2.4 -2.3
v 0.5 2.8 -2.3
v 0.5 4 -2.3
v 0.7 4.1 -2.3
v 0.7 4.7 -2.3
v 0.8 4 -2.3
v 0.8 4.8 -2.3
v 0.2 4.2 -2.5
v 0.2 4.3 -2.5
v 0.2 4.5 -2.5
v 0.2 4.6 -2.5
v 0.3 4.2 -2.5
v 0.3 4.3 -2.5
v 0.3 4.5 -2.5
v 0.3 4.6 -2.5
v 0.5 4.2 -2.5
v 0.5 4.3 -2.5
v 0.5 4.5 -2.5
v 0.5 4.6 -2.5
v 0.6 4.2 -2.5
v 0.6 4.3 -2.5
v 0.6 4.5 -2.5
v 0.6 4.6 -2.5
v 0.1 2 -0.6
v 0.1 2.4 -0.6
v 0.5 2.4 -0.6
v 0.5 2.6 -0.6
v 0.7 2.6 -0.6
v 0.7 2.8 -0.6
v 0.8 2 -0.6
v 0.8 2.4 -0.6
v 0.8 2.8 -0.6
v 0.2 4.2 -2.4
v 0.2 4.6 -2.4
v 0.6 4.2 -2.4
v 0.6 4.6 -2.4
v 0 4 -2.5
v 0 4.8 -2.5
v 0.1 4.1 -2.5
v 0.1 4.7 -2.5
v 0.3 2.4 -2.5
v 0.3 4 -2.5
v 0.5 2.4 -2.5
v 0.5 2.8 -2.5
v 0.5 4 -2.5
v 0.7 4.1 -2.5
v 0.7 4.7 -2.5
v 0.8 4 -2.5
v 0.8 4.8 -2.5
v 0.1 2 -2.6
v 0.1 2.4 -2.6
v 0.1 4.1 -2.6
v 0.1 4.7 -2.6
v 0.2 4.2 -2.6
v 0.2 4.3 -2.6
v 0.2 4.5 -2.6
v 0.2 4.6 -2.6
v 0.3 4.2 -2.6
v 0.3 4.3 -2.6
v 0.3 4.5 -2.6
v 0.3 4.6 -2.6
v 0.5 2.4 -2.6
v 0.5 2.8 -2.6
v 0.5 4.2 -2.6
v 0.5 4.3 -2.6
v 0.5 4.5 -2.6
v 0.5 4.6 -2.6
v 0.6 4.2 -2.6
v 0.6 4.3 -2.6
v 0.6 4.5 -2.6
v 0.6 4.6 -2.6
v 0.7 4.1 -2.6
v 0.7 4.7 -2.6
v 0.8 2 -2.6
v 0.8 2.4 -2.6
v 0.8 2.8 -2.6
v 0.1 2 0
v 0.8 2 0
v 0.1 2 -0.6
v 0.8 2 -0.6
v 0.1 2 -2
v 0.8 2 -2
v 0.1 2 -2.6
v 0.8 2 -2.6
v 0.5 2.6 -0.6
v 0.7 2.6 -0.6
v 0.5 2.6 -0.8
v 0.7 2.6 -0.8
v 0.5 2.6 -1
v 0.7 2.6 -1
v 0.5 2.6 -1.2
v 0.7 2.6 -1.2
v 0.5 2.6 -1.4
v 0.7 2.6 -1.4
v 0.5 2.6 -1.6
v 0.7 2.6 -1.6
v 0.5 2.6 -1.8
v 0.7 2.6 -1.8
v 0.5 2.6 -2
v 0.7 2.6 -2
v 0 4 -2.3
v 0.3 4 -2.3
v 0.5 4 -2.3
v 0.8 4 -2.3
v 0 4 -2.5
v 0.3 4 -2.5
v 0.5 4 -2.5
v 0.8 4 -2.5
v 0.1 4.1 -2.2
v 0.7 4.1 -2.2
v 0.1 4.1 -2.3
v 0.7 4.1 -2.3
v 0.1 4.1 -2.5
v 0.7 4.1 -2.5
v 0.1 4.1 -2.6
v 0.7 4.1 -2.6
v 0.2 4.6 -2.4
v 0.6 4.6 -2.4
v 0.2 4.6 -2.5
v 0.3 4.6 -2.5
v 0.5 4.6 -2.5
v 0.6 4.6 -2.5
v 0.1 2.4 0
v 0.8 2.4 0
v 0.5 2.4 -0.4
v 0.8 2.4 -0.4
v 0.1 2.4 -0.6
v 0.5 2.4 -0.6
v 0.1 2.4 -2
v 0.5 2.4 -2
v 0.3 2.4 -2.3
v 0.5 2.4 -2.3
v 0.3 2.4 -2.5
v 0.5 2.4 -2.5
v 0.1 2.4 -2.6
v 0.5 2.4 -2.6
v 0.5 2.8 -0.4
v 0.7 2.8 -0.4
v 0.8 2.8 -0.4
v 0.5 2.8 -0.6
v 0.7 2.8 -0.6
v 0.8 2.8 -0.6
v 0.5 2.8 -0.8
v 0.7 2.8 -0.8
v 0.5 2.8 -1
v 0.7 2.8 -1
v 0.5 2.8 -1.2
v 0.7 2.8 -1.2
v 0.5 2.8 -1.4
v 0.7 2.8 -1.4
v 0.5 2.8 -1.6
v 0.7 2.8 -1.6
v 0.5 2.8 -1.8
v 0.7 2.8 -1.8
v 0.5 2.8 -2
v 0.7 2.8 -2
v 0.8 2.8 -2
v 0.5 2.8 -2.2
v 0.7 2.8 -2.2
v 0.5 2.8 -2.3
v 0.5 2.8 -2.5
v 0.5 2.8 -2.6
v 0.8 2.8 -2.6
v 0.2 4.2 -2.4
v 0.6 4.2 -2.4
v 0.2 4.2 -2.5
v 0.3 4.2 -2.5
v 0.5 4.2 -2.5
v 0.6 4.2 -2.5
v 0.1 4.7 -2.2
v 0.7 4.7 -2.2
v 0.1 4.7 -2.3
v 0.7 4.7 -2.3
v 0.1 4.7 -2.5
v 0.7 4.7 -2.5
v 0.1 4.7 -2.6
v 0.7 4.7 -2.6
v 0 4.8 -2.3
v 0.8 4.8 -2.3
v 0 4.8 -2.5
v 0.8 4.8 -2.5

# faces
f 3/8/1 2/8/1 1/8/1
f 4/8/1 2/8/1 3/8/1
f 9/4/1 6/4/1 5/4/1
f 10/4/1 6/4/1 9/4/1
f 11/4/1 8/4/1 7/4/1
f 12/4/1 8/4/1 11/4/1
f 17/8/1 14/8/1 13/8/1
f 18/8/1 14/8/1 17/8/1
f 19/8/1 16/8/1 15/8/1
f 20/8/1 16/8/1 19/8/1
f 23/7/1 22/7/1 21/7/1
f 24/7/1 22/7/1 23/7/1
f 31/6/1 26/6/1 25/6/1
f 32/6/1 26/6/1 31/6/1
f 39/6/1 28/6/1 27/6/1
f 40/6/1 28/6/1 39/6/1
f 41/1/1 32/1/1 31/1/1
f 42/5/1 33/5/1 32/5/1
f 42/1/1 32/1/1 41/1/1
f 43/1/1 34/1/1 33/1/1
f 43/5/1 33/5/1 42/5/1
f 44/5/1 35/5/1 34/5/1
f 44/1/1 34/1/1 43/1/1
f 45/1/1 36/1/1 35/1/1
f 45/5/1 35/5/1 44/5/1
f 46/5/1 37/5/1 36/5/1
f 46/1/1 36/1/1 45/1/1
f 47/1/1 38/1/1 37/1/1
f 47/5/1 37/5/1 46/5/1
f 48/5/1 39/5/1 38/5/1
f 48/1/1 38/1/1 47/1/1
f 49/1/1 40/1/1 39/1/1
f 49/5/1 39/5/1 48/5/1
f 50/6/1 28/6/1 40/6/1
f 50/1/1 40/1/1 49/1/1
f 51/6/1 28/6/1 50/6/1
f 52/6/1 30/6/1 29/6/1
f 53/6/1 30/6/1 52/6/1
f 56/8/1 55/8/1 54/8/1
f 57/8/1 56/8/1 54/8/1
f 58/8/1 57/8/1 54/8/1
f 59/8/1 57/8/1 58/8/1
f 60/8/2 61/8/2 62/8/2
f 60/8/2 62/8/2 63/8/2
f 60/8/2 63/8/2 64/8/2
f 64/8/2 63/8/2 65/8/2
f 66/7/2 67/7/2 68/7/2
f 68/7/2 67/7/2 69/7/2
f 70/5/2 71/5/2 78/5/2
f 71/1/2 72/1/2 79/1/2
f 78/5/2 71/5/2 79/5/2
f 72/5/2 73/5/2 80/5/2
f 79/1/2 72/1/2 80/1/2
f 73/1/2 74/1/2 81/1/2
f 80/5/2 73/5/2 81/5/2
f 74/5/2 75/5/2 82/5/2
f 81/1/2 74/1/2 82/1/2
f 75/1/2 76/1/2 83/1/2
f 82/5/2 75/5/2 83/5/2
f 76/5/2 77/5/2 84/5/2
f 83/1/2 76/1/2 84/1/2
f 84/5/2 77/5/2 85/5/2
f 86/8/2 87/8/2 90/8/2
f 90/8/2 87/8/2 91/8/2
f 88/8/2 89/8/2 92/8/2
f 92/8/2 89/8/2 93/8/2
f 94/4/2 95/4/2 98/4/2
f 98/4/2 95/4/2 99/4/2
f 99/4/2 95/4/2 100/4/2
f 96/4/2 97/4/2 101/4/2
f 101/4/2 97/4/2 102/4/2
f 99/6/2 100/6/2 103/6/2
f 103/6/2 100/6/2 104/6/2
f 101/6/2 102/6/2 105/6/2
f 105/6/2 102/6/2 106/6/2
f 107/8/2 108/8/2 109/8/2
f 109/8/2 108/8/2 110/8/2
f 113/4/3 112/4/3 111/4/3
f 114/4/3 112/4/3 113/4/3
f 118/6/3 116/6/3 115/6/3
f 118/1/3 117/1/3 116/1/3
f 119/1/3 117/1/3 118/1/3
f 120/6/3 118/6/3 115/6/3
f 120/6/3 119/6/3 118/6/3
f 121/6/3 119/6/3 120/6/3
f 124/4/3 123/4/3 122/4/3
f 126/6/3 125/6/3 124/6/3
f 128/4/3 124/4/3 122/4/3
f 129/6/3 127/6/3 126/6/3
f 129/4/3 124/4/3 128/4/3
f 129/6/3 126/6/3 124/6/3
f 130/6/3 127/6/3 129/6/3
f 133/8/3 132/8/3 131/8/3
f 134/8/3 132/8/3 133/8/3
f 135/8/3 132/8/3 134/8/3
f 136/8/3 132/8/3 135/8/3
f 137/8/3 133/8/3 131/8/3
f 137/3/3 134/3/3 133/3/3
f 138/2/3 135/2/3 134/2/3
f 138/3/3 134/3/3 137/3/3
f 139/3/3 136/3/3 135/3/3
f 139/2/3 135/2/3 138/2/3
f 140/8/3 132/8/3 136/8/3
f 140/3/3 136/3/3 139/3/3
f 141/2/3 138/2/3 137/2/3
f 141/8/3 137/8/3 131/8/3
f 142/3/3 139/3/3 138/3/3
f 142/2/3 138/2/3 141/2/3
f 143/2/3 140/2/3 139/2/3
f 143/3/3 139/3/3 142/3/3
f 144/8/3 132/8/3 140/8/3
f 144/2/3 140/2/3 143/2/3
f 145/8/3 141/8/3 131/8/3
f 145/3/3 142/3/3 141/3/3
f 146/2/3 143/2/3 142/2/3
f 146/3/3 142/3/3 145/3/3
f 147/3/3 144/3/3 143/3/3
f 147/2/3 143/2/3 146/2/3
f 148/8/3 132/8/3 144/8/3
f 148/3/3 144/3/3 147/3/3
f 149/8/3 147/8/3 146/8/3
f 149/8/3 145/8/3 131/8/3
f 149/8/3 148/8/3 147/8/3
f 149/8/3 146/8/3 145/8/3
f 150/8/3 132/8/3 148/8/3
f 150/8/3 148/8/3 149/8/3
f 153/8/3 152/8/3 151/8/3
f 154/8/3 152/8/3 153/8/3
f 156/8/3 153/8/3 151/8/3
f 157/7/3 156/7/3 155/7/3
f 158/7/3 156/7/3 157/7/3
f 159/8/3 153/8/3 156/8/3
f 159/7/3 156/7/3 158/7/3
f 160/8/3 153/8/3 159/8/3
f 161/8/3 152/8/3 154/8/3
f 162/8/3 160/8/3 159/8/3
f 162/8/3 161/8/3 160/8/3
f 163/8/3 152/8/3 161/8/3
f 163/8/3 161/8/3 162/8/3
f 168/3/3 165/3/3 164/3/3
f 169/2/3 166/2/3 165/2/3
f 169/3/3 165/3/3 168/3/3
f 170/3/3 167/3/3 166/3/3
f 170/2/3 166/2/3 169/2/3
f 171/3/3 167/3/3 170/3/3
f 172/2/3 169/2/3 168/2/3
f 173/3/3 170/3/3 169/3/3
f 173/2/3 169/2/3 172/2/3
f 174/2/3 171/2/3 170/2/3
f 174/3/3 170/3/3 173/3/3
f 175/2/3 171/2/3 174/2/3
f 176/3/3 173/3/3 172/3/3
f 177/2/3 174/2/3 173/2/3
f 177/3/3 173/3/3 176/3/3
f 178/3/3 175/3/3 174/3/3
f 178/2/3 174/2/3 177/2/3
f 179/3/3 175/3/3 178/3/3
f 180/4/4 181/4/4 182/4/4
f 182/6/4 183/6/4 184/6/4
f 180/4/4 182/4/4 186/4/4
f 184/6/4 185/6/4 187/6/4
f 186/4/4 182/4/4 187/4/4
f 182/6/4 184/6/4 187/6/4
f 187/6/4 185/6/4 188/6/4
f 189/8/4 190/8/4 191/8/4
f 191/8/4 190/8/4 192/8/4
f 193/8/4 194/8/4 195/8/4
f 195/8/4 194/8/4 196/8/4
f 193/8/4 195/8/4 198/8/4
f 197/7/4 198/7/4 199/7/4
f 199/7/4 198/7/4 200/7/4
f 198/8/4 195/8/4 201/8/4
f 200/7/4 198/7/4 201/7/4
f 201/8/4 195/8/4 202/8/4
f 196/8/4 194/8/4 203/8/4
f 201/8/4 202/8/4 204/8/4
f 202/8/4 203/8/4 204/8/4
f 203/8/4 194/8/4 205/8/4
f 204/8/4 203/8/4 205/8/4
f 208/8/4 209/8/4 210/8/4
f 210/8/4 209/8/4 211/8/4
f 211/8/4 209/8/4 212/8/4
f 212/8/4 209/8/4 213/8/4
f 208/8/4 210/8/4 214/8/4
f 210/3/4 211/3/4 214/3/4
f 211/2/4 212/2/4 215/2/4
f 214/3/4 211/3/4 215/3/4
f 212/3/4 213/3/4 216/3/4
f 215/2/4 212/2/4 216/2/4
f 213/8/4 209/8/4 217/8/4
f 216/3/4 213/3/4 217/3/4
f 206/4/4 207/4/4 218/4/4
f 214/2/4 215/2/4 220/2/4
f 208/8/4 214/8/4 220/8/4
f 215/3/4 216/3/4 221/3/4
f 220/2/4 215/2/4 221/2/4
f 216/2/4 217/2/4 222/2/4
f 221/3/4 216/3/4 222/3/4
f 217/8/4 209/8/4 223/8/4
f 222/2/4 217/2/4 223/2/4
f 208/8/4 220/8/4 224/8/4
f 220/3/4 221/3/4 224/3/4
f 221/2/4 222/2/4 225/2/4
f 224/3/4 221/3/4 225/3/4
f 222/3/4 223/3/4 226/3/4
f 225/2/4 222/2/4 226/2/4
f 223/8/4 209/8/4 227/8/4
f 226/3/4 223/3/4 227/3/4
f 208/8/4 224/8/4 228/8/4
f 225/8/4 226/8/4 228/8/4
f 226/8/4 227/8/4 228/8/4
f 224/8/4 225/8/4 228/8/4
f 227/8/4 209/8/4 229/8/4
f 228/8/4 227/8/4 229/8/4
f 206/4/4 218/4/4 230/4/4
f 218/6/4 219/6/4 231/6/4
f 230/4/4 218/4/4 231/4/4
f 231/6/4 219/6/4 232/6/4
f 235/4/5 234/4/5 233/4/5
f 236/4/5 234/4/5 235/4/5
f 239/4/5 238/4/5 237/4/5
f 240/4/5 238/4/5 239/4/5
f 243/5/5 242/5/5 241/5/5
f 244/5/5 242/5/5 243/5/5
f 245/1/5 244/1/5 243/1/5
f 246/1/5 244/1/5 245/1/5
f 247/5/5 246/5/5 245/5/5
f 248/5/5 246/5/5 247/5/5
f 249/1/5 248/1/5 247/1/5
f 250/1/5 248/1/5 249/1/5
f 251/5/5 250/5/5 249/5/5
f 252/5/5 250/5/5 251/5/5
f 253/1/5 252/1/5 251/1/5
f 254/1/5 252/1/5 253/1/5
f 255/5/5 254/5/5 253/5/5
f 256/5/5 254/5/5 255/5/5
f 261/8/5 258/8/5 257/8/5
f 262/8/5 258/8/5 261/8/5
f 263/8/5 260/8/5 259/8/5
f 264/8/5 260/8/5 263/8/5
f 267/8/5 266/8/5 265/8/5
f 268/8/5 266/8/5 267/8/5
f 271/8/5 270/8/5 269/8/5
f 272/8/5 270/8/5 271/8/5
f 275/8/5 274/8/5 273/8/5
f 276/8/5 274/8/5 275/8/5
f 277/8/5 274/8/5 276/8/5
f 278/8/5 274/8/5 277/8/5
f 279/4/6 280/4/6 281/4/6
f 281/4/6 280/4/6 282/4/6
f 279/4/6 281/4/6 283/4/6
f 283/4/6 281/4/6 284/4/6
f 285/4/6 286/4/6 287/4/6
f 287/4/6 286/4/6 288/4/6
f 285/4/6 287/4/6 289/4/6
f 285/4/6 289/4/6 291/4/6
f 289/4/6 290/4/6 291/4/6
f 291/4/6 290/4/6 292/4/6
f 293/1/6 294/1/6 296/1/6
f 294/6/6 295/6/6 297/6/6
f 296/1/6 294/1/6 297/1/6
f 297/6/6 295/6/6 298/6/6
f 296/5/6 297/5/6 299/5/6
f 299/5/6 297/5/6 300/5/6
f 299/1/6 300/1/6 301/1/6
f 301/1/6 300/1/6 302/1/6
f 301/5/6 302/5/6 303/5/6
f 303/5/6 302/5/6 304/5/6
f 303/1/6 304/1/6 305/1/6
f 305/1/6 304/1/6 306/1/6
f 305/5/6 306/5/6 307/5/6
f 307/5/6 306/5/6 308/5/6
f 307/1/6 308/1/6 309/1/6
f 309/1/6 308/1/6 310/1/6
f 309/5/6 310/5/6 311/5/6
f 311/5/6 310/5/6 312/5/6
f 311/1/6 312/1/6 314/1/6
f 312/6/6 313/6/6 315/6/6
f 314/1/6 312/1/6 315/1/6
f 314/6/6 315/6/6 316/6/6
f 316/6/6 315/6/6 317/6/6
f 317/6/6 315/6/6 318/6/6
f 315/6/6 313/6/6 319/6/6
f 318/6/6 315/6/6 319/6/6
f 320/8/6 321/8/6 322/8/6
f 322/8/6 321/8/6 323/8/6
f 323/8/6 321/8/6 324/8/6
f 324/8/6 321/8/6 325/8/6
f 326/8/6 327/8/6 328/8/6
f 328/8/6 327/8/6 329/8/6
f 330/8/6 331/8/6 332/8/6
f 332/8/6 331/8/6 333/8/6
f 334/8/6 335/8/6 336/8/6
f 336/8/6 335/8/6 337/8/6
