# MagicaVoxel @ Ephtracy

# group
o 

# material
mtllib ampel closed 2.mtl
usemtl palette

# normals
vn -1 0 0
vn 1 0 0
vn 0 0 1
vn 0 0 -1
vn 0 -1 0
vn 0 1 0

# texcoords
vt 0.0136719 0.5
vt 0.841797 0.5
vt 0.845703 0.5
vt 0.876953 0.5
vt 0.962891 0.5
vt 0.966797 0.5
vt 0.990234 0.5
vt 0.994141 0.5

# verts
v 0 4 -2.3
v 0 4 -2.5
v 0 4.8 -2.3
v 0 4.8 -2.5
v 0.1 2 0
v 0.1 2 -0.6
v 0.1 2 -2
v 0.1 2 -2.6
v 0.1 2.4 0
v 0.1 2.4 -0.6
v 0.1 2.4 -2
v 0.1 2.4 -2.6
v 0.1 4.1 -2.2
v 0.1 4.1 -2.3
v 0.1 4.1 -2.5
v 0.1 4.1 -2.6
v 0.1 4.7 -2.2
v 0.1 4.7 -2.3
v 0.1 4.7 -2.5
v 0.1 4.7 -2.6
v 0.3 2.4 -2.3
v 0.3 2.4 -2.5
v 0.3 4 -2.3
v 0.3 4 -2.5
v 0.5 2.4 -0.4
v 0.5 2.4 -0.6
v 0.5 2.4 -2
v 0.5 2.4 -2.3
v 0.5 2.4 -2.5
v 0.5 2.4 -2.6
v 0.5 2.6 -0.4
v 0.5 2.6 -0.6
v 0.5 2.6 -2
v 0.5 2.6 -2.2
v 0.5 2.7 -1.9
v 0.5 2.7 -2
v 0.5 2.8 -1.8
v 0.5 2.8 -1.9
v 0.5 2.8 -2
v 0.5 2.8 -2.1
v 0.5 2.8 -2.2
v 0.5 2.8 -2.3
v 0.5 2.8 -2.5
v 0.5 2.8 -2.6
v 0.5 2.9 -1.7
v 0.5 2.9 -1.8
v 0.5 2.9 -2
v 0.5 2.9 -2.1
v 0.5 3 -1.6
v 0.5 3 -1.7
v 0.5 3 -1.8
v 0.5 3 -1.9
v 0.5 3 -2
v 0.5 3.1 -1.5
v 0.5 3.1 -1.6
v 0.5 3.1 -1.8
v 0.5 3.1 -1.9
v 0.5 3.2 -1.4
v 0.5 3.2 -1.5
v 0.5 3.2 -1.6
v 0.5 3.2 -1.7
v 0.5 3.2 -1.8
v 0.5 3.3 -1.3
v 0.5 3.3 -1.4
v 0.5 3.3 -1.6
v 0.5 3.3 -1.7
v 0.5 3.4 -1.2
v 0.5 3.4 -1.3
v 0.5 3.4 -1.4
v 0.5 3.4 -1.5
v 0.5 3.4 -1.6
v 0.5 3.5 -1.1
v 0.5 3.5 -1.2
v 0.5 3.5 -1.3
v 0.5 3.5 -1.4
v 0.5 3.5 -1.5
v 0.5 3.6 -1
v 0.5 3.6 -1.1
v 0.5 3.6 -1.2
v 0.5 3.6 -1.3
v 0.5 3.6 -1.4
v 0.5 3.7 -0.9
v 0.5 3.7 -1
v 0.5 3.7 -1.1
v 0.5 3.7 -1.2
v 0.5 3.7 -1.3
v 0.5 3.8 -0.8
v 0.5 3.8 -0.9
v 0.5 3.8 -1
v 0.5 3.8 -1.1
v 0.5 3.8 -1.2
v 0.5 3.9 -1
v 0.5 3.9 -1.1
v 0.5 4 -0.8
v 0.5 4 -1
v 0.6 4.2 -2.4
v 0.6 4.2 -2.5
v 0.6 4.3 -2.5
v 0.6 4.5 -2.5
v 0.6 4.6 -2.4
v 0.6 4.6 -2.5
v 0.7 2.6 -0.4
v 0.7 2.6 -0.6
v 0.7 2.8 -0.4
v 0.7 2.8 -0.6
v 0.2 4.2 -2.4
v 0.2 4.2 -2.5
v 0.2 4.3 -2.5
v 0.2 4.5 -2.5
v 0.2 4.6 -2.4
v 0.2 4.6 -2.5
v 0.5 2.8 -2.3
v 0.5 2.8 -2.5
v 0.5 4 -2.3
v 0.5 4 -2.5
v 0.7 2.7 -1.9
v 0.7 2.7 -2
v 0.7 2.8 -1.8
v 0.7 2.8 -1.9
v 0.7 2.8 -2
v 0.7 2.8 -2.1
v 0.7 2.9 -1.7
v 0.7 2.9 -1.8
v 0.7 2.9 -2
v 0.7 2.9 -2.1
v 0.7 3 -1.6
v 0.7 3 -1.7
v 0.7 3 -1.8
v 0.7 3 -1.9
v 0.7 3 -2
v 0.7 3.1 -1.5
v 0.7 3.1 -1.6
v 0.7 3.1 -1.7
v 0.7 3.1 -1.8
v 0.7 3.1 -1.9
v 0.7 3.2 -1.4
v 0.7 3.2 -1.5
v 0.7 3.2 -1.6
v 0.7 3.2 -1.7
v 0.7 3.2 -1.8
v 0.7 3.3 -1.3
v 0.7 3.3 -1.4
v 0.7 3.3 -1.5
v 0.7 3.3 -1.6
v 0.7 3.3 -1.7
v 0.7 3.4 -1.2
v 0.7 3.4 -1.3
v 0.7 3.4 -1.4
v 0.7 3.4 -1.5
v 0.7 3.4 -1.6
v 0.7 3.5 -1.1
v 0.7 3.5 -1.2
v 0.7 3.5 -1.3
v 0.7 3.5 -1.4
v 0.7 3.5 -1.5
v 0.7 3.6 -1
v 0.7 3.6 -1.1
v 0.7 3.6 -1.2
v 0.7 3.6 -1.3
v 0.7 3.6 -1.4
v 0.7 3.7 -0.9
v 0.7 3.7 -1
v 0.7 3.7 -1.1
v 0.7 3.7 -1.2
v 0.7 3.7 -1.3
v 0.7 3.8 -0.8
v 0.7 3.8 -0.9
v 0.7 3.8 -1
v 0.7 3.8 -1.1
v 0.7 3.8 -1.2
v 0.7 3.9 -1
v 0.7 3.9 -1.1
v 0.7 4 -0.8
v 0.7 4 -1
v 0.7 4.1 -2.2
v 0.7 4.1 -2.3
v 0.7 4.1 -2.5
v 0.7 4.1 -2.6
v 0.7 4.7 -2.2
v 0.7 4.7 -2.3
v 0.7 4.7 -2.5
v 0.7 4.7 -2.6
v 0.8 2 0
v 0.8 2 -0.6
v 0.8 2 -2
v 0.8 2 -2.6
v 0.8 2.4 0
v 0.8 2.4 -0.4
v 0.8 2.4 -0.6
v 0.8 2.4 -2
v 0.8 2.4 -2.6
v 0.8 2.8 -0.4
v 0.8 2.8 -0.6
v 0.8 2.8 -2
v 0.8 2.8 -2.6
v 0.8 4 -2.3
v 0.8 4 -2.5
v 0.8 4.8 -2.3
v 0.8 4.8 -2.5
v 0.1 2 0
v 0.1 2.4 0
v 0.8 2 0
v 0.8 2.4 0
v 0.5 2.4 -0.4
v 0.5 2.6 -0.4
v 0.7 2.6 -0.4
v 0.7 2.8 -0.4
v 0.8 2.4 -0.4
v 0.8 2.8 -0.4
v 0.5 3.8 -0.8
v 0.5 4 -0.8
v 0.7 3.8 -0.8
v 0.7 4 -0.8
v 0.5 3.7 -0.9
v 0.5 3.8 -0.9
v 0.7 3.7 -0.9
v 0.7 3.8 -0.9
v 0.5 3.6 -1
v 0.5 3.7 -1
v 0.7 3.6 -1
v 0.7 3.7 -1
v 0.5 3.5 -1.1
v 0.5 3.6 -1.1
v 0.7 3.5 -1.1
v 0.7 3.6 -1.1
v 0.5 3.4 -1.2
v 0.5 3.5 -1.2
v 0.7 3.4 -1.2
v 0.7 3.5 -1.2
v 0.5 3.3 -1.3
v 0.5 3.4 -1.3
v 0.7 3.3 -1.3
v 0.7 3.4 -1.3
v 0.5 3.2 -1.4
v 0.5 3.3 -1.4
v 0.6 3.2 -1.4
v 0.6 3.3 -1.4
v 0.7 3.2 -1.4
v 0.7 3.3 -1.4
v 0.5 3.1 -1.5
v 0.5 3.2 -1.5
v 0.6 3.2 -1.5
v 0.7 3.1 -1.5
v 0.7 3.2 -1.5
v 0.5 3 -1.6
v 0.5 3.1 -1.6
v 0.7 3 -1.6
v 0.7 3.1 -1.6
v 0.5 2.9 -1.7
v 0.5 3 -1.7
v 0.7 2.9 -1.7
v 0.7 3 -1.7
v 0.5 2.8 -1.8
v 0.5 2.9 -1.8
v 0.7 2.8 -1.8
v 0.7 2.9 -1.8
v 0.5 2.7 -1.9
v 0.5 2.8 -1.9
v 0.7 2.7 -1.9
v 0.7 2.8 -1.9
v 0.1 2 -2
v 0.1 2.4 -2
v 0.5 2.4 -2
v 0.5 2.6 -2
v 0.5 2.7 -2
v 0.7 2.6 -2
v 0.7 2.7 -2
v 0.7 2.8 -2
v 0.8 2 -2
v 0.8 2.4 -2
v 0.8 2.8 -2
v 0.1 4.1 -2.2
v 0.1 4.7 -2.2
v 0.2 4.2 -2.2
v 0.2 4.3 -2.2
v 0.2 4.5 -2.2
v 0.2 4.6 -2.2
v 0.3 4.2 -2.2
v 0.3 4.3 -2.2
v 0.3 4.5 -2.2
v 0.3 4.6 -2.2
v 0.5 4.2 -2.2
v 0.5 4.3 -2.2
v 0.5 4.5 -2.2
v 0.5 4.6 -2.2
v 0.6 4.2 -2.2
v 0.6 4.3 -2.2
v 0.6 4.5 -2.2
v 0.6 4.6 -2.2
v 0.7 4.1 -2.2
v 0.7 4.7 -2.2
v 0 4 -2.3
v 0 4.8 -2.3
v 0.1 4.1 -2.3
v 0.1 4.7 -2.3
v 0.3 2.4 -2.3
v 0.3 4 -2.3
v 0.5 2.4 -2.3
v 0.5 2.8 -2.3
v 0.5 4 -2.3
v 0.7 4.1 -2.3
v 0.7 4.7 -2.3
v 0.8 4 -2.3
v 0.8 4.8 -2.3
v 0.2 4.2 -2.5
v 0.2 4.3 -2.5
v 0.2 4.5 -2.5
v 0.2 4.6 -2.5
v 0.3 4.2 -2.5
v 0.3 4.3 -2.5
v 0.3 4.5 -2.5
v 0.3 4.6 -2.5
v 0.5 4.2 -2.5
v 0.5 4.3 -2.5
v 0.5 4.5 -2.5
v 0.5 4.6 -2.5
v 0.6 4.2 -2.5
v 0.6 4.3 -2.5
v 0.6 4.5 -2.5
v 0.6 4.6 -2.5
v 0.1 2 -0.6
v 0.1 2.4 -0.6
v 0.5 2.4 -0.6
v 0.5 2.6 -0.6
v 0.7 2.6 -0.6
v 0.7 2.8 -0.6
v 0.8 2 -0.6
v 0.8 2.4 -0.6
v 0.8 2.8 -0.6
v 0.5 3.9 -1
v 0.5 4 -1
v 0.7 3.9 -1
v 0.7 4 -1
v 0.5 3.8 -1.1
v 0.5 3.9 -1.1
v 0.7 3.8 -1.1
v 0.7 3.9 -1.1
v 0.5 3.7 -1.2
v 0.5 3.8 -1.2
v 0.7 3.7 -1.2
v 0.7 3.8 -1.2
v 0.5 3.6 -1.3
v 0.5 3.7 -1.3
v 0.7 3.6 -1.3
v 0.7 3.7 -1.3
v 0.5 3.5 -1.4
v 0.5 3.6 -1.4
v 0.7 3.5 -1.4
v 0.7 3.6 -1.4
v 0.5 3.4 -1.5
v 0.5 3.5 -1.5
v 0.6 3.4 -1.5
v 0.7 3.4 -1.5
v 0.7 3.5 -1.5
v 0.5 3.3 -1.6
v 0.5 3.4 -1.6
v 0.6 3.3 -1.6
v 0.6 3.4 -1.6
v 0.7 3.3 -1.6
v 0.7 3.4 -1.6
v 0.5 3.2 -1.7
v 0.5 3.3 -1.7
v 0.7 3.2 -1.7
v 0.7 3.3 -1.7
v 0.5 3.1 -1.8
v 0.5 3.2 -1.8
v 0.7 3.1 -1.8
v 0.7 3.2 -1.8
v 0.5 3 -1.9
v 0.5 3.1 -1.9
v 0.7 3 -1.9
v 0.7 3.1 -1.9
v 0.5 2.9 -2
v 0.5 3 -2
v 0.7 2.9 -2
v 0.7 3 -2
v 0.5 2.8 -2.1
v 0.5 2.9 -2.1
v 0.7 2.8 -2.1
v 0.7 2.9 -2.1
v 0.2 4.2 -2.4
v 0.2 4.6 -2.4
v 0.6 4.2 -2.4
v 0.6 4.6 -2.4
v 0 4 -2.5
v 0 4.8 -2.5
v 0.1 4.1 -2.5
v 0.1 4.7 -2.5
v 0.3 2.4 -2.5
v 0.3 4 -2.5
v 0.5 2.4 -2.5
v 0.5 2.8 -2.5
v 0.5 4 -2.5
v 0.7 4.1 -2.5
v 0.7 4.7 -2.5
v 0.8 4 -2.5
v 0.8 4.8 -2.5
v 0.1 2 -2.6
v 0.1 2.4 -2.6
v 0.1 4.1 -2.6
v 0.1 4.7 -2.6
v 0.2 4.2 -2.6
v 0.2 4.3 -2.6
v 0.2 4.5 -2.6
v 0.2 4.6 -2.6
v 0.3 4.2 -2.6
v 0.3 4.3 -2.6
v 0.3 4.5 -2.6
v 0.3 4.6 -2.6
v 0.5 2.4 -2.6
v 0.5 2.8 -2.6
v 0.5 4.2 -2.6
v 0.5 4.3 -2.6
v 0.5 4.5 -2.6
v 0.5 4.6 -2.6
v 0.6 4.2 -2.6
v 0.6 4.3 -2.6
v 0.6 4.5 -2.6
v 0.6 4.6 -2.6
v 0.7 4.1 -2.6
v 0.7 4.7 -2.6
v 0.8 2 -2.6
v 0.8 2.4 -2.6
v 0.8 2.8 -2.6
v 0.1 2 0
v 0.8 2 0
v 0.1 2 -0.6
v 0.8 2 -0.6
v 0.1 2 -2
v 0.8 2 -2
v 0.1 2 -2.6
v 0.8 2 -2.6
v 0.5 2.7 -1.9
v 0.7 2.7 -1.9
v 0.5 2.7 -2
v 0.7 2.7 -2
v 0.5 2.8 -1.8
v 0.7 2.8 -1.8
v 0.5 2.8 -1.9
v 0.7 2.8 -1.9
v 0.5 2.9 -1.7
v 0.7 2.9 -1.7
v 0.5 2.9 -1.8
v 0.7 2.9 -1.8
v 0.5 3 -1.6
v 0.7 3 -1.6
v 0.5 3 -1.7
v 0.7 3 -1.7
v 0.5 3.1 -1.5
v 0.7 3.1 -1.5
v 0.5 3.1 -1.6
v 0.7 3.1 -1.6
v 0.5 3.2 -1.4
v 0.6 3.2 -1.4
v 0.7 3.2 -1.4
v 0.5 3.2 -1.5
v 0.6 3.2 -1.5
v 0.7 3.2 -1.5
v 0.5 3.3 -1.3
v 0.7 3.3 -1.3
v 0.5 3.3 -1.4
v 0.6 3.3 -1.4
v 0.7 3.3 -1.4
v 0.5 3.4 -1.2
v 0.7 3.4 -1.2
v 0.5 3.4 -1.3
v 0.7 3.4 -1.3
v 0.5 3.5 -1.1
v 0.7 3.5 -1.1
v 0.5 3.5 -1.2
v 0.7 3.5 -1.2
v 0.5 3.6 -1
v 0.7 3.6 -1
v 0.5 3.6 -1.1
v 0.7 3.6 -1.1
v 0.5 3.7 -0.9
v 0.7 3.7 -0.9
v 0.5 3.7 -1
v 0.7 3.7 -1
v 0.5 3.8 -0.8
v 0.7 3.8 -0.8
v 0.5 3.8 -0.9
v 0.7 3.8 -0.9
v 0 4 -2.3
v 0.3 4 -2.3
v 0.5 4 -2.3
v 0.8 4 -2.3
v 0 4 -2.5
v 0.3 4 -2.5
v 0.5 4 -2.5
v 0.8 4 -2.5
v 0.1 4.1 -2.2
v 0.7 4.1 -2.2
v 0.1 4.1 -2.3
v 0.7 4.1 -2.3
v 0.1 4.1 -2.5
v 0.7 4.1 -2.5
v 0.1 4.1 -2.6
v 0.7 4.1 -2.6
v 0.2 4.6 -2.4
v 0.6 4.6 -2.4
v 0.2 4.6 -2.5
v 0.3 4.6 -2.5
v 0.5 4.6 -2.5
v 0.6 4.6 -2.5
v 0.1 2.4 0
v 0.8 2.4 0
v 0.5 2.4 -0.4
v 0.8 2.4 -0.4
v 0.1 2.4 -0.6
v 0.5 2.4 -0.6
v 0.1 2.4 -2
v 0.5 2.4 -2
v 0.3 2.4 -2.3
v 0.5 2.4 -2.3
v 0.3 2.4 -2.5
v 0.5 2.4 -2.5
v 0.1 2.4 -2.6
v 0.5 2.4 -2.6
v 0.5 2.6 -0.4
v 0.7 2.6 -0.4
v 0.5 2.6 -0.6
v 0.7 2.6 -0.6
v 0.7 2.8 -0.4
v 0.8 2.8 -0.4
v 0.7 2.8 -0.6
v 0.8 2.8 -0.6
v 0.7 2.8 -2
v 0.8 2.8 -2
v 0.5 2.8 -2.1
v 0.7 2.8 -2.1
v 0.5 2.8 -2.2
v 0.7 2.8 -2.2
v 0.5 2.8 -2.3
v 0.5 2.8 -2.5
v 0.5 2.8 -2.6
v 0.8 2.8 -2.6
v 0.5 2.9 -2
v 0.7 2.9 -2
v 0.5 2.9 -2.1
v 0.7 2.9 -2.1
v 0.5 3 -1.9
v 0.7 3 -1.9
v 0.5 3 -2
v 0.7 3 -2
v 0.5 3.1 -1.8
v 0.7 3.1 -1.8
v 0.5 3.1 -1.9
v 0.7 3.1 -1.9
v 0.5 3.2 -1.7
v 0.7 3.2 -1.7
v 0.5 3.2 -1.8
v 0.7 3.2 -1.8
v 0.5 3.3 -1.6
v 0.6 3.3 -1.6
v 0.7 3.3 -1.6
v 0.5 3.3 -1.7
v 0.7 3.3 -1.7
v 0.5 3.4 -1.5
v 0.6 3.4 -1.5
v 0.7 3.4 -1.5
v 0.5 3.4 -1.6
v 0.6 3.4 -1.6
v 0.7 3.4 -1.6
v 0.5 3.5 -1.4
v 0.7 3.5 -1.4
v 0.5 3.5 -1.5
v 0.7 3.5 -1.5
v 0.5 3.6 -1.3
v 0.7 3.6 -1.3
v 0.5 3.6 -1.4
v 0.7 3.6 -1.4
v 0.5 3.7 -1.2
v 0.7 3.7 -1.2
v 0.5 3.7 -1.3
v 0.7 3.7 -1.3
v 0.5 3.8 -1.1
v 0.7 3.8 -1.1
v 0.5 3.8 -1.2
v 0.7 3.8 -1.2
v 0.5 3.9 -1
v 0.7 3.9 -1
v 0.5 3.9 -1.1
v 0.7 3.9 -1.1
v 0.5 4 -0.8
v 0.7 4 -0.8
v 0.5 4 -1
v 0.7 4 -1
v 0.2 4.2 -2.4
v 0.6 4.2 -2.4
v 0.2 4.2 -2.5
v 0.3 4.2 -2.5
v 0.5 4.2 -2.5
v 0.6 4.2 -2.5
v 0.1 4.7 -2.2
v 0.7 4.7 -2.2
v 0.1 4.7 -2.3
v 0.7 4.7 -2.3
v 0.1 4.7 -2.5
v 0.7 4.7 -2.5
v 0.1 4.7 -2.6
v 0.7 4.7 -2.6
v 0 4.8 -2.3
v 0.8 4.8 -2.3
v 0 4.8 -2.5
v 0.8 4.8 -2.5

# faces
f 3/8/1 2/8/1 1/8/1
f 4/8/1 2/8/1 3/8/1
f 9/4/1 6/4/1 5/4/1
f 10/4/1 6/4/1 9/4/1
f 11/4/1 8/4/1 7/4/1
f 12/4/1 8/4/1 11/4/1
f 17/8/1 14/8/1 13/8/1
f 18/8/1 14/8/1 17/8/1
f 19/8/1 16/8/1 15/8/1
f 20/8/1 16/8/1 19/8/1
f 23/7/1 22/7/1 21/7/1
f 24/7/1 22/7/1 23/7/1
f 31/6/1 26/6/1 25/6/1
f 32/6/1 26/6/1 31/6/1
f 33/6/1 28/6/1 27/6/1
f 34/6/1 28/6/1 33/6/1
f 36/1/1 34/1/1 33/1/1
f 38/1/1 36/1/1 35/1/1
f 39/1/1 34/1/1 36/1/1
f 39/1/1 36/1/1 38/1/1
f 40/1/1 34/1/1 39/1/1
f 41/6/1 28/6/1 34/6/1
f 41/1/1 34/1/1 40/1/1
f 42/6/1 28/6/1 41/6/1
f 43/6/1 30/6/1 29/6/1
f 44/6/1 30/6/1 43/6/1
f 46/5/1 38/5/1 37/5/1
f 46/5/1 39/5/1 38/5/1
f 47/1/1 40/1/1 39/1/1
f 47/5/1 39/5/1 46/5/1
f 48/1/1 40/1/1 47/1/1
f 50/1/1 46/1/1 45/1/1
f 51/5/1 47/5/1 46/5/1
f 51/1/1 46/1/1 50/1/1
f 52/5/1 47/5/1 51/5/1
f 53/5/1 47/5/1 52/5/1
f 55/1/1 50/1/1 49/1/1
f 55/1/1 51/1/1 50/1/1
f 55/1/1 52/1/1 51/1/1
f 56/1/1 52/1/1 55/1/1
f 57/1/1 52/1/1 56/1/1
f 59/5/1 55/5/1 54/5/1
f 60/1/1 56/1/1 55/1/1
f 60/5/1 55/5/1 59/5/1
f 61/1/1 56/1/1 60/1/1
f 62/1/1 56/1/1 61/1/1
f 64/5/1 59/5/1 58/5/1
f 64/5/1 60/5/1 59/5/1
f 64/5/1 61/5/1 60/5/1
f 65/5/1 61/5/1 64/5/1
f 66/5/1 61/5/1 65/5/1
f 68/5/1 64/5/1 63/5/1
f 68/5/1 65/5/1 64/5/1
f 69/5/1 65/5/1 68/5/1
f 70/5/1 65/5/1 69/5/1
f 71/5/1 65/5/1 70/5/1
f 73/1/1 68/1/1 67/1/1
f 73/1/1 69/1/1 68/1/1
f 74/1/1 69/1/1 73/1/1
f 75/5/1 70/5/1 69/5/1
f 75/1/1 69/1/1 74/1/1
f 76/5/1 70/5/1 75/5/1
f 78/5/1 74/5/1 73/5/1
f 78/5/1 73/5/1 72/5/1
f 79/5/1 74/5/1 78/5/1
f 80/1/1 75/1/1 74/1/1
f 80/5/1 74/5/1 79/5/1
f 81/1/1 75/1/1 80/1/1
f 83/1/1 79/1/1 78/1/1
f 83/1/1 78/1/1 77/1/1
f 84/1/1 79/1/1 83/1/1
f 85/5/1 80/5/1 79/5/1
f 85/1/1 79/1/1 84/1/1
f 86/5/1 80/5/1 85/5/1
f 88/5/1 84/5/1 83/5/1
f 88/5/1 83/5/1 82/5/1
f 89/5/1 84/5/1 88/5/1
f 90/1/1 85/1/1 84/1/1
f 90/5/1 84/5/1 89/5/1
f 91/1/1 85/1/1 90/1/1
f 92/1/1 89/1/1 88/1/1
f 92/1/1 88/1/1 87/1/1
f 92/5/1 90/5/1 89/5/1
f 93/5/1 90/5/1 92/5/1
f 94/1/1 92/1/1 87/1/1
f 95/1/1 92/1/1 94/1/1
f 98/8/1 97/8/1 96/8/1
f 99/8/1 98/8/1 96/8/1
f 100/8/1 99/8/1 96/8/1
f 101/8/1 99/8/1 100/8/1
f 104/6/1 103/6/1 102/6/1
f 105/6/1 103/6/1 104/6/1
f 106/8/2 107/8/2 108/8/2
f 106/8/2 108/8/2 109/8/2
f 106/8/2 109/8/2 110/8/2
f 110/8/2 109/8/2 111/8/2
f 112/7/2 113/7/2 114/7/2
f 114/7/2 113/7/2 115/7/2
f 116/1/2 117/1/2 119/1/2
f 119/1/2 117/1/2 120/1/2
f 118/5/2 119/5/2 123/5/2
f 119/5/2 120/5/2 123/5/2
f 120/1/2 121/1/2 124/1/2
f 123/5/2 120/5/2 124/5/2
f 124/1/2 121/1/2 125/1/2
f 122/1/2 123/1/2 127/1/2
f 123/5/2 124/5/2 128/5/2
f 127/1/2 123/1/2 128/1/2
f 128/5/2 124/5/2 129/5/2
f 129/5/2 124/5/2 130/5/2
f 126/1/2 127/1/2 132/1/2
f 127/5/2 128/5/2 133/5/2
f 132/1/2 127/1/2 133/1/2
f 128/1/2 129/1/2 134/1/2
f 133/5/2 128/5/2 134/5/2
f 134/1/2 129/1/2 135/1/2
f 131/5/2 132/5/2 137/5/2
f 132/1/2 133/1/2 138/1/2
f 133/1/2 134/1/2 138/1/2
f 137/5/2 132/5/2 138/5/2
f 138/1/2 134/1/2 139/1/2
f 139/1/2 134/1/2 140/1/2
f 136/1/2 137/1/2 142/1/2
f 137/5/2 138/5/2 143/5/2
f 138/5/2 139/5/2 143/5/2
f 142/1/2 137/1/2 143/1/2
f 143/5/2 139/5/2 144/5/2
f 144/5/2 139/5/2 145/5/2
f 141/5/2 142/5/2 147/5/2
f 142/5/2 143/5/2 147/5/2
f 147/5/2 143/5/2 148/5/2
f 143/1/2 144/1/2 149/1/2
f 148/5/2 143/5/2 149/5/2
f 149/1/2 144/1/2 150/1/2
f 147/1/2 148/1/2 152/1/2
f 146/1/2 147/1/2 152/1/2
f 152/1/2 148/1/2 153/1/2
f 148/5/2 149/5/2 154/5/2
f 153/1/2 148/1/2 154/1/2
f 154/5/2 149/5/2 155/5/2
f 152/5/2 153/5/2 157/5/2
f 151/5/2 152/5/2 157/5/2
f 157/5/2 153/5/2 158/5/2
f 153/1/2 154/1/2 159/1/2
f 158/5/2 153/5/2 159/5/2
f 159/1/2 154/1/2 160/1/2
f 157/1/2 158/1/2 162/1/2
f 156/1/2 157/1/2 162/1/2
f 162/1/2 158/1/2 163/1/2
f 158/5/2 159/5/2 164/5/2
f 163/1/2 158/1/2 164/1/2
f 164/5/2 159/5/2 165/5/2
f 162/5/2 163/5/2 167/5/2
f 161/5/2 162/5/2 167/5/2
f 167/5/2 163/5/2 168/5/2
f 163/1/2 164/1/2 169/1/2
f 168/5/2 163/5/2 169/5/2
f 169/1/2 164/1/2 170/1/2
f 167/1/2 168/1/2 171/1/2
f 166/1/2 167/1/2 171/1/2
f 168/5/2 169/5/2 171/5/2
f 171/5/2 169/5/2 172/5/2
f 166/1/2 171/1/2 173/1/2
f 173/1/2 171/1/2 174/1/2
f 175/8/2 176/8/2 179/8/2
f 179/8/2 176/8/2 180/8/2
f 177/8/2 178/8/2 181/8/2
f 181/8/2 178/8/2 182/8/2
f 183/4/2 184/4/2 187/4/2
f 187/4/2 184/4/2 188/4/2
f 188/4/2 184/4/2 189/4/2
f 185/4/2 186/4/2 190/4/2
f 190/4/2 186/4/2 191/4/2
f 188/6/2 189/6/2 192/6/2
f 192/6/2 189/6/2 193/6/2
f 190/6/2 191/6/2 194/6/2
f 194/6/2 191/6/2 195/6/2
f 196/8/2 197/8/2 198/8/2
f 198/8/2 197/8/2 199/8/2
f 202/4/3 201/4/3 200/4/3
f 203/4/3 201/4/3 202/4/3
f 206/6/3 205/6/3 204/6/3
f 208/6/3 206/6/3 204/6/3
f 208/6/3 207/6/3 206/6/3
f 209/6/3 207/6/3 208/6/3
f 212/1/3 211/1/3 210/1/3
f 213/1/3 211/1/3 212/1/3
f 216/5/3 215/5/3 214/5/3
f 217/5/3 215/5/3 216/5/3
f 220/1/3 219/1/3 218/1/3
f 221/1/3 219/1/3 220/1/3
f 224/5/3 223/5/3 222/5/3
f 225/5/3 223/5/3 224/5/3
f 228/1/3 227/1/3 226/1/3
f 229/1/3 227/1/3 228/1/3
f 232/5/3 231/5/3 230/5/3
f 233/5/3 231/5/3 232/5/3
f 236/5/3 235/5/3 234/5/3
f 237/5/3 235/5/3 236/5/3
f 238/1/3 237/1/3 236/1/3
f 239/1/3 237/1/3 238/1/3
f 242/5/3 241/5/3 240/5/3
f 243/5/3 242/5/3 240/5/3
f 244/5/3 242/5/3 243/5/3
f 247/1/3 246/1/3 245/1/3
f 248/1/3 246/1/3 247/1/3
f 251/1/3 250/1/3 249/1/3
f 252/1/3 250/1/3 251/1/3
f 255/5/3 254/5/3 253/5/3
f 256/5/3 254/5/3 255/5/3
f 259/1/3 258/1/3 257/1/3
f 260/1/3 258/1/3 259/1/3
f 263/4/3 262/4/3 261/4/3
f 266/6/3 264/6/3 263/6/3
f 266/1/3 265/1/3 264/1/3
f 267/1/3 265/1/3 266/1/3
f 269/4/3 263/4/3 261/4/3
f 270/6/3 268/6/3 267/6/3
f 270/4/3 263/4/3 269/4/3
f 270/6/3 266/6/3 263/6/3
f 270/6/3 267/6/3 266/6/3
f 271/6/3 268/6/3 270/6/3
f 274/8/3 273/8/3 272/8/3
f 275/8/3 273/8/3 274/8/3
f 276/8/3 273/8/3 275/8/3
f 277/8/3 273/8/3 276/8/3
f 278/8/3 274/8/3 272/8/3
f 278/3/3 275/3/3 274/3/3
f 279/2/3 276/2/3 275/2/3
f 279/3/3 275/3/3 278/3/3
f 280/3/3 277/3/3 276/3/3
f 280/2/3 276/2/3 279/2/3
f 281/8/3 273/8/3 277/8/3
f 281/3/3 277/3/3 280/3/3
f 282/2/3 279/2/3 278/2/3
f 282/8/3 278/8/3 272/8/3
f 283/3/3 280/3/3 279/3/3
f 283/2/3 279/2/3 282/2/3
f 284/2/3 281/2/3 280/2/3
f 284/3/3 280/3/3 283/3/3
f 285/8/3 273/8/3 281/8/3
f 285/2/3 281/2/3 284/2/3
f 286/8/3 282/8/3 272/8/3
f 286/3/3 283/3/3 282/3/3
f 287/2/3 284/2/3 283/2/3
f 287/3/3 283/3/3 286/3/3
f 288/3/3 285/3/3 284/3/3
f 288/2/3 284/2/3 287/2/3
f 289/8/3 273/8/3 285/8/3
f 289/3/3 285/3/3 288/3/3
f 290/8/3 288/8/3 287/8/3
f 290/8/3 286/8/3 272/8/3
f 290/8/3 289/8/3 288/8/3
f 290/8/3 287/8/3 286/8/3
f 291/8/3 273/8/3 289/8/3
f 291/8/3 289/8/3 290/8/3
f 294/8/3 293/8/3 292/8/3
f 295/8/3 293/8/3 294/8/3
f 297/8/3 294/8/3 292/8/3
f 298/7/3 297/7/3 296/7/3
f 299/7/3 297/7/3 298/7/3
f 300/8/3 294/8/3 297/8/3
f 300/7/3 297/7/3 299/7/3
f 301/8/3 294/8/3 300/8/3
f 302/8/3 293/8/3 295/8/3
f 303/8/3 301/8/3 300/8/3
f 303/8/3 302/8/3 301/8/3
f 304/8/3 293/8/3 302/8/3
f 304/8/3 302/8/3 303/8/3
f 309/3/3 306/3/3 305/3/3
f 310/2/3 307/2/3 306/2/3
f 310/3/3 306/3/3 309/3/3
f 311/3/3 308/3/3 307/3/3
f 311/2/3 307/2/3 310/2/3
f 312/3/3 308/3/3 311/3/3
f 313/2/3 310/2/3 309/2/3
f 314/3/3 311/3/3 310/3/3
f 314/2/3 310/2/3 313/2/3
f 315/2/3 312/2/3 311/2/3
f 315/3/3 311/3/3 314/3/3
f 316/2/3 312/2/3 315/2/3
f 317/3/3 314/3/3 313/3/3
f 318/2/3 315/2/3 314/2/3
f 318/3/3 314/3/3 317/3/3
f 319/3/3 316/3/3 315/3/3
f 319/2/3 315/2/3 318/2/3
f 320/3/3 316/3/3 319/3/3
f 321/4/4 322/4/4 323/4/4
f 323/6/4 324/6/4 325/6/4
f 321/4/4 323/4/4 327/4/4
f 325/6/4 326/6/4 328/6/4
f 327/4/4 323/4/4 328/4/4
f 323/6/4 325/6/4 328/6/4
f 328/6/4 326/6/4 329/6/4
f 330/1/4 331/1/4 332/1/4
f 332/1/4 331/1/4 333/1/4
f 334/5/4 335/5/4 336/5/4
f 336/5/4 335/5/4 337/5/4
f 338/1/4 339/1/4 340/1/4
f 340/1/4 339/1/4 341/1/4
f 342/5/4 343/5/4 344/5/4
f 344/5/4 343/5/4 345/5/4
f 346/1/4 347/1/4 348/1/4
f 348/1/4 347/1/4 349/1/4
f 350/5/4 351/5/4 352/5/4
f 352/5/4 351/5/4 353/5/4
f 353/5/4 351/5/4 354/5/4
f 355/5/4 356/5/4 357/5/4
f 357/5/4 356/5/4 358/5/4
f 357/1/4 358/1/4 359/1/4
f 359/1/4 358/1/4 360/1/4
f 361/5/4 362/5/4 363/5/4
f 363/5/4 362/5/4 364/5/4
f 365/1/4 366/1/4 367/1/4
f 367/1/4 366/1/4 368/1/4
f 369/1/4 370/1/4 371/1/4
f 371/1/4 370/1/4 372/1/4
f 373/5/4 374/5/4 375/5/4
f 375/5/4 374/5/4 376/5/4
f 377/1/4 378/1/4 379/1/4
f 379/1/4 378/1/4 380/1/4
f 381/8/4 382/8/4 383/8/4
f 383/8/4 382/8/4 384/8/4
f 385/8/4 386/8/4 387/8/4
f 387/8/4 386/8/4 388/8/4
f 385/8/4 387/8/4 390/8/4
f 389/7/4 390/7/4 391/7/4
f 391/7/4 390/7/4 392/7/4
f 390/8/4 387/8/4 393/8/4
f 392/7/4 390/7/4 393/7/4
f 393/8/4 387/8/4 394/8/4
f 388/8/4 386/8/4 395/8/4
f 393/8/4 394/8/4 396/8/4
f 394/8/4 395/8/4 396/8/4
f 395/8/4 386/8/4 397/8/4
f 396/8/4 395/8/4 397/8/4
f 400/8/4 401/8/4 402/8/4
f 402/8/4 401/8/4 403/8/4
f 403/8/4 401/8/4 404/8/4
f 404/8/4 401/8/4 405/8/4
f 400/8/4 402/8/4 406/8/4
f 402/3/4 403/3/4 406/3/4
f 403/2/4 404/2/4 407/2/4
f 406/3/4 403/3/4 407/3/4
f 404/3/4 405/3/4 408/3/4
f 407/2/4 404/2/4 408/2/4
f 405/8/4 401/8/4 409/8/4
f 408/3/4 405/3/4 409/3/4
f 398/4/4 399/4/4 410/4/4
f 406/2/4 407/2/4 412/2/4
f 400/8/4 406/8/4 412/8/4
f 407/3/4 408/3/4 413/3/4
f 412/2/4 407/2/4 413/2/4
f 408/2/4 409/2/4 414/2/4
f 413/3/4 408/3/4 414/3/4
f 409/8/4 401/8/4 415/8/4
f 414/2/4 409/2/4 415/2/4
f 400/8/4 412/8/4 416/8/4
f 412/3/4 413/3/4 416/3/4
f 413/2/4 414/2/4 417/2/4
f 416/3/4 413/3/4 417/3/4
f 414/3/4 415/3/4 418/3/4
f 417/2/4 414/2/4 418/2/4
f 415/8/4 401/8/4 419/8/4
f 418/3/4 415/3/4 419/3/4
f 400/8/4 416/8/4 420/8/4
f 417/8/4 418/8/4 420/8/4
f 418/8/4 419/8/4 420/8/4
f 416/8/4 417/8/4 420/8/4
f 419/8/4 401/8/4 421/8/4
f 420/8/4 419/8/4 421/8/4
f 398/4/4 410/4/4 422/4/4
f 410/6/4 411/6/4 423/6/4
f 422/4/4 410/4/4 423/4/4
f 423/6/4 411/6/4 424/6/4
f 427/4/5 426/4/5 425/4/5
f 428/4/5 426/4/5 427/4/5
f 431/4/5 430/4/5 429/4/5
f 432/4/5 430/4/5 431/4/5
f 435/1/5 434/1/5 433/1/5
f 436/1/5 434/1/5 435/1/5
f 439/5/5 438/5/5 437/5/5
f 440/5/5 438/5/5 439/5/5
f 443/1/5 442/1/5 441/1/5
f 444/1/5 442/1/5 443/1/5
f 447/1/5 446/1/5 445/1/5
f 448/1/5 446/1/5 447/1/5
f 451/5/5 450/5/5 449/5/5
f 452/5/5 450/5/5 451/5/5
f 456/5/5 454/5/5 453/5/5
f 457/1/5 455/1/5 454/1/5
f 457/5/5 454/5/5 456/5/5
f 458/1/5 455/1/5 457/1/5
f 461/5/5 460/5/5 459/5/5
f 462/5/5 460/5/5 461/5/5
f 463/5/5 460/5/5 462/5/5
f 466/1/5 465/1/5 464/1/5
f 467/1/5 465/1/5 466/1/5
f 470/5/5 469/5/5 468/5/5
f 471/5/5 469/5/5 470/5/5
f 474/1/5 473/1/5 472/1/5
f 475/1/5 473/1/5 474/1/5
f 478/5/5 477/5/5 476/5/5
f 479/5/5 477/5/5 478/5/5
f 482/1/5 481/1/5 480/1/5
f 483/1/5 481/1/5 482/1/5
f 488/8/5 485/8/5 484/8/5
f 489/8/5 485/8/5 488/8/5
f 490/8/5 487/8/5 486/8/5
f 491/8/5 487/8/5 490/8/5
f 494/8/5 493/8/5 492/8/5
f 495/8/5 493/8/5 494/8/5
f 498/8/5 497/8/5 496/8/5
f 499/8/5 497/8/5 498/8/5
f 502/8/5 501/8/5 500/8/5
f 503/8/5 501/8/5 502/8/5
f 504/8/5 501/8/5 503/8/5
f 505/8/5 501/8/5 504/8/5
f 506/4/6 507/4/6 508/4/6
f 508/4/6 507/4/6 509/4/6
f 506/4/6 508/4/6 510/4/6
f 510/4/6 508/4/6 511/4/6
f 512/4/6 513/4/6 514/4/6
f 514/4/6 513/4/6 515/4/6
f 512/4/6 514/4/6 516/4/6
f 512/4/6 516/4/6 518/4/6
f 516/4/6 517/4/6 518/4/6
f 518/4/6 517/4/6 519/4/6
f 520/6/6 521/6/6 522/6/6
f 522/6/6 521/6/6 523/6/6
f 524/6/6 525/6/6 526/6/6
f 526/6/6 525/6/6 527/6/6
f 528/6/6 529/6/6 531/6/6
f 530/1/6 531/1/6 532/1/6
f 531/6/6 529/6/6 533/6/6
f 532/1/6 531/1/6 533/1/6
f 532/6/6 533/6/6 534/6/6
f 534/6/6 533/6/6 535/6/6
f 535/6/6 533/6/6 536/6/6
f 533/6/6 529/6/6 537/6/6
f 536/6/6 533/6/6 537/6/6
f 538/1/6 539/1/6 540/1/6
f 540/1/6 539/1/6 541/1/6
f 542/5/6 543/5/6 544/5/6
f 544/5/6 543/5/6 545/5/6
f 546/1/6 547/1/6 548/1/6
f 548/1/6 547/1/6 549/1/6
f 550/1/6 551/1/6 552/1/6
f 552/1/6 551/1/6 553/1/6
f 554/5/6 555/5/6 557/5/6
f 555/5/6 556/5/6 557/5/6
f 557/5/6 556/5/6 558/5/6
f 559/5/6 560/5/6 562/5/6
f 560/1/6 561/1/6 563/1/6
f 562/5/6 560/5/6 563/5/6
f 563/1/6 561/1/6 564/1/6
f 565/5/6 566/5/6 567/5/6
f 567/5/6 566/5/6 568/5/6
f 569/1/6 570/1/6 571/1/6
f 571/1/6 570/1/6 572/1/6
f 573/5/6 574/5/6 575/5/6
f 575/5/6 574/5/6 576/5/6
f 577/1/6 578/1/6 579/1/6
f 579/1/6 578/1/6 580/1/6
f 581/5/6 582/5/6 583/5/6
f 583/5/6 582/5/6 584/5/6
f 585/1/6 586/1/6 587/1/6
f 587/1/6 586/1/6 588/1/6
f 589/8/6 590/8/6 591/8/6
f 591/8/6 590/8/6 592/8/6
f 592/8/6 590/8/6 593/8/6
f 593/8/6 590/8/6 594/8/6
f 595/8/6 596/8/6 597/8/6
f 597/8/6 596/8/6 598/8/6
f 599/8/6 600/8/6 601/8/6
f 601/8/6 600/8/6 602/8/6
f 603/8/6 604/8/6 605/8/6
f 605/8/6 604/8/6 606/8/6
