# MagicaVoxel @ Ephtracy

# group
o 

# material
mtllib ampel closed 3.mtl
usemtl palette

# normals
vn -1 0 0
vn 1 0 0
vn 0 0 1
vn 0 0 -1
vn 0 -1 0
vn 0 1 0

# texcoords
vt 0.0136719 0.5
vt 0.841797 0.5
vt 0.845703 0.5
vt 0.876953 0.5
vt 0.962891 0.5
vt 0.966797 0.5
vt 0.990234 0.5
vt 0.994141 0.5

# verts
v 0 4 -2.3
v 0 4 -2.5
v 0 4.8 -2.3
v 0 4.8 -2.5
v 0.1 2 0
v 0.1 2 -0.6
v 0.1 2 -2
v 0.1 2 -2.6
v 0.1 2.4 0
v 0.1 2.4 -0.6
v 0.1 2.4 -2
v 0.1 2.4 -2.6
v 0.1 4.1 -2.2
v 0.1 4.1 -2.3
v 0.1 4.1 -2.5
v 0.1 4.1 -2.6
v 0.1 4.7 -2.2
v 0.1 4.7 -2.3
v 0.1 4.7 -2.5
v 0.1 4.7 -2.6
v 0.3 2.4 -2.3
v 0.3 2.4 -2.5
v 0.3 4 -2.3
v 0.3 4 -2.5
v 0.5 2.4 -0.4
v 0.5 2.4 -0.6
v 0.5 2.4 -2
v 0.5 2.4 -2.3
v 0.5 2.4 -2.5
v 0.5 2.4 -2.6
v 0.5 2.6 -0.4
v 0.5 2.6 -0.6
v 0.5 2.6 -1.4
v 0.5 2.6 -1.6
v 0.5 2.6 -1.8
v 0.5 2.6 -2
v 0.5 2.6 -2.2
v 0.5 2.7 -1.3
v 0.5 2.7 -1.4
v 0.5 2.8 -0.9
v 0.5 2.8 -1
v 0.5 2.8 -1.2
v 0.5 2.8 -1.3
v 0.5 2.8 -1.4
v 0.5 2.8 -1.5
v 0.5 2.8 -1.6
v 0.5 2.8 -1.8
v 0.5 2.8 -2
v 0.5 2.8 -2.2
v 0.5 2.8 -2.3
v 0.5 2.8 -2.5
v 0.5 2.8 -2.6
v 0.5 2.9 -0.8
v 0.5 2.9 -0.9
v 0.5 2.9 -1.4
v 0.5 2.9 -1.5
v 0.5 3 -0.4
v 0.5 3 -0.6
v 0.5 3 -0.8
v 0.5 3 -1
v 0.5 3 -1.2
v 0.5 3 -1.4
v 0.5 3.1 -0.9
v 0.5 3.1 -1
v 0.5 3.2 -0.4
v 0.5 3.2 -0.6
v 0.5 3.2 -0.8
v 0.5 3.2 -0.9
v 0.6 4.2 -2.4
v 0.6 4.2 -2.5
v 0.6 4.3 -2.5
v 0.6 4.5 -2.5
v 0.6 4.6 -2.4
v 0.6 4.6 -2.5
v 0.7 2.6 -0.4
v 0.7 2.6 -0.6
v 0.7 2.8 -0.4
v 0.7 2.8 -0.6
v 0.2 4.2 -2.4
v 0.2 4.2 -2.5
v 0.2 4.3 -2.5
v 0.2 4.5 -2.5
v 0.2 4.6 -2.4
v 0.2 4.6 -2.5
v 0.5 2.8 -2.3
v 0.5 2.8 -2.5
v 0.5 4 -2.3
v 0.5 4 -2.5
v 0.7 2.6 -1.4
v 0.7 2.6 -1.6
v 0.7 2.6 -1.8
v 0.7 2.6 -2
v 0.7 2.7 -1.3
v 0.7 2.7 -1.4
v 0.7 2.8 -0.9
v 0.7 2.8 -1
v 0.7 2.8 -1.2
v 0.7 2.8 -1.3
v 0.7 2.8 -1.4
v 0.7 2.8 -1.5
v 0.7 2.8 -1.6
v 0.7 2.8 -1.8
v 0.7 2.8 -2
v 0.7 2.9 -0.8
v 0.7 2.9 -0.9
v 0.7 2.9 -1.4
v 0.7 2.9 -1.5
v 0.7 3 -0.4
v 0.7 3 -0.6
v 0.7 3 -0.8
v 0.7 3 -1
v 0.7 3 -1.2
v 0.7 3 -1.4
v 0.7 3.1 -0.9
v 0.7 3.1 -1
v 0.7 3.2 -0.4
v 0.7 3.2 -0.6
v 0.7 3.2 -0.8
v 0.7 3.2 -0.9
v 0.7 4.1 -2.2
v 0.7 4.1 -2.3
v 0.7 4.1 -2.5
v 0.7 4.1 -2.6
v 0.7 4.7 -2.2
v 0.7 4.7 -2.3
v 0.7 4.7 -2.5
v 0.7 4.7 -2.6
v 0.8 2 0
v 0.8 2 -0.6
v 0.8 2 -2
v 0.8 2 -2.6
v 0.8 2.4 0
v 0.8 2.4 -0.4
v 0.8 2.4 -0.6
v 0.8 2.4 -2
v 0.8 2.4 -2.6
v 0.8 2.8 -0.4
v 0.8 2.8 -0.6
v 0.8 2.8 -2
v 0.8 2.8 -2.6
v 0.8 4 -2.3
v 0.8 4 -2.5
v 0.8 4.8 -2.3
v 0.8 4.8 -2.5
v 0.1 2 0
v 0.1 2.4 0
v 0.8 2 0
v 0.8 2.4 0
v 0.5 2.4 -0.4
v 0.5 2.6 -0.4
v 0.5 3 -0.4
v 0.5 3.2 -0.4
v 0.7 2.6 -0.4
v 0.7 2.8 -0.4
v 0.7 3 -0.4
v 0.7 3.2 -0.4
v 0.8 2.4 -0.4
v 0.8 2.8 -0.4
v 0.5 2.9 -0.8
v 0.5 3 -0.8
v 0.7 2.9 -0.8
v 0.7 3 -0.8
v 0.5 2.8 -0.9
v 0.5 2.9 -0.9
v 0.7 2.8 -0.9
v 0.7 2.9 -0.9
v 0.5 2.7 -1.3
v 0.5 2.8 -1.3
v 0.7 2.7 -1.3
v 0.7 2.8 -1.3
v 0.5 2.6 -1.4
v 0.5 2.7 -1.4
v 0.7 2.6 -1.4
v 0.7 2.7 -1.4
v 0.1 2 -2
v 0.1 2.4 -2
v 0.5 2.4 -2
v 0.5 2.6 -2
v 0.7 2.6 -2
v 0.7 2.8 -2
v 0.8 2 -2
v 0.8 2.4 -2
v 0.8 2.8 -2
v 0.1 4.1 -2.2
v 0.1 4.7 -2.2
v 0.2 4.2 -2.2
v 0.2 4.3 -2.2
v 0.2 4.5 -2.2
v 0.2 4.6 -2.2
v 0.3 4.2 -2.2
v 0.3 4.3 -2.2
v 0.3 4.5 -2.2
v 0.3 4.6 -2.2
v 0.5 4.2 -2.2
v 0.5 4.3 -2.2
v 0.5 4.5 -2.2
v 0.5 4.6 -2.2
v 0.6 4.2 -2.2
v 0.6 4.3 -2.2
v 0.6 4.5 -2.2
v 0.6 4.6 -2.2
v 0.7 4.1 -2.2
v 0.7 4.7 -2.2
v 0 4 -2.3
v 0 4.8 -2.3
v 0.1 4.1 -2.3
v 0.1 4.7 -2.3
v 0.3 2.4 -2.3
v 0.3 4 -2.3
v 0.5 2.4 -2.3
v 0.5 2.8 -2.3
v 0.5 4 -2.3
v 0.7 4.1 -2.3
v 0.7 4.7 -2.3
v 0.8 4 -2.3
v 0.8 4.8 -2.3
v 0.2 4.2 -2.5
v 0.2 4.3 -2.5
v 0.2 4.5 -2.5
v 0.2 4.6 -2.5
v 0.3 4.2 -2.5
v 0.3 4.3 -2.5
v 0.3 4.5 -2.5
v 0.3 4.6 -2.5
v 0.5 4.2 -2.5
v 0.5 4.3 -2.5
v 0.5 4.5 -2.5
v 0.5 4.6 -2.5
v 0.6 4.2 -2.5
v 0.6 4.3 -2.5
v 0.6 4.5 -2.5
v 0.6 4.6 -2.5
v 0.1 2 -0.6
v 0.1 2.4 -0.6
v 0.5 2.4 -0.6
v 0.5 2.6 -0.6
v 0.7 2.6 -0.6
v 0.7 2.8 -0.6
v 0.8 2 -0.6
v 0.8 2.4 -0.6
v 0.8 2.8 -0.6
v 0.5 3.1 -0.9
v 0.5 3.2 -0.9
v 0.7 3.1 -0.9
v 0.7 3.2 -0.9
v 0.5 3 -1
v 0.5 3.1 -1
v 0.7 3 -1
v 0.7 3.1 -1
v 0.5 2.9 -1.4
v 0.5 3 -1.4
v 0.7 2.9 -1.4
v 0.7 3 -1.4
v 0.5 2.8 -1.5
v 0.5 2.9 -1.5
v 0.7 2.8 -1.5
v 0.7 2.9 -1.5
v 0.2 4.2 -2.4
v 0.2 4.6 -2.4
v 0.6 4.2 -2.4
v 0.6 4.6 -2.4
v 0 4 -2.5
v 0 4.8 -2.5
v 0.1 4.1 -2.5
v 0.1 4.7 -2.5
v 0.3 2.4 -2.5
v 0.3 4 -2.5
v 0.5 2.4 -2.5
v 0.5 2.8 -2.5
v 0.5 4 -2.5
v 0.7 4.1 -2.5
v 0.7 4.7 -2.5
v 0.8 4 -2.5
v 0.8 4.8 -2.5
v 0.1 2 -2.6
v 0.1 2.4 -2.6
v 0.1 4.1 -2.6
v 0.1 4.7 -2.6
v 0.2 4.2 -2.6
v 0.2 4.3 -2.6
v 0.2 4.5 -2.6
v 0.2 4.6 -2.6
v 0.3 4.2 -2.6
v 0.3 4.3 -2.6
v 0.3 4.5 -2.6
v 0.3 4.6 -2.6
v 0.5 2.4 -2.6
v 0.5 2.8 -2.6
v 0.5 4.2 -2.6
v 0.5 4.3 -2.6
v 0.5 4.5 -2.6
v 0.5 4.6 -2.6
v 0.6 4.2 -2.6
v 0.6 4.3 -2.6
v 0.6 4.5 -2.6
v 0.6 4.6 -2.6
v 0.7 4.1 -2.6
v 0.7 4.7 -2.6
v 0.8 2 -2.6
v 0.8 2.4 -2.6
v 0.8 2.8 -2.6
v 0.1 2 0
v 0.8 2 0
v 0.1 2 -0.6
v 0.8 2 -0.6
v 0.1 2 -2
v 0.8 2 -2
v 0.1 2 -2.6
v 0.8 2 -2.6
v 0.5 2.6 -1.4
v 0.7 2.6 -1.4
v 0.5 2.6 -1.6
v 0.7 2.6 -1.6
v 0.5 2.6 -1.8
v 0.7 2.6 -1.8
v 0.5 2.6 -2
v 0.7 2.6 -2
v 0.5 2.7 -1.3
v 0.7 2.7 -1.3
v 0.5 2.7 -1.4
v 0.7 2.7 -1.4
v 0.5 2.8 -0.9
v 0.7 2.8 -0.9
v 0.5 2.8 -1
v 0.7 2.8 -1
v 0.5 2.8 -1.2
v 0.7 2.8 -1.2
v 0.5 2.8 -1.3
v 0.7 2.8 -1.3
v 0.5 2.9 -0.8
v 0.7 2.9 -0.8
v 0.5 2.9 -0.9
v 0.7 2.9 -0.9
v 0.5 3 -0.4
v 0.7 3 -0.4
v 0.5 3 -0.6
v 0.7 3 -0.6
v 0.5 3 -0.8
v 0.7 3 -0.8
v 0 4 -2.3
v 0.3 4 -2.3
v 0.5 4 -2.3
v 0.8 4 -2.3
v 0 4 -2.5
v 0.3 4 -2.5
v 0.5 4 -2.5
v 0.8 4 -2.5
v 0.1 4.1 -2.2
v 0.7 4.1 -2.2
v 0.1 4.1 -2.3
v 0.7 4.1 -2.3
v 0.1 4.1 -2.5
v 0.7 4.1 -2.5
v 0.1 4.1 -2.6
v 0.7 4.1 -2.6
v 0.2 4.6 -2.4
v 0.6 4.6 -2.4
v 0.2 4.6 -2.5
v 0.3 4.6 -2.5
v 0.5 4.6 -2.5
v 0.6 4.6 -2.5
v 0.1 2.4 0
v 0.8 2.4 0
v 0.5 2.4 -0.4
v 0.8 2.4 -0.4
v 0.1 2.4 -0.6
v 0.5 2.4 -0.6
v 0.1 2.4 -2
v 0.5 2.4 -2
v 0.3 2.4 -2.3
v 0.5 2.4 -2.3
v 0.3 2.4 -2.5
v 0.5 2.4 -2.5
v 0.1 2.4 -2.6
v 0.5 2.4 -2.6
v 0.5 2.6 -0.4
v 0.7 2.6 -0.4
v 0.5 2.6 -0.6
v 0.7 2.6 -0.6
v 0.7 2.8 -0.4
v 0.8 2.8 -0.4
v 0.7 2.8 -0.6
v 0.8 2.8 -0.6
v 0.5 2.8 -1.5
v 0.7 2.8 -1.5
v 0.5 2.8 -1.6
v 0.7 2.8 -1.6
v 0.5 2.8 -1.8
v 0.7 2.8 -1.8
v 0.5 2.8 -2
v 0.7 2.8 -2
v 0.8 2.8 -2
v 0.5 2.8 -2.2
v 0.7 2.8 -2.2
v 0.5 2.8 -2.3
v 0.5 2.8 -2.5
v 0.5 2.8 -2.6
v 0.8 2.8 -2.6
v 0.5 2.9 -1.4
v 0.7 2.9 -1.4
v 0.5 2.9 -1.5
v 0.7 2.9 -1.5
v 0.5 3 -1
v 0.7 3 -1
v 0.5 3 -1.2
v 0.7 3 -1.2
v 0.5 3 -1.4
v 0.7 3 -1.4
v 0.5 3.1 -0.9
v 0.7 3.1 -0.9
v 0.5 3.1 -1
v 0.7 3.1 -1
v 0.5 3.2 -0.4
v 0.7 3.2 -0.4
v 0.5 3.2 -0.6
v 0.7 3.2 -0.6
v 0.5 3.2 -0.8
v 0.7 3.2 -0.8
v 0.5 3.2 -0.9
v 0.7 3.2 -0.9
v 0.2 4.2 -2.4
v 0.6 4.2 -2.4
v 0.2 4.2 -2.5
v 0.3 4.2 -2.5
v 0.5 4.2 -2.5
v 0.6 4.2 -2.5
v 0.1 4.7 -2.2
v 0.7 4.7 -2.2
v 0.1 4.7 -2.3
v 0.7 4.7 -2.3
v 0.1 4.7 -2.5
v 0.7 4.7 -2.5
v 0.1 4.7 -2.6
v 0.7 4.7 -2.6
v 0 4.8 -2.3
v 0.8 4.8 -2.3
v 0 4.8 -2.5
v 0.8 4.8 -2.5

# faces
f 3/8/1 2/8/1 1/8/1
f 4/8/1 2/8/1 3/8/1
f 9/4/1 6/4/1 5/4/1
f 10/4/1 6/4/1 9/4/1
f 11/4/1 8/4/1 7/4/1
f 12/4/1 8/4/1 11/4/1
f 17/8/1 14/8/1 13/8/1
f 18/8/1 14/8/1 17/8/1
f 19/8/1 16/8/1 15/8/1
f 20/8/1 16/8/1 19/8/1
f 23/7/1 22/7/1 21/7/1
f 24/7/1 22/7/1 23/7/1
f 31/6/1 26/6/1 25/6/1
f 32/6/1 26/6/1 31/6/1
f 36/6/1 28/6/1 27/6/1
f 37/6/1 28/6/1 36/6/1
f 39/5/1 34/5/1 33/5/1
f 43/5/1 39/5/1 38/5/1
f 44/5/1 34/5/1 39/5/1
f 44/5/1 39/5/1 43/5/1
f 45/5/1 34/5/1 44/5/1
f 46/1/1 35/1/1 34/1/1
f 46/5/1 34/5/1 45/5/1
f 47/5/1 36/5/1 35/5/1
f 47/1/1 35/1/1 46/1/1
f 48/1/1 37/1/1 36/1/1
f 48/5/1 36/5/1 47/5/1
f 49/6/1 28/6/1 37/6/1
f 49/1/1 37/1/1 48/1/1
f 50/6/1 28/6/1 49/6/1
f 51/6/1 30/6/1 29/6/1
f 52/6/1 30/6/1 51/6/1
f 54/1/1 41/1/1 40/1/1
f 55/5/1 45/5/1 44/5/1
f 55/1/1 44/1/1 43/1/1
f 55/1/1 43/1/1 42/1/1
f 56/5/1 45/5/1 55/5/1
f 59/1/1 54/1/1 53/1/1
f 60/1/1 41/1/1 54/1/1
f 60/5/1 42/5/1 41/5/1
f 60/1/1 54/1/1 59/1/1
f 61/1/1 55/1/1 42/1/1
f 61/5/1 42/5/1 60/5/1
f 62/1/1 55/1/1 61/1/1
f 63/1/1 60/1/1 59/1/1
f 64/1/1 60/1/1 63/1/1
f 65/1/1 58/1/1 57/1/1
f 66/5/1 59/5/1 58/5/1
f 66/1/1 58/1/1 65/1/1
f 67/1/1 63/1/1 59/1/1
f 67/5/1 59/5/1 66/5/1
f 68/1/1 63/1/1 67/1/1
f 71/8/1 70/8/1 69/8/1
f 72/8/1 71/8/1 69/8/1
f 73/8/1 72/8/1 69/8/1
f 74/8/1 72/8/1 73/8/1
f 77/6/1 76/6/1 75/6/1
f 78/6/1 76/6/1 77/6/1
f 79/8/2 80/8/2 81/8/2
f 79/8/2 81/8/2 82/8/2
f 79/8/2 82/8/2 83/8/2
f 83/8/2 82/8/2 84/8/2
f 85/7/2 86/7/2 87/7/2
f 87/7/2 86/7/2 88/7/2
f 89/5/2 90/5/2 94/5/2
f 93/5/2 94/5/2 98/5/2
f 94/5/2 90/5/2 99/5/2
f 98/5/2 94/5/2 99/5/2
f 99/5/2 90/5/2 100/5/2
f 90/1/2 91/1/2 101/1/2
f 100/5/2 90/5/2 101/5/2
f 91/5/2 92/5/2 102/5/2
f 101/1/2 91/1/2 102/1/2
f 102/5/2 92/5/2 103/5/2
f 95/1/2 96/1/2 105/1/2
f 99/5/2 100/5/2 106/5/2
f 97/1/2 98/1/2 106/1/2
f 98/1/2 99/1/2 106/1/2
f 106/5/2 100/5/2 107/5/2
f 104/1/2 105/1/2 110/1/2
f 105/1/2 96/1/2 111/1/2
f 96/5/2 97/5/2 111/5/2
f 110/1/2 105/1/2 111/1/2
f 97/1/2 106/1/2 112/1/2
f 111/5/2 97/5/2 112/5/2
f 112/1/2 106/1/2 113/1/2
f 110/1/2 111/1/2 114/1/2
f 114/1/2 111/1/2 115/1/2
f 108/1/2 109/1/2 116/1/2
f 109/5/2 110/5/2 117/5/2
f 116/1/2 109/1/2 117/1/2
f 110/1/2 114/1/2 118/1/2
f 117/5/2 110/5/2 118/5/2
f 118/1/2 114/1/2 119/1/2
f 120/8/2 121/8/2 124/8/2
f 124/8/2 121/8/2 125/8/2
f 122/8/2 123/8/2 126/8/2
f 126/8/2 123/8/2 127/8/2
f 128/4/2 129/4/2 132/4/2
f 132/4/2 129/4/2 133/4/2
f 133/4/2 129/4/2 134/4/2
f 130/4/2 131/4/2 135/4/2
f 135/4/2 131/4/2 136/4/2
f 133/6/2 134/6/2 137/6/2
f 137/6/2 134/6/2 138/6/2
f 135/6/2 136/6/2 139/6/2
f 139/6/2 136/6/2 140/6/2
f 141/8/2 142/8/2 143/8/2
f 143/8/2 142/8/2 144/8/2
f 147/4/3 146/4/3 145/4/3
f 148/4/3 146/4/3 147/4/3
f 153/6/3 150/6/3 149/6/3
f 155/1/3 152/1/3 151/1/3
f 156/1/3 152/1/3 155/1/3
f 157/6/3 154/6/3 153/6/3
f 157/6/3 153/6/3 149/6/3
f 158/6/3 154/6/3 157/6/3
f 161/1/3 160/1/3 159/1/3
f 162/1/3 160/1/3 161/1/3
f 165/1/3 164/1/3 163/1/3
f 166/1/3 164/1/3 165/1/3
f 169/5/3 168/5/3 167/5/3
f 170/5/3 168/5/3 169/5/3
f 173/5/3 172/5/3 171/5/3
f 174/5/3 172/5/3 173/5/3
f 177/4/3 176/4/3 175/4/3
f 179/6/3 178/6/3 177/6/3
f 181/4/3 177/4/3 175/4/3
f 182/6/3 180/6/3 179/6/3
f 182/4/3 177/4/3 181/4/3
f 182/6/3 179/6/3 177/6/3
f 183/6/3 180/6/3 182/6/3
f 186/8/3 185/8/3 184/8/3
f 187/8/3 185/8/3 186/8/3
f 188/8/3 185/8/3 187/8/3
f 189/8/3 185/8/3 188/8/3
f 190/8/3 186/8/3 184/8/3
f 190/3/3 187/3/3 186/3/3
f 191/2/3 188/2/3 187/2/3
f 191/3/3 187/3/3 190/3/3
f 192/3/3 189/3/3 188/3/3
f 192/2/3 188/2/3 191/2/3
f 193/8/3 185/8/3 189/8/3
f 193/3/3 189/3/3 192/3/3
f 194/2/3 191/2/3 190/2/3
f 194/8/3 190/8/3 184/8/3
f 195/3/3 192/3/3 191/3/3
f 195/2/3 191/2/3 194/2/3
f 196/2/3 193/2/3 192/2/3
f 196/3/3 192/3/3 195/3/3
f 197/8/3 185/8/3 193/8/3
f 197/2/3 193/2/3 196/2/3
f 198/8/3 194/8/3 184/8/3
f 198/3/3 195/3/3 194/3/3
f 199/2/3 196/2/3 195/2/3
f 199/3/3 195/3/3 198/3/3
f 200/3/3 197/3/3 196/3/3
f 200/2/3 196/2/3 199/2/3
f 201/8/3 185/8/3 197/8/3
f 201/3/3 197/3/3 200/3/3
f 202/8/3 200/8/3 199/8/3
f 202/8/3 198/8/3 184/8/3
f 202/8/3 201/8/3 200/8/3
f 202/8/3 199/8/3 198/8/3
f 203/8/3 185/8/3 201/8/3
f 203/8/3 201/8/3 202/8/3
f 206/8/3 205/8/3 204/8/3
f 207/8/3 205/8/3 206/8/3
f 209/8/3 206/8/3 204/8/3
f 210/7/3 209/7/3 208/7/3
f 211/7/3 209/7/3 210/7/3
f 212/8/3 206/8/3 209/8/3
f 212/7/3 209/7/3 211/7/3
f 213/8/3 206/8/3 212/8/3
f 214/8/3 205/8/3 207/8/3
f 215/8/3 213/8/3 212/8/3
f 215/8/3 214/8/3 213/8/3
f 216/8/3 205/8/3 214/8/3
f 216/8/3 214/8/3 215/8/3
f 221/3/3 218/3/3 217/3/3
f 222/2/3 219/2/3 218/2/3
f 222/3/3 218/3/3 221/3/3
f 223/3/3 220/3/3 219/3/3
f 223/2/3 219/2/3 222/2/3
f 224/3/3 220/3/3 223/3/3
f 225/2/3 222/2/3 221/2/3
f 226/3/3 223/3/3 222/3/3
f 226/2/3 222/2/3 225/2/3
f 227/2/3 224/2/3 223/2/3
f 227/3/3 223/3/3 226/3/3
f 228/2/3 224/2/3 227/2/3
f 229/3/3 226/3/3 225/3/3
f 230/2/3 227/2/3 226/2/3
f 230/3/3 226/3/3 229/3/3
f 231/3/3 228/3/3 227/3/3
f 231/2/3 227/2/3 230/2/3
f 232/3/3 228/3/3 231/3/3
f 233/4/4 234/4/4 235/4/4
f 235/6/4 236/6/4 237/6/4
f 233/4/4 235/4/4 239/4/4
f 237/6/4 238/6/4 240/6/4
f 239/4/4 235/4/4 240/4/4
f 235/6/4 237/6/4 240/6/4
f 240/6/4 238/6/4 241/6/4
f 242/1/4 243/1/4 244/1/4
f 244/1/4 243/1/4 245/1/4
f 246/1/4 247/1/4 248/1/4
f 248/1/4 247/1/4 249/1/4
f 250/1/4 251/1/4 252/1/4
f 252/1/4 251/1/4 253/1/4
f 254/5/4 255/5/4 256/5/4
f 256/5/4 255/5/4 257/5/4
f 258/8/4 259/8/4 260/8/4
f 260/8/4 259/8/4 261/8/4
f 262/8/4 263/8/4 264/8/4
f 264/8/4 263/8/4 265/8/4
f 262/8/4 264/8/4 267/8/4
f 266/7/4 267/7/4 268/7/4
f 268/7/4 267/7/4 269/7/4
f 267/8/4 264/8/4 270/8/4
f 269/7/4 267/7/4 270/7/4
f 270/8/4 264/8/4 271/8/4
f 265/8/4 263/8/4 272/8/4
f 270/8/4 271/8/4 273/8/4
f 271/8/4 272/8/4 273/8/4
f 272/8/4 263/8/4 274/8/4
f 273/8/4 272/8/4 274/8/4
f 277/8/4 278/8/4 279/8/4
f 279/8/4 278/8/4 280/8/4
f 280/8/4 278/8/4 281/8/4
f 281/8/4 278/8/4 282/8/4
f 277/8/4 279/8/4 283/8/4
f 279/3/4 280/3/4 283/3/4
f 280/2/4 281/2/4 284/2/4
f 283/3/4 280/3/4 284/3/4
f 281/3/4 282/3/4 285/3/4
f 284/2/4 281/2/4 285/2/4
f 282/8/4 278/8/4 286/8/4
f 285/3/4 282/3/4 286/3/4
f 275/4/4 276/4/4 287/4/4
f 283/2/4 284/2/4 289/2/4
f 277/8/4 283/8/4 289/8/4
f 284/3/4 285/3/4 290/3/4
f 289/2/4 284/2/4 290/2/4
f 285/2/4 286/2/4 291/2/4
f 290/3/4 285/3/4 291/3/4
f 286/8/4 278/8/4 292/8/4
f 291/2/4 286/2/4 292/2/4
f 277/8/4 289/8/4 293/8/4
f 289/3/4 290/3/4 293/3/4
f 290/2/4 291/2/4 294/2/4
f 293/3/4 290/3/4 294/3/4
f 291/3/4 292/3/4 295/3/4
f 294/2/4 291/2/4 295/2/4
f 292/8/4 278/8/4 296/8/4
f 295/3/4 292/3/4 296/3/4
f 277/8/4 293/8/4 297/8/4
f 294/8/4 295/8/4 297/8/4
f 295/8/4 296/8/4 297/8/4
f 293/8/4 294/8/4 297/8/4
f 296/8/4 278/8/4 298/8/4
f 297/8/4 296/8/4 298/8/4
f 275/4/4 287/4/4 299/4/4
f 287/6/4 288/6/4 300/6/4
f 299/4/4 287/4/4 300/4/4
f 300/6/4 288/6/4 301/6/4
f 304/4/5 303/4/5 302/4/5
f 305/4/5 303/4/5 304/4/5
f 308/4/5 307/4/5 306/4/5
f 309/4/5 307/4/5 308/4/5
f 312/5/5 311/5/5 310/5/5
f 313/5/5 311/5/5 312/5/5
f 314/1/5 313/1/5 312/1/5
f 315/1/5 313/1/5 314/1/5
f 316/5/5 315/5/5 314/5/5
f 317/5/5 315/5/5 316/5/5
f 320/5/5 319/5/5 318/5/5
f 321/5/5 319/5/5 320/5/5
f 324/1/5 323/1/5 322/1/5
f 325/1/5 323/1/5 324/1/5
f 326/5/5 325/5/5 324/5/5
f 327/5/5 325/5/5 326/5/5
f 328/1/5 327/1/5 326/1/5
f 329/1/5 327/1/5 328/1/5
f 332/1/5 331/1/5 330/1/5
f 333/1/5 331/1/5 332/1/5
f 336/1/5 335/1/5 334/1/5
f 337/1/5 335/1/5 336/1/5
f 338/5/5 337/5/5 336/5/5
f 339/5/5 337/5/5 338/5/5
f 344/8/5 341/8/5 340/8/5
f 345/8/5 341/8/5 344/8/5
f 346/8/5 343/8/5 342/8/5
f 347/8/5 343/8/5 346/8/5
f 350/8/5 349/8/5 348/8/5
f 351/8/5 349/8/5 350/8/5
f 354/8/5 353/8/5 352/8/5
f 355/8/5 353/8/5 354/8/5
f 358/8/5 357/8/5 356/8/5
f 359/8/5 357/8/5 358/8/5
f 360/8/5 357/8/5 359/8/5
f 361/8/5 357/8/5 360/8/5
f 362/4/6 363/4/6 364/4/6
f 364/4/6 363/4/6 365/4/6
f 362/4/6 364/4/6 366/4/6
f 366/4/6 364/4/6 367/4/6
f 368/4/6 369/4/6 370/4/6
f 370/4/6 369/4/6 371/4/6
f 368/4/6 370/4/6 372/4/6
f 368/4/6 372/4/6 374/4/6
f 372/4/6 373/4/6 374/4/6
f 374/4/6 373/4/6 375/4/6
f 376/6/6 377/6/6 378/6/6
f 378/6/6 377/6/6 379/6/6
f 380/6/6 381/6/6 382/6/6
f 382/6/6 381/6/6 383/6/6
f 384/5/6 385/5/6 386/5/6
f 386/5/6 385/5/6 387/5/6
f 386/1/6 387/1/6 388/1/6
f 388/1/6 387/1/6 389/1/6
f 388/5/6 389/5/6 390/5/6
f 390/5/6 389/5/6 391/5/6
f 390/1/6 391/1/6 393/1/6
f 391/6/6 392/6/6 394/6/6
f 393/1/6 391/1/6 394/1/6
f 393/6/6 394/6/6 395/6/6
f 395/6/6 394/6/6 396/6/6
f 396/6/6 394/6/6 397/6/6
f 394/6/6 392/6/6 398/6/6
f 397/6/6 394/6/6 398/6/6
f 399/5/6 400/5/6 401/5/6
f 401/5/6 400/5/6 402/5/6
f 403/5/6 404/5/6 405/5/6
f 405/5/6 404/5/6 406/5/6
f 405/1/6 406/1/6 407/1/6
f 407/1/6 406/1/6 408/1/6
f 409/1/6 410/1/6 411/1/6
f 411/1/6 410/1/6 412/1/6
f 413/1/6 414/1/6 415/1/6
f 415/1/6 414/1/6 416/1/6
f 415/5/6 416/5/6 417/5/6
f 417/5/6 416/5/6 418/5/6
f 417/1/6 418/1/6 419/1/6
f 419/1/6 418/1/6 420/1/6
f 421/8/6 422/8/6 423/8/6
f 423/8/6 422/8/6 424/8/6
f 424/8/6 422/8/6 425/8/6
f 425/8/6 422/8/6 426/8/6
f 427/8/6 428/8/6 429/8/6
f 429/8/6 428/8/6 430/8/6
f 431/8/6 432/8/6 433/8/6
f 433/8/6 432/8/6 434/8/6
f 435/8/6 436/8/6 437/8/6
f 437/8/6 436/8/6 438/8/6
