# MagicaVoxel @ Ephtracy

# group
o 

# material
mtllib Ampel grün.mtl
usemtl palette

# normals
vn -1 0 0
vn 1 0 0
vn 0 0 1
vn 0 0 -1
vn 0 -1 0
vn 0 1 0

# texcoords
vt 0.724609 0.5
vt 0.880859 0.5
vt 0.990234 0.5
vt 0.994141 0.5

# verts
v 0 3.6 -0.1
v 0 3.6 -0.3
v 0 3.6 -2.1
v 0 3.6 -2.2
v 0 4.4 -0.1
v 0 4.4 -0.3
v 0 4.4 -2.1
v 0 4.4 -2.2
v 0.1 3.7 0
v 0.1 3.7 -0.1
v 0.1 3.7 -2.2
v 0.1 3.7 -2.3
v 0.1 4.3 0
v 0.1 4.3 -0.1
v 0.1 4.3 -2.2
v 0.1 4.3 -2.3
v 0.2 3.8 -2.3
v 0.2 3.8 -2.4
v 0.2 3.9 -2.3
v 0.2 3.9 -2.4
v 0.2 4.1 -2.3
v 0.2 4.1 -2.4
v 0.2 4.2 -2.3
v 0.2 4.2 -2.4
v 0.3 2 -0.1
v 0.3 2 -0.3
v 0.3 2 -2.1
v 0.3 2 -2.3
v 0.3 3.6 -0.1
v 0.3 3.6 -0.3
v 0.3 3.6 -2.1
v 0.3 3.6 -2.2
v 0.3 3.7 -2.2
v 0.3 3.7 -2.3
v 0.6 3.8 -2.2
v 0.6 3.8 -2.3
v 0.6 3.9 -2.3
v 0.6 4.1 -2.3
v 0.6 4.2 -2.2
v 0.6 4.2 -2.3
v 0.2 3.8 -2.2
v 0.2 3.8 -2.3
v 0.2 3.9 -2.3
v 0.2 4.1 -2.3
v 0.2 4.2 -2.2
v 0.2 4.2 -2.3
v 0.5 2 -0.1
v 0.5 2 -0.3
v 0.5 2 -2.1
v 0.5 2 -2.3
v 0.5 3.6 -0.1
v 0.5 3.6 -0.3
v 0.5 3.6 -2.1
v 0.5 3.6 -2.2
v 0.5 3.7 -2.2
v 0.5 3.7 -2.3
v 0.6 3.8 -2.3
v 0.6 3.8 -2.4
v 0.6 3.9 -2.3
v 0.6 3.9 -2.4
v 0.6 4.1 -2.3
v 0.6 4.1 -2.4
v 0.6 4.2 -2.3
v 0.6 4.2 -2.4
v 0.7 3.7 0
v 0.7 3.7 -0.1
v 0.7 3.7 -2.2
v 0.7 3.7 -2.3
v 0.7 4.3 0
v 0.7 4.3 -0.1
v 0.7 4.3 -2.2
v 0.7 4.3 -2.3
v 0.8 3.6 -0.1
v 0.8 3.6 -0.3
v 0.8 3.6 -2.1
v 0.8 3.6 -2.2
v 0.8 4.4 -0.1
v 0.8 4.4 -0.3
v 0.8 4.4 -2.1
v 0.8 4.4 -2.2
v 0.1 3.7 0
v 0.1 4.3 0
v 0.2 3.8 0
v 0.2 3.9 0
v 0.2 4.1 0
v 0.2 4.2 0
v 0.3 3.8 0
v 0.3 3.9 0
v 0.3 4.1 0
v 0.3 4.2 0
v 0.5 3.8 0
v 0.5 3.9 0
v 0.5 4.1 0
v 0.5 4.2 0
v 0.6 3.8 0
v 0.6 3.9 0
v 0.6 4.1 0
v 0.6 4.2 0
v 0.7 3.7 0
v 0.7 4.3 0
v 0 3.6 -0.1
v 0 4.4 -0.1
v 0.1 3.7 -0.1
v 0.1 4.3 -0.1
v 0.3 2 -0.1
v 0.3 3.6 -0.1
v 0.5 2 -0.1
v 0.5 3.6 -0.1
v 0.7 3.7 -0.1
v 0.7 4.3 -0.1
v 0.8 3.6 -0.1
v 0.8 4.4 -0.1
v 0 3.6 -2.1
v 0 4.4 -2.1
v 0.3 2 -2.1
v 0.3 3.6 -2.1
v 0.5 2 -2.1
v 0.5 3.6 -2.1
v 0.8 3.6 -2.1
v 0.8 4.4 -2.1
v 0.2 3.8 -2.3
v 0.2 3.9 -2.3
v 0.2 4.1 -2.3
v 0.2 4.2 -2.3
v 0.3 3.8 -2.3
v 0.3 3.9 -2.3
v 0.3 4.1 -2.3
v 0.3 4.2 -2.3
v 0.5 3.8 -2.3
v 0.5 3.9 -2.3
v 0.5 4.1 -2.3
v 0.5 4.2 -2.3
v 0.6 3.8 -2.3
v 0.6 3.9 -2.3
v 0.6 4.1 -2.3
v 0.6 4.2 -2.3
v 0 3.6 -0.3
v 0 4.4 -0.3
v 0.3 2 -0.3
v 0.3 3.6 -0.3
v 0.5 2 -0.3
v 0.5 3.6 -0.3
v 0.8 3.6 -0.3
v 0.8 4.4 -0.3
v 0 3.6 -2.2
v 0 4.4 -2.2
v 0.1 3.7 -2.2
v 0.1 4.3 -2.2
v 0.2 3.8 -2.2
v 0.2 4.2 -2.2
v 0.3 3.6 -2.2
v 0.3 3.7 -2.2
v 0.5 3.6 -2.2
v 0.5 3.7 -2.2
v 0.6 3.8 -2.2
v 0.6 4.2 -2.2
v 0.7 3.7 -2.2
v 0.7 4.3 -2.2
v 0.8 3.6 -2.2
v 0.8 4.4 -2.2
v 0.1 3.7 -2.3
v 0.1 4.3 -2.3
v 0.2 3.8 -2.3
v 0.2 3.9 -2.3
v 0.2 4.1 -2.3
v 0.2 4.2 -2.3
v 0.3 2 -2.3
v 0.3 3.7 -2.3
v 0.3 3.8 -2.3
v 0.3 4.2 -2.3
v 0.5 2 -2.3
v 0.5 3.7 -2.3
v 0.5 3.8 -2.3
v 0.5 4.2 -2.3
v 0.6 3.8 -2.3
v 0.6 3.9 -2.3
v 0.6 4.1 -2.3
v 0.6 4.2 -2.3
v 0.7 3.7 -2.3
v 0.7 4.3 -2.3
v 0.2 3.8 -2.4
v 0.2 3.9 -2.4
v 0.2 4.1 -2.4
v 0.2 4.2 -2.4
v 0.3 3.8 -2.4
v 0.3 3.9 -2.4
v 0.3 4.1 -2.4
v 0.3 4.2 -2.4
v 0.5 3.8 -2.4
v 0.5 3.9 -2.4
v 0.5 4.1 -2.4
v 0.5 4.2 -2.4
v 0.6 3.8 -2.4
v 0.6 3.9 -2.4
v 0.6 4.1 -2.4
v 0.6 4.2 -2.4
v 0.3 2 -0.1
v 0.5 2 -0.1
v 0.3 2 -0.3
v 0.5 2 -0.3
v 0.3 2 -2.1
v 0.5 2 -2.1
v 0.3 2 -2.3
v 0.5 2 -2.3
v 0 3.6 -0.1
v 0.3 3.6 -0.1
v 0.5 3.6 -0.1
v 0.8 3.6 -0.1
v 0 3.6 -0.3
v 0.3 3.6 -0.3
v 0.5 3.6 -0.3
v 0.8 3.6 -0.3
v 0 3.6 -2.1
v 0.3 3.6 -2.1
v 0.5 3.6 -2.1
v 0.8 3.6 -2.1
v 0 3.6 -2.2
v 0.3 3.6 -2.2
v 0.5 3.6 -2.2
v 0.8 3.6 -2.2
v 0.1 3.7 0
v 0.7 3.7 0
v 0.1 3.7 -0.1
v 0.7 3.7 -0.1
v 0.1 3.7 -2.2
v 0.3 3.7 -2.2
v 0.5 3.7 -2.2
v 0.7 3.7 -2.2
v 0.1 3.7 -2.3
v 0.3 3.7 -2.3
v 0.5 3.7 -2.3
v 0.7 3.7 -2.3
v 0.2 3.8 -2.3
v 0.3 3.8 -2.3
v 0.5 3.8 -2.3
v 0.6 3.8 -2.3
v 0.2 3.8 -2.4
v 0.3 3.8 -2.4
v 0.5 3.8 -2.4
v 0.6 3.8 -2.4
v 0.2 4.2 -2.2
v 0.6 4.2 -2.2
v 0.2 4.2 -2.3
v 0.3 4.2 -2.3
v 0.5 4.2 -2.3
v 0.6 4.2 -2.3
v 0.2 3.8 -2.2
v 0.6 3.8 -2.2
v 0.2 3.8 -2.3
v 0.3 3.8 -2.3
v 0.5 3.8 -2.3
v 0.6 3.8 -2.3
v 0.2 4.2 -2.3
v 0.3 4.2 -2.3
v 0.5 4.2 -2.3
v 0.6 4.2 -2.3
v 0.2 4.2 -2.4
v 0.3 4.2 -2.4
v 0.5 4.2 -2.4
v 0.6 4.2 -2.4
v 0.1 4.3 0
v 0.7 4.3 0
v 0.1 4.3 -0.1
v 0.7 4.3 -0.1
v 0.1 4.3 -2.2
v 0.7 4.3 -2.2
v 0.1 4.3 -2.3
v 0.7 4.3 -2.3
v 0 4.4 -0.1
v 0.8 4.4 -0.1
v 0 4.4 -0.3
v 0.8 4.4 -0.3
v 0 4.4 -2.1
v 0.8 4.4 -2.1
v 0 4.4 -2.2
v 0.8 4.4 -2.2

# faces
f 5/4/1 2/4/1 1/4/1
f 6/4/1 2/4/1 5/4/1
f 7/4/1 4/4/1 3/4/1
f 8/4/1 4/4/1 7/4/1
f 13/4/1 10/4/1 9/4/1
f 14/4/1 10/4/1 13/4/1
f 15/4/1 12/4/1 11/4/1
f 16/4/1 12/4/1 15/4/1
f 19/2/1 18/2/1 17/2/1
f 20/2/1 18/2/1 19/2/1
f 21/1/1 20/1/1 19/1/1
f 22/1/1 20/1/1 21/1/1
f 23/2/1 22/2/1 21/2/1
f 24/2/1 22/2/1 23/2/1
f 29/3/1 26/3/1 25/3/1
f 30/3/1 26/3/1 29/3/1
f 31/3/1 28/3/1 27/3/1
f 32/3/1 28/3/1 31/3/1
f 33/3/1 28/3/1 32/3/1
f 34/3/1 28/3/1 33/3/1
f 37/4/1 36/4/1 35/4/1
f 38/4/1 37/4/1 35/4/1
f 39/4/1 38/4/1 35/4/1
f 40/4/1 38/4/1 39/4/1
f 41/4/2 42/4/2 43/4/2
f 41/4/2 43/4/2 44/4/2
f 41/4/2 44/4/2 45/4/2
f 45/4/2 44/4/2 46/4/2
f 47/3/2 48/3/2 51/3/2
f 51/3/2 48/3/2 52/3/2
f 49/3/2 50/3/2 53/3/2
f 53/3/2 50/3/2 54/3/2
f 54/3/2 50/3/2 55/3/2
f 55/3/2 50/3/2 56/3/2
f 57/2/2 58/2/2 59/2/2
f 59/2/2 58/2/2 60/2/2
f 59/1/2 60/1/2 61/1/2
f 61/1/2 60/1/2 62/1/2
f 61/2/2 62/2/2 63/2/2
f 63/2/2 62/2/2 64/2/2
f 65/4/2 66/4/2 69/4/2
f 69/4/2 66/4/2 70/4/2
f 67/4/2 68/4/2 71/4/2
f 71/4/2 68/4/2 72/4/2
f 73/4/2 74/4/2 77/4/2
f 77/4/2 74/4/2 78/4/2
f 75/4/2 76/4/2 79/4/2
f 79/4/2 76/4/2 80/4/2
f 83/4/3 82/4/3 81/4/3
f 84/4/3 82/4/3 83/4/3
f 85/4/3 82/4/3 84/4/3
f 86/4/3 82/4/3 85/4/3
f 87/4/3 83/4/3 81/4/3
f 87/2/3 84/2/3 83/2/3
f 88/1/3 85/1/3 84/1/3
f 88/2/3 84/2/3 87/2/3
f 89/2/3 86/2/3 85/2/3
f 89/1/3 85/1/3 88/1/3
f 90/4/3 82/4/3 86/4/3
f 90/2/3 86/2/3 89/2/3
f 91/1/3 88/1/3 87/1/3
f 91/4/3 87/4/3 81/4/3
f 92/2/3 89/2/3 88/2/3
f 92/1/3 88/1/3 91/1/3
f 93/1/3 90/1/3 89/1/3
f 93/2/3 89/2/3 92/2/3
f 94/4/3 82/4/3 90/4/3
f 94/1/3 90/1/3 93/1/3
f 95/4/3 91/4/3 81/4/3
f 95/2/3 92/2/3 91/2/3
f 96/1/3 93/1/3 92/1/3
f 96/2/3 92/2/3 95/2/3
f 97/2/3 94/2/3 93/2/3
f 97/1/3 93/1/3 96/1/3
f 98/4/3 82/4/3 94/4/3
f 98/2/3 94/2/3 97/2/3
f 99/4/3 97/4/3 96/4/3
f 99/4/3 95/4/3 81/4/3
f 99/4/3 98/4/3 97/4/3
f 99/4/3 96/4/3 95/4/3
f 100/4/3 82/4/3 98/4/3
f 100/4/3 98/4/3 99/4/3
f 103/4/3 102/4/3 101/4/3
f 104/4/3 102/4/3 103/4/3
f 106/4/3 103/4/3 101/4/3
f 107/3/3 106/3/3 105/3/3
f 108/4/3 103/4/3 106/4/3
f 108/3/3 106/3/3 107/3/3
f 109/4/3 103/4/3 108/4/3
f 110/4/3 102/4/3 104/4/3
f 111/4/3 109/4/3 108/4/3
f 111/4/3 110/4/3 109/4/3
f 112/4/3 102/4/3 110/4/3
f 112/4/3 110/4/3 111/4/3
f 116/4/3 114/4/3 113/4/3
f 117/3/3 116/3/3 115/3/3
f 118/4/3 114/4/3 116/4/3
f 118/3/3 116/3/3 117/3/3
f 119/4/3 114/4/3 118/4/3
f 120/4/3 114/4/3 119/4/3
f 125/2/3 122/2/3 121/2/3
f 126/1/3 123/1/3 122/1/3
f 126/2/3 122/2/3 125/2/3
f 127/2/3 124/2/3 123/2/3
f 127/1/3 123/1/3 126/1/3
f 128/2/3 124/2/3 127/2/3
f 129/1/3 126/1/3 125/1/3
f 130/2/3 127/2/3 126/2/3
f 130/1/3 126/1/3 129/1/3
f 131/1/3 128/1/3 127/1/3
f 131/2/3 127/2/3 130/2/3
f 132/1/3 128/1/3 131/1/3
f 133/2/3 130/2/3 129/2/3
f 134/1/3 131/1/3 130/1/3
f 134/2/3 130/2/3 133/2/3
f 135/2/3 132/2/3 131/2/3
f 135/1/3 131/1/3 134/1/3
f 136/2/3 132/2/3 135/2/3
f 137/4/4 138/4/4 140/4/4
f 139/3/4 140/3/4 141/3/4
f 140/4/4 138/4/4 142/4/4
f 141/3/4 140/3/4 142/3/4
f 142/4/4 138/4/4 143/4/4
f 143/4/4 138/4/4 144/4/4
f 145/4/4 146/4/4 147/4/4
f 147/4/4 146/4/4 148/4/4
f 145/4/4 147/4/4 151/4/4
f 151/4/4 147/4/4 152/4/4
f 149/4/4 150/4/4 155/4/4
f 155/4/4 150/4/4 156/4/4
f 153/4/4 154/4/4 157/4/4
f 148/4/4 146/4/4 158/4/4
f 153/4/4 157/4/4 159/4/4
f 157/4/4 158/4/4 159/4/4
f 158/4/4 146/4/4 160/4/4
f 159/4/4 158/4/4 160/4/4
f 161/4/4 162/4/4 163/4/4
f 163/4/4 162/4/4 164/4/4
f 164/4/4 162/4/4 165/4/4
f 165/4/4 162/4/4 166/4/4
f 161/4/4 163/4/4 168/4/4
f 168/4/4 163/4/4 169/4/4
f 166/4/4 162/4/4 170/4/4
f 167/3/4 168/3/4 171/3/4
f 168/4/4 169/4/4 172/4/4
f 171/3/4 168/3/4 172/3/4
f 172/4/4 169/4/4 173/4/4
f 170/4/4 162/4/4 174/4/4
f 172/4/4 173/4/4 175/4/4
f 174/4/4 162/4/4 178/4/4
f 176/4/4 177/4/4 179/4/4
f 177/4/4 178/4/4 179/4/4
f 172/4/4 175/4/4 179/4/4
f 175/4/4 176/4/4 179/4/4
f 178/4/4 162/4/4 180/4/4
f 179/4/4 178/4/4 180/4/4
f 181/2/4 182/2/4 185/2/4
f 182/1/4 183/1/4 186/1/4
f 185/2/4 182/2/4 186/2/4
f 183/2/4 184/2/4 187/2/4
f 186/1/4 183/1/4 187/1/4
f 187/2/4 184/2/4 188/2/4
f 185/1/4 186/1/4 189/1/4
f 186/2/4 187/2/4 190/2/4
f 189/1/4 186/1/4 190/1/4
f 187/1/4 188/1/4 191/1/4
f 190/2/4 187/2/4 191/2/4
f 191/1/4 188/1/4 192/1/4
f 189/2/4 190/2/4 193/2/4
f 190/1/4 191/1/4 194/1/4
f 193/2/4 190/2/4 194/2/4
f 191/2/4 192/2/4 195/2/4
f 194/1/4 191/1/4 195/1/4
f 195/2/4 192/2/4 196/2/4
f 199/3/5 198/3/5 197/3/5
f 200/3/5 198/3/5 199/3/5
f 203/3/5 202/3/5 201/3/5
f 204/3/5 202/3/5 203/3/5
f 209/4/5 206/4/5 205/4/5
f 210/4/5 206/4/5 209/4/5
f 211/4/5 208/4/5 207/4/5
f 212/4/5 208/4/5 211/4/5
f 217/4/5 214/4/5 213/4/5
f 218/4/5 214/4/5 217/4/5
f 219/4/5 216/4/5 215/4/5
f 220/4/5 216/4/5 219/4/5
f 223/4/5 222/4/5 221/4/5
f 224/4/5 222/4/5 223/4/5
f 229/4/5 226/4/5 225/4/5
f 230/4/5 226/4/5 229/4/5
f 231/4/5 228/4/5 227/4/5
f 232/4/5 228/4/5 231/4/5
f 237/2/5 234/2/5 233/2/5
f 238/1/5 235/1/5 234/1/5
f 238/2/5 234/2/5 237/2/5
f 239/2/5 236/2/5 235/2/5
f 239/1/5 235/1/5 238/1/5
f 240/2/5 236/2/5 239/2/5
f 243/4/5 242/4/5 241/4/5
f 244/4/5 242/4/5 243/4/5
f 245/4/5 242/4/5 244/4/5
f 246/4/5 242/4/5 245/4/5
f 247/4/6 248/4/6 249/4/6
f 249/4/6 248/4/6 250/4/6
f 250/4/6 248/4/6 251/4/6
f 251/4/6 248/4/6 252/4/6
f 253/2/6 254/2/6 257/2/6
f 254/1/6 255/1/6 258/1/6
f 257/2/6 254/2/6 258/2/6
f 255/2/6 256/2/6 259/2/6
f 258/1/6 255/1/6 259/1/6
f 259/2/6 256/2/6 260/2/6
f 261/4/6 262/4/6 263/4/6
f 263/4/6 262/4/6 264/4/6
f 265/4/6 266/4/6 267/4/6
f 267/4/6 266/4/6 268/4/6
f 269/4/6 270/4/6 271/4/6
f 271/4/6 270/4/6 272/4/6
f 273/4/6 274/4/6 275/4/6
f 275/4/6 274/4/6 276/4/6
