# MagicaVoxel @ Ephtracy

# group
o 

# material
mtllib Ampel red.mtl
usemtl palette

# normals
vn -1 0 0
vn 1 0 0
vn 0 0 1
vn 0 0 -1
vn 0 -1 0
vn 0 1 0

# texcoords
vt 0.841797 0.5
vt 0.845703 0.5
vt 0.990234 0.5
vt 0.994141 0.5

# verts
v 0 3.6 -0.1
v 0 3.6 -0.3
v 0 3.6 -2.1
v 0 3.6 -2.3
v 0 4.4 -0.1
v 0 4.4 -0.3
v 0 4.4 -2.1
v 0 4.4 -2.3
v 0.1 3.7 0
v 0.1 3.7 -0.1
v 0.1 3.7 -2.3
v 0.1 3.7 -2.4
v 0.1 4.3 0
v 0.1 4.3 -0.1
v 0.1 4.3 -2.3
v 0.1 4.3 -2.4
v 0.3 2 -0.1
v 0.3 2 -0.3
v 0.3 2 -2.1
v 0.3 2 -2.3
v 0.3 3.6 -0.1
v 0.3 3.6 -0.3
v 0.3 3.6 -2.1
v 0.3 3.6 -2.3
v 0.6 3.8 -2.2
v 0.6 3.8 -2.3
v 0.6 3.9 -2.3
v 0.6 4.1 -2.3
v 0.6 4.2 -2.2
v 0.6 4.2 -2.3
v 0.2 3.8 -2.2
v 0.2 3.8 -2.3
v 0.2 3.9 -2.3
v 0.2 4.1 -2.3
v 0.2 4.2 -2.2
v 0.2 4.2 -2.3
v 0.5 2 -0.1
v 0.5 2 -0.3
v 0.5 2 -2.1
v 0.5 2 -2.3
v 0.5 3.6 -0.1
v 0.5 3.6 -0.3
v 0.5 3.6 -2.1
v 0.5 3.6 -2.3
v 0.7 3.7 0
v 0.7 3.7 -0.1
v 0.7 3.7 -2.3
v 0.7 3.7 -2.4
v 0.7 4.3 0
v 0.7 4.3 -0.1
v 0.7 4.3 -2.3
v 0.7 4.3 -2.4
v 0.8 3.6 -0.1
v 0.8 3.6 -0.3
v 0.8 3.6 -2.1
v 0.8 3.6 -2.3
v 0.8 4.4 -0.1
v 0.8 4.4 -0.3
v 0.8 4.4 -2.1
v 0.8 4.4 -2.3
v 0.1 3.7 0
v 0.1 4.3 0
v 0.2 3.8 0
v 0.2 3.9 0
v 0.2 4.1 0
v 0.2 4.2 0
v 0.3 3.8 0
v 0.3 3.9 0
v 0.3 4.1 0
v 0.3 4.2 0
v 0.5 3.8 0
v 0.5 3.9 0
v 0.5 4.1 0
v 0.5 4.2 0
v 0.6 3.8 0
v 0.6 3.9 0
v 0.6 4.1 0
v 0.6 4.2 0
v 0.7 3.7 0
v 0.7 4.3 0
v 0 3.6 -0.1
v 0 4.4 -0.1
v 0.1 3.7 -0.1
v 0.1 4.3 -0.1
v 0.3 2 -0.1
v 0.3 3.6 -0.1
v 0.5 2 -0.1
v 0.5 3.6 -0.1
v 0.7 3.7 -0.1
v 0.7 4.3 -0.1
v 0.8 3.6 -0.1
v 0.8 4.4 -0.1
v 0 3.6 -2.1
v 0 4.4 -2.1
v 0.3 2 -2.1
v 0.3 3.6 -2.1
v 0.5 2 -2.1
v 0.5 3.6 -2.1
v 0.8 3.6 -2.1
v 0.8 4.4 -2.1
v 0.2 3.8 -2.3
v 0.2 3.9 -2.3
v 0.2 4.1 -2.3
v 0.2 4.2 -2.3
v 0.3 3.8 -2.3
v 0.3 3.9 -2.3
v 0.3 4.1 -2.3
v 0.3 4.2 -2.3
v 0.5 3.8 -2.3
v 0.5 3.9 -2.3
v 0.5 4.1 -2.3
v 0.5 4.2 -2.3
v 0.6 3.8 -2.3
v 0.6 3.9 -2.3
v 0.6 4.1 -2.3
v 0.6 4.2 -2.3
v 0 3.6 -0.3
v 0 4.4 -0.3
v 0.3 2 -0.3
v 0.3 3.6 -0.3
v 0.5 2 -0.3
v 0.5 3.6 -0.3
v 0.8 3.6 -0.3
v 0.8 4.4 -0.3
v 0.2 3.8 -2.2
v 0.2 4.2 -2.2
v 0.6 3.8 -2.2
v 0.6 4.2 -2.2
v 0 3.6 -2.3
v 0 4.4 -2.3
v 0.1 3.7 -2.3
v 0.1 4.3 -2.3
v 0.3 2 -2.3
v 0.3 3.6 -2.3
v 0.5 2 -2.3
v 0.5 3.6 -2.3
v 0.7 3.7 -2.3
v 0.7 4.3 -2.3
v 0.8 3.6 -2.3
v 0.8 4.4 -2.3
v 0.1 3.7 -2.4
v 0.1 4.3 -2.4
v 0.2 3.8 -2.4
v 0.2 3.9 -2.4
v 0.2 4.1 -2.4
v 0.2 4.2 -2.4
v 0.3 3.8 -2.4
v 0.3 3.9 -2.4
v 0.3 4.1 -2.4
v 0.3 4.2 -2.4
v 0.5 3.8 -2.4
v 0.5 3.9 -2.4
v 0.5 4.1 -2.4
v 0.5 4.2 -2.4
v 0.6 3.8 -2.4
v 0.6 3.9 -2.4
v 0.6 4.1 -2.4
v 0.6 4.2 -2.4
v 0.7 3.7 -2.4
v 0.7 4.3 -2.4
v 0.3 2 -0.1
v 0.5 2 -0.1
v 0.3 2 -0.3
v 0.5 2 -0.3
v 0.3 2 -2.1
v 0.5 2 -2.1
v 0.3 2 -2.3
v 0.5 2 -2.3
v 0 3.6 -0.1
v 0.3 3.6 -0.1
v 0.5 3.6 -0.1
v 0.8 3.6 -0.1
v 0 3.6 -0.3
v 0.3 3.6 -0.3
v 0.5 3.6 -0.3
v 0.8 3.6 -0.3
v 0 3.6 -2.1
v 0.3 3.6 -2.1
v 0.5 3.6 -2.1
v 0.8 3.6 -2.1
v 0 3.6 -2.3
v 0.3 3.6 -2.3
v 0.5 3.6 -2.3
v 0.8 3.6 -2.3
v 0.1 3.7 0
v 0.7 3.7 0
v 0.1 3.7 -0.1
v 0.7 3.7 -0.1
v 0.1 3.7 -2.3
v 0.7 3.7 -2.3
v 0.1 3.7 -2.4
v 0.7 3.7 -2.4
v 0.2 4.2 -2.2
v 0.6 4.2 -2.2
v 0.2 4.2 -2.3
v 0.3 4.2 -2.3
v 0.5 4.2 -2.3
v 0.6 4.2 -2.3
v 0.2 3.8 -2.2
v 0.6 3.8 -2.2
v 0.2 3.8 -2.3
v 0.3 3.8 -2.3
v 0.5 3.8 -2.3
v 0.6 3.8 -2.3
v 0.1 4.3 0
v 0.7 4.3 0
v 0.1 4.3 -0.1
v 0.7 4.3 -0.1
v 0.1 4.3 -2.3
v 0.7 4.3 -2.3
v 0.1 4.3 -2.4
v 0.7 4.3 -2.4
v 0 4.4 -0.1
v 0.8 4.4 -0.1
v 0 4.4 -0.3
v 0.8 4.4 -0.3
v 0 4.4 -2.1
v 0.8 4.4 -2.1
v 0 4.4 -2.3
v 0.8 4.4 -2.3

# faces
f 5/4/1 2/4/1 1/4/1
f 6/4/1 2/4/1 5/4/1
f 7/4/1 4/4/1 3/4/1
f 8/4/1 4/4/1 7/4/1
f 13/4/1 10/4/1 9/4/1
f 14/4/1 10/4/1 13/4/1
f 15/4/1 12/4/1 11/4/1
f 16/4/1 12/4/1 15/4/1
f 21/3/1 18/3/1 17/3/1
f 22/3/1 18/3/1 21/3/1
f 23/3/1 20/3/1 19/3/1
f 24/3/1 20/3/1 23/3/1
f 27/4/1 26/4/1 25/4/1
f 28/4/1 27/4/1 25/4/1
f 29/4/1 28/4/1 25/4/1
f 30/4/1 28/4/1 29/4/1
f 31/4/2 32/4/2 33/4/2
f 31/4/2 33/4/2 34/4/2
f 31/4/2 34/4/2 35/4/2
f 35/4/2 34/4/2 36/4/2
f 37/3/2 38/3/2 41/3/2
f 41/3/2 38/3/2 42/3/2
f 39/3/2 40/3/2 43/3/2
f 43/3/2 40/3/2 44/3/2
f 45/4/2 46/4/2 49/4/2
f 49/4/2 46/4/2 50/4/2
f 47/4/2 48/4/2 51/4/2
f 51/4/2 48/4/2 52/4/2
f 53/4/2 54/4/2 57/4/2
f 57/4/2 54/4/2 58/4/2
f 55/4/2 56/4/2 59/4/2
f 59/4/2 56/4/2 60/4/2
f 63/4/3 62/4/3 61/4/3
f 64/4/3 62/4/3 63/4/3
f 65/4/3 62/4/3 64/4/3
f 66/4/3 62/4/3 65/4/3
f 67/4/3 63/4/3 61/4/3
f 67/2/3 64/2/3 63/2/3
f 68/1/3 65/1/3 64/1/3
f 68/2/3 64/2/3 67/2/3
f 69/2/3 66/2/3 65/2/3
f 69/1/3 65/1/3 68/1/3
f 70/4/3 62/4/3 66/4/3
f 70/2/3 66/2/3 69/2/3
f 71/1/3 68/1/3 67/1/3
f 71/4/3 67/4/3 61/4/3
f 72/2/3 69/2/3 68/2/3
f 72/1/3 68/1/3 71/1/3
f 73/1/3 70/1/3 69/1/3
f 73/2/3 69/2/3 72/2/3
f 74/4/3 62/4/3 70/4/3
f 74/1/3 70/1/3 73/1/3
f 75/4/3 71/4/3 61/4/3
f 75/2/3 72/2/3 71/2/3
f 76/1/3 73/1/3 72/1/3
f 76/2/3 72/2/3 75/2/3
f 77/2/3 74/2/3 73/2/3
f 77/1/3 73/1/3 76/1/3
f 78/4/3 62/4/3 74/4/3
f 78/2/3 74/2/3 77/2/3
f 79/4/3 77/4/3 76/4/3
f 79/4/3 75/4/3 61/4/3
f 79/4/3 78/4/3 77/4/3
f 79/4/3 76/4/3 75/4/3
f 80/4/3 62/4/3 78/4/3
f 80/4/3 78/4/3 79/4/3
f 83/4/3 82/4/3 81/4/3
f 84/4/3 82/4/3 83/4/3
f 86/4/3 83/4/3 81/4/3
f 87/3/3 86/3/3 85/3/3
f 88/4/3 83/4/3 86/4/3
f 88/3/3 86/3/3 87/3/3
f 89/4/3 83/4/3 88/4/3
f 90/4/3 82/4/3 84/4/3
f 91/4/3 89/4/3 88/4/3
f 91/4/3 90/4/3 89/4/3
f 92/4/3 82/4/3 90/4/3
f 92/4/3 90/4/3 91/4/3
f 96/4/3 94/4/3 93/4/3
f 97/3/3 96/3/3 95/3/3
f 98/4/3 94/4/3 96/4/3
f 98/3/3 96/3/3 97/3/3
f 99/4/3 94/4/3 98/4/3
f 100/4/3 94/4/3 99/4/3
f 105/2/3 102/2/3 101/2/3
f 106/1/3 103/1/3 102/1/3
f 106/2/3 102/2/3 105/2/3
f 107/2/3 104/2/3 103/2/3
f 107/1/3 103/1/3 106/1/3
f 108/2/3 104/2/3 107/2/3
f 109/1/3 106/1/3 105/1/3
f 110/2/3 107/2/3 106/2/3
f 110/1/3 106/1/3 109/1/3
f 111/1/3 108/1/3 107/1/3
f 111/2/3 107/2/3 110/2/3
f 112/1/3 108/1/3 111/1/3
f 113/2/3 110/2/3 109/2/3
f 114/1/3 111/1/3 110/1/3
f 114/2/3 110/2/3 113/2/3
f 115/2/3 112/2/3 111/2/3
f 115/1/3 111/1/3 114/1/3
f 116/2/3 112/2/3 115/2/3
f 117/4/4 118/4/4 120/4/4
f 119/3/4 120/3/4 121/3/4
f 120/4/4 118/4/4 122/4/4
f 121/3/4 120/3/4 122/3/4
f 122/4/4 118/4/4 123/4/4
f 123/4/4 118/4/4 124/4/4
f 125/4/4 126/4/4 127/4/4
f 127/4/4 126/4/4 128/4/4
f 129/4/4 130/4/4 131/4/4
f 131/4/4 130/4/4 132/4/4
f 129/4/4 131/4/4 134/4/4
f 133/3/4 134/3/4 135/3/4
f 134/4/4 131/4/4 136/4/4
f 135/3/4 134/3/4 136/3/4
f 136/4/4 131/4/4 137/4/4
f 132/4/4 130/4/4 138/4/4
f 136/4/4 137/4/4 139/4/4
f 137/4/4 138/4/4 139/4/4
f 138/4/4 130/4/4 140/4/4
f 139/4/4 138/4/4 140/4/4
f 141/4/4 142/4/4 143/4/4
f 143/4/4 142/4/4 144/4/4
f 144/4/4 142/4/4 145/4/4
f 145/4/4 142/4/4 146/4/4
f 141/4/4 143/4/4 147/4/4
f 143/2/4 144/2/4 147/2/4
f 144/1/4 145/1/4 148/1/4
f 147/2/4 144/2/4 148/2/4
f 145/2/4 146/2/4 149/2/4
f 148/1/4 145/1/4 149/1/4
f 146/4/4 142/4/4 150/4/4
f 149/2/4 146/2/4 150/2/4
f 147/1/4 148/1/4 151/1/4
f 141/4/4 147/4/4 151/4/4
f 148/2/4 149/2/4 152/2/4
f 151/1/4 148/1/4 152/1/4
f 149/1/4 150/1/4 153/1/4
f 152/2/4 149/2/4 153/2/4
f 150/4/4 142/4/4 154/4/4
f 153/1/4 150/1/4 154/1/4
f 141/4/4 151/4/4 155/4/4
f 151/2/4 152/2/4 155/2/4
f 152/1/4 153/1/4 156/1/4
f 155/2/4 152/2/4 156/2/4
f 153/2/4 154/2/4 157/2/4
f 156/1/4 153/1/4 157/1/4
f 154/4/4 142/4/4 158/4/4
f 157/2/4 154/2/4 158/2/4
f 156/4/4 157/4/4 159/4/4
f 141/4/4 155/4/4 159/4/4
f 157/4/4 158/4/4 159/4/4
f 155/4/4 156/4/4 159/4/4
f 158/4/4 142/4/4 160/4/4
f 159/4/4 158/4/4 160/4/4
f 163/3/5 162/3/5 161/3/5
f 164/3/5 162/3/5 163/3/5
f 167/3/5 166/3/5 165/3/5
f 168/3/5 166/3/5 167/3/5
f 173/4/5 170/4/5 169/4/5
f 174/4/5 170/4/5 173/4/5
f 175/4/5 172/4/5 171/4/5
f 176/4/5 172/4/5 175/4/5
f 181/4/5 178/4/5 177/4/5
f 182/4/5 178/4/5 181/4/5
f 183/4/5 180/4/5 179/4/5
f 184/4/5 180/4/5 183/4/5
f 187/4/5 186/4/5 185/4/5
f 188/4/5 186/4/5 187/4/5
f 191/4/5 190/4/5 189/4/5
f 192/4/5 190/4/5 191/4/5
f 195/4/5 194/4/5 193/4/5
f 196/4/5 194/4/5 195/4/5
f 197/4/5 194/4/5 196/4/5
f 198/4/5 194/4/5 197/4/5
f 199/4/6 200/4/6 201/4/6
f 201/4/6 200/4/6 202/4/6
f 202/4/6 200/4/6 203/4/6
f 203/4/6 200/4/6 204/4/6
f 205/4/6 206/4/6 207/4/6
f 207/4/6 206/4/6 208/4/6
f 209/4/6 210/4/6 211/4/6
f 211/4/6 210/4/6 212/4/6
f 213/4/6 214/4/6 215/4/6
f 215/4/6 214/4/6 216/4/6
f 217/4/6 218/4/6 219/4/6
f 219/4/6 218/4/6 220/4/6
