# MagicaVoxel @ Ephtracy

# material
mtllib Schalter Gefängnis 3.mtl
usemtl palette

# normals
vn -1 0 0
vn 1 0 0
vn 0 0 1
vn 0 0 -1
vn 0 -1 0
vn 0 1 0

# texcoords
vt 0.392578 0.5
vt 0.396484 0.5
vt 0.880859 0.5
vt 0.990234 0.5

# verts
v -8 20 -10
v -8 20 -11
v -8 20 -12
v -8 21 -10
v -8 21 -11
v -8 21 -12
v -7 21 -10
v -7 21 -11
v -7 21 -12
v -7 22 -10
v -7 22 -11
v -7 22 -12
v -6 20 -9
v -6 20 -10
v -6 21 -9
v -6 21 -10
v -6 22 -10
v -6 22 -11
v -6 22 -12
v -6 23 -10
v -6 23 -11
v -6 23 -12
v -5 21 -9
v -5 21 -10
v -5 22 -9
v -5 22 -10
v -5 23 -10
v -5 23 -11
v -5 23 -12
v -5 24 -10
v -5 24 -11
v -5 24 -12
v -4 19 -11
v -4 19 -12
v -4 20 -8
v -4 20 -9
v -4 20 -11
v -4 20 -12
v -4 21 -8
v -4 21 -9
v -4 22 -9
v -4 22 -10
v -4 23 -9
v -4 23 -10
v -4 24 -10
v -4 24 -11
v -4 24 -12
v -4 25 -10
v -4 25 -11
v -4 25 -12
v -3 18 -11
v -3 18 -12
v -3 19 -11
v -3 19 -12
v -3 21 -8
v -3 21 -9
v -3 22 -8
v -3 22 -9
v -3 23 -9
v -3 23 -10
v -3 24 -9
v -3 24 -10
v -3 25 -10
v -3 25 -11
v -3 25 -12
v -3 26 -10
v -3 26 -11
v -3 26 -12
v -2 17 -10
v -2 17 -11
v -2 17 -12
v -2 18 -11
v -2 18 -12
v -2 20 -7
v -2 20 -8
v -2 20 -10
v -2 20 -11
v -2 21 -7
v -2 21 -8
v -2 22 -8
v -2 22 -9
v -2 23 -8
v -2 23 -9
v -2 24 -9
v -2 24 -10
v -2 25 -9
v -2 25 -10
v -2 26 -10
v -2 26 -11
v -2 26 -12
v -2 27 -10
v -2 27 -11
v -2 27 -12
v -1 18 -4
v -1 18 -5
v -1 18 -6
v -1 18 -10
v -1 19 -4
v -1 19 -5
v -1 20 -5
v -1 20 -6
v -1 20 -7
v -1 20 -8
v -1 20 -10
v -1 21 -6
v -1 21 -7
v -1 21 -8
v -1 22 -7
v -1 22 -8
v -1 23 -8
v -1 23 -9
v -1 24 -8
v -1 24 -9
v -1 25 -9
v -1 25 -10
v -1 26 -9
v -1 26 -10
v -1 27 -10
v -1 27 -11
v -1 27 -12
v -1 28 -10
v -1 28 -11
v -1 28 -12
v 0 26 -9
v 0 26 -10
v 0 28 -10
v 0 28 -11
v 0 36 -9
v 0 36 -11
v 0 38 -9
v 0 38 -11
v 1 16 -10
v 1 16 -11
v 1 16 -12
v 1 17 -11
v 1 17 -12
v 1 18 -10
v 1 18 -11
v 6 19 -11
v 6 19 -12
v 6 20 -11
v 6 20 -12
v -1 17 -10
v -1 17 -11
v -1 18 -10
v -1 18 -11
v 1 18 -4
v 1 18 -5
v 1 18 -6
v 1 18 -10
v 1 19 -4
v 1 19 -5
v 1 20 -5
v 1 20 -6
v 1 20 -7
v 1 20 -8
v 1 20 -10
v 1 21 -6
v 1 21 -7
v 1 21 -8
v 1 22 -7
v 1 22 -8
v 1 23 -8
v 1 23 -9
v 1 24 -8
v 1 24 -9
v 1 25 -9
v 1 25 -10
v 1 26 -9
v 1 26 -10
v 1 27 -10
v 1 27 -11
v 1 27 -12
v 1 28 -10
v 1 28 -11
v 1 28 -12
v 1 36 -9
v 1 36 -11
v 1 38 -9
v 1 38 -11
v 2 16 -10
v 2 16 -11
v 2 17 -10
v 2 17 -11
v 2 20 -7
v 2 20 -8
v 2 21 -7
v 2 21 -8
v 2 22 -8
v 2 22 -9
v 2 23 -8
v 2 23 -9
v 2 24 -9
v 2 24 -10
v 2 25 -9
v 2 25 -10
v 2 26 -10
v 2 26 -11
v 2 26 -12
v 2 27 -10
v 2 27 -11
v 2 27 -12
v 3 17 -10
v 3 17 -11
v 3 20 -10
v 3 20 -11
v 3 21 -8
v 3 21 -9
v 3 22 -8
v 3 22 -9
v 3 23 -9
v 3 23 -10
v 3 24 -9
v 3 24 -10
v 3 25 -10
v 3 25 -11
v 3 25 -12
v 3 26 -10
v 3 26 -11
v 3 26 -12
v 4 16 -11
v 4 16 -12
v 4 20 -8
v 4 20 -9
v 4 20 -11
v 4 20 -12
v 4 21 -8
v 4 21 -9
v 4 22 -9
v 4 22 -10
v 4 23 -9
v 4 23 -10
v 4 24 -10
v 4 24 -11
v 4 24 -12
v 4 25 -10
v 4 25 -11
v 4 25 -12
v 5 21 -9
v 5 21 -10
v 5 22 -9
v 5 22 -10
v 5 23 -10
v 5 23 -11
v 5 23 -12
v 5 24 -10
v 5 24 -11
v 5 24 -12
v 6 20 -9
v 6 20 -10
v 6 21 -9
v 6 21 -10
v 6 22 -10
v 6 22 -11
v 6 22 -12
v 6 23 -10
v 6 23 -11
v 6 23 -12
v 7 21 -10
v 7 21 -11
v 7 21 -12
v 7 22 -10
v 7 22 -11
v 7 22 -12
v 8 19 -11
v 8 19 -12
v 8 20 -10
v 8 20 -11
v 8 21 -10
v 8 21 -11
v 8 21 -12
v -1 18 -4
v -1 19 -4
v 1 18 -4
v 1 19 -4
v -1 19 -5
v -1 20 -5
v 1 19 -5
v 1 20 -5
v -1 20 -6
v -1 21 -6
v 1 20 -6
v 1 21 -6
v -2 20 -7
v -2 21 -7
v -1 20 -7
v -1 21 -7
v -1 22 -7
v 1 20 -7
v 1 21 -7
v 1 22 -7
v 2 20 -7
v 2 21 -7
v -4 20 -8
v -4 21 -8
v -3 21 -8
v -3 22 -8
v -2 20 -8
v -2 21 -8
v -2 22 -8
v -2 23 -8
v -1 21 -8
v -1 22 -8
v -1 23 -8
v -1 24 -8
v 1 21 -8
v 1 22 -8
v 1 23 -8
v 1 24 -8
v 2 20 -8
v 2 21 -8
v 2 22 -8
v 2 23 -8
v 3 21 -8
v 3 22 -8
v 4 20 -8
v 4 21 -8
v -6 20 -9
v -6 21 -9
v -5 21 -9
v -5 22 -9
v -4 20 -9
v -4 21 -9
v -4 22 -9
v -4 23 -9
v -3 21 -9
v -3 22 -9
v -3 23 -9
v -3 24 -9
v -2 22 -9
v -2 23 -9
v -2 24 -9
v -2 25 -9
v -1 23 -9
v -1 24 -9
v -1 25 -9
v -1 26 -9
v 0 26 -9
v 0 36 -9
v 0 38 -9
v 1 23 -9
v 1 24 -9
v 1 25 -9
v 1 26 -9
v 1 36 -9
v 1 38 -9
v 2 22 -9
v 2 23 -9
v 2 24 -9
v 2 25 -9
v 3 21 -9
v 3 22 -9
v 3 23 -9
v 3 24 -9
v 4 20 -9
v 4 21 -9
v 4 22 -9
v 4 23 -9
v 5 21 -9
v 5 22 -9
v 6 20 -9
v 6 21 -9
v -8 20 -10
v -8 21 -10
v -7 21 -10
v -7 22 -10
v -6 20 -10
v -6 21 -10
v -6 22 -10
v -6 23 -10
v -5 21 -10
v -5 22 -10
v -5 23 -10
v -5 24 -10
v -4 22 -10
v -4 23 -10
v -4 24 -10
v -4 25 -10
v -3 23 -10
v -3 24 -10
v -3 25 -10
v -3 26 -10
v -2 17 -10
v -2 20 -10
v -2 24 -10
v -2 25 -10
v -2 26 -10
v -2 27 -10
v -1 17 -10
v -1 18 -10
v -1 20 -10
v -1 25 -10
v -1 26 -10
v -1 27 -10
v -1 28 -10
v 0 26 -10
v 0 28 -10
v 1 16 -10
v 1 18 -10
v 1 20 -10
v 1 25 -10
v 1 26 -10
v 1 27 -10
v 2 16 -10
v 2 17 -10
v 2 24 -10
v 2 25 -10
v 2 26 -10
v 2 27 -10
v 3 17 -10
v 3 20 -10
v 3 23 -10
v 3 24 -10
v 3 25 -10
v 3 26 -10
v 4 22 -10
v 4 23 -10
v 4 24 -10
v 4 25 -10
v 5 21 -10
v 5 22 -10
v 5 23 -10
v 5 24 -10
v 6 20 -10
v 6 21 -10
v 6 22 -10
v 6 23 -10
v 7 21 -10
v 7 22 -10
v 8 20 -10
v 8 21 -10
v -4 19 -11
v -4 20 -11
v -3 18 -11
v -3 19 -11
v -2 18 -11
v -2 20 -11
v -1 17 -11
v -1 18 -11
v 1 17 -11
v 1 18 -11
v 2 16 -11
v 2 17 -11
v 3 17 -11
v 3 20 -11
v 4 16 -11
v 4 20 -11
v 6 19 -11
v 6 20 -11
v 8 19 -11
v 8 20 -11
v 0 28 -11
v 0 36 -11
v 0 38 -11
v 1 28 -11
v 1 36 -11
v 1 38 -11
v -8 20 -12
v -8 21 -12
v -7 21 -12
v -7 22 -12
v -6 22 -12
v -6 23 -12
v -5 23 -12
v -5 24 -12
v -4 19 -12
v -4 20 -12
v -4 24 -12
v -4 25 -12
v -3 18 -12
v -3 19 -12
v -3 25 -12
v -3 26 -12
v -2 17 -12
v -2 18 -12
v -2 26 -12
v -2 27 -12
v -1 27 -12
v -1 28 -12
v 1 16 -12
v 1 17 -12
v 1 27 -12
v 1 28 -12
v 2 26 -12
v 2 27 -12
v 3 25 -12
v 3 26 -12
v 4 16 -12
v 4 20 -12
v 4 24 -12
v 4 25 -12
v 5 23 -12
v 5 24 -12
v 6 19 -12
v 6 20 -12
v 6 22 -12
v 6 23 -12
v 7 21 -12
v 7 22 -12
v 8 19 -12
v 8 21 -12
v 1 16 -10
v 2 16 -10
v 1 16 -11
v 2 16 -11
v 4 16 -11
v 1 16 -12
v 4 16 -12
v -2 17 -10
v -1 17 -10
v 2 17 -10
v 3 17 -10
v -2 17 -11
v -1 17 -11
v 1 17 -11
v 2 17 -11
v 3 17 -11
v -2 17 -12
v 1 17 -12
v -1 18 -4
v 1 18 -4
v -1 18 -5
v 1 18 -5
v -1 18 -6
v 1 18 -6
v -1 18 -10
v 1 18 -10
v -3 18 -11
v -2 18 -11
v -1 18 -11
v 1 18 -11
v -3 18 -12
v -2 18 -12
v -4 19 -11
v -3 19 -11
v 6 19 -11
v 8 19 -11
v -4 19 -12
v -3 19 -12
v 6 19 -12
v 8 19 -12
v -2 20 -7
v -1 20 -7
v 1 20 -7
v 2 20 -7
v -4 20 -8
v -2 20 -8
v -1 20 -8
v 1 20 -8
v 2 20 -8
v 4 20 -8
v -6 20 -9
v -4 20 -9
v 4 20 -9
v 6 20 -9
v -8 20 -10
v -6 20 -10
v -4 20 -10
v -2 20 -10
v -1 20 -10
v 1 20 -10
v 3 20 -10
v 4 20 -10
v 6 20 -10
v 8 20 -10
v -8 20 -11
v -4 20 -11
v -2 20 -11
v 3 20 -11
v 4 20 -11
v 6 20 -11
v 8 20 -11
v -8 20 -12
v -4 20 -12
v 4 20 -12
v 6 20 -12
v -1 19 -4
v 1 19 -4
v -1 19 -5
v 1 19 -5
v -1 20 -5
v 1 20 -5
v -1 20 -6
v 1 20 -6
v -1 21 -6
v 1 21 -6
v -2 21 -7
v -1 21 -7
v 1 21 -7
v 2 21 -7
v -4 21 -8
v -3 21 -8
v -2 21 -8
v -1 21 -8
v 1 21 -8
v 2 21 -8
v 3 21 -8
v 4 21 -8
v -6 21 -9
v -5 21 -9
v -4 21 -9
v -3 21 -9
v 3 21 -9
v 4 21 -9
v 5 21 -9
v 6 21 -9
v -8 21 -10
v -7 21 -10
v -6 21 -10
v -5 21 -10
v 5 21 -10
v 6 21 -10
v 7 21 -10
v 8 21 -10
v -8 21 -11
v -7 21 -11
v 7 21 -11
v 8 21 -11
v -8 21 -12
v -7 21 -12
v 7 21 -12
v 8 21 -12
v -1 22 -7
v 1 22 -7
v -3 22 -8
v -2 22 -8
v -1 22 -8
v 1 22 -8
v 2 22 -8
v 3 22 -8
v -5 22 -9
v -4 22 -9
v -3 22 -9
v -2 22 -9
v 2 22 -9
v 3 22 -9
v 4 22 -9
v 5 22 -9
v -7 22 -10
v -6 22 -10
v -5 22 -10
v -4 22 -10
v 4 22 -10
v 5 22 -10
v 6 22 -10
v 7 22 -10
v -7 22 -11
v -6 22 -11
v 6 22 -11
v 7 22 -11
v -7 22 -12
v -6 22 -12
v 6 22 -12
v 7 22 -12
v -2 23 -8
v -1 23 -8
v 1 23 -8
v 2 23 -8
v -4 23 -9
v -3 23 -9
v -2 23 -9
v -1 23 -9
v 1 23 -9
v 2 23 -9
v 3 23 -9
v 4 23 -9
v -6 23 -10
v -5 23 -10
v -4 23 -10
v -3 23 -10
v 3 23 -10
v 4 23 -10
v 5 23 -10
v 6 23 -10
v -6 23 -11
v -5 23 -11
v 5 23 -11
v 6 23 -11
v -6 23 -12
v -5 23 -12
v 5 23 -12
v 6 23 -12
v -1 24 -8
v 1 24 -8
v -3 24 -9
v -2 24 -9
v -1 24 -9
v 1 24 -9
v 2 24 -9
v 3 24 -9
v -5 24 -10
v -4 24 -10
v -3 24 -10
v -2 24 -10
v 2 24 -10
v 3 24 -10
v 4 24 -10
v 5 24 -10
v -5 24 -11
v -4 24 -11
v 4 24 -11
v 5 24 -11
v -5 24 -12
v -4 24 -12
v 4 24 -12
v 5 24 -12
v -2 25 -9
v -1 25 -9
v 1 25 -9
v 2 25 -9
v -4 25 -10
v -3 25 -10
v -2 25 -10
v -1 25 -10
v 1 25 -10
v 2 25 -10
v 3 25 -10
v 4 25 -10
v -4 25 -11
v -3 25 -11
v 3 25 -11
v 4 25 -11
v -4 25 -12
v -3 25 -12
v 3 25 -12
v 4 25 -12
v -1 26 -9
v 0 26 -9
v -3 26 -10
v -2 26 -10
v -1 26 -10
v 0 26 -10
v 2 26 -10
v 3 26 -10
v -3 26 -11
v -2 26 -11
v 2 26 -11
v 3 26 -11
v -3 26 -12
v -2 26 -12
v 2 26 -12
v 3 26 -12
v -2 27 -10
v -1 27 -10
v 1 27 -10
v 2 27 -10
v -2 27 -11
v -1 27 -11
v 1 27 -11
v 2 27 -11
v -2 27 -12
v -1 27 -12
v 1 27 -12
v 2 27 -12
v -1 28 -10
v 0 28 -10
v -1 28 -11
v 0 28 -11
v 1 28 -11
v -1 28 -12
v 1 28 -12
v 0 38 -9
v 1 38 -9
v 0 38 -11
v 1 38 -11

# faces
f 4/2/1 2/2/1 1/2/1
f 5/1/1 3/1/1 2/1/1
f 5/2/1 2/2/1 4/2/1
f 6/1/1 3/1/1 5/1/1
f 10/2/1 8/2/1 7/2/1
f 11/1/1 9/1/1 8/1/1
f 11/2/1 8/2/1 10/2/1
f 12/1/1 9/1/1 11/1/1
f 15/1/1 14/1/1 13/1/1
f 16/1/1 14/1/1 15/1/1
f 20/2/1 18/2/1 17/2/1
f 21/1/1 19/1/1 18/1/1
f 21/2/1 18/2/1 20/2/1
f 22/1/1 19/1/1 21/1/1
f 25/1/1 24/1/1 23/1/1
f 26/1/1 24/1/1 25/1/1
f 30/2/1 28/2/1 27/2/1
f 31/1/1 29/1/1 28/1/1
f 31/2/1 28/2/1 30/2/1
f 32/1/1 29/1/1 31/1/1
f 37/1/1 34/1/1 33/1/1
f 38/1/1 34/1/1 37/1/1
f 39/2/1 36/2/1 35/2/1
f 40/2/1 36/2/1 39/2/1
f 43/1/1 42/1/1 41/1/1
f 44/1/1 42/1/1 43/1/1
f 48/2/1 46/2/1 45/2/1
f 49/1/1 47/1/1 46/1/1
f 49/2/1 46/2/1 48/2/1
f 50/1/1 47/1/1 49/1/1
f 53/1/1 52/1/1 51/1/1
f 54/1/1 52/1/1 53/1/1
f 57/2/1 56/2/1 55/2/1
f 58/2/1 56/2/1 57/2/1
f 61/1/1 60/1/1 59/1/1
f 62/1/1 60/1/1 61/1/1
f 66/2/1 64/2/1 63/2/1
f 67/1/1 65/1/1 64/1/1
f 67/2/1 64/2/1 66/2/1
f 68/1/1 65/1/1 67/1/1
f 72/2/1 70/2/1 69/2/1
f 72/1/1 71/1/1 70/1/1
f 73/1/1 71/1/1 72/1/1
f 76/2/1 72/2/1 69/2/1
f 77/2/1 72/2/1 76/2/1
f 78/1/1 75/1/1 74/1/1
f 79/1/1 75/1/1 78/1/1
f 82/2/1 81/2/1 80/2/1
f 83/2/1 81/2/1 82/2/1
f 86/1/1 85/1/1 84/1/1
f 87/1/1 85/1/1 86/1/1
f 91/2/1 89/2/1 88/2/1
f 92/1/1 90/1/1 89/1/1
f 92/2/1 89/2/1 91/2/1
f 93/1/1 90/1/1 92/1/1
f 98/2/1 95/2/1 94/2/1
f 99/1/1 96/1/1 95/1/1
f 99/2/1 95/2/1 98/2/1
f 100/1/1 96/1/1 99/1/1
f 101/2/1 97/2/1 96/2/1
f 101/1/1 96/1/1 100/1/1
f 102/2/1 97/2/1 101/2/1
f 103/2/1 97/2/1 102/2/1
f 104/2/1 97/2/1 103/2/1
f 105/2/1 102/2/1 101/2/1
f 106/2/1 102/2/1 105/2/1
f 108/1/1 107/1/1 106/1/1
f 109/1/1 107/1/1 108/1/1
f 112/2/1 111/2/1 110/2/1
f 113/2/1 111/2/1 112/2/1
f 116/1/1 115/1/1 114/1/1
f 117/1/1 115/1/1 116/1/1
f 121/2/1 119/2/1 118/2/1
f 122/1/1 120/1/1 119/1/1
f 122/2/1 119/2/1 121/2/1
f 123/1/1 120/1/1 122/1/1
f 126/4/1 125/4/1 124/4/1
f 128/4/1 126/4/1 124/4/1
f 128/4/1 127/4/1 126/4/1
f 129/4/1 127/4/1 128/4/1
f 130/3/1 129/3/1 128/3/1
f 131/3/1 129/3/1 130/3/1
f 135/2/1 133/2/1 132/2/1
f 135/1/1 134/1/1 133/1/1
f 136/1/1 134/1/1 135/1/1
f 137/2/1 135/2/1 132/2/1
f 138/2/1 135/2/1 137/2/1
f 141/1/1 140/1/1 139/1/1
f 142/1/1 140/1/1 141/1/1
f 143/2/2 144/2/2 145/2/2
f 145/2/2 144/2/2 146/2/2
f 147/2/2 148/2/2 151/2/2
f 148/1/2 149/1/2 152/1/2
f 151/2/2 148/2/2 152/2/2
f 152/1/2 149/1/2 153/1/2
f 149/2/2 150/2/2 154/2/2
f 153/1/2 149/1/2 154/1/2
f 154/2/2 150/2/2 155/2/2
f 155/2/2 150/2/2 156/2/2
f 156/2/2 150/2/2 157/2/2
f 154/2/2 155/2/2 158/2/2
f 158/2/2 155/2/2 159/2/2
f 159/1/2 160/1/2 161/1/2
f 161/1/2 160/1/2 162/1/2
f 163/2/2 164/2/2 165/2/2
f 165/2/2 164/2/2 166/2/2
f 167/1/2 168/1/2 169/1/2
f 169/1/2 168/1/2 170/1/2
f 169/4/2 170/4/2 171/4/2
f 169/4/2 171/4/2 174/4/2
f 171/2/2 172/2/2 174/2/2
f 172/1/2 173/1/2 175/1/2
f 174/2/2 172/2/2 175/2/2
f 175/1/2 173/1/2 176/1/2
f 169/4/2 174/4/2 177/4/2
f 174/4/2 175/4/2 177/4/2
f 177/4/2 175/4/2 178/4/2
f 177/3/2 178/3/2 179/3/2
f 179/3/2 178/3/2 180/3/2
f 181/2/2 182/2/2 183/2/2
f 183/2/2 182/2/2 184/2/2
f 185/1/2 186/1/2 187/1/2
f 187/1/2 186/1/2 188/1/2
f 189/2/2 190/2/2 191/2/2
f 191/2/2 190/2/2 192/2/2
f 193/1/2 194/1/2 195/1/2
f 195/1/2 194/1/2 196/1/2
f 197/2/2 198/2/2 200/2/2
f 198/1/2 199/1/2 201/1/2
f 200/2/2 198/2/2 201/2/2
f 201/1/2 199/1/2 202/1/2
f 203/2/2 204/2/2 205/2/2
f 205/2/2 204/2/2 206/2/2
f 207/2/2 208/2/2 209/2/2
f 209/2/2 208/2/2 210/2/2
f 211/1/2 212/1/2 213/1/2
f 213/1/2 212/1/2 214/1/2
f 215/2/2 216/2/2 218/2/2
f 216/1/2 217/1/2 219/1/2
f 218/2/2 216/2/2 219/2/2
f 219/1/2 217/1/2 220/1/2
f 221/1/2 222/1/2 225/1/2
f 225/1/2 222/1/2 226/1/2
f 223/2/2 224/2/2 227/2/2
f 227/2/2 224/2/2 228/2/2
f 229/1/2 230/1/2 231/1/2
f 231/1/2 230/1/2 232/1/2
f 233/2/2 234/2/2 236/2/2
f 234/1/2 235/1/2 237/1/2
f 236/2/2 234/2/2 237/2/2
f 237/1/2 235/1/2 238/1/2
f 239/1/2 240/1/2 241/1/2
f 241/1/2 240/1/2 242/1/2
f 243/2/2 244/2/2 246/2/2
f 244/1/2 245/1/2 247/1/2
f 246/2/2 244/2/2 247/2/2
f 247/1/2 245/1/2 248/1/2
f 249/1/2 250/1/2 251/1/2
f 251/1/2 250/1/2 252/1/2
f 253/2/2 254/2/2 256/2/2
f 254/1/2 255/1/2 257/1/2
f 256/2/2 254/2/2 257/2/2
f 257/1/2 255/1/2 258/1/2
f 259/2/2 260/2/2 262/2/2
f 260/1/2 261/1/2 263/1/2
f 262/2/2 260/2/2 263/2/2
f 263/1/2 261/1/2 264/1/2
f 265/1/2 266/1/2 268/1/2
f 267/2/2 268/2/2 269/2/2
f 268/1/2 266/1/2 270/1/2
f 269/2/2 268/2/2 270/2/2
f 270/1/2 266/1/2 271/1/2
f 274/2/3 273/2/3 272/2/3
f 275/2/3 273/2/3 274/2/3
f 278/1/3 277/1/3 276/1/3
f 279/1/3 277/1/3 278/1/3
f 282/2/3 281/2/3 280/2/3
f 283/2/3 281/2/3 282/2/3
f 286/1/3 285/1/3 284/1/3
f 287/1/3 285/1/3 286/1/3
f 290/1/3 288/1/3 287/1/3
f 291/1/3 288/1/3 290/1/3
f 292/1/3 290/1/3 289/1/3
f 293/1/3 290/1/3 292/1/3
f 296/2/3 295/2/3 294/2/3
f 298/2/3 296/2/3 294/2/3
f 298/2/3 297/2/3 296/2/3
f 299/2/3 297/2/3 298/2/3
f 300/2/3 297/2/3 299/2/3
f 302/2/3 301/2/3 300/2/3
f 302/2/3 300/2/3 299/2/3
f 303/2/3 301/2/3 302/2/3
f 304/2/3 301/2/3 303/2/3
f 307/2/3 305/2/3 304/2/3
f 307/2/3 304/2/3 303/2/3
f 308/2/3 305/2/3 307/2/3
f 309/2/3 305/2/3 308/2/3
f 311/2/3 307/2/3 306/2/3
f 311/2/3 308/2/3 307/2/3
f 312/2/3 308/2/3 311/2/3
f 313/2/3 308/2/3 312/2/3
f 314/2/3 311/2/3 310/2/3
f 314/2/3 312/2/3 311/2/3
f 315/2/3 312/2/3 314/2/3
f 316/2/3 314/2/3 310/2/3
f 317/2/3 314/2/3 316/2/3
f 320/1/3 319/1/3 318/1/3
f 322/1/3 320/1/3 318/1/3
f 322/1/3 321/1/3 320/1/3
f 323/1/3 321/1/3 322/1/3
f 324/1/3 321/1/3 323/1/3
f 326/1/3 325/1/3 324/1/3
f 326/1/3 324/1/3 323/1/3
f 327/1/3 325/1/3 326/1/3
f 328/1/3 325/1/3 327/1/3
f 330/1/3 329/1/3 328/1/3
f 330/1/3 328/1/3 327/1/3
f 331/1/3 329/1/3 330/1/3
f 332/1/3 329/1/3 331/1/3
f 334/1/3 333/1/3 332/1/3
f 334/1/3 332/1/3 331/1/3
f 335/1/3 333/1/3 334/1/3
f 336/1/3 333/1/3 335/1/3
f 338/1/3 337/1/3 336/1/3
f 338/1/3 336/1/3 335/1/3
f 342/1/3 338/1/3 335/1/3
f 343/1/3 338/1/3 342/1/3
f 344/4/3 339/4/3 338/4/3
f 344/1/3 338/1/3 343/1/3
f 345/3/3 340/3/3 339/3/3
f 345/4/3 339/4/3 344/4/3
f 346/3/3 340/3/3 345/3/3
f 348/1/3 343/1/3 342/1/3
f 348/1/3 342/1/3 341/1/3
f 349/1/3 343/1/3 348/1/3
f 350/1/3 343/1/3 349/1/3
f 352/1/3 348/1/3 347/1/3
f 352/1/3 349/1/3 348/1/3
f 353/1/3 349/1/3 352/1/3
f 354/1/3 349/1/3 353/1/3
f 356/1/3 352/1/3 351/1/3
f 356/1/3 353/1/3 352/1/3
f 357/1/3 353/1/3 356/1/3
f 358/1/3 353/1/3 357/1/3
f 359/1/3 356/1/3 355/1/3
f 359/1/3 357/1/3 356/1/3
f 360/1/3 357/1/3 359/1/3
f 361/1/3 359/1/3 355/1/3
f 362/1/3 359/1/3 361/1/3
f 365/2/3 364/2/3 363/2/3
f 367/2/3 365/2/3 363/2/3
f 367/2/3 366/2/3 365/2/3
f 368/2/3 366/2/3 367/2/3
f 369/2/3 366/2/3 368/2/3
f 371/2/3 370/2/3 369/2/3
f 371/2/3 369/2/3 368/2/3
f 372/2/3 370/2/3 371/2/3
f 373/2/3 370/2/3 372/2/3
f 375/2/3 374/2/3 373/2/3
f 375/2/3 373/2/3 372/2/3
f 376/2/3 374/2/3 375/2/3
f 377/2/3 374/2/3 376/2/3
f 379/2/3 378/2/3 377/2/3
f 379/2/3 377/2/3 376/2/3
f 380/2/3 378/2/3 379/2/3
f 381/2/3 378/2/3 380/2/3
f 385/2/3 382/2/3 381/2/3
f 385/2/3 381/2/3 380/2/3
f 386/2/3 382/2/3 385/2/3
f 387/2/3 382/2/3 386/2/3
f 389/2/3 384/2/3 383/2/3
f 390/2/3 384/2/3 389/2/3
f 391/2/3 384/2/3 390/2/3
f 392/2/3 388/2/3 387/2/3
f 392/2/3 387/2/3 386/2/3
f 393/2/3 388/2/3 392/2/3
f 394/2/3 388/2/3 393/2/3
f 396/2/3 395/2/3 394/2/3
f 396/2/3 394/2/3 393/2/3
f 397/2/3 395/2/3 396/2/3
f 404/2/3 399/2/3 398/2/3
f 404/2/3 400/2/3 399/2/3
f 405/2/3 400/2/3 404/2/3
f 407/2/3 403/2/3 402/2/3
f 407/2/3 402/2/3 401/2/3
f 408/2/3 403/2/3 407/2/3
f 409/2/3 403/2/3 408/2/3
f 410/2/3 400/2/3 405/2/3
f 411/2/3 400/2/3 410/2/3
f 413/2/3 408/2/3 407/2/3
f 413/2/3 407/2/3 406/2/3
f 414/2/3 408/2/3 413/2/3
f 415/2/3 408/2/3 414/2/3
f 417/2/3 413/2/3 412/2/3
f 417/2/3 414/2/3 413/2/3
f 418/2/3 414/2/3 417/2/3
f 419/2/3 414/2/3 418/2/3
f 421/2/3 417/2/3 416/2/3
f 421/2/3 418/2/3 417/2/3
f 422/2/3 418/2/3 421/2/3
f 423/2/3 418/2/3 422/2/3
f 425/2/3 421/2/3 420/2/3
f 425/2/3 422/2/3 421/2/3
f 426/2/3 422/2/3 425/2/3
f 427/2/3 422/2/3 426/2/3
f 428/2/3 425/2/3 424/2/3
f 428/2/3 426/2/3 425/2/3
f 429/2/3 426/2/3 428/2/3
f 430/2/3 428/2/3 424/2/3
f 431/2/3 428/2/3 430/2/3
f 435/1/3 433/1/3 432/1/3
f 436/1/3 435/1/3 434/1/3
f 437/1/3 433/1/3 435/1/3
f 437/1/3 435/1/3 436/1/3
f 440/1/3 439/1/3 438/1/3
f 441/1/3 439/1/3 440/1/3
f 444/1/3 443/1/3 442/1/3
f 446/1/3 444/1/3 442/1/3
f 446/1/3 445/1/3 444/1/3
f 447/1/3 445/1/3 446/1/3
f 450/1/3 449/1/3 448/1/3
f 451/1/3 449/1/3 450/1/3
f 452/4/4 453/4/4 455/4/4
f 453/3/4 454/3/4 456/3/4
f 455/4/4 453/4/4 456/4/4
f 456/3/4 454/3/4 457/3/4
f 458/1/4 459/1/4 460/1/4
f 460/1/4 461/1/4 462/1/4
f 462/1/4 463/1/4 464/1/4
f 458/1/4 460/1/4 467/1/4
f 464/1/4 465/1/4 467/1/4
f 462/1/4 464/1/4 467/1/4
f 460/1/4 462/1/4 467/1/4
f 467/1/4 465/1/4 468/1/4
f 466/1/4 467/1/4 471/1/4
f 468/1/4 469/1/4 471/1/4
f 467/1/4 468/1/4 471/1/4
f 471/1/4 469/1/4 472/1/4
f 470/1/4 471/1/4 475/1/4
f 472/1/4 473/1/4 475/1/4
f 471/1/4 472/1/4 475/1/4
f 475/1/4 473/1/4 476/1/4
f 474/1/4 475/1/4 478/1/4
f 476/1/4 477/1/4 478/1/4
f 475/1/4 476/1/4 478/1/4
f 474/1/4 478/1/4 481/1/4
f 478/1/4 479/1/4 481/1/4
f 481/1/4 479/1/4 482/1/4
f 482/1/4 479/1/4 483/1/4
f 480/1/4 481/1/4 484/1/4
f 481/1/4 482/1/4 484/1/4
f 484/1/4 482/1/4 485/1/4
f 480/1/4 484/1/4 486/1/4
f 486/1/4 484/1/4 487/1/4
f 480/1/4 486/1/4 488/1/4
f 488/1/4 486/1/4 489/1/4
f 489/1/4 486/1/4 490/1/4
f 490/1/4 486/1/4 491/1/4
f 489/1/4 490/1/4 492/1/4
f 492/1/4 490/1/4 493/1/4
f 489/1/4 492/1/4 495/1/4
f 495/1/4 492/1/4 496/1/4
f 496/1/4 492/1/4 497/1/4
f 494/1/4 495/1/4 498/1/4
f 495/1/4 496/1/4 498/1/4
f 498/1/4 496/1/4 499/1/4
f 494/1/4 498/1/4 500/1/4
f 500/1/4 498/1/4 501/1/4
f 504/2/5 503/2/5 502/2/5
f 505/2/5 503/2/5 504/2/5
f 507/1/5 505/1/5 504/1/5
f 507/1/5 506/1/5 505/1/5
f 508/1/5 506/1/5 507/1/5
f 513/2/5 510/2/5 509/2/5
f 514/2/5 510/2/5 513/2/5
f 516/2/5 512/2/5 511/2/5
f 517/2/5 512/2/5 516/2/5
f 518/1/5 515/1/5 514/1/5
f 518/1/5 514/1/5 513/1/5
f 519/1/5 515/1/5 518/1/5
f 522/2/5 521/2/5 520/2/5
f 523/2/5 521/2/5 522/2/5
f 524/1/5 523/1/5 522/1/5
f 525/1/5 523/1/5 524/1/5
f 526/2/5 525/2/5 524/2/5
f 527/2/5 525/2/5 526/2/5
f 530/2/5 527/2/5 526/2/5
f 531/2/5 527/2/5 530/2/5
f 532/1/5 529/1/5 528/1/5
f 533/1/5 529/1/5 532/1/5
f 538/1/5 535/1/5 534/1/5
f 539/1/5 535/1/5 538/1/5
f 540/1/5 537/1/5 536/1/5
f 541/1/5 537/1/5 540/1/5
f 547/1/5 543/1/5 542/1/5
f 548/1/5 543/1/5 547/1/5
f 549/1/5 545/1/5 544/1/5
f 550/1/5 545/1/5 549/1/5
f 553/2/5 548/2/5 547/2/5
f 553/2/5 547/2/5 546/2/5
f 554/2/5 551/2/5 550/2/5
f 554/2/5 550/2/5 549/2/5
f 557/1/5 553/1/5 552/1/5
f 558/2/5 548/2/5 553/2/5
f 558/1/5 553/1/5 557/1/5
f 559/2/5 548/2/5 558/2/5
f 560/2/5 548/2/5 559/2/5
f 561/2/5 554/2/5 549/2/5
f 562/2/5 554/2/5 561/2/5
f 563/1/5 555/1/5 554/1/5
f 563/2/5 554/2/5 562/2/5
f 564/1/5 555/1/5 563/1/5
f 566/2/5 557/2/5 556/2/5
f 566/2/5 558/2/5 557/2/5
f 566/2/5 559/2/5 558/2/5
f 567/2/5 559/2/5 566/2/5
f 568/2/5 559/2/5 567/2/5
f 569/2/5 565/2/5 564/2/5
f 569/2/5 564/2/5 563/2/5
f 569/2/5 563/2/5 562/2/5
f 570/2/5 565/2/5 569/2/5
f 571/2/5 565/2/5 570/2/5
f 572/2/5 565/2/5 571/2/5
f 573/1/5 567/1/5 566/1/5
f 574/1/5 567/1/5 573/1/5
f 575/1/5 571/1/5 570/1/5
f 576/1/5 571/1/5 575/1/5
f 577/2/6 578/2/6 579/2/6
f 579/2/6 578/2/6 580/2/6
f 581/1/6 582/1/6 583/1/6
f 583/1/6 582/1/6 584/1/6
f 585/2/6 586/2/6 588/2/6
f 588/2/6 586/2/6 589/2/6
f 587/1/6 588/1/6 593/1/6
f 593/1/6 588/1/6 594/1/6
f 589/1/6 590/1/6 595/1/6
f 595/1/6 590/1/6 596/1/6
f 591/2/6 592/2/6 601/2/6
f 601/2/6 592/2/6 602/2/6
f 597/2/6 598/2/6 603/2/6
f 603/2/6 598/2/6 604/2/6
f 599/1/6 600/1/6 609/1/6
f 609/1/6 600/1/6 610/1/6
f 605/1/6 606/1/6 611/1/6
f 611/1/6 606/1/6 612/1/6
f 607/2/6 608/2/6 615/2/6
f 615/2/6 608/2/6 616/2/6
f 613/2/6 614/2/6 617/2/6
f 617/2/6 614/2/6 618/2/6
f 615/1/6 616/1/6 619/1/6
f 619/1/6 616/1/6 620/1/6
f 617/1/6 618/1/6 621/1/6
f 621/1/6 618/1/6 622/1/6
f 623/1/6 624/1/6 627/1/6
f 627/1/6 624/1/6 628/1/6
f 625/2/6 626/2/6 633/2/6
f 633/2/6 626/2/6 634/2/6
f 629/2/6 630/2/6 635/2/6
f 635/2/6 630/2/6 636/2/6
f 631/1/6 632/1/6 641/1/6
f 641/1/6 632/1/6 642/1/6
f 637/1/6 638/1/6 643/1/6
f 643/1/6 638/1/6 644/1/6
f 639/2/6 640/2/6 647/2/6
f 647/2/6 640/2/6 648/2/6
f 645/2/6 646/2/6 649/2/6
f 649/2/6 646/2/6 650/2/6
f 647/1/6 648/1/6 651/1/6
f 651/1/6 648/1/6 652/1/6
f 649/1/6 650/1/6 653/1/6
f 653/1/6 650/1/6 654/1/6
f 655/2/6 656/2/6 661/2/6
f 661/2/6 656/2/6 662/2/6
f 657/2/6 658/2/6 663/2/6
f 663/2/6 658/2/6 664/2/6
f 659/1/6 660/1/6 669/1/6
f 669/1/6 660/1/6 670/1/6
f 665/1/6 666/1/6 671/1/6
f 671/1/6 666/1/6 672/1/6
f 667/2/6 668/2/6 675/2/6
f 675/2/6 668/2/6 676/2/6
f 673/2/6 674/2/6 677/2/6
f 677/2/6 674/2/6 678/2/6
f 675/1/6 676/1/6 679/1/6
f 679/1/6 676/1/6 680/1/6
f 677/1/6 678/1/6 681/1/6
f 681/1/6 678/1/6 682/1/6
f 683/2/6 684/2/6 687/2/6
f 687/2/6 684/2/6 688/2/6
f 685/1/6 686/1/6 693/1/6
f 693/1/6 686/1/6 694/1/6
f 689/1/6 690/1/6 695/1/6
f 695/1/6 690/1/6 696/1/6
f 691/2/6 692/2/6 699/2/6
f 699/2/6 692/2/6 700/2/6
f 697/2/6 698/2/6 701/2/6
f 701/2/6 698/2/6 702/2/6
f 699/1/6 700/1/6 703/1/6
f 703/1/6 700/1/6 704/1/6
f 701/1/6 702/1/6 705/1/6
f 705/1/6 702/1/6 706/1/6
f 707/1/6 708/1/6 713/1/6
f 713/1/6 708/1/6 714/1/6
f 709/1/6 710/1/6 715/1/6
f 715/1/6 710/1/6 716/1/6
f 711/2/6 712/2/6 719/2/6
f 719/2/6 712/2/6 720/2/6
f 717/2/6 718/2/6 721/2/6
f 721/2/6 718/2/6 722/2/6
f 719/1/6 720/1/6 723/1/6
f 723/1/6 720/1/6 724/1/6
f 721/1/6 722/1/6 725/1/6
f 725/1/6 722/1/6 726/1/6
f 727/1/6 728/1/6 731/1/6
f 731/1/6 728/1/6 732/1/6
f 729/2/6 730/2/6 735/2/6
f 735/2/6 730/2/6 736/2/6
f 733/2/6 734/2/6 737/2/6
f 737/2/6 734/2/6 738/2/6
f 735/1/6 736/1/6 739/1/6
f 739/1/6 736/1/6 740/1/6
f 737/1/6 738/1/6 741/1/6
f 741/1/6 738/1/6 742/1/6
f 743/2/6 744/2/6 747/2/6
f 747/2/6 744/2/6 748/2/6
f 745/2/6 746/2/6 749/2/6
f 749/2/6 746/2/6 750/2/6
f 747/1/6 748/1/6 751/1/6
f 751/1/6 748/1/6 752/1/6
f 749/1/6 750/1/6 753/1/6
f 753/1/6 750/1/6 754/1/6
f 755/2/6 756/2/6 757/2/6
f 757/2/6 756/2/6 758/2/6
f 757/1/6 758/1/6 760/1/6
f 758/1/6 759/1/6 760/1/6
f 760/1/6 759/1/6 761/1/6
f 762/3/6 763/3/6 764/3/6
f 764/3/6 763/3/6 765/3/6
